<svg xmlns="http://www.w3.org/2000/svg" width="550" height="550"><svg xmlns="http://www.w3.org/2000/svg" width="550" height="550" viewBox="0 0 1100 1100"><path fill="#10dde2" d="M551.751 956.512a3.763 3.763 0 1 1 0-7.526c9.81 0 19.72-.36 29.476-1.103a3.757 3.757 0 1 1 .549 7.495 403.879 403.879 0 0 1-30.025 1.134Zm-29.753-1.086a1.774 1.774 0 0 1-.278-.015 400.832 400.832 0 0 1-29.87-3.31 3.754 3.754 0 0 1 1.112-7.425 395.94 395.94 0 0 0 29.314 3.242 3.76 3.76 0 0 1-.278 7.508Zm89.08-3.337a3.762 3.762 0 0 1-.553-7.48 384.092 384.092 0 0 0 28.978-5.463 3.762 3.762 0 0 1 1.676 7.334 398.734 398.734 0 0 1-29.541 5.555 2.958 2.958 0 0 1-.56.054Zm-147.92-5.428a4.495 4.495 0 0 1-.839-.081 411.607 411.607 0 0 1-29.043-7.746 3.757 3.757 0 1 1 2.21-7.181 409.99 409.99 0 0 0 28.49 7.593 3.753 3.753 0 0 1-.819 7.415Zm205.937-7.803a3.75 3.75 0 0 1-1.12-7.335 393.425 393.425 0 0 0 27.846-9.755 3.758 3.758 0 1 1 2.738 6.998 403.036 403.036 0 0 1-28.352 9.939 3.743 3.743 0 0 1-1.112.153Zm-262.858-9.683a3.517 3.517 0 0 1-1.37-.268 404.604 404.604 0 0 1-27.569-12.027 3.752 3.752 0 1 1 3.256-6.76c8.84 4.25 17.94 8.21 27.062 11.792a3.761 3.761 0 0 1-1.379 7.263Zm318.214-12.065a3.76 3.76 0 0 1-1.633-7.145 392.043 392.043 0 0 0 26.042-13.8 3.756 3.756 0 0 1 3.754 6.508 403.726 403.726 0 0 1-26.525 14.053 3.703 3.703 0 0 1-1.638.384Zm-371.874-13.772a3.6 3.6 0 0 1-1.858-.525c-8.648-4.967-17.206-10.374-25.471-15.998a3.758 3.758 0 1 1 4.245-6.202 388.479 388.479 0 0 0 24.98 15.7 3.769 3.769 0 0 1-1.896 7.025Zm423.341-16.017a3.758 3.758 0 0 1-2.116-6.865 393.432 393.432 0 0 0 23.702-17.53 3.767 3.767 0 0 1 4.708 5.882 415.22 415.22 0 0 1-24.177 17.849 3.678 3.678 0 0 1-2.117.664Zm-472.514-17.546a3.71 3.71 0 0 1-2.337-.818c-7.794-6.23-15.472-12.81-22.786-19.595a3.765 3.765 0 0 1 5.113-5.528 389.987 389.987 0 0 0 22.354 19.237 3.758 3.758 0 0 1-2.344 6.704ZM822.41 850.18a3.74 3.74 0 0 1-2.553-6.492 407.233 407.233 0 0 0 20.855-20.863 3.756 3.756 0 0 1 5.508 5.11 407.9 407.9 0 0 1-21.25 21.258 3.785 3.785 0 0 1-2.56.987Zm-562.646-20.877a3.781 3.781 0 0 1-2.75-1.187 400.77 400.77 0 0 1-19.62-22.77 3.753 3.753 0 0 1 5.871-4.679 404.2 404.2 0 0 0 19.249 22.331 3.749 3.749 0 0 1-.193 5.322 3.804 3.804 0 0 1-2.557.983Zm603.137-22.75a3.725 3.725 0 0 1-2.928-6.08 404.801 404.801 0 0 0 17.526-23.74 3.756 3.756 0 0 1 6.2 4.243 396.468 396.468 0 0 1-17.871 24.183 3.68 3.68 0 0 1-2.927 1.394Zm-640.29-23.7a3.77 3.77 0 0 1-3.098-1.647 409.296 409.296 0 0 1-16.024-25.411 3.76 3.76 0 0 1 6.508-3.768 385.46 385.46 0 0 0 15.73 24.93 3.802 3.802 0 0 1-.98 5.241 3.86 3.86 0 0 1-2.137.655Zm673.863-25.447a3.658 3.658 0 0 1-1.88-.505 3.763 3.763 0 0 1-1.372-5.14 389.096 389.096 0 0 0 13.807-26.074 3.756 3.756 0 1 1 6.767 3.264 403.422 403.422 0 0 1-14.066 26.583 3.777 3.777 0 0 1-3.256 1.872Zm-703.672-26.02a3.754 3.754 0 0 1-3.39-2.114 404 404 0 0 1-12.043-27.505 3.76 3.76 0 1 1 6.99-2.767 393.674 393.674 0 0 0 11.815 26.989 3.79 3.79 0 0 1-1.742 5.036 3.854 3.854 0 0 1-1.63.361Zm729.545-27.616a3.416 3.416 0 0 1-1.368-.263 3.745 3.745 0 0 1-2.124-4.864 399.284 399.284 0 0 0 9.74-27.87 3.76 3.76 0 0 1 7.184 2.22 396.489 396.489 0 0 1-9.941 28.39 3.739 3.739 0 0 1-3.491 2.387Zm-751.35-27.72a3.748 3.748 0 0 1-3.577-2.66 403.549 403.549 0 0 1-7.797-29.012 3.758 3.758 0 1 1 7.326-1.677c2.194 9.548 4.75 19.133 7.64 28.468a3.763 3.763 0 0 1-2.472 4.714 3.968 3.968 0 0 1-1.12.166Zm768.888-29.176a3.95 3.95 0 0 1-.846-.094 3.773 3.773 0 0 1-2.839-4.503 399.977 399.977 0 0 0 5.454-28.978 3.765 3.765 0 0 1 7.446 1.116 405.524 405.524 0 0 1-5.573 29.534 3.732 3.732 0 0 1-3.642 2.925Zm-782.12-28.832a3.759 3.759 0 0 1-3.723-3.202 408.119 408.119 0 0 1-3.36-29.854 3.76 3.76 0 1 1 7.5-.56 393.458 393.458 0 0 0 3.29 29.304 3.768 3.768 0 0 1-3.707 4.312Zm790.91-30.019a2.683 2.683 0 0 1-.282-.01 3.737 3.737 0 0 1-3.468-4.016 409.192 409.192 0 0 0 1.081-29.464v-.858a3.754 3.754 0 1 1 7.508 0v.858c0 9.983-.363 20.087-1.1 30.012a3.752 3.752 0 0 1-3.739 3.478ZM153.31 558.718a3.767 3.767 0 0 1-3.758-3.766v-.42c0-9.87.356-19.82 1.074-29.608a3.758 3.758 0 0 1 7.496.545 399.52 399.52 0 0 0-1.062 29.063v.42a3.759 3.759 0 0 1-3.75 3.766Zm795.301-31.036a3.773 3.773 0 0 1-3.757-3.474c-.754-9.773-1.854-19.637-3.33-29.304a3.76 3.76 0 1 1 7.435-1.126 400.38 400.38 0 0 1 3.39 29.858 3.757 3.757 0 0 1-3.464 4.03 1.68 1.68 0 0 1-.274.016Zm-790.967-28.327a4.131 4.131 0 0 1-.557-.025 3.78 3.78 0 0 1-3.182-4.272 412.69 412.69 0 0 1 5.53-29.547 3.757 3.757 0 0 1 7.33 1.653 398.275 398.275 0 0 0-5.41 28.987 3.76 3.76 0 0 1-3.711 3.204Zm782.026-30.5a3.765 3.765 0 0 1-3.653-2.927 394.908 394.908 0 0 0-7.667-28.46 3.757 3.757 0 1 1 7.176-2.227 402.452 402.452 0 0 1 7.817 29.013 3.784 3.784 0 0 1-2.827 4.515 4.263 4.263 0 0 1-.846.087Zm-768.922-27.521a3.52 3.52 0 0 1-1.105-.174 3.738 3.738 0 0 1-2.475-4.685 396.456 396.456 0 0 1 9.898-28.42 3.76 3.76 0 1 1 7.002 2.743 392.575 392.575 0 0 0-9.72 27.88 3.777 3.777 0 0 1-3.6 2.656Zm751.307-29.304a3.765 3.765 0 0 1-3.503-2.38 394.432 394.432 0 0 0-11.849-26.986 3.756 3.756 0 0 1 6.767-3.263 400.581 400.581 0 0 1 12.072 27.489 3.752 3.752 0 0 1-3.487 5.14Zm-729.59-26.162a3.682 3.682 0 0 1-1.63-.375 3.762 3.762 0 0 1-1.762-5.017 413.386 413.386 0 0 1 14.055-26.596 3.759 3.759 0 0 1 6.507 3.763 385.778 385.778 0 0 0-13.787 26.097 3.746 3.746 0 0 1-3.384 2.128Zm703.66-27.344a3.733 3.733 0 0 1-3.252-1.866 404.789 404.789 0 0 0-15.758-24.918 3.755 3.755 0 1 1 6.187-4.257 397.556 397.556 0 0 1 16.051 25.398 3.725 3.725 0 0 1-1.363 5.129 3.603 3.603 0 0 1-1.865.514ZM222.218 334.29a3.664 3.664 0 0 1-2.102-.651 3.754 3.754 0 0 1-1.004-5.222 415.388 415.388 0 0 1 17.843-24.21 3.764 3.764 0 0 1 5.886 4.693 404.563 404.563 0 0 0-17.519 23.752 3.74 3.74 0 0 1-3.104 1.638Zm640.266-24.822a3.738 3.738 0 0 1-2.935-1.414 404.069 404.069 0 0 0-19.284-22.315 3.753 3.753 0 1 1 5.488-5.12 408.596 408.596 0 0 1 19.651 22.733 3.764 3.764 0 0 1-2.92 6.116ZM259.317 287.73a3.75 3.75 0 0 1-2.765-6.307 409.92 409.92 0 0 1 21.234-21.275 3.754 3.754 0 0 1 5.117 5.494 409.067 409.067 0 0 0-20.832 20.89 3.73 3.73 0 0 1-2.754 1.198Zm562.603-21.808a3.677 3.677 0 0 1-2.549-1.014 397.705 397.705 0 0 0-22.389-19.205 3.761 3.761 0 0 1 4.69-5.882 407.158 407.158 0 0 1 22.801 19.58 3.761 3.761 0 0 1-2.553 6.52Zm-519.03-18.726a3.754 3.754 0 0 1-2.36-6.687 402.33 402.33 0 0 1 24.142-17.88 3.755 3.755 0 1 1 4.245 6.195 392.225 392.225 0 0 0-23.679 17.563 3.827 3.827 0 0 1-2.348.81Zm472.464-18.34a3.78 3.78 0 0 1-2.12-.66 405.266 405.266 0 0 0-25-15.687 3.754 3.754 0 1 1 3.766-6.495 407.162 407.162 0 0 1 25.455 15.972 3.759 3.759 0 0 1 .989 5.216 3.705 3.705 0 0 1-3.09 1.653Zm-423.392-15.262a3.762 3.762 0 0 1-1.884-7.014 405.253 405.253 0 0 1 26.517-14.095 3.762 3.762 0 0 1 3.272 6.776 399.497 399.497 0 0 0-26.028 13.823 3.782 3.782 0 0 1-1.877.51Zm371.806-14.472a3.947 3.947 0 0 1-1.646-.363 388.363 388.363 0 0 0-27.05-11.775 3.755 3.755 0 0 1 2.723-6.999 403.7 403.7 0 0 1 27.599 11.988 3.763 3.763 0 0 1-1.626 7.15Zm-318.284-11.422a3.77 3.77 0 0 1-1.383-7.274 404.402 404.402 0 0 1 28.36-9.959 3.758 3.758 0 1 1 2.213 7.184 399.656 399.656 0 0 0-27.815 9.773 3.765 3.765 0 0 1-1.375.276Zm262.796-10.254a3.692 3.692 0 0 1-1.089-.176 395.475 395.475 0 0 0-28.518-7.554 3.764 3.764 0 0 1 1.65-7.344 403.48 403.48 0 0 1 29.058 7.72 3.759 3.759 0 0 1-1.1 7.354Zm-205.96-7.353a3.768 3.768 0 0 1-.843-7.44A411.072 411.072 0 0 1 491 157.067a3.756 3.756 0 1 1 1.12 7.429 396.324 396.324 0 0 0-28.963 5.498 4.002 4.002 0 0 1-.838.1Zm147.923-5.75a4.097 4.097 0 0 1-.556-.029c-9.678-1.444-19.534-2.514-29.325-3.234a3.74 3.74 0 0 1-3.464-4.005 3.783 3.783 0 0 1 4.028-3.476c9.96.72 19.994 1.827 29.862 3.275a3.755 3.755 0 0 1-.545 7.47Zm-89.103-3.153a3.75 3.75 0 0 1-.27-7.49 405.736 405.736 0 0 1 30.024-1.157 3.757 3.757 0 1 1 .004 7.514c-9.802.023-19.732.386-29.472 1.13-.085.003-.182.003-.286.003Z" class="color10dde2 svgShape"/><path fill="#1e4344" d="M413.332 912.655h-8.122v-4.03h8.122a6.116 6.116 0 0 0 5.778-4.098h-1.707a6.077 6.077 0 1 1 6.075-6.083v2.051h6.631a6.123 6.123 0 0 0 5.778-4.1h-1.707a6.077 6.077 0 1 1 6.068-6.077v1.792a6.354 6.354 0 0 0 4.553-6.083v-7.608a6.346 6.346 0 0 0-4.553-6.077v1.788a6.075 6.075 0 1 1-6.068-6.079h1.707a6.13 6.13 0 0 0-5.778-4.103h-6.631v2.058a6.077 6.077 0 1 1-6.075-6.083h1.707a6.116 6.116 0 0 0-5.778-4.1h-2.707a15.197 15.197 0 0 1-10.671-4.423l-4.09-4.087 2.85-2.848 4.082 4.09a11.179 11.179 0 0 0 7.829 3.242h2.707a10.154 10.154 0 0 1 9.945 8.126h6.832a10.162 10.162 0 0 1 9.968 8.253 10.387 10.387 0 0 1 8.748 10.243v7.608a10.385 10.385 0 0 1-8.748 10.243 10.163 10.163 0 0 1-9.968 8.257h-6.832a10.16 10.16 0 0 1-9.945 8.128Zm4.07-16.26a2.05 2.05 0 1 0 0 4.1h2.052v-2.05a2.055 2.055 0 0 0-2.051-2.05Zm16.778-8.13a2.054 2.054 0 0 0 0 4.108h2.047v-2.055a2.054 2.054 0 0 0-2.047-2.053Zm0-16.186a2.05 2.05 0 1 0 2.047 2.05v-2.05Zm-16.777-8.132a2.052 2.052 0 1 0 2.05 2.059v-2.058Z" class="color1e4344 svgShape"/><path fill="#b7b7b7" d="M403.063 853.205a2.013 2.013 0 0 1-2.762.697l-1.259-.755 3.974-6.647 1.255.755a2.016 2.016 0 0 1 .703 2.762Z" class="colorb7b7b7 svgShape"/><path fill="#f16b55" d="M371.416 850.731h-77.548l-30.526 30.689a12.214 12.214 0 0 0-3.55 8.605v24.18a5.034 5.034 0 0 0 5.033 5.039h135.8a5.036 5.036 0 0 0 5.03-5.038v-24.181a12.203 12.203 0 0 0-3.554-8.601Z" class="colorf16b55 svgShape"/><path fill="#f16b55" d="M382.512 817.316h-99.578a21.973 21.973 0 0 0-13.092 39.618 2.418 2.418 0 0 0 3.159-.261l22.953-22.95h73.535l22.96 22.95a2.403 2.403 0 0 0 3.148.261 21.967 21.967 0 0 0-13.085-39.618Z" class="colorf16b55 svgShape"/><path fill="#efe9cb" d="M333.13 856.378a23.983 23.983 0 1 0 23.988 23.984 23.98 23.98 0 0 0-23.987-23.984Zm20.725 17.252a4.347 4.347 0 1 1-5.48-2.786 4.352 4.352 0 0 1 5.48 2.786Zm-13.985-9.928a4.343 4.343 0 1 1 .962 6.07 4.342 4.342 0 0 1-.962-6.07Zm-27.448 9.928a4.347 4.347 0 1 1 2.788 5.476 4.344 4.344 0 0 1-2.788-5.476Zm0 13.46a4.346 4.346 0 1 1 5.473 2.784 4.345 4.345 0 0 1-5.473-2.784Zm13.98 9.929a4.34 4.34 0 1 1-.96-6.065 4.351 4.351 0 0 1 .96 6.065Zm-.96-27.247a4.344 4.344 0 1 1 .96-6.07 4.336 4.336 0 0 1-.96 6.07Zm7.689 32.368a4.344 4.344 0 1 1 4.348-4.345 4.342 4.342 0 0 1-4.348 4.345Zm0-34.877a4.34 4.34 0 1 1 4.348-4.337 4.336 4.336 0 0 1-4.348 4.337Zm12.81 30.718a4.344 4.344 0 1 1 .954-6.068 4.356 4.356 0 0 1-.953 6.068Zm7.914-10.891a4.346 4.346 0 1 1-2.796-5.473 4.345 4.345 0 0 1 2.796 5.473Z" class="colorefe9cb svgShape"/><path fill="#1e4344" d="M338.978 880.418a5.73 5.73 0 1 1-5.728-5.726 5.723 5.723 0 0 1 5.728 5.726zm-43.399-44.19a1.527 1.527 0 0 1 0 2.14l-18.89 18.898a1.514 1.514 0 1 1-2.143-2.14l18.897-18.897a1.52 1.52 0 0 1 2.136 0zm74.311 0a1.52 1.52 0 0 0 0 2.14l18.89 18.898a1.514 1.514 0 0 0 2.144-2.14l-18.897-18.897a1.52 1.52 0 0 0-2.137 0z" class="color1e4344 svgShape"/><path fill="#efe9cb" d="M332.729 818.575a3.137 3.137 0 0 0-2.99 2.678 15.166 15.166 0 0 1-14.91 12.47h-13.986a20.643 20.643 0 0 0 11.231 5.3v11.554h5.511v-11.554a20.687 20.687 0 0 0 17.731-17.795 2.468 2.468 0 0 0-2.587-2.653zm39.618 0a3.136 3.136 0 0 0-2.99 2.678 15.164 15.164 0 0 1-14.903 12.47h-13.99a20.592 20.592 0 0 0 11.232 5.3v11.554h5.511v-11.554a20.687 20.687 0 0 0 17.728-17.795 2.466 2.466 0 0 0-2.588-2.653z" class="colorefe9cb svgShape"/><path fill="#efe9cb" d="M371.544 849.414a4.037 4.037 0 0 0-4.036-4.032h-69.612a4.03 4.03 0 0 0-4.028 4.032v1.317h77.676Z" class="colorefe9cb svgShape"/><path fill="#b7b7b7" d="M409.138 912.63a2.018 2.018 0 0 1-2.016 2.018h-1.468v-7.744h1.468a2.019 2.019 0 0 1 2.016 2.014Z" class="colorb7b7b7 svgShape"/><path fill="#1e4344" d="M390.38 921.762a2.018 2.018 0 0 1-2.017 2.014H379.3a2.008 2.008 0 0 1-2.005-2.014v-2.518h13.085zm-103.178 0a2.019 2.019 0 0 1-2.02 2.014h-9.064a2.02 2.02 0 0 1-2.016-2.014v-2.518h13.1z" class="color1e4344 svgShape"/><path fill="#efe9cb" d="M1000 602.298a10.805 10.805 0 0 1-10.806 10.805h-89.838a5.11 5.11 0 0 1-5.11-5.123V493.124a5.11 5.11 0 0 1 5.11-5.122h89.838A10.803 10.803 0 0 1 1000 498.81Z" class="colorefe9cb svgShape"/><path fill="#a8a38f" d="M905.895 607.06a1.705 1.705 0 0 1-1.707 1.708h-4.264a1.701 1.701 0 0 1-1.7-1.707v-4.266a1.693 1.693 0 0 1 1.7-1.702h4.264a1.697 1.697 0 0 1 1.707 1.702zm0-13.644a1.703 1.703 0 0 1-1.707 1.7h-4.264a1.699 1.699 0 0 1-1.7-1.7v-4.266a1.699 1.699 0 0 1 1.7-1.707h4.264a1.703 1.703 0 0 1 1.707 1.707zm0-13.651a1.702 1.702 0 0 1-1.707 1.705h-4.264a1.698 1.698 0 0 1-1.7-1.705v-4.266a1.7 1.7 0 0 1 1.7-1.703h4.264a1.703 1.703 0 0 1 1.707 1.703zm0-13.647a1.705 1.705 0 0 1-1.707 1.707h-4.264a1.7 1.7 0 0 1-1.7-1.707v-4.264a1.698 1.698 0 0 1 1.7-1.703h4.264a1.702 1.702 0 0 1 1.707 1.703zm0-13.645a1.706 1.706 0 0 1-1.707 1.707h-4.264a1.702 1.702 0 0 1-1.7-1.707v-4.266a1.696 1.696 0 0 1 1.7-1.701h4.264a1.7 1.7 0 0 1 1.707 1.701zm0-13.649a1.703 1.703 0 0 1-1.707 1.707h-4.264a1.699 1.699 0 0 1-1.7-1.707v-4.266a1.7 1.7 0 0 1 1.7-1.7h4.264a1.704 1.704 0 0 1 1.707 1.7zm0-13.645a1.708 1.708 0 0 1-1.707 1.707h-4.264a1.704 1.704 0 0 1-1.7-1.707v-4.266a1.699 1.699 0 0 1 1.7-1.706h4.264a1.703 1.703 0 0 1 1.707 1.706zm0-13.648a1.704 1.704 0 0 1-1.707 1.707h-4.264a1.7 1.7 0 0 1-1.7-1.707v-4.263a1.701 1.701 0 0 1 1.7-1.708h4.264a1.705 1.705 0 0 1 1.707 1.708zm0-13.65a1.703 1.703 0 0 1-1.707 1.708h-4.264a1.699 1.699 0 0 1-1.7-1.707v-4.26a1.702 1.702 0 0 1 1.7-1.711h4.264a1.706 1.706 0 0 1 1.707 1.71z" class="colora8a38f svgShape"/><path fill="#1e4344" d="M886.09 602.592h16.302a1.135 1.135 0 0 1 1.135 1.135v2.357a1.135 1.135 0 0 1-1.135 1.135h-16.298a1.139 1.139 0 0 1-1.14-1.139v-2.353a1.135 1.135 0 0 1 1.136-1.135zm17.437-10.161a1.14 1.14 0 0 1-1.139 1.143H886.09a1.139 1.139 0 0 1-1.135-1.143v-2.356a1.133 1.133 0 0 1 1.135-1.132h16.298a1.133 1.133 0 0 1 1.14 1.132zm0-13.641a1.135 1.135 0 0 1-1.139 1.135H886.09a1.135 1.135 0 0 1-1.135-1.135v-2.356a1.137 1.137 0 0 1 1.135-1.14h16.298a1.138 1.138 0 0 1 1.14 1.14zm-17.435-17.144h16.3a1.135 1.135 0 0 1 1.135 1.135v2.362a1.137 1.137 0 0 1-1.137 1.137h-16.296a1.139 1.139 0 0 1-1.14-1.139v-2.358a1.137 1.137 0 0 1 1.138-1.137zm17.435-10.15a1.138 1.138 0 0 1-1.139 1.135H886.09a1.137 1.137 0 0 1-1.135-1.135v-2.36a1.136 1.136 0 0 1 1.135-1.133h16.298a1.136 1.136 0 0 1 1.14 1.133zm0-13.647a1.135 1.135 0 0 1-1.139 1.135H886.09a1.135 1.135 0 0 1-1.135-1.135v-2.356a1.138 1.138 0 0 1 1.135-1.14h16.298a1.14 1.14 0 0 1 1.14 1.14zm0-13.65a1.14 1.14 0 0 1-1.139 1.14H886.09a1.138 1.138 0 0 1-1.135-1.14v-2.357a1.139 1.139 0 0 1 1.135-1.137h16.298a1.14 1.14 0 0 1 1.14 1.137zm0-13.646a1.14 1.14 0 0 1-1.139 1.14H886.09a1.14 1.14 0 0 1-1.135-1.14v-2.356a1.14 1.14 0 0 1 1.135-1.139h16.298a1.14 1.14 0 0 1 1.14 1.14zm-17.435-17.115h16.3a1.135 1.135 0 0 1 1.135 1.135v2.358a1.137 1.137 0 0 1-1.137 1.138h-16.296a1.139 1.139 0 0 1-1.14-1.14v-2.354a1.137 1.137 0 0 1 1.138-1.137z" class="color1e4344 svgShape"/><path fill="#fff" d="M920.444 508.338h66.479v23.606h-66.479zM842.3 188.82a26.148 26.148 0 0 0-26.146-26.154h-188.99a26.152 26.152 0 0 0-26.155 26.155v121.66a26.159 26.159 0 0 0 26.155 26.156h30.325v59.809l59.817-59.81h98.848a26.155 26.155 0 0 0 26.147-26.156zM691.94 779.756a52.326 52.326 0 0 0 52.27-55.106l-2.005-37.974c-4.692-23.393-23.972-41.827-48.527-46.382l-88.656-13.215c-7.825-1.22-13.942-9.296-14.047-17.7l-1.946-38.832H503.81l-2.004 40.48a16.75 16.75 0 0 1-14.143 15.703l-87.551 13.564c-24.536 4.555-43.828 22.989-48.517 46.382l-2.004 37.974a52.319 52.319 0 0 0 52.27 55.106z" class="colorfff svgShape"/><path fill="#ddd5b6" d="M605.022 627.078c-5.642-.884-10.358-5.334-12.602-10.881l-46.04 44.646-44.21-57.123-.364 7.305a16.75 16.75 0 0 1-14.143 15.704l-49.412 7.652V768.7H660.95V635.413Z" class="colorddd5b6 svgShape"/><path fill="#1e4344" d="M707.863 779.755a44.462 44.462 0 0 0 44.446-45.958l-1.406-42.152c0-32.422-18.627-49.447-49.44-55.923l-76.871-7.383-69.272 134.555a9.464 9.464 0 0 1-16.831 0L469.22 628.34l-76.884 7.383c-30.785 6.476-49.44 23.5-49.44 55.923l-1.393 42.152a44.474 44.474 0 0 0 44.46 45.958Z" class="color1e4344 svgShape"/><path fill="#ddd" d="m585.043 601.308 5.245-5.465-1.26-25.297H503.81l-1.177 23.723 6.766 7.058a32.07 32.07 0 0 0 23.08 9.835h15.04v-.017h14.452a32.084 32.084 0 0 0 23.072-9.837Z" class="colorddd svgShape"/><path fill="#fff" d="m613.117 475.328 4.994.321c7.485 2.076 15.595 9.142 13.695 20.56-1.723 10.37-2.557 11.254-4.665 24.112-2.97 18.221-17.874 12.283-17.874 12.283zm-131.023 0-4.99.321c-7.485 2.076-15.58 9.142-13.695 20.56 1.722 10.37 2.556 11.254 4.677 24.112 2.962 18.221 17.862 12.283 17.862 12.283z" class="colorfff svgShape"/><path fill="#fff" d="M546.943 413.764v.023l-67.823.28V543.2a33.83 33.83 0 0 0 9.443 23.443l20.836 21.719a32.08 32.08 0 0 0 23.08 9.829h15.04v-.021h14.452a32.092 32.092 0 0 0 23.072-9.83l20.84-21.708a33.947 33.947 0 0 0 9.443-23.457V414.058Z" class="colorfff svgShape"/><path fill="#f16b55" d="M479.058 492.685v-45.042c-.2-15.624 10.613-31.373 27.812-31.63h33.04c8.752 3.208.116 22.556 8.818 19.222l52.065-19.696c9.346-2.003 14.707 6.098 14.707 13.643v62.953c0 2.61 10.088-4.353 13.58-19.197l6.264-88.422c.227-11.992-3.26-23.812-20.018-23.812l-37.791.017h-51.247c-42.202-.732-73.975 19.838-66.888 65.18l8.072 50.256c1.467 11.625 11.586 18.842 11.586 16.528zm75.482 220.193a12.763 12.763 0 0 1 1.209-8.748l8.377-16.943-17.025-29.773v-.713l-.2.355-.201-.355v.713l-17.017 29.773 8.478 17.39c2.87 4.88 1.714 6.277 1.243 8.689l-9.767 50.1 17.063 15.446 17.793-15.446z" class="colorf16b55 svgShape"/><path fill="#efe9cb" d="M502.428 605.184c-3.592-4.177-5.257-5.276-7.748-.286l-13.015 21.058 40.159 67.87c2.792 4.704 4.993 4.43 7.48-.274l17.728-36.851Z" class="colorefe9cb svgShape"/><path fill="#efe9cb" d="M591.37 605.184c3.607-4.177 5.275-5.276 7.762-.286l13.008 21.058-40.166 67.87c-2.766 4.704-4.975 4.43-7.481-.274L546.762 656.7Z" class="colorefe9cb svgShape"/><path fill="#1e4344" d="M813.045 905.976a1.21 1.21 0 0 0 .243-1.679l-11.934-15.937a1.22 1.22 0 0 0-1.688-.255l-1.664 1.153a3.644 3.644 0 0 1-5.06-.765l-21.716-28.99a3.598 3.598 0 0 1 .722-5.037l1.63-1.213a1.204 1.204 0 0 0 .231-1.672l-12.2-16.302a1.207 1.207 0 0 0-1.68-.242l-4.727 3.55a15.554 15.554 0 0 0-3.132 21.788l34.454 46.017a15.568 15.568 0 0 0 21.786 3.129zm-9.509-20.891c.05-.033.085-.044.128-.077l4.372-3.161a1.197 1.197 0 0 1 1.676.258l11.93 15.932a1.19 1.19 0 0 1-.235 1.674l-4.434 3.32zm-33.558-56.063 12.197 16.29a1.201 1.201 0 0 1-.244 1.68l-4.314 3.227a1.524 1.524 0 0 0-.111.105l-13.641-18.236 4.433-3.307a1.196 1.196 0 0 1 1.68.24z" class="color1e4344 svgShape"/><path fill="#1e4344" d="M790.649 922.625a55.587 55.587 0 1 1 0-111.174 56.224 56.224 0 0 1 8.149.597l-.862 5.845a49.682 49.682 0 1 0 42.391 49.148c0-.58-.008-1.143-.027-1.72l5.901-.205c.02.639.04 1.282.04 1.925a55.652 55.652 0 0 1-55.592 55.584Z" class="color1e4344 svgShape"/><path fill="#1e4344" d="m790.617 827.027 25.831-5.955-18.075-19.394-7.756 25.349zM816.525 861.924h-21.47v-4.129l10.185-10.907a25.237 25.237 0 0 0 3.124-4.265 6.944 6.944 0 0 0 .923-3.235 4.849 4.849 0 0 0-1.073-3.252 3.729 3.729 0 0 0-3.029-1.259 3.915 3.915 0 0 0-3.313 1.48 6.326 6.326 0 0 0-1.136 3.94h-6.133l-.046-.123a9.493 9.493 0 0 1 2.804-7.203 10.455 10.455 0 0 1 7.824-2.956 10.918 10.918 0 0 1 7.64 2.533 8.664 8.664 0 0 1 2.785 6.736 9.474 9.474 0 0 1-1.576 5.262 51.554 51.554 0 0 1-5.176 6.315l-5.588 6.096.038.108h13.217zm22.404-11.687h3.56v4.858h-3.56v6.829h-6.276v-6.829h-12.841l-.282-3.777 13.046-20.847h6.353zm-13.525 0h7.249v-11.345l-.139-.043-.494.896zM413.548 264.569a83.729 83.729 0 1 1-37.61-112.28 83.738 83.738 0 0 1 37.61 112.28z" class="color1e4344 svgShape"/><path fill="#efe9cb" d="M324.893 195.985c-7.13 0-16.874.97-16.874 12.378v5.618c0 5.922 2.974 7.69 7.898 10.974l4.727 3.148a8.897 8.897 0 0 1 3.96 7.392v15.895c0 2.664-9.935 17.368-11.808 19.249-3.846 3.842-6.87 8.946-5.65 14.243a9.508 9.508 0 0 0 8.428 7.32 7.849 7.849 0 0 0 7.129-3.92 4.293 4.293 0 0 1 3.607-1.973h10.876a12.615 12.615 0 0 0 7.817-3.238c2.858-2.308 7.635-5.807 7.635-5.807l25.576-18.976a4.224 4.224 0 0 0 2.626-3.907 2.831 2.831 0 0 0-2.835-2.831h-3.101a2.996 2.996 0 0 1-2.993-2.97l-.205-24.314a13.57 13.57 0 0 0-3.73-9.236 14.63 14.63 0 0 0-8.953-4.04 4.968 4.968 0 0 1-4.357-4.832l-.015-1.755a9.034 9.034 0 0 0-2.271-5.892 7.528 7.528 0 0 0-5.608-2.526zm-61.03 47.651c.892-2.626 8.049-10.12 8.049-10.12a23.666 23.666 0 0 0 3.766-17.231l-.325-1.91a3.625 3.625 0 0 0-3.573-3.017 1.528 1.528 0 0 1-1.529-1.529v-6.56l4.58-10.79v-8.833a6.606 6.606 0 0 0-3.7-5.977 84.658 84.658 0 0 0-7.473 12.233 83.491 83.491 0 0 0-3.854 65.572zm64.193-98.774 2.476-.958a84.096 84.096 0 0 0-45.693 19.14 2.733 2.733 0 0 0 3.742-.09l8.37-6.888 17-2.694s8.157 5.575 9.737 5.575c1.75 0 6.716-3.902 9.663-5.967 3.333-2.328-.95-6.623-5.017-6.623-.549 0-1.595-.995-.278-1.495zm17.167 1.782a.437.437 0 0 1-.259.79h-1.077a1.618 1.618 0 0 0 0 3.236h7.28l1.1-.81a3.829 3.829 0 0 1 5.238.677 1.74 1.74 0 0 1-1.352 2.835h-4.388c-3.688 0-1.529 4.042 2.163 4.042h1.823a8.408 8.408 0 0 0 7.28 3.486c4.983-.45 3.982-7.644.398-11.635L361 146.56a82.962 82.962 0 0 0-20.037-3.018z" class="colorefe9cb svgShape"/><path fill="#efe9cb" d="M401.815 172.314a6.185 6.185 0 0 1-5.515-1.054l-2.41-1.883a3.068 3.068 0 0 0-4.955 2.421 3.151 3.151 0 0 1-3.148 3.15h-3.055l-2.278-3.318a8.124 8.124 0 0 0-10.675-2.483l-3.024 1.701a6.776 6.776 0 0 0-3.45 5.896 1.977 1.977 0 0 1-1.98 1.977h-6.651a4.317 4.317 0 0 0-4.314 4.318 2.166 2.166 0 0 1-2.167 2.161h-1.344l-2.514-2.039a3.89 3.89 0 0 0-5.573.687l-.448.6a4.542 4.542 0 0 0-.093 5.333 4.646 4.646 0 0 0 5.06 1.802l8.604-2.43 3.33 2.426 2.915 5.277a1.234 1.234 0 0 1-.282 1.526l-.316.26a1.918 1.918 0 0 0-.433 2.424 1.63 1.63 0 0 0 2.213.6l1.205-.69a3.234 3.234 0 0 0 1.325-4.191l-1.506-3.177a1.159 1.159 0 0 1 .63-1.58 1.555 1.555 0 0 1 1.86.597l3.222 4.886a3.788 3.788 0 0 0 3.17 1.709 5.855 5.855 0 0 0 3.643-1.277l1.772-1.419h1.673a6.835 6.835 0 0 1 6.283 4.18l.502 1.212a2.136 2.136 0 0 1-1.97 2.973h-.281l-3.117-1.714a3.033 3.033 0 0 0-3.866.809 2.092 2.092 0 0 0 .776 3.165l.695.326a2.62 2.62 0 0 1 1.514 2.393l-.054 6.612v19.895a7.113 7.113 0 0 0 9.123 6.827l6.276-1.846a3.14 3.14 0 0 0 2.136-3.84 3.012 3.012 0 0 0-3.755-2.093 1.393 1.393 0 0 1-1.823-1.104l-.614-5.295a2.03 2.03 0 0 1 3.24-1.858l12.66 9.548v21.708a1.758 1.758 0 0 0 1.754 1.756 2.53 2.53 0 0 0 2.372-1.642l4.997-13.328a.86.86 0 0 1 1.665.301v2.466a1.796 1.796 0 0 0 3.468.655l2.847-7.26a83.923 83.923 0 0 0-19.319-69.056zM354.172 281.36c-1.804 1.807.737 4.314 3.128 3.412l5.38-2.037a3.584 3.584 0 0 0 2.267-2.796 1.792 1.792 0 0 0-1.773-2.059h-.452l-2.37 2.536h-5.23z" class="colorefe9cb svgShape"/><path fill="#1e4344" d="m100 534.981 53.155-50.887a5.65 5.65 0 0 1 7.817 0l53.15 50.887-35.701 72.466h-43.994Z" class="color1e4344 svgShape"/><path fill="#efe9cb" d="M112.594 498.38h73.783l15.147 13.181v99.121h-88.93V498.38z" class="colorefe9cb svgShape"/><path fill="#fff" d="M186.377 513.531h15.147l-15.147-15.151v15.151z" class="colorfff svgShape"/><path fill="#1e4344" d="M126.289 530.988h62.119v5.54h-62.119zM126.289 545.154h62.119v5.542h-62.119zM126.289 559.317h62.119v5.54h-62.119zM126.289 573.489h62.119v5.538h-62.119z" class="color1e4344 svgShape"/><path fill="#d0d4d7" d="M126.289 587.649h62.119v5.544h-62.119z" class="colord0d4d7 svgShape"/><path fill="#fff" d="M160.972 585.865a5.646 5.646 0 0 1-7.817 0L100 534.981V617.2h114.122V534.98Z" class="colorfff svgShape"/><path fill="#efe9cb" d="M214.122 617.199H100l42.07-29.909a25.924 25.924 0 0 1 29.99 0Z" class="colorefe9cb svgShape"/><path fill="#1e4344" d="M700.405 295.34a17.606 17.606 0 0 0 6.999-2.318l3.26 3.576 4.835-4.407-3.152-3.452a17.63 17.63 0 0 0 3.333-6.705l4.704.22.302-6.53-4.588-.215a17.742 17.742 0 0 0-2.453-7.107l3.468-3.16-4.403-4.834-3.425 3.126a17.587 17.587 0 0 0-6.736-3.213l.22-4.797-6.527-.303-.224 4.775a17.617 17.617 0 0 0-6.91 2.472l-3.348-3.673-4.831 4.403 3.325 3.65a17.648 17.648 0 0 0-3.124 6.523l-5.087-.235-.301 6.526 5.013.236a17.633 17.633 0 0 0 2.325 6.809l-3.77 3.441 4.403 4.832 3.677-3.35a17.688 17.688 0 0 0 6.496 3.241l-.231 4.996 6.527.303zm-2.39-11.078a6.63 6.63 0 1 1 7.021-6.218 6.627 6.627 0 0 1-7.021 6.218zm58.94-24.55a27.98 27.98 0 0 0 5.685-5.316l6.06 3.716 3.414-5.572-6.002-3.684a28.247 28.247 0 0 0 2.348-7.5l6.921.181.178-6.532-6.801-.182a27.73 27.73 0 0 0-1.704-7.819l5.829-3.161-3.113-5.741-5.705 3.088a27.932 27.932 0 0 0-5.492-6.045l3.299-5.378-5.57-3.412-3.24 5.276a28.126 28.126 0 0 0-7.929-2.483l.166-6.062-6.535-.172-.162 5.982a27.974 27.974 0 0 0-8.165 1.912l-2.834-5.221-5.743 3.116 2.83 5.222a27.943 27.943 0 0 0-6.055 5.801l-5.102-3.13-3.418 5.574 5.163 3.171a27.95 27.95 0 0 0-2.24 7.995l-6.19-.166-.178 6.535 6.31.168a28.02 28.02 0 0 0 2.063 7.902l-5.7 3.087 3.12 5.747 5.828-3.16a27.818 27.818 0 0 0 5.62 5.698l-3.558 5.791 5.577 3.416 3.62-5.901a28.255 28.255 0 0 0 7.57 2.124l-.19 7.044 6.53.174.194-7.108a27.73 27.73 0 0 0 7.554-1.86l3.414 6.294 5.747-3.115zm-11.331-13.652a10.245 10.245 0 1 1 4.124-13.889 10.25 10.25 0 0 1-4.124 13.889z" class="color1e4344 svgShape"/></svg></svg>