<svg xmlns="http://www.w3.org/2000/svg" width="550" height="550"><svg xmlns="http://www.w3.org/2000/svg" width="550" height="550" viewBox="0 0 2000 2000"><rect width="1600" height="1600" x="287.192" y="198.5" fill="#6556ff" class="color6556ff svgShape" opacity=".2" rx="799.999"/><rect width="588.513" height="419.788" x="115.808" y="1284.683" fill="#fff" class="colorfff svgShape" rx="37.093"/><path fill="#090817" d="M667.226 1708.473H152.9a41.14 41.14 0 0 1-41.094-41.094v-345.6a41.139 41.139 0 0 1 41.094-41.093h514.326a41.139 41.139 0 0 1 41.094 41.093v345.6a41.14 41.14 0 0 1-41.094 41.094ZM152.9 1288.684a33.133 33.133 0 0 0-33.094 33.093v345.6a33.134 33.134 0 0 0 33.094 33.094h514.326a33.134 33.134 0 0 0 33.094-33.094v-345.6a33.133 33.133 0 0 0-33.094-33.093Z" class="color090817 svgShape"/><circle cx="161.038" cy="1317.102" r="12.652" fill="#080717" class="color080717 svgShape"/><circle cx="215.137" cy="1317.102" r="12.652" fill="#080717" class="color080717 svgShape"/><circle cx="269.236" cy="1317.102" r="12.652" fill="#080717" class="color080717 svgShape"/><path fill="#080717" d="M1223.617 786.559s-69.412 175.95-20.636 219.1 275.2 59.894 275.2 59.894l-72.6-292.518Z" class="color080717 svgShape"/><path fill="#fff" d="M503.731 1066.114h202.155v130.49H503.731z" class="colorfff svgShape"/><path fill="#090817" d="M705.886 1200.605H503.73a4 4 0 0 1-4-4v-130.492a4 4 0 0 1 4-4h202.156a4 4 0 0 1 4 4v130.492a4 4 0 0 1-4 4Zm-198.156-8h194.156v-122.492H507.73Z" class="color090817 svgShape"/><rect width="844.476" height="598.653" x="182.571" y="507.259" fill="#fff" class="colorfff svgShape" rx="40.295"/><path fill="#090817" d="M986.75 1109.914H222.867a44.346 44.346 0 0 1-44.3-44.3V547.555a44.346 44.346 0 0 1 44.3-44.3H986.75a44.347 44.347 0 0 1 44.3 44.3v518.062a44.347 44.347 0 0 1-44.3 44.297ZM222.867 511.258a36.336 36.336 0 0 0-36.3 36.3v518.062a36.336 36.336 0 0 0 36.3 36.3H986.75a36.336 36.336 0 0 0 36.3-36.3V547.555a36.336 36.336 0 0 0-36.3-36.3Z" class="color090817 svgShape"/><path fill="#080717" d="M1027.047 1003.105H182.57a4 4 0 1 1 0-8h844.477a4 4 0 0 1 0 8Z" class="color080717 svgShape"/><rect width="760.659" height="422.822" x="224.479" y="549.341" fill="#080717" class="color080717 svgShape" rx="36.288"/><rect width="620.652" height="419.5" x="373.999" y="427.031" fill="#fff" class="colorfff svgShape" rx="21.447"/><path fill="#090817" d="M973.2 850.531H395.445A25.473 25.473 0 0 1 370 825.086V448.477a25.473 25.473 0 0 1 25.445-25.446H973.2a25.477 25.477 0 0 1 25.449 25.446v376.609a25.476 25.476 0 0 1-25.449 25.445Zm-577.758-419.5A17.463 17.463 0 0 0 378 448.477v376.609a17.462 17.462 0 0 0 17.445 17.445H973.2a17.466 17.466 0 0 0 17.449-17.445V448.477a17.466 17.466 0 0 0-17.449-17.446Z" class="color090817 svgShape"/><rect width="63.839" height="174.669" x="476.85" y="610.567" fill="#080717" class="color080717 svgShape" rx="4.617"/><rect width="63.839" height="222.779" x="593.887" y="562.458" fill="#080717" class="color080717 svgShape" rx="4.617"/><rect width="63.839" height="265.994" x="710.924" y="519.243" fill="#080717" class="color080717 svgShape" rx="4.617"/><rect width="63.839" height="302.642" x="827.961" y="482.595" fill="#080717" class="color080717 svgShape" rx="4.617"/><circle cx="410.838" cy="456.867" r="13.666" fill="#080717" class="color080717 svgShape"/><circle cx="467.267" cy="456.867" r="13.666" fill="#080717" class="color080717 svgShape"/><circle cx="523.695" cy="456.867" r="13.666" fill="#080717" class="color080717 svgShape"/><circle cx="604.808" cy="1052.007" r="36.149" fill="#fff" class="colorfff svgShape"/><path fill="#090817" d="M604.808 1092.156a40.149 40.149 0 1 1 40.149-40.148 40.195 40.195 0 0 1-40.149 40.148Zm0-72.3a32.149 32.149 0 1 0 32.149 32.149 32.185 32.185 0 0 0-32.149-32.146Z" class="color090817 svgShape"/><rect width="310.355" height="72.299" x="449.631" y="1165.745" fill="#fff" class="colorfff svgShape" rx="11.841"/><path fill="#090817" d="M748.144 1242.043H461.472a15.857 15.857 0 0 1-15.839-15.84v-48.617a15.857 15.857 0 0 1 15.839-15.84h286.672a15.858 15.858 0 0 1 15.84 15.84v48.614a15.857 15.857 0 0 1-15.84 15.843Zm-286.672-72.3a7.847 7.847 0 0 0-7.839 7.84v48.617a7.847 7.847 0 0 0 7.839 7.84h286.672a7.848 7.848 0 0 0 7.84-7.84v-48.617a7.848 7.848 0 0 0-7.84-7.84Z" class="color090817 svgShape"/><path fill="#080717" d="M409.5 1648.21a123.38 123.38 0 1 1 55.55-13.282 123.127 123.127 0 0 1-55.55 13.282Zm-.357-218.753a95.2 95.2 0 1 0 43.113 180.172 95.207 95.207 0 0 0-43.113-180.172Z" class="color080717 svgShape"/><path fill="#080717" d="M282.373 1600.91a1.358 1.358 0 0 1-1.276-.787l-8.572-16.957a1.46 1.46 0 0 1 .55-1.87l29.022-17.024a1.406 1.406 0 0 1 .71-.2 1.361 1.361 0 0 1 1.282.784l10.466 20.7a1.427 1.427 0 0 1-.71 1.955l-30.916 13.28a1.317 1.317 0 0 1-.556.119zm234.944-116.447a1.364 1.364 0 0 1-1.279-.787l-10.466-20.7a1.428 1.428 0 0 1 .717-1.953l30.906-13.279a1.372 1.372 0 0 1 .56-.114 1.354 1.354 0 0 1 1.273.778l8.575 16.96a1.462 1.462 0 0 1-.547 1.869l-29.025 17.028a1.413 1.413 0 0 1-.714.198z" class="color080717 svgShape"/><path fill="#080717" d="M282.373 1600.91a1.358 1.358 0 0 1-1.276-.787l-8.572-16.957a1.46 1.46 0 0 1 .55-1.87l29.022-17.024a1.406 1.406 0 0 1 .71-.2 1.361 1.361 0 0 1 1.282.784l10.466 20.7a1.427 1.427 0 0 1-.71 1.955l-30.916 13.28a1.317 1.317 0 0 1-.556.119zm234.944-116.447a1.364 1.364 0 0 1-1.279-.787l-10.466-20.7a1.428 1.428 0 0 1 .717-1.953l30.906-13.279a1.372 1.372 0 0 1 .56-.114 1.354 1.354 0 0 1 1.273.778l8.575 16.96a1.462 1.462 0 0 1-.547 1.869l-29.025 17.028a1.413 1.413 0 0 1-.714.198zm-169.186-55.55a1.4 1.4 0 0 1-1.31-.864l-13.283-30.913a1.462 1.462 0 0 1 .667-1.833l16.957-8.575a1.56 1.56 0 0 1 .64-.154 1.485 1.485 0 0 1 1.23.7l17.027 29.021a1.421 1.421 0 0 1-.587 1.993l-20.7 10.466a1.486 1.486 0 0 1-.641.159zm120.195 233.047a1.492 1.492 0 0 1-1.233-.7l-17.025-29.022a1.424 1.424 0 0 1 .591-1.995l20.7-10.463a1.5 1.5 0 0 1 .637-.157 1.417 1.417 0 0 1 1.319.87l13.276 30.913a1.46 1.46 0 0 1-.667 1.829l-16.96 8.579a1.49 1.49 0 0 1-.638.146zm-170.491-160.906a1.283 1.283 0 0 1-.51-.1l-31.27-12.477a1.461 1.461 0 0 1-.824-1.768l5.928-18.051a1.386 1.386 0 0 1 1.35-.981 1.726 1.726 0 0 1 .4.052l32.527 8.477a1.468 1.468 0 0 1 .885.689 1.5 1.5 0 0 1 .108 1.138l-7.235 22.036a1.39 1.39 0 0 1-1.359.985zm249.783 79.803a1.493 1.493 0 0 1-.356-.046l-32.564-8.487a1.47 1.47 0 0 1-.895-.694 1.5 1.5 0 0 1-.1-1.123l7.24-22.048a1.4 1.4 0 0 1 1.35-.981 1.311 1.311 0 0 1 .526.105l31.251 12.47a1.44 1.44 0 0 1 .827 1.759l-5.928 18.064a1.391 1.391 0 0 1-1.351.981zM456.746 1420.7a1.429 1.429 0 0 1-.448-.073l-22.037-7.238a1.421 1.421 0 0 1-.882-1.879l12.471-31.254a1.415 1.415 0 0 1 1.749-.827l18.073 5.931a1.463 1.463 0 0 1 .932 1.71l-8.483 32.563a1.423 1.423 0 0 1-1.375 1.067zm-83.79 248.47a1.426 1.426 0 0 1-.471-.08l-18.027-5.918a1.461 1.461 0 0 1-.934-1.713l8.483-32.561a1.419 1.419 0 0 1 1.823-.99l22.042 7.238a1.419 1.419 0 0 1 .877 1.876l-12.471 31.251a1.347 1.347 0 0 1-1.322.897zm28.814-77.686c-17.044-.266-31.6-5.48-35.39-12.68-3.314-6.294-.075-16.749 4.706-19.362a3.976 3.976 0 0 1 2.124-.537c1.6.025 3.89.749 7.359 1.842 3.183 1 7.543 2.381 13.437 3.847 8.737 2.17 15.911 3.313 21.325 3.4 6.2.1 10.095-1.146 11.9-3.8a13.625 13.625 0 0 0 1.925-6.2c.262-16.8-14.482-21.105-30.091-25.664a158.442 158.442 0 0 1-16.828-5.611c-9.042-3.781-15.451-17.481-15.242-32.575.234-16.795 8.151-29.822 21.177-34.849a40.366 40.366 0 0 1 15.22-2.7c17.515.274 32.715 11.459 39.438 17.262a5.845 5.845 0 0 1 1.669 6.282c-3.046 9.258-7.857 9.227-9.632 9.2h-.025c-2.68-.042-5.917-1.134-9.62-3.246a31.5 31.5 0 0 0-14.685-3.885c-7.589-.119-13.552 2.64-15.951 7.379-2.531 4.993-.093 11.134.423 12.316 4.383 10.07 14.65 12.311 25.52 14.686 9.347 2.042 19.014 4.153 25.781 11.4 10.4 11.142 10.8 30.2 5.211 41.472-8.283 16.699-31.977 22.3-49.751 22.023z" class="color080717 svgShape"/><rect width="16.203" height="162.708" x="402.564" y="1442.914" fill="#080717" class="color080717 svgShape" rx="5.844" transform="rotate(.894 410.606 1524.041)"/><path fill="#fff" d="M808.628 1279.429c-12.246-4.605-50.915-17.349-96.215-2.772-60.988 19.625-85.6 73.2-89.411 81.883-28.373 23.179-42.108 38.1-38.114 42.506 8.172 9.023 29.485-2.484 29.485-2.484s-7.98 13.084 2.181 15.122 27.146-14.331 27.146-14.331-7.923 12.446 1.975 14.388 30.682-38.558 40.544-39.252 34.66 14.164 57.552 7.8c30.538-8.491 57.768-37.29 64.477-69.319a88.12 88.12 0 0 0 .38-33.541Z" class="colorfff svgShape"/><path fill="#090817" d="M618.3 1417.848a12.838 12.838 0 0 1-2.531-.243c-4.605-.925-6.636-3.55-7.527-5.589a11.636 11.636 0 0 1-.738-6.11c-7.93 2.785-19.192 4.879-25.582-2.172a6.782 6.782 0 0 1-1.692-5.214c.379-5.028 5.231-14.4 39.5-42.473 7.152-15.906 33.254-64.473 91.453-83.2 42.817-13.774 80.3-4.137 98.848 2.84a3.99 3.99 0 0 1 2.531 3.039 91.747 91.747 0 0 1-.4 35.062c-6.914 33-35.227 63.43-67.321 72.356-16.113 4.484-32.765-.711-44.933-4.5-5.527-1.719-10.781-3.329-13.41-3.168-3 .343-11.274 11.128-16.219 17.57-11 14.328-18.035 23.078-25.375 21.621-4.574-.9-6.563-3.484-7.426-5.5a9.4 9.4 0 0 1-.609-2.039c-5.502 3.888-12.475 7.72-18.569 7.72Zm-3.933-23.286a4 4 0 0 1 3.418 6.083c-1.367 2.273-2.949 6.492-2.215 8.164.191.437.789.753 1.77.953 5.578 1.105 17.156-7.1 23.582-13.289a4 4 0 0 1 6.152 5.027c-1.535 2.438-2.824 6.176-2.242 7.52.2.457 1.1.695 1.613.8 3.184-.007 12.488-12.128 17.488-18.64 9.625-12.539 15.836-20.242 22-20.676 4.141-.3 9.543 1.387 16.356 3.5 11.836 3.691 26.566 8.289 40.41 4.43 29.375-8.168 55.3-36.047 61.633-66.286a83.4 83.4 0 0 0 .726-29.765c-18.211-6.5-52.515-14.442-91.422-1.918-56.148 18.066-80.765 65.558-86.976 79.683a4 4 0 0 1-1.129 1.489c-32.809 26.8-36.852 35.093-37.281 37.121 4.929 4.363 18.328-.547 24.218-3.715a3.974 3.974 0 0 1 1.899-.481Z" class="color090817 svgShape"/><path fill="#6556ff" d="M1369.445 922.813c-39.258-6.976-113.177-13.661-169.223 29.734-28.457 22.034-41.306 48.463-52.106 70.5-32 65.288-70.03 141.04-121.07 240.606l-245.415 3.547-33.57 116.953c66.819 12.793 123.479 20.3 165.684 24.907 165.2 18.046 209.79 2.771 240.405-18.41 17.745-12.277 30.712-26.48 51.979-57.393 36.255-52.7 85.88-138.335 123.657-264.358Z" class="color6556ff svgShape"/><path fill="#fff" d="M1578.956 1214.2c-2.279-123.546 6.571-199.668-47.65-250.411a154.274 154.274 0 0 0-40.511-27.168c-18.833-8.8-31.132-27.4-30.992-48.191l.987-147.38-125.126-.838-.866 129.161c-.156 23.338-16.013 43.9-38.722 49.283-29.887 7.088-59.812 20.492-83.406 44.581-38.964 39.781-43.454 91.121-47.776 163.1-6.052 100.768-11.072 230.261-10.054 383.414l449.758 6.589c-19.06-128.04-24.335-231.332-25.642-302.14Z" class="colorfff svgShape"/><path fill="#090817" d="M1604.6 1520.34h-.058l-449.758-6.59a4 4 0 0 1-3.941-3.973c-.86-129.093 2.527-258.183 10.062-383.679 4.6-76.7 10.191-126.129 48.91-165.66 21.539-21.989 50.25-37.356 85.344-45.672a46.639 46.639 0 0 0 35.641-45.418l.867-129.164a4 4 0 0 1 4-3.973h.027l125.125.84a4 4 0 0 1 3.973 4.027l-.985 147.379c-.129 18.852 11.133 36.336 28.688 44.539a157.325 157.325 0 0 1 41.551 27.871c47.519 44.477 47.867 107.11 48.394 201.922.09 16.34.184 33.234.52 51.336a2351.594 2351.594 0 0 0 25.6 301.625 4 4 0 0 1-3.957 4.59Zm-445.781-14.531 2.481.035 438.656 6.426a2357.063 2357.063 0 0 1-25-298c-.336-18.152-.43-35.074-.52-51.441-.515-92.734-.855-154-45.863-196.121a149.253 149.253 0 0 0-39.473-26.465c-20.375-9.527-33.445-29.875-33.3-51.844l.957-143.379-117.125-.785-.832 125.165a54.621 54.621 0 0 1-41.8 53.145c-33.6 7.965-61.008 22.6-81.469 43.492-36.77 37.539-42.152 85.691-46.645 160.535-7.449 124.057-10.836 251.628-10.07 379.237Z" class="color090817 svgShape"/><path fill="#080717" d="m1154.109 1406.414-24.292 392.086h551.544s-10.006-215.693-45.244-348.749c-37.808-26.431-115.5-73.043-223.933-85.492-121.715-13.973-216.103 22.683-258.075 42.155Z" class="color080717 svgShape"/><path fill="#fff" d="M1408.376 478.49c-2.424-.4-4.842-.707-7.261-1.018-32.353-26.688-70.3-39.575-114.043-26.658-48.663 14.368-84.244 56.243-93.549 106.122-15.69 84.107-35.177 239.017 22.151 286.981 80.062 66.984 289.152 33.379 330.6-75.55a195.175 195.175 0 0 0 23.027-64.916c17.686-106.561-54.364-207.279-160.925-224.961Z" class="colorfff svgShape"/><path fill="#090817" d="M1333.933 882.418c-49.027 0-93.172-12.3-120.824-35.434-58.527-48.968-39.859-203.2-23.519-290.781 9.687-51.93 47.507-94.8 96.351-109.226 40.942-12.094 80.25-3.122 116.824 26.675 2.2.282 4.231.551 6.266.891a199.685 199.685 0 0 1 140.875 295.539c-17.984 46.871-67.727 84.035-136.535 101.988a316.634 316.634 0 0 1-79.438 10.348Zm-13.261-432.613a114.31 114.31 0 0 0-32.465 4.843c-45.989 13.582-81.61 54.02-90.75 103.024-37.321 200.031-3 263.281 20.785 283.18 40.254 33.675 117.855 43.113 193.109 23.48 66.414-17.332 114.231-52.828 131.188-97.387a3.7 3.7 0 0 1 .265-.562 191.625 191.625 0 0 0-135.086-283.949c-2.277-.379-4.55-.668-6.828-.957a5.071 5.071 0 0 1-2.32-.918c-24.816-20.473-50.914-30.754-77.898-30.754Z" class="color090817 svgShape"/><path fill="#6556ff" d="M1312.094 906.078s78.581 47.357 162.98 13.016l51.256 17.943 87.856 387.17q2.163 94.453 4.329 188.907l-258.424-5.558q-13.1-52.386-26.193-104.77-9.6 51.948-19.208 103.9l-201.131-8.265q17.219-167.721 34.441-335.444s7.136-182.97 56.71-215.944 107.384-40.955 107.384-40.955Z" class="color6556ff svgShape"/><rect width="45.931" height="284.99" x="655.572" y="1168.546" fill="#fff" class="colorfff svgShape" rx="22.934" transform="rotate(-128.136 678.544 1311.041)"/><path fill="#090817" d="M584.547 1411.82a26.914 26.914 0 0 1-21.215-10.285l-.035-.051a26.933 26.933 0 0 1 4.55-37.82L755.925 1216a26.964 26.964 0 0 1 33.3 42.418l-188.077 147.664a26.78 26.78 0 0 1-16.601 5.738Zm187.976-193.558a18.812 18.812 0 0 0-11.66 4.031l-188.078 147.664a18.929 18.929 0 0 0-3.2 26.582c.05.066.1.129.144.195l.035.051a18.922 18.922 0 0 0 26.446 3.008l188.078-147.668a18.964 18.964 0 0 0-11.766-33.863Z" class="color090817 svgShape"/><path fill="#fff" d="m594.748 1404.312-60.332 24.488 32.7-58.717a35.227 35.227 0 0 1 27.633 34.225Z" class="colorfff svgShape"/><path fill="#090817" d="M534.418 1432.805a4 4 0 0 1-3.5-5.946l32.695-58.718a4.008 4.008 0 0 1 4.379-1.957 40.245 40.245 0 0 1 23.07 14.984 39.835 39.835 0 0 1 7.684 23.109 4 4 0 0 1-2.5 3.743l-60.332 24.492a3.974 3.974 0 0 1-1.496.293Zm34.656-58.02-25.637 46.039 47.172-19.148a31.1 31.1 0 0 0-21.535-26.891Z" class="color090817 svgShape"/><path fill="#fff" d="M639.93 1312.155c-9.542 5.275-18.463 18.848-25.118 31.048s-15.527 29.946-26.137 23.845 3.955-53.236 16.155-69.873 90.024-28.143 90.024-28.143Z" class="colorfff svgShape"/><path fill="#090817" d="M593.047 1372.281a12.73 12.73 0 0 1-6.368-1.765c-2.578-1.485-4.3-4.188-5.109-8.036-3.285-15.542 8.891-52.472 20.035-67.671 12.817-17.477 84.531-28.532 92.664-29.735a4 4 0 0 1 3.055 7.1L642.4 1315.3a3.7 3.7 0 0 1-.535.355c-7.09 3.922-15.012 13.832-23.539 29.461l-1.039 1.91c-5.664 10.446-12.082 22.285-20.93 24.789a12 12 0 0 1-3.31.466Zm87.054-96.75c-29.383 5.352-65.1 14.539-72.043 24.012-9.691 13.207-21.386 48.383-18.664 61.285.36 1.695.895 2.531 1.274 2.75a4.286 4.286 0 0 0 3.507.543c5.6-1.586 11.657-12.754 16.079-20.906l1.046-1.926c9.293-17.031 17.934-27.66 26.4-32.469Zm-40.172 36.625Z" class="color090817 svgShape"/><path fill="#fff" d="M778.959 1273.33a135.284 135.284 0 0 0-50.187 3.6c-4.593 1.223-8.607 2.664-16.636 5.546-33.7 12.094-50.549 18.141-50.187 24.123.388 6.409 19.99 12.667 35.958 13.045 11.278.267 16.717-2.5 25.646.672 8.884 3.151 14.7 9.854 18.251 15.119" class="colorfff svgShape"/><path fill="#090817" d="M741.808 1339.438a4 4 0 0 1-3.32-1.762c-4.605-6.821-10.082-11.391-16.27-13.586-4.863-1.727-8.5-1.4-13.531-.938a93.5 93.5 0 0 1-10.875.5c-13.14-.312-39.187-5.718-39.855-16.8-.547-8.973 12.9-13.8 52.816-28.125 8.129-2.918 12.207-4.383 16.973-5.653a139.315 139.315 0 0 1 51.664-3.714 4 4 0 0 1-.9 7.953 130.893 130.893 0 0 0-48.707 3.5c-4.441 1.179-8.41 2.605-16.316 5.445-24.281 8.715-45.3 16.254-47.48 20.184 1.593 2.98 15.9 8.84 31.992 9.218a81.861 81.861 0 0 0 9.961-.46c5.351-.493 10.414-.946 16.929 1.363 7.836 2.777 14.641 8.379 20.231 16.648a4 4 0 0 1-3.313 6.239Z" class="color090817 svgShape"/><path fill="#080717" d="M643.7 1403.352a4 4 0 0 1-3.1-6.524L672.941 1357a4 4 0 1 1 6.211 5.043l-32.352 39.828a3.984 3.984 0 0 1-3.1 1.481zm-29.329-.79a4 4 0 0 1-3.039-6.6l20.754-24.238a4 4 0 1 1 6.078 5.2l-20.754 24.238a3.989 3.989 0 0 1-3.039 1.4z" class="color080717 svgShape"/><path fill="#6556ff" d="M1488.518 923.8c24.9.556 63.736 5.438 97.167 31.2 25.4 19.578 31.68 38.88 63.784 106.931 55.415 117.467 63.913 117.619 71.288 155.708 3.36 17.352 7.948 50.129-5.628 133.2-9.715 59.442-28.414 142.694-67.536 240.128a404.5 404.5 0 0 1-120.064-52.528l65.66-247.632a393.511 393.511 0 0 1-97.552-161.336c-28.637-92.406-15.273-170.818-7.119-205.671Z" class="color6556ff svgShape"/><path fill="#080717" d="M1185.744 604.02s-18.407-89.875 6.607-146.155 91.3-38.771 91.3-38.771 215.206-32.935 288.324 58.572 91.878 379.161 88.126 465.457-20.77 97.151-20.77 97.151-34.259-80.267-71.779-85.895-108.808-5-120.689-41.272 30.016-153.832 30.016-153.832 42.523.708 52.528-32.476 3.752-61.9-19.385-64.739-34.394 30.305-43.148 22.175-16.884-65.288-31.892-83.3-75.04-5.5-112.56-38.018-35.347-112.108-35.347-112.108-66.666 20.468-101.331 153.211Z" class="color080717 svgShape"/><path fill="#080717" d="M1438.906 670.645a3.992 3.992 0 0 1-2.789-1.133c-32.746-31.891-69.965-19-71.535-18.438a4 4 0 0 1-2.735-7.519c1.758-.637 43.414-15.258 79.848 20.222a4 4 0 0 1-2.789 6.868zm-33.006 30.066c-4.816 0-9.082-3.016-12.312-5.3a41.727 41.727 0 0 0-4.442-2.883c-5.047-2.648-11.023.231-11.082.258a4 4 0 0 1-3.59-7.148c.391-.2 9.668-4.785 18.4-.188a48.272 48.272 0 0 1 5.332 3.43c5.785 4.086 7.933 5.137 11.383 1.933a4 4 0 0 1 5.46 5.844c-3.178 2.972-6.26 4.054-9.149 4.054z" class="color080717 svgShape"/><circle cx="1382.858" cy="703.723" r="19.658" fill="#080717" class="color080717 svgShape"/><path fill="#080717" d="M1192.605 657.914a4 4 0 0 1-2.738-6.918 65.909 65.909 0 0 1 33.676-16.887 66.7 66.7 0 0 1 38.582 4.817 4 4 0 1 1-3.282 7.3 57.91 57.91 0 0 0-63.5 10.609 4 4 0 0 1-2.738 1.079zm15.508 30.93c-3.285 0-6.711-1.3-9.98-5.129a4 4 0 1 1 6.085-5.2c3.051 3.57 5.313 2.781 11.528-.637a48.466 48.466 0 0 1 5.687-2.809c9.2-3.578 17.891 2.016 18.258 2.258a4 4 0 0 1-4.375 6.7c-.105-.07-5.683-3.554-10.976-1.5a41.831 41.831 0 0 0-4.743 2.368c-3.14 1.722-7.191 3.949-11.484 3.949z" class="color080717 svgShape"/><circle cx="1229.328" cy="694.359" r="19.658" fill="#080717" class="color080717 svgShape"/><path fill="#080717" d="M1310.015 749.863c-8.558 0-22.863-1.105-27.058-8.14-4.707-7.895 7.711-38.164 15.535-55.5a4 4 0 1 1 7.289 3.289c-8.934 19.812-17.449 43.926-15.887 48.246 1.762 2.937 14.387 4.527 24.578 4a4 4 0 0 1 .4 7.992c-1.172.055-2.857.113-4.857.113Z" class="color080717 svgShape"/><ellipse cx="1412.758" cy="755.305" fill="#6556ff" class="color6556ff svgShape" rx="27.157" ry="17.727" transform="rotate(-.407 1411.847 754.793)"/><ellipse cx="1213.761" cy="751.782" fill="#6556ff" class="color6556ff svgShape" rx="27.157" ry="17.727" transform="rotate(-.407 1212.942 751.271)"/><path fill="#080717" d="M1486.636 741.578a4 4 0 0 1-2.679-6.973c6.82-6.144 10.066-12.187 9.652-17.964-.617-8.551-9.1-14.321-9.187-14.379a4.006 4.006 0 0 1 .777-7.063l28.7-11.066a4 4 0 0 1 2.875 7.461l-22.566 8.7c3.25 3.515 6.859 8.875 7.375 15.695.633 8.387-3.492 16.649-12.266 24.559a4 4 0 0 1-2.681 1.03zm-166.089 90.328c-13.411 0-24.321-14.1-24.321-31.437s10.91-31.438 24.321-31.438 24.32 14.1 24.32 31.438-10.91 31.437-24.32 31.437zm0-54.875c-9 0-16.321 10.516-16.321 23.438s7.321 23.437 16.321 23.437 16.32-10.515 16.32-23.437-7.32-23.438-16.32-23.438z" class="color080717 svgShape"/><path fill="#fff" d="M1427.359 989.09c-.867 0-1.738-.028-2.613-.078-25.707-1.481-38.176-19.114-42.992-28.4-8.227 7.079-27.825 19.75-57.067 13.309-39.051-8.6-48.359-57.766-48.738-59.856a4 4 0 0 1 7.875-1.425c.082.461 8.766 46.019 42.582 53.468 33.961 7.477 52.836-14.027 53.625-14.945a4.048 4.048 0 0 1 3.836-1.324 4.006 4.006 0 0 1 3.023 2.7c.352 1.082 9.043 26.8 38.317 28.488 29.769 1.641 54.722-33.754 54.968-34.109a4 4 0 0 1 6.586 4.539c-1.082 1.574-26.312 37.629-59.402 37.633Z" class="colorfff svgShape"/><path fill="#fff" d="M1333.9 1406.785a4.325 4.325 0 0 1-.437-.023 4 4 0 0 1-3.543-4.41l47.78-438.231a4 4 0 1 1 7.953.867l-47.777 438.231a4 4 0 0 1-3.976 3.566zm-211.619 10.703c-.106 0-.207 0-.313-.011a4 4 0 0 1-3.679-4.3l17.793-228.934c-20.723-56.184 22.476-102.344 29.488-109.332l16.133-72.5a4.045 4.045 0 0 1 4.773-3.039 4 4 0 0 1 3.039 4.773l-16.394 73.66a4.033 4.033 0 0 1-1.2 2.075c-.5.457-49.308 46.359-28.05 102.367a3.945 3.945 0 0 1 .25 1.726l-17.86 229.817a4 4 0 0 1-3.98 3.698zm-63.523-71.625a4.45 4.45 0 0 1-.512-.031 4 4 0 0 1-3.461-4.477c3.992-31.179-30.512-74.773-30.863-75.207a4 4 0 0 1 6.25-5c1.511 1.891 36.972 46.676 32.55 81.223a4 4 0 0 1-3.964 3.492zm477.304 164.407a4 4 0 0 1-3.9-4.9l50.8-220.6-67.989-209.09a4 4 0 0 1 7.61-2.477l68.332 210.145a4.007 4.007 0 0 1 .094 2.136l-51.047 221.684a4 4 0 0 1-3.9 3.102zm114.038 90.33c-.1 0-.195 0-.293-.012-60.539-4.414-130.527-57.953-133.476-60.231a4 4 0 1 1 4.89-6.335c.7.542 71.047 54.347 129.165 58.589a4 4 0 0 1-.286 7.989zm-301.421 201.9a4 4 0 0 1-3.984-3.691l-7.41-96.262-45.524-57.828a4 4 0 0 1 6.289-4.946l46.274 58.782a4.021 4.021 0 0 1 .844 2.164l7.5 97.472a4 4 0 0 1-3.68 4.3 3.543 3.543 0 0 1-.309.009zM1192.668 541.594a3.839 3.839 0 0 1-.664-.055 4 4 0 0 1-3.286-4.605c.512-3.055 12.883-75.051 46-94.622a4 4 0 0 1 4.07 6.891c-29.942 17.7-42.059 88.34-42.176 89.051a4 4 0 0 1-3.944 3.34zm242.004 30.015a3.844 3.844 0 0 1-.563-.039c-46.266-6.535-68.48-31.984-78.969-52.179a104.252 104.252 0 0 1-11.707-42.719 4 4 0 0 1 3.95-4.043 3.881 3.881 0 0 1 4.05 3.945c.043 3.078 2.032 75.524 83.793 87.074a4 4 0 0 1-.554 7.961zm80.668 0a3.588 3.588 0 0 1-.582-.043c-85.075-12.421-104.395-78.152-104.579-78.812a4 4 0 0 1 7.7-2.16c.171.609 18.281 61.41 98.031 73.058a4 4 0 0 1-.574 7.957zm-.004 338.469a3.979 3.979 0 0 1-1.528-.3c-12.933-5.347-21.98-14.363-26.89-26.8-12.821-32.457 7.043-76.891 7.894-78.766a4 4 0 0 1 7.285 3.3c-.195.429-19.312 43.254-7.73 72.543 4.082 10.324 11.652 17.836 22.5 22.324a4 4 0 0 1-1.527 7.695zm24.386-17.672a3.993 3.993 0 0 1-3.031-1.386c-24.5-28.422-1.84-126.02-.863-130.161a4 4 0 0 1 7.789 1.836c-6.391 27.106-19 102.063-.863 123.1a4 4 0 0 1-3.032 6.613zm-324.078 24.946a4 4 0 0 1-4-3.942c-.246-16.664 11.453-50.23 11.953-51.652a4 4 0 0 1 7.547 2.648c-.117.332-11.726 33.641-11.5 48.887a4 4 0 0 1-3.941 4.059z" class="colorfff svgShape"/></svg></svg>