<svg xmlns="http://www.w3.org/2000/svg" width="256" height="256"><svg xmlns="http://www.w3.org/2000/svg" width="256" height="256" viewBox="0 0 66 66"><path fill="none" stroke="#101f2d" stroke-linecap="round" stroke-linejoin="round" stroke-miterlimit="10" stroke-width="2" d="M6 2.4c-2.2 0-4 1.8-4 4v40.9c0 2.2 1.8 4 4 4h54c2.2 0 4-1.8 4-4V6.4c0-2.2-1.8-4-4-4H6z" class="colorStroke101f2d svgStroke"/><path fill="none" stroke="#101f2d" stroke-linecap="round" stroke-linejoin="round" stroke-miterlimit="10" stroke-width="2" d="M6 6.4h54v36.9H6z" class="colorStroke101f2d svgStroke"/><path fill="#64c4f6" stroke="#101f2d" stroke-linecap="round" stroke-linejoin="round" stroke-miterlimit="10" stroke-width="2" d="M46.2 58.5H19.8l1.9-7.2h22.6z" class="color64c4f6 svgShape colorStroke101f2d svgStroke"/><path fill="#ef6561" stroke="#101f2d" stroke-linecap="round" stroke-linejoin="round" stroke-miterlimit="10" stroke-width="2" d="m19.8 58.5-4.5 5.1h35.4l-4.5-5.1z" class="coloref6561 svgShape colorStroke101f2d svgStroke"/><path fill="none" stroke="#101f2d" stroke-linecap="round" stroke-linejoin="round" stroke-miterlimit="10" stroke-width="2" d="M35.4 47.4h-4.8" class="colorStroke101f2d svgStroke"/><path fill="#ef6561" stroke="#101f2d" stroke-linecap="round" stroke-linejoin="round" stroke-miterlimit="10" stroke-width="2" d="M18.1 12.8c0 1.4-1.1 2.5-2.5 2.5S13 14.2 13 12.8s1.1-2.5 2.5-2.5 2.6 1.1 2.6 2.5z" class="coloref6561 svgShape colorStroke101f2d svgStroke"/><path fill="#64c4f6" stroke="#101f2d" stroke-linecap="round" stroke-linejoin="round" stroke-miterlimit="10" stroke-width="2" d="M18.2 24.5c.8 0 1.5-.5 1.8-1.3.2-.6.3-1.1.3-1.7 0-2.6-2.1-3.3-4.7-3.3s-4.7.7-4.7 3.3c0 .5.1 1.1.3 1.7.2.8.9 1.3 1.8 1.3h5.2z" class="color64c4f6 svgShape colorStroke101f2d svgStroke"/><path fill="none" stroke="#101f2d" stroke-linecap="round" stroke-linejoin="round" stroke-miterlimit="10" stroke-width="2" d="M10.9 28.9h4.6M10.9 33.4h9.3M10.9 37.9h9.3M26.5 28.9h4.7M26.5 33.4h9.3M26.5 37.9h9.3M44 28.9h4.6M44 33.4h9.3M44 37.9h9.3M38.1 17.6c0 3.8-3.1 6.9-6.9 6.9s-6.9-3.1-6.9-6.9 3.1-6.9 6.9-6.9 6.9 3.1 6.9 6.9z" class="colorStroke101f2d svgStroke"/><path fill="#ef6561" stroke="#101f2d" stroke-linecap="round" stroke-linejoin="round" stroke-miterlimit="10" stroke-width="2" d="M38.1 17.6h-6.9v-6.9s6.3 0 6.9 6.9z" class="coloref6561 svgShape colorStroke101f2d svgStroke"/><path fill="#64c4f6" stroke="#101f2d" stroke-linecap="round" stroke-linejoin="round" stroke-miterlimit="10" stroke-width="2" d="m36 22.5-4.9-4.9H38c.1 0 .2 2.8-2 4.9zM42.1 19.3h4.3v5.2h-4.3z" class="color64c4f6 svgShape colorStroke101f2d svgStroke"/><path fill="none" stroke="#101f2d" stroke-linecap="round" stroke-linejoin="round" stroke-miterlimit="10" stroke-width="2" d="M46.5 15.1h4.3v9.5h-4.3z" class="colorStroke101f2d svgStroke"/><path fill="#ef6561" stroke="#101f2d" stroke-linecap="round" stroke-linejoin="round" stroke-miterlimit="10" stroke-width="2" d="M50.8 11.7h4.3v12.8h-4.3z" class="coloref6561 svgShape colorStroke101f2d svgStroke"/></svg></svg>