<svg xmlns="http://www.w3.org/2000/svg" width="550" height="550"><svg xmlns="http://www.w3.org/2000/svg" width="550" height="550" viewBox="0 0 4680 3120"><defs><linearGradient id="b" x1="4139.14" x2="3824.13" y1="879.11" y2="879.11" gradientTransform="rotate(4.57 -5103.18 -1760.177)" gradientUnits="userSpaceOnUse"><stop class="stopColorfff svgShape" offset="0" stop-color="#fff"/><stop class="stopColor666 svgShape" offset="0" stop-color="#666"/><stop class="stopColor000000 svgShape" offset=".72"/></linearGradient><filter id="a" width="321.16" height="126.24" x="3583.12" y="1527.82" color-interpolation-filters="sRGB" filterUnits="userSpaceOnUse"><feFlood flood-color="#fff" result="bg"/><feBlend in="SourceGraphic" in2="bg"/></filter><mask id="c" width="321.16" height="126.24" x="3583.12" y="1527.82" maskUnits="userSpaceOnUse"><g class="color000 svgShape" filter="url(#a)" mask="url(#b)"><path fill="url(#b)" d="m3904.28 1551-288.08-23c-14.33-1.15-26.82 8.86-27.9 22.36l-5.11 63.78c-1.08 13.5 9.66 25.38 24 26.52l168.46 13.49Z" style="mix-blend-mode:multiply"/></g></mask></defs><g class="color000 svgShape" data-name="7"><path fill="#ede3cc" d="M4127.53 1781c-22.7 243.22-168.16 424.28-296.19 539.12-82.48 74-157.73 120.5-188.27 138.45q-62.55 36.75-127.54 69.06c-8.06 4-18.65 10.08-30.48 16.68h3.31S3116.79 2759.46 2436.92 2760c-307.27.24-559.09-27.52-764.1-69.77Q1579.28 2671 1498.5 2648q-12.9-3.61-25.48-7.31-27-7.93-52.64-16.16c-73.23-23.51-137.91-48.69-194.82-74.32-114.79-51.7-205.51-135.84-271.68-218.52-70.59-88.19-113.24-174.7-127.4-218.36-55.39-170.82-183-883.43 692.86-1467.74 679.2-453.1 1636.48-305.59 1813.37 16.9 54.28 99 50.75 222.13-.89 356.7 100.44 18 224.89 46.2 345.45 94.92 59.6 24.08 118.23 53.19 172.54 88.61 174.53 113.75 304.39 292.51 277.72 578.28Z" class="colorede3cc svgShape"/><path fill="#db8545" d="M2386.28 1314.24h862.63v861.02h-862.63z" class="colordb8545 svgShape"/><path fill="#e7a164" d="M2386.28 2114.03h862.63v61.23h-862.63z" class="colore7a164 svgShape" opacity=".15" style="mix-blend-mode:multiply"/><path fill="#e7a164" d="m3248.91 2175.26 213.32-220.5v-861.01l-213.32 220.49v861.02z" class="colore7a164 svgShape"/><path fill="#c16b30" d="m3248.91 2175.26 213.32-220.5v-861.01l-213.32 220.49v861.02z" class="colorc16b30 svgShape"/><path fill="#e5ad88" d="m2597.6 1093.75-55.03 58.95-156.28 161.54h862.63l213.32-220.49H2597.6z" class="colore5ad88 svgShape"/><path fill="#da1928" d="m2963.42 1093.75-207.15 220.49v173.55h122.52v-173.55h.15l207.15-220.49h-122.67z" class="colorda1928 svgShape"/><path fill="#e7a164" d="M2500.46 1998.29h634.28v12.96h-634.28zM2500.46 2036.91h634.28v12.96h-634.28zM2500.46 2075.53h634.28v12.96h-634.28z" class="colore7a164 svgShape" opacity=".4" style="mix-blend-mode:multiply"/><path fill="#db8545" d="M2631.72 596.97h637.74v636.55h-637.74z" class="colordb8545 svgShape"/><path fill="#e7a164" d="M2631.72 1189.93h637.74v43.58h-637.74z" class="colore7a164 svgShape" opacity=".15" style="mix-blend-mode:multiply"/><path fill="#e7a164" d="m3269.47 1233.52 157.71-163.01V433.96l-157.71 163.01v636.55z" class="colore7a164 svgShape"/><path fill="#c16b30" d="m3269.47 1233.52 157.71-163.01V433.96l-157.71 163.01v636.55z" class="colorc16b30 svgShape"/><path fill="#e5ad88" d="m3269.47 596.97 157.71-163.01h-637.75l-157.71 163.01h637.75z" class="colore5ad88 svgShape"/><path fill="#da1928" d="M3339.43 527.09h-647.86l44.47-37.95h637.75l-34.36 37.95z" class="colorda1928 svgShape"/><path fill="#da1928" d="m3062.96 433.96-157.7 163.01v128.3h90.57v-128.3h.11l157.71-163.01h-90.69z" class="colorda1928 svgShape"/><path fill="#b6120b" d="m2818.11 1066.68 87.2-116.34h-52.92V763.97h-68.56v186.37h-52.91l87.19 116.34zM3170.28 950.34h-52.92V763.97h-68.56v186.37h-52.92l87.2 116.34 87.2-116.34z" class="colorb6120b svgShape"/><path fill="#e7a164" d="M2716.14 1102.68h468.92v9.58h-468.92zM2716.14 1131.24h468.92v9.58h-468.92zM2716.14 1159.79h468.92v9.58h-468.92z" class="colore7a164 svgShape" opacity=".4" style="mix-blend-mode:multiply"/><path fill="#19554f" d="M3459.35 773a99.51 99.51 0 0 1 13.44-16c41.92-40.21 96-18.8 138.68 8.41C3707 826.23 3810.4 924.89 3850.82 1062c44.45 150.81 54 323.81 63.55 488.42 1.32 22.73 8.71 69.91 3.1 101.62-16.2-3.64-32.55-6.89-49.1-8.27-7.38-20.66-13.23-44.14-17.49-56.54-49.73-145-117.84-277.73-206.71-380.66-78.82-91.28-176.74-141.14-207.26-291.66-9.46-46.66-2.82-104.6 22.44-141.91Z" class="color19554f svgShape"/><path fill="#3ecaa1" d="m3953.86 1656.53-18.31-2.77c.08-.35.12-.73.21-1.08 2-8 4.89-15.54 7.13-24.23 4-15.51 8-30.76 13.11-46 11.06-33.13 23.9-65.27 36.15-97.72 19.6-51.88 40.75-103.24 67.8-149.35 27.56-47 62-88.48 102.28-110.79 96.71-53.58 247.31 8.68 268.87 150.73 7.12 46.85-4.36 103.16-34 134.63-14.24 15.11-31.49 23.61-48.68 27.91a111.2 111.2 0 0 1-68.78-4.44c-53.08-21.27-113.12-53.78-173-41.59a96.88 96.88 0 0 0-18 5.58c-31.91 13.31-59.66 42.85-84.15 74.25-20 25.68-39.65 51.58-50.63 84.87Z" class="color3ecaa1 svgShape"/><path fill="#2a926e" d="M4023.27 1346.4c-17.18 49.2-31.52 99.94-45.07 150.83-6.72 25.23-38 114-43.52 158.66l-1.93-.3-15.28-3.54c-10.08-43 .78-88.44 1.24-135.29 1.79-181.83-12.16-383.59 46.42-559.48 33.86-101.69 89.68-196.08 163.35-245.39s165.83-45.25 220 26c10.3 13.54 19.27 29.56 23.34 48.69 10.08 47.3-11.63 100.59-37.48 140.4-22.1 34-47.93 63.71-76.16 87.44-29.5 24.81-61.51 43.14-90.24 69.75-34 31.45-61.6 72.58-85 118.06s-42.62 95.32-59.67 144.17Z" class="color2a926e svgShape"/><path fill="none" stroke="#1c1c1b" stroke-miterlimit="10" stroke-width="5.73" d="M3893.41 1639.19c-45.26-226.92-88.18-476.51-217.36-635.33-35.43-43.57-74.33-81.66-113.14-119.6zm51.28 12.19c57.59-118.47 110.75-217.48 201.79-259 58.73-25.64 116.21-10 167 4.69zm218.6-740.67c-187.38 158.94-195.37 475.42-237.5 733.54z" class="colorStroke1c1c1b svgStroke"/><path fill="#19554f" d="M1195.7 1057.84a106.65 106.65 0 0 0-18.51-13c-55-30.24-105.47 7.23-142.41 47.57-82.66 90.24-163 222.16-166.87 376.6-4.22 169.85 34.15 353.12 70.27 527.61 5 24.09 10.47 75.41 25.19 106.94 15.89-8.33 32-16.3 48.94-22.36 1.92-23.63 1.47-49.78 2.44-63.92 11.36-165.26 45.33-322.87 109.31-455.16 56.74-117.33 145-196.77 134.76-362.42-3.18-51.37-26.31-110-63.12-141.86Z" class="color19554f svgShape"/><path fill="#3ecaa1" d="m926.64 2118.4 18.34-8c-.19-.35-.34-.73-.53-1.07-4.34-7.77-9.44-14.85-14.21-23.29-8.51-15.08-17-29.86-26.54-44.31-20.81-31.5-43.2-61.45-65.07-91.9-35-48.67-71.41-96.36-112.55-136.93-41.9-41.34-89.47-75-137.75-87-115.94-28.88-255.72 78.23-238.5 232.54 5.68 50.9 33.41 106.47 73.18 131 19.09 11.78 39.48 15.83 58.62 15.51a120.15 120.15 0 0 0 70.56-23.86c49.45-37.06 103-87.79 169-91.82a105.2 105.2 0 0 1 20.3.8c37 5 74.27 28 108.62 54 28 21.11 55.76 42.65 76.53 74.33Z" class="color3ecaa1 svgShape"/><path fill="#2a926e" d="M767.44 1814.09c31.7 46.55 60.86 95.51 89.24 144.84 14.07 24.46 71.57 108.33 89.8 153.44l1.93-.85 15-8c-1.51-47.71-25.55-92.1-39.14-140.87-52.72-189.31-94.59-403.82-204.93-571-63.79-96.68-148.46-179.59-239.15-210.46s-185.76-.85-222.4 88.64c-7 17-11.84 36.24-10.74 57.35 2.71 52.19 40.28 101.75 78.39 136.08 32.59 29.36 67.85 53.09 104 70 37.73 17.64 76.28 27.82 113.7 47.56 44.25 23.33 84.61 58.53 121.77 99.46s71.09 87.59 102.53 133.81Z" class="color2a926e svgShape"/><path fill="none" stroke="#1c1c1b" stroke-miterlimit="10" stroke-width="5.73" d="M984.89 2083.39c-16.22-249.53-41.23-522.06 49.19-724 24.8-55.38 54.74-106 84.64-156.48zm-50.12 27.07c-93.25-107.56-176.43-196-283.07-213.87-68.48-10.34-124.11 22-173 51.6zm-435.35-712c240.05 113.5 336.91 441.62 453.09 699.28z" class="colorStroke1c1c1b svgStroke"/><path fill="#161310" d="M1195.54 2189.56s-30.5 213.51-18.77 218.21 752.55 0 752.55 0l-24.62-218.21Z" class="color161310 svgShape"/><path fill="#f19a6d" d="M2752.33 1519.56c-17.84 5.33-109.09 6.24-109.09 6.24s80.12 5.85 86.35 8.16 12.85 5.88-7.41 21.7c-18.32 14.21-85.69 10.78-100.53 9.57 11.76 1.44 57.22 7.24 67.07 10.82 11.69 4.12-7.5 25.8-24.9 30.31s-120.08 6.72-120.08 6.72-27.44 17.23-39 20.67a70.41 70.41 0 0 1-13.85 2.28 144.37 144.37 0 0 1-15.21.17l-34.22 27.69c-12.78-8-26.54-19.84-39.77-37.34-14.22-18.86-21.33-35.09-24.45-48.34l31.74-28.28 3.94-3.23c20.19-16.54 111.83-91.36 133.25-106.4 24.1-16.91 105.82 5.83 166.44 4.41s79.06 0 75.63 16.27c-3 13.74-89.89 25.82-118 28.39 21.16-.14 74.2 1.14 89.31 1 19.35-.29 10.62 23.86-7.22 29.19Z" class="colorf19a6d svgShape"/><path fill="#ee6a4a" d="M2604.52 1435.55s-67.13 45.44-68.74 83.94c-1.11 26.58-17.08 37-26.86 41a19 19 0 0 0-7.51 2.21c-18.68 10.09-49.36 7.56-49.36 7.56l-3-53c35-28.44 82.46-66.66 97.11-76.93 10.61-7.45 32.26-7.23 58.36-4.78Z" class="coloree6a4a svgShape"/><path fill="#f19a6d" d="M2476.43 1558.93c-29 20.74-60.77 15.19-75-9.26s54.13-118.59 69.44-128.61 69.2 3.08 89.55 4.92 12 27.08-8.81 31.82c-10.08 2.3-21 4.84-29.61 6.86a21.13 21.13 0 0 0-16.3 19c-1.6 21.45-7.53 59.75-29.27 75.27Z" class="colorf19a6d svgShape"/><path fill="#f5927e" d="M2418.78 1624a32.54 32.54 0 0 1 6.19-33.35c12.68-13.81 30.3-37.43 27.85-59.91-5.94-54.61 18-109.68 18-109.69l-2.57 2c-19.11 16.87-80.41 103.28-66.86 126.56a46.93 46.93 0 0 0 2.92 4.42l-27.08 24.12c3.12 13.25 10.23 29.48 24.45 48.34 13.23 17.5 27 29.39 39.77 37.34-11.17-13.12-18.3-28.03-22.67-39.83Z" class="colorf5927e svgShape"/><path fill="#299ef7" d="M2472.89 1612.31c-13.92-67.9-37.27-177.16-43.36-177.29-5.69-.12-197.78 89.37-332.48 152.46-45.37-91.42-87.58-177.91-114.81-245.53-36.85-91.53-95.08-172.54-188-205.76-40.19-14.37-83-27.54-121.18-34.74-163.08-2.68-195.16-30.3-195.16-30.3-39.14 18.38-125.86 48.78-202.08 74.36-86.11 28.9-150.07 137-187.39 219.8-83.08 184.4-158 462.5-149.69 545.79 12.79 127.52 65 173.44 132.37 201.74 6.07 2.55 13.95 3.6 22.82 3.6 29.24 0 69.15-11.39 89.89-17.8l-9 139.74 691-.14h67.5l-6.77-327 .09.06c2.51 1.71 58.32 38.28 117.49 7.42 109.36-57 439.29-253.61 439.29-253.61s-4.26-22.2-10.53-52.8Z" class="color299ef7 svgShape"/><path fill="#0071b8" d="m1167.1 1745.98 96.15-268.64-9.11 176.16 215.43-52.69-302.47 145.17zM1673.46 2238.38s-325.93-82.15-284.1-177.82c36.7-83.94 88.53-178.3 153.79-236.68l-359.3 274.76-9 139.74zm810.07-573.27s-329.93 196.6-439.29 253.61c-59.17 30.86-115-5.71-117.49-7.42l-.09-.06-22-406.53s30.39 248.89 111.88 276.51c69.44 23.54 366.59-125.69 456.31-168.91 6.31 30.6 10.68 52.8 10.68 52.8z" class="color0071b8 svgShape"/><path fill="#f19a6d" d="M1693.17 1518.22c-8.36 8.52-9.51 22-2.17 31.39a25.24 25.24 0 0 1 4.54 9.85c4.7 20-7 38.73-7 38.73s25.82 15.25 5.87 50.46c0 0 14.08 19.94 0 46.94 0 0-65.72 51.64-77.46 61-4.25 3.4-22.34 9.25-43.68 15.35-37.63 10.74-85.4 22.2-85.4 22.2l-70.42-124.39 48.12-36.38s26.13-50.26 46.18-87.3c10.58-19.56 19.46-35.42 21.89-38.27 7-8.22 84.49-4.69 84.49-4.69s122.61-82.15 134.34-86.84 18.79 3.52 16.44 16.43c-1.66 8.89-47.34 56.57-75.74 85.52Z" class="colorf19a6d svgShape"/><path fill="#ee6a4a" d="M1573.23 1772c-37.63 10.74-85.4 22.2-85.4 22.2l-70.42-124.39 48.12-36.38s26.13-50.26 46.18-87.3c19.29 30.36 71.14 124.53 61.52 225.87Z" class="coloree6a4a svgShape"/><path fill="#299ef7" d="m1146.52 1755.86 323-155s42.32 39.69 63.07 116.28c10.51 38.77 10.51 106.79 10.51 106.79l-359.3 274.76s-93.64-58.93-98.42-178.34 61.14-164.49 61.14-164.49Z" class="color299ef7 svgShape"/><path fill="#f19a6d" d="M1461.1 1115c26.14 51.76 117.13 129.63 117.13 129.63s119.78-81.14 124.27-124.8l-.45-15.84-2.28-60.74-3.4-128.41-196.9-36.41Z" class="colorf19a6d svgShape"/><path fill="#f19a6d" d="M1443.83 850.13c12.25 81.66 84.27 155.89 153.59 184.93 66.34 27.87 144.46 5.83 167.6-22.89 21.41-26.7 27.76-65.18 25.65-107a419.38 419.38 0 0 0-9.07-66.68c-18.4-88-57.2-170.16-57.2-170.16-107.52-145.57-304.6 20.72-280.57 181.8Z" class="colorf19a6d svgShape"/><path fill="#ee6a4a" d="M1560.55 1037s73.33 82.4 141.11 68.53l-1.48-60.83c-89.1 12.1-139.63-7.7-139.63-7.7zm165.59-100.76a2.84 2.84 0 0 1-2.2-4.63c10.67-13.05 24.66-34.05 22.38-39.88-1.84-4.71-21.65-4.79-39-1.91a2.84 2.84 0 0 1-3-1.44c-15.11-27.74-18.54-77.6-18.68-79.71a2.84 2.84 0 0 1 5.66-.37c0 .49 3.34 48.59 17.08 75.62a171.21 171.21 0 0 1 17.92-1.65c14.87-.49 23.12 1.92 25.26 7.39 4.3 11-18.63 39.86-23.27 45.54a2.83 2.83 0 0 1-2.15 1.04z" class="coloree6a4a svgShape"/><path fill="#0f1231" d="M1647.22 860c2.62 7.23-.27 14.9-6.44 17.13s-13.29-1.83-15.9-9.06.27-14.91 6.44-17.14 13.29 1.87 15.9 9.07zm116.96-23.64c2.61 7.24-.27 14.91-6.44 17.14s-13.29-1.83-15.91-9.06.27-14.91 6.44-17.14 13.3 1.83 15.91 9.06z" class="color0f1231 svgShape"/><path fill="#0e0d0b" d="M1601.25 826.72s19.84-22.5 45.6-33.07 5.11-25.8-12.82-23.1-39.88 38.18-32.78 56.17zM1767.52 794s-23.46-15-51-12.6-3.37-24.75 16.56-22.54c25.74 2.8 34.44 35.14 34.44 35.14z" class="color0e0d0b svgShape"/><path fill="#ee6a4a" d="M1659.32 916.19c4.51 21.68-13.45 43.75-40.11 49.31s-52-7.52-56.46-29.19 13.44-43.75 40.11-49.3 51.94 7.51 56.46 29.18zM1767.36 891c4 10.44 12.86 18 24.08 21.46a419.38 419.38 0 0 0-9.07-66.68c-14.37 11.92-20.99 29.64-15.01 45.22z" class="coloree6a4a svgShape" opacity=".49"/><path fill="#f19a6d" d="M1511.68 871.05c-8.64-10.18-11.23-28-24.38-30.33-3.5-.62-20.39.13-29 19.83-6.43 14.64-8.92 31.16-4 46.38s15.16 28.34 27.48 38.54c5.85 4.84 12.53 9.21 20.08 10s16-3 18.43-10.21Z" class="colorf19a6d svgShape"/><path fill="#383939" d="M1747.66 975.37a33.83 33.83 0 0 1-3.48 5.16c-8.67 10.78-23.88 17.69-38.73 17a44.62 44.62 0 0 1-18.41-4.91c-8.89-4.71-15.84-12.16-18.57-20.92-1.57-5-1.21-11.58 4-14.41a13.41 13.41 0 0 1 3.93-1.17 49.31 49.31 0 0 1 7.67.26 107.61 107.61 0 0 0 41.19-4.2 39.31 39.31 0 0 1 13.35-2.3c4 .17 7.36 1.43 9.48 4.45 4.38 6.15 3.12 14.32-.43 21.04Z" class="color383939 svgShape"/><path fill="#fff" d="M1738.63 949.9c.2 3.5-.22 7.05-2.26 9.71-2.22 3-5.82 4.43-9.35 5.46a90.3 90.3 0 0 1-39.5 3.34c-3.14-.45-6.52-1.19-8.68-3.49s-2.55-5.56-2.42-8.78a49.31 49.31 0 0 1 7.67.26 107.61 107.61 0 0 0 41.19-4.2 39.31 39.31 0 0 1 13.35-2.3Z" class="colorfff svgShape"/><path fill="#ee6a4a" d="M1744.18 980.53c-8.67 10.78-23.88 17.69-38.73 17a44.62 44.62 0 0 1-18.41-4.91c4.45-7.11 12.83-11.77 21.21-14 11.81-3.33 24.86-3.02 35.93 1.91Z" class="coloree6a4a svgShape"/><path fill="#0e0d0b" d="M1464.91 995.29c24.95-10.49 31.07-28.09 31.58-41.39-15.73-8.68-34.37-37.49-37.54-67.59-3.7-35.21 18.56-50.91 33.38-47.75C1507 842 1523.1 875 1523.1 875l18.34-141.39s69.87 4.87 145.79 4.07c44.63-.47 120.17 1 120.17 1-26.3-207.15-194-193.07-298.47-151.89-118.75 46.83-103.44 133-103.44 133-104.06 90.5 59.42 275.5 59.42 275.5Z" class="color0e0d0b svgShape"/><path fill="#7f6036" d="M3950.07 2070.15H944.55l-211.9 219.17h3429.32l-211.9-219.17z" class="color7f6036 svgShape"/><path fill="#9f845a" d="M4162 2289.31v24.18a1445.68 1445.68 0 0 1-224.38 138.45q-74.55 36.75-152 69.06c-9.61 4-22.23 10.08-36.33 16.68h3.95s-51 24.77-150 57.51C3410.41 2659 3035.46 2753 2500.12 2753.36c-366.2.24-666.31-27.52-910.64-69.77q-111.48-19.28-207.75-42.21-15.37-3.62-30.37-7.31-32.22-7.93-62.74-16.16c-87.27-23.51-164.36-48.69-232.18-74.32a827.72 827.72 0 0 1-162.5-83.29 933.54 933.54 0 0 1-161.29-135.23v-35.76Z" class="color9f845a svgShape"/><path fill="#5e4220" d="M732.65 2289.32h3429.32v58.58H732.65z" class="color5e4220 svgShape"/><path fill="#7f6036" d="M3603.22 2595.19c-192.81 63.81-567.76 157.81-1103.1 158.17-366.2.24-666.31-27.52-910.64-69.77q-111.48-19.28-207.75-42.21-15.37-3.62-30.37-7.31-32.22-7.93-62.74-16.16c-87.27-23.51-164.36-48.69-232.18-74.32a827.72 827.72 0 0 1-162.5-83.29c377.34-1.49 1974.21 9.82 2709.28 134.89Z" class="color7f6036 svgShape" opacity=".37"/><path fill="#1a2e35" d="m1534.77 2115.72 312.09 143.45 657.76-168.35-277.38-146.74-692.47 171.64z" class="color1a2e35 svgShape"/><path fill="#404040" d="m1539.29 2092.93 312.09 143.45 657.76-168.35-277.38-146.73-692.47 171.63z" class="color404040 svgShape"/><path fill="#9c9c9c" d="m1682.08 2108.41-50.42-19.64 58.68-15.16 49.42 18.25-57.68 16.55zM1738.68 2131.6l-50.41-19.64 58.68-15.16 49.42 18.26-57.69 16.54zM1795.29 2154.79l-50.42-19.64 58.68-15.16 49.42 18.26-57.68 16.54zM1753.08 2090.2l-50.41-19.63 58.68-15.17 49.42 18.26-57.69 16.54zM1809.69 2113.4l-50.42-19.64 58.68-15.17 49.42 18.26-57.68 16.55zM1866.29 2136.59l-50.41-19.64 58.68-15.16 49.41 18.26-57.68 16.54zM1824.09 2072l-50.42-19.64 58.68-15.16 49.42 18.26-57.68 16.54zM1880.69 2095.19l-50.41-19.64 58.68-15.16 49.42 18.26-57.69 16.54z" class="color9c9c9c svgShape"/><path fill="#f68b00" d="m1937.3 2118.39-50.42-19.64 58.68-15.16 49.42 18.25-57.68 16.55z" class="colorf68b00 svgShape"/><path fill="#9c9c9c" d="m1895.09 2053.8-50.41-19.64 58.68-15.16 49.42 18.26-57.69 16.54z" class="color9c9c9c svgShape"/><path fill="#f68b00" d="m1951.7 2076.99-50.41-19.64 58.67-15.16 49.42 18.26-57.68 16.54zM2008.3 2100.18l-50.41-19.63 58.68-15.17 49.42 18.26-57.69 16.54z" class="colorf68b00 svgShape"/><path fill="#404040" d="M2672.3 1646.31c-3.71 7.87-94.74 244-139.19 359.46-14.45 37.5-24 62.26-24 62.26l-657.76 168.35L2021 1796.45l144.35-33.28Z" class="color404040 svgShape"/><path fill="#375a64" d="M1945 1993.49c-.88-.13-22.57 54.15-48.42 121.21s-46.11 121.56-45.22 121.68 22.56-54.14 48.43-121.23 46.12-121.54 45.21-121.66Z" class="color375a64 svgShape"/><path fill="#fff" d="M2247.2 1930.87c-11.18 18.07-7.47 37.29 8.3 42.92s37.61-4.46 48.79-22.53 7.47-37.3-8.29-42.93-37.61 4.46-48.8 22.54Z" class="colorfff svgShape"/><path fill="#262626" d="M2533.11 2005.77c-14.45 37.5-24 62.26-24 62.26l-657.76 168.35L2021 1796.45l144.35-33.28c-23.79 54.12-92.53 224.63-33.6 265.86 53.02 37.13 288.77-1.87 401.36-23.26Z" class="color262626 svgShape" opacity=".51"/><path d="m2509.14 2068.03-4.52 22.79-657.76 168.35 4.52-22.79 657.76-168.35zM1539.29 2092.93l-4.52 22.79 312.09 143.45 4.52-22.79-312.09-143.45z" class="color000 svgShape"/><path d="M1836.71 2230.03 2007.39 1783l13.6 13.45-169.61 439.93-14.67-6.35z" class="color000 svgShape"/><path fill="#757575" d="m2672.3 1646.31-16.6-7.68L2007.39 1783l13.6 13.45 651.31-150.14z" class="color757575 svgShape"/><path fill="#19554f" d="M1198.36 2098.19a597.39 597.39 0 0 1-19.29-176.19c1.48-36.89 8.41-77.3 39.73-101.7 18.46-14.38 44.35-21.14 68.5-17.37s46.08 18.32 56.3 38.09c10.3 20 8.57 43 6.35 64.8q-10.28 102.48-27.37 204.26Z" class="color19554f svgShape"/><path fill="#2a926e" d="M1234.21 2095.76a2.11 2.11 0 0 1-2.06-1.72c-21.92-117.48-24-254.25 35.95-285.77a2.1 2.1 0 1 1 2 3.71c-25.92 13.64-42 50.7-46.52 107.21-3.82 47.78.71 109.6 12.74 174.08a2.1 2.1 0 0 1-1.68 2.45 1.72 1.72 0 0 1-.43.04zm45.59 22.43h-.24a2.1 2.1 0 0 1-1.85-2.32c4.12-36 9.15-69.92 13.58-99.87 14.21-96 24.47-165.3-7.27-204.53a2.1 2.1 0 1 1 3.26-2.65c32.91 40.67 22.53 110.77 8.16 207.8-4.42 29.91-9.44 63.82-13.56 99.72a2.1 2.1 0 0 1-2.08 1.85z" class="color2a926e svgShape"/><path fill="#5c9867" d="M1305.6 2100.08a446 446 0 0 1 9.31-126c3.3-15.15 8.16-31.24 20.2-40.4 13.93-10.53 34.46-8.14 48.06 2.82s20.69 28.94 22.25 46.74-1.89 35.7-6.26 53a514 514 0 0 1-29.84 86.12Z" class="color5c9867 svgShape"/><path fill="#2a926e" d="M1318.62 2105.43a2.1 2.1 0 0 1-2.1-2.1c0-59.49 5.28-161.11 40.66-173.2a2.1 2.1 0 1 1 1.36 4c-34.13 11.67-37.82 122.24-37.82 169.23a2.1 2.1 0 0 1-2.1 2.07zm31.99 12.16a2.22 2.22 0 0 1-.76-.14 2.11 2.11 0 0 1-1.2-2.72c13.14-34.13 23.93-73.09 28.85-104.23 6.11-38.68 3.43-64.26-7.75-74a2.1 2.1 0 0 1 2.76-3.17c27.76 24.12 3.28 122.59-19.94 182.88a2.11 2.11 0 0 1-1.96 1.38zM1206 2091.17q-11.49-79.61-27.28-158.54c-1.24-6-2.47-12.16-5.94-17.12-5.85-8.48-16.9-11.56-27-11-22.18 1.28-42.54 18.83-47.89 41.18-3.8 15.75-.58 32.36 3.21 48.11a695.76 695.76 0 0 0 37.75 113.77z" class="color2a926e svgShape"/><path fill="#19554f" d="M1154 2104.15a2.11 2.11 0 0 1-2-1.37c-28.48-76.54-53.8-159.19-25.67-191.89a2.1 2.1 0 1 1 3.18 2.74c-12.3 14.3-14.49 41.6-6.51 81.13 7 34.78 20.59 73.38 32.94 106.55a2.12 2.12 0 0 1-2 2.84zm36.2-8.65a2.1 2.1 0 0 1-2-1.45c-6.4-19.6-10.07-45.6-14-73.13-7-49.4-14.18-100.48-37.83-111a2.1 2.1 0 0 1 1.71-3.83c25.77 11.49 33.15 63.74 40.28 114.28 3.85 27.33 7.5 53.16 13.78 72.41a2.1 2.1 0 0 1-1.34 2.65 2.14 2.14 0 0 1-.6.07z" class="color19554f svgShape"/><path fill="#ffc043" d="M1432.79 2066.52s-1.65 42.72-24.32 85.52l-.08.09c-22.92 43.14-67.26 86.29-152.83 85.6-179.12 0-177.22-171.21-177.22-171.21Z" class="colorffc043 svgShape"/><path fill="#fdd305" d="M1432.79 2066.52s-1.65 42.72-24.32 85.52l-.08.09c-26 17.12-65.2 29.19-124 28.67-129 0-166.26-73.28-177-114.28Z" class="colorfdd305 svgShape"/><circle cx="2540.74" cy="2389.11" r="220.21" fill="#0071b8" class="color0071b8 svgShape"/><path fill="#fff" d="M2702.84 2416.12c14.88-89.38-45.73-174.2-135.11-189.08s-174.21 45.72-189.09 135.1c-14.06 84.4 39.22 164.71 120.45 185.93a65.8 65.8 0 0 0 25.9 4.6c85.15 8.25 163.59-50.92 177.85-136.55Zm-60.12-17.53c3.52-25.85 3.12-51.23-1-74.45a241.19 241.19 0 0 0 27.08-11.95 148.77 148.77 0 0 1 20.44 94.15Zm-70.55-153.1c23.44 8 41.14 32.63 50.09 65.9q-31.76 9.26-62 5.82Zm-26.57 69.29a153.51 153.51 0 0 1-35.49-12.55 169.75 169.75 0 0 1-23.11-13.93c19.78-29.13 45.26-46.62 70.64-45.53Zm-44.33 3.48a170.47 170.47 0 0 0 41.34 14.47l-8 47.87-79.5-13.24a228.09 228.09 0 0 1 22.3-63.34 190.92 190.92 0 0 0 23.86 14.24Zm30.93 77-8 47.89a170.34 170.34 0 0 0-43.8.27 190.29 190.29 0 0 0-27.51 5.86 229.36 229.36 0 0 1-.25-67.26Zm-48.59 66.2a154.14 154.14 0 0 1 37.63-.39l-12.18 73.16c-24.6-7.26-43.17-32.48-52.35-67a170.58 170.58 0 0 1 26.9-5.8Zm52.27 2.06q29.92 6.6 57.18 25.89c-19.32 29.08-44.29 47-69.32 47Zm3-17.88 8-47.94 77.32 12.88a229.55 229.55 0 0 1-21.81 63.15c-21.88-15.16-43.39-23.73-63.54-28.12Zm10.42-62.58 8-47.93c20.33 2.38 43.39 1.26 68.82-5.89a228.59 228.59 0 0 1 .5 66.7Zm88.37-76.85a170.89 170.89 0 0 0-5.94-17.7 131.13 131.13 0 0 0-15.39-28.29 149.73 149.73 0 0 1 42 36.79 225.77 225.77 0 0 1-20.7 9.17Zm-152.54-42.11a167.23 167.23 0 0 0-10.94 14.23 183 183 0 0 1-15-14.35 150 150 0 0 1 48-20.48 132.88 132.88 0 0 0-22.09 20.57Zm-20.77 29.9c-11.58 20.75-20.28 44.83-25.37 70.65l-44.31-7.38a148.75 148.75 0 0 1 49.73-82.34 195.29 195.29 0 0 0 19.95 19.07Zm-27.83 85.28c-3.67 26.1-3.35 51.75.77 75.2a198 198 0 0 0-24.7 11.44 148.81 148.81 0 0 1-20.36-94Zm4.84 93.31a170.2 170.2 0 0 0 6 17.95 134.82 134.82 0 0 0 12.73 24.46 149.89 149.89 0 0 1-37.08-33.85 181.62 181.62 0 0 1 18.35-8.54ZM2594 2515a170.84 170.84 0 0 0 11.93-15.65q8.25 6.94 16.22 15.1a149.46 149.46 0 0 1-49.78 20.78A133.13 133.13 0 0 0 2594 2515Zm21.5-31.37c11.36-20.73 19.87-44.71 24.81-70.37l46.5 7.74a148.84 148.84 0 0 1-49.87 82.46 239.54 239.54 0 0 0-21.45-19.86Z" class="colorfff svgShape"/><circle cx="2705.08" cy="2258.27" r="92.68" fill="#e43864" class="colore43864 svgShape" transform="rotate(-45 2705.088 2258.276)"/><path fill="#fff" d="m2713 2300.26-10.9-26.07-22.43 16.95-26.15-7.16 39.1-27-18.86-42 25.81 7.07 10.72 24.42 21.45-15.62 24.76 6.78-37.39 25.72 20.27 44.07Z" class="colorfff svgShape"/><path fill="#002c6b" d="m4005.78 2229-460-32.18a77.31 77.31 0 0 1-70.89-83.22l41.21-537.68a77.29 77.29 0 0 1 83.21-70.89l461.91 37a77.3 77.3 0 0 1 70.89 83.22L4089 2158.07a77.29 77.29 0 0 1-83.22 70.93Z" class="color002c6b svgShape"/><path fill="#003d82" d="m4007.29 2210-460-32.18a77.29 77.29 0 0 1-70.88-83.21l41.2-537.69a77.3 77.3 0 0 1 83.22-70.88l461.91 37a77.29 77.29 0 0 1 70.88 83.21l-43.12 532.9a77.29 77.29 0 0 1-83.21 70.85Z" class="color003d82 svgShape"/><rect width="99.91" height="121.34" x="3573.58" y="2045.91" fill="#212123" class="color212123 svgShape" opacity=".33" rx="24.52" transform="rotate(-85.42 3623.747 2106.533)"/><rect width="99.91" height="121.34" x="3742.29" y="2059.41" fill="#212123" class="color212123 svgShape" opacity=".33" rx="24.52" transform="matrix(.08 -1 1 .08 1376.37 5731.1)"/><rect width="99.91" height="121.34" x="3911" y="2072.92" fill="#212123" class="color212123 svgShape" opacity=".33" rx="24.52" transform="rotate(-85.42 3961.182 2133.53)"/><rect width="99.91" height="121.34" x="3592.81" y="1811.63" fill="#212123" class="color212123 svgShape" opacity=".33" rx="24.52" transform="rotate(-85.42 3642.975 1872.248)"/><rect width="99.91" height="121.34" x="3930.23" y="1838.64" fill="#212123" class="color212123 svgShape" opacity=".33" rx="24.52" transform="rotate(-85.42 3980.406 1899.24)"/><rect width="99.91" height="121.34" x="3761.46" y="1825.59" fill="#212123" class="color212123 svgShape" opacity=".33" rx="24.52" transform="rotate(-85.42 3811.628 1886.198)"/><path fill="#212123" d="m3665.44 2042.17-72.07-5.77a24.52 24.52 0 0 1-22.49-26.4l4.06-50.7a24.52 24.52 0 0 1 26.4-22.49l72.07 5.77a24.52 24.52 0 0 1 22.48 26.4l-4 50.7a24.53 24.53 0 0 1-26.45 22.49Z" class="color212123 svgShape" opacity=".33"/><rect width="99.91" height="121.34" x="3752.14" y="1942.32" fill="#212123" class="color212123 svgShape" opacity=".33" rx="24.52" transform="matrix(.08 -1 1 .08 1502.16 5633.17)"/><rect width="99.91" height="121.34" x="3920.85" y="1955.82" fill="#212123" class="color212123 svgShape" opacity=".33" rx="24.52" transform="rotate(-85.42 3971.028 2016.426)"/><rect width="99.91" height="121.34" x="3603.51" y="1695.87" fill="#212123" class="color212123 svgShape" opacity=".33" rx="24.52" transform="rotate(-85.42 3653.667 1756.477)"/><path fill="#212123" d="m3854.22 1822.72-72.07-5.76a24.52 24.52 0 0 1-22.48-26.41l4-50.7a24.52 24.52 0 0 1 26.4-22.48l72.07 5.76a24.52 24.52 0 0 1 22.49 26.4l-4.06 50.71a24.52 24.52 0 0 1-26.35 22.48Z" class="color212123 svgShape" opacity=".33"/><rect width="99.91" height="121.34" x="3940.93" y="1722.87" fill="#212123" class="color212123 svgShape" opacity=".33" rx="24.52" transform="rotate(-85.42 3991.102 1783.474)"/><path fill="#25c1dc" d="m4032.83 1682-427.74-34.23a24.52 24.52 0 0 1-22.48-26.4l5.1-63.78a24.52 24.52 0 0 1 26.4-22.49l427.73 34.24a24.52 24.52 0 0 1 22.49 26.4l-5.1 63.78a24.52 24.52 0 0 1-26.4 22.48Z" class="color25c1dc svgShape"/><rect width="99.91" height="121.34" x="3564.27" y="2034.81" fill="#b3b3b3" class="colorb3b3b3 svgShape" rx="24.52" transform="rotate(-85.42 3614.445 2095.429)"/><rect width="99.91" height="121.34" x="3732.98" y="2048.31" fill="#b3b3b3" class="colorb3b3b3 svgShape" rx="24.52" transform="matrix(.08 -1 1 .08 1378.89 5711.62)"/><rect width="99.91" height="121.34" x="3901.69" y="2061.81" fill="#d8822d" class="colord8822d svgShape" rx="24.52" transform="rotate(-85.42 3951.88 2122.426)"/><rect width="99.91" height="121.34" x="3583.5" y="1800.53" fill="#b3b3b3" class="colorb3b3b3 svgShape" rx="24.52" transform="rotate(-85.42 3633.684 1861.143)"/><rect width="99.91" height="121.34" x="3752.21" y="1814.03" fill="#b3b3b3" class="colorb3b3b3 svgShape" rx="24.52" transform="rotate(-85.42 3802.38 1874.643)"/><path fill="#b3b3b3" d="m4002.93 1940.89-72.07-5.77a24.52 24.52 0 0 1-22.49-26.4l4.06-50.7a24.52 24.52 0 0 1 26.4-22.49l72.07 5.77a24.52 24.52 0 0 1 22.48 26.4l-4.05 50.7a24.52 24.52 0 0 1-26.4 22.49Z" class="colorb3b3b3 svgShape"/><rect width="99.91" height="121.34" x="3574.13" y="1917.71" fill="#b3b3b3" class="colorb3b3b3 svgShape" rx="24.52" transform="rotate(-85.42 3624.29 1978.335)"/><rect width="99.91" height="121.34" x="3742.83" y="1931.22" fill="#b3b3b3" class="colorb3b3b3 svgShape" rx="24.52" transform="rotate(-85.42 3793.024 1991.827)"/><rect width="99.91" height="121.34" x="3911.54" y="1944.72" fill="#b3b3b3" class="colorb3b3b3 svgShape" rx="24.52" transform="rotate(-85.42 3961.742 2005.326)"/><rect width="99.91" height="121.34" x="3564.96" y="2026.24" fill="#ebebeb" class="colorebebeb svgShape" rx="24.52" transform="rotate(-85.42 3615.135 2086.857)"/><path fill="#ebebeb" d="m3815.67 2153.09-72.07-5.77a24.52 24.52 0 0 1-22.49-26.4l4.06-50.7a24.52 24.52 0 0 1 26.4-22.49l72.07 5.77a24.52 24.52 0 0 1 22.49 26.4l-4.06 50.7a24.52 24.52 0 0 1-26.4 22.49Z" class="colorebebeb svgShape"/><path fill="#f9d32f" d="m3984.38 2166.59-72.07-5.77a24.52 24.52 0 0 1-22.49-26.4l4.06-50.7a24.52 24.52 0 0 1 26.4-22.49l72.07 5.77a24.52 24.52 0 0 1 22.49 26.4l-4.06 50.7a24.52 24.52 0 0 1-26.4 22.49Z" class="colorf9d32f svgShape"/><path fill="#ebebeb" d="m3666.19 1905.31-72.07-5.77a24.52 24.52 0 0 1-22.48-26.4l4.05-50.7a24.52 24.52 0 0 1 26.4-22.49l72.07 5.77a24.52 24.52 0 0 1 22.49 26.4l-4.06 50.7a24.52 24.52 0 0 1-26.4 22.49zm168.71 13.5-72.07-5.76a24.52 24.52 0 0 1-22.48-26.41l4.05-50.7a24.52 24.52 0 0 1 26.4-22.48l72.07 5.76a24.52 24.52 0 0 1 22.49 26.4l-4.06 50.71a24.52 24.52 0 0 1-26.4 22.48zm168.71 13.51-72.07-5.77a24.52 24.52 0 0 1-22.49-26.4l4.06-50.7a24.52 24.52 0 0 1 26.4-22.49l72.07 5.77a24.52 24.52 0 0 1 22.49 26.4l-4.06 50.7a24.52 24.52 0 0 1-26.4 22.49zm-346.8 90.17-72.06-5.77a24.52 24.52 0 0 1-22.49-26.4l4.06-50.7a24.52 24.52 0 0 1 26.4-22.49l72.06 5.77a24.52 24.52 0 0 1 22.49 26.4l-4.05 50.7a24.54 24.54 0 0 1-26.41 22.49z" class="colorebebeb svgShape"/><rect width="99.91" height="121.34" x="3743.52" y="1922.64" fill="#ebebeb" class="colorebebeb svgShape" rx="24.52" transform="rotate(-85.42 3793.703 1983.255)"/><rect width="99.91" height="121.34" x="3912.23" y="1936.15" fill="#ebebeb" class="colorebebeb svgShape" rx="24.52" transform="rotate(-85.42 3962.411 1996.755)"/><path fill="#212123" d="M4033.9 1666.25 3606.16 1632a24.52 24.52 0 0 1-22.48-26.4l5.1-63.78a24.52 24.52 0 0 1 26.4-22.48l427.73 34.23a24.52 24.52 0 0 1 22.49 26.4l-5.1 63.78a24.52 24.52 0 0 1-26.4 22.5Z" class="color212123 svgShape"/><path fill="#6b8ec8" d="m4033.41 1674.69-427.73-34.24a24.52 24.52 0 0 1-22.49-26.4l5.11-63.78a24.52 24.52 0 0 1 26.4-22.48l427.73 34.21a24.52 24.52 0 0 1 22.49 26.4l-5.11 63.78a24.52 24.52 0 0 1-26.4 22.51Z" class="color6b8ec8 svgShape"/><g class="color000 svgShape" mask="url(#c)"><path fill="#fff" d="m3904.28 1551-288.08-23c-14.33-1.15-26.82 8.86-27.9 22.36l-5.11 63.78c-1.08 13.5 9.66 25.38 24 26.52l168.46 13.49Z" class="colorfff svgShape"/></g><rect width="99.91" height="121.34" x="3594.2" y="1684.77" fill="#b3b3b3" class="colorb3b3b3 svgShape" rx="24.52" transform="rotate(-85.42 3644.36 1745.377)"/><path fill="#b3b3b3" d="m3844.92 1811.62-72.07-5.77a24.52 24.52 0 0 1-22.49-26.4l4.06-50.7a24.52 24.52 0 0 1 26.4-22.49l72.07 5.77a24.51 24.51 0 0 1 22.48 26.4l-4 50.7a24.52 24.52 0 0 1-26.45 22.49Z" class="colorb3b3b3 svgShape"/><rect width="99.91" height="121.34" x="3931.62" y="1711.77" fill="#b3b3b3" class="colorb3b3b3 svgShape" rx="24.52" transform="rotate(-85.42 3981.79 1772.37)"/><rect width="99.91" height="121.34" x="3594.89" y="1676.19" fill="#ebebeb" class="colorebebeb svgShape" rx="24.52" transform="rotate(-85.42 3645.05 1736.805)"/><rect width="99.91" height="121.34" x="3763.6" y="1689.7" fill="#ebebeb" class="colorebebeb svgShape" rx="24.52" transform="rotate(-85.42 3813.762 1750.299)"/><rect width="99.91" height="121.34" x="3932.31" y="1703.2" fill="#ebebeb" class="colorebebeb svgShape" rx="24.52" transform="rotate(-85.42 3982.48 1763.797)"/><path fill="#e84b4b" d="M1855 846.35V557.77a51 51 0 0 1 51-51h325.43a51 51 0 0 1 51 51v288.58a51 51 0 0 1-51 51h-227.59c-17.82 29.54-55.89 66.72-137.35 89.2 0 0 43-40.21 60.91-89.2H1906a51 51 0 0 1-51-51Z" class="colore84b4b svgShape"/><path fill="#fff" d="M1922.68 586.14h-21.43v-10.92h30l9.57 38.56 264.72.25-46.17 167.19h-188.26Zm268.49 38.8-247.66-.24 36.14 145.59H2151Z" class="colorfff svgShape"/><path fill="#fff" d="m2132.87 814.32 10.07-4.23-16.83-40.03h-128.12l-13.89 40.37 10.33 3.55 11.36-32.99h113.06l14.02 33.33zM1946.02 652.02h240.41v10.93h-240.41zM1958.832 703.422l.048-10.93 217.458.95-.048 10.93zM1967.91 734.95h197.04v10.93h-197.04z" class="colorfff svgShape"/><path fill="#fff" d="M2058.39 620.19h10.93v155.56h-10.93zM2088.219 775.254l12.461-155.562 10.885.872-12.461 155.562zM2119.255 774.759l28.607-155.562 10.75 1.977-28.608 155.562zM2016.673 620.461l10.884-.876 12.516 155.558-10.885.875zM1969.762 621.15l10.75-1.975 28.58 155.566-10.75 1.975zM2114.37 812.2a23.54 23.54 0 1 1 23.53 23.54 23.56 23.56 0 0 1-23.53-23.54zm10.92 0a12.61 12.61 0 1 0 12.61-12.61 12.62 12.62 0 0 0-12.61 12.61zm-159.04 0a23.54 23.54 0 1 1 23.54 23.54 23.56 23.56 0 0 1-23.54-23.54zm10.93 0a12.61 12.61 0 1 0 12.61-12.61 12.62 12.62 0 0 0-12.61 12.61z" class="colorfff svgShape"/><path fill="#f4ad2e" d="M3118.29 2055.09a233 233 0 0 0 5.13 35.1q2.45 10.95 5.92 21.48a231.5 231.5 0 0 0 14.57 34.73 234.8 234.8 0 0 0 206.31 127.11c129.81 1.4 236.17-102.7 237.57-232.5s-102.7-236.17-232.5-237.56a235.33 235.33 0 0 0-205.18 115.88 234.9 234.9 0 0 0-23.91 56.35q-2.76 10-4.65 20.34a234.87 234.87 0 0 0-3.73 35.44c0 1.49-.07 3-.09 4.49q-.1 9.66.56 19.14Z" class="colorf4ad2e svgShape"/><circle cx="3394.54" cy="2038.48" r="235.04" fill="#ffcc4d" class="colorffcc4d svgShape" transform="rotate(-45 3394.544 2038.474)"/><circle cx="3392.03" cy="2038.45" r="195.77" fill="#f4ad2e" class="colorf4ad2e svgShape" transform="rotate(-45 3392.035 2038.453)"/><path fill="#f4ad2e" d="m3197.45 1862.06 43.72-1.69a235.21 235.21 0 0 1 59.87-37.59l-45.75 1.75a235.52 235.52 0 0 0-57.84 37.53zm-47.34 57.27 42.76-1.65a235.87 235.87 0 0 1 26.87-36.34l-43.27 1.67a235.7 235.7 0 0 0-26.36 36.32zm-23.91 56.35 42.24-1.62a232.38 232.38 0 0 1 13.44-35.81l-42.54 1.64a231.42 231.42 0 0 0-13.14 35.79zm-8.38 55.78 41.84-1.61a235.92 235.92 0 0 1 4-35.45l-42.08 1.62a234.87 234.87 0 0 0-3.76 35.44zm.47 23.63a233 233 0 0 0 5.13 35.1l41.43-1.59a234.23 234.23 0 0 1-4.88-35.11zm11.05 56.58a231.5 231.5 0 0 0 14.57 34.73l41-1.57a233.88 233.88 0 0 1-14.27-34.75zm27.54 56.77a236.22 236.22 0 0 0 27.68 34.22l40.29-1.55a235 235 0 0 1-27.22-34.24zm54.76 58.02a233.7 233.7 0 0 0 60.78 33l37.86-1.45a234.18 234.18 0 0 1-58.86-33z" class="colorf4ad2e svgShape" style="mix-blend-mode:multiply"/><path fill="#d75c14" d="M3376.44 2178.51v-34.22c-24.15-1.08-47.57-7.57-61.28-15.49l10.83-42.18c15.14 8.28 36.39 15.85 59.84 15.85 20.54 0 34.6-7.92 34.6-22.33 0-13.71-11.53-22.37-38.21-31.38-38.56-13-64.89-31-64.89-65.94 0-31.73 22.37-56.59 60.93-64.16v-34.25h35.3v31.72c24.15 1.09 40.38 6.14 52.27 11.89l-10.45 40.74c-9.36-4-25.94-12.27-51.91-12.27-23.42 0-31 10.1-31 20.19 0 11.89 12.61 19.46 43.25 31 42.88 15.15 60.19 35 60.19 67.42 0 32.08-22.71 59.46-64.15 66.68v36.74Z" class="colord75c14 svgShape"/><path fill="#ffea4d" d="M3361.76 2178.51v-34.22c-24.16-1.08-47.57-7.57-61.28-15.49l10.83-42.18c15.14 8.28 36.39 15.85 59.84 15.85 20.54 0 34.6-7.92 34.6-22.33 0-13.71-11.54-22.37-38.21-31.38-38.56-13-64.89-31-64.89-65.94 0-31.73 22.36-56.59 60.93-64.16v-34.25h35.3v31.72c24.15 1.09 40.38 6.14 52.27 11.89l-10.45 40.74c-9.36-4-25.94-12.27-51.91-12.27-23.42 0-31 10.1-31 20.19 0 11.89 12.61 19.46 43.25 31 42.88 15.15 60.19 35 60.19 67.42 0 32.08-22.71 59.46-64.15 66.68v36.74Z" class="colorffea4d svgShape"/></g></svg></svg>