<svg xmlns="http://www.w3.org/2000/svg" width="256" height="256"><svg xmlns="http://www.w3.org/2000/svg" width="256" height="256" viewBox="0 0 265 265"><path fill="#e2e6f1" d="M117.14 85.221a.75.75 0 0 1-.75-.75v-4.379h-1.286a3.557 3.557 0 0 1-3.552-3.553V63.052a3.557 3.557 0 0 1 3.552-3.552h20.835a3.557 3.557 0 0 1 3.553 3.552v.86a.75.75 0 0 1-.75.75H129.3c-1.132 0-2.052.92-2.052 2.052v12.628a.75.75 0 0 1-.75.75h-2.65l-6.242 4.966a.75.75 0 0 1-.466.163zm-2.036-24.22c-1.131 0-2.052.92-2.052 2.051V76.54c0 1.132.92 2.053 2.052 2.053h2.036a.75.75 0 0 1 .75.75v3.574l5.23-4.16a.75.75 0 0 1 .467-.164h2.161V66.714a3.557 3.557 0 0 1 3.552-3.552h8.692v-.11c0-1.131-.92-2.052-2.053-2.052h-20.835z" class="colore2e6f1 svgShape"/><path fill="#e2e6f1" d="M148.1 88.883a.75.75 0 0 1-.467-.163l-6.242-4.967H129.3a3.557 3.557 0 0 1-3.553-3.552V66.714a3.557 3.557 0 0 1 3.552-3.552h20.835a3.557 3.557 0 0 1 3.553 3.552v13.487a3.557 3.557 0 0 1-3.553 3.552h-1.285v4.38a.75.75 0 0 1-.75.75zm-18.8-24.221c-1.132 0-2.052.92-2.052 2.052v13.487c0 1.132.92 2.052 2.052 2.052h12.353a.75.75 0 0 1 .467.163l5.23 4.162v-3.575a.75.75 0 0 1 .75-.75h2.035c1.132 0 2.053-.92 2.053-2.052V66.714c0-1.132-.92-2.052-2.053-2.052H129.3z" class="colore2e6f1 svgShape"/><path fill="#e2e6f1" d="M147.703 69.94h-15.968a.75.75 0 0 1 0-1.5h15.968a.75.75 0 0 1 0 1.5zm0 4.475h-15.968a.75.75 0 0 1 0-1.5h15.968a.75.75 0 0 1 0 1.5zm-3.794 4.475h-12.174a.75.75 0 0 1 0-1.5h12.174a.75.75 0 0 1 0 1.5zm63.253 27.804h-2.5a.75.75 0 0 1 0-1.5h2.5a.75.75 0 0 1 0 1.5zm15.826 0h-3.957a.75.75 0 0 1 0-1.5h3.957a.75.75 0 0 1 0 1.5zm-7.913 0h-3.957a.75.75 0 0 1 0-1.5h3.957a.75.75 0 0 1 0 1.5zm14.37 0h-2.5a.75.75 0 0 1 0-1.5h1.75v-1.75a.75.75 0 0 1 1.5 0v2.5a.75.75 0 0 1-.75.75zm0-8.123a.75.75 0 0 1-.75-.75v-5.623a.75.75 0 0 1 1.5 0v5.623a.75.75 0 0 1-.75.75zm0-11.246a.75.75 0 0 1-.75-.75v-5.623a.75.75 0 0 1 1.5 0v5.623a.75.75 0 0 1-.75.75zm0-11.246a.75.75 0 0 1-.75-.75v-5.623a.75.75 0 0 1 1.5 0v5.623a.75.75 0 0 1-.75.75zm0-11.246a.75.75 0 0 1-.75-.75v-2.5a.75.75 0 0 1 1.5 0v2.5a.75.75 0 0 1-.75.75z" class="colore2e6f1 svgShape"/><path fill="#e2e6f1" d="M229.109 62.01c-5.618 0-10.19-4.57-10.19-10.188 0-5.612 4.572-10.178 10.19-10.178a.75.75 0 0 1 .75.75v8.678h8.69a.75.75 0 0 1 .75.75c0 5.618-4.571 10.188-10.19 10.188zm-.75-18.834c-4.442.38-7.94 4.113-7.94 8.646 0 4.79 3.899 8.688 8.69 8.688 4.538 0 8.276-3.497 8.657-7.938h-8.657a.75.75 0 0 1-.75-.75v-8.646z" class="colore2e6f1 svgShape"/><path fill="#e2e6f1" d="M229.109 62.01c-5.618 0-10.19-4.57-10.19-10.188 0-5.612 4.572-10.178 10.19-10.178a.75.75 0 0 1 .75.75v8.678h8.69a.75.75 0 0 1 .75.75c0 5.618-4.571 10.188-10.19 10.188zm-.75-18.834c-4.442.38-7.94 4.113-7.94 8.646 0 4.79 3.899 8.688 8.69 8.688 4.538 0 8.276-3.497 8.657-7.938h-8.657a.75.75 0 0 1-.75-.75v-8.646z" class="colore2e6f1 svgShape"/><path fill="#e2e6f1" d="M242.768 48.955h-9.44a.75.75 0 0 1-.75-.75v-9.427a.75.75 0 0 1 .75-.75c5.62 0 10.19 4.565 10.19 10.177a.75.75 0 0 1-.75.75zm-8.69-1.5h7.908c-.361-4.188-3.714-7.536-7.907-7.895v7.895zm-173.5 59.24h-2.5a.75.75 0 0 1 0-1.5h2.5a.75.75 0 0 1 0 1.5zm-6.456 0h-3.957a.75.75 0 0 1 0-1.5h3.957a.75.75 0 0 1 0 1.5zm-7.914 0h-3.956a.75.75 0 0 1 0-1.5h3.956a.75.75 0 0 1 0 1.5zm-7.913 0h-2.5a.75.75 0 0 1-.75-.75v-2.5a.75.75 0 0 1 1.5 0v1.75h1.75a.75.75 0 0 1 0 1.5zm-2.5-7.553a.75.75 0 0 1-.75-.75v-5.051a.75.75 0 0 1 1.5 0v5.051a.75.75 0 0 1-.75.75zm0-10.103a.75.75 0 0 1-.75-.75v-5.051a.75.75 0 0 1 1.5 0v5.051a.75.75 0 0 1-.75.75zm0-10.103a.75.75 0 0 1-.75-.75v-5.051a.75.75 0 0 1 1.5 0v5.051a.75.75 0 0 1-.75.75zm0-10.103a.75.75 0 0 1-.75-.75v-2.5a.75.75 0 0 1 1.5 0v2.5a.75.75 0 0 1-.75.75z" class="colore2e6f1 svgShape"/><path fill="#e2e6f1" d="M39.595 66.333H32.33a.75.75 0 0 1-.75-.75v-6.252c-2.731-1.514-4.408-4.355-4.408-7.526 0-4.754 3.868-8.622 8.621-8.622 4.762 0 8.635 3.868 8.635 8.622 0 3-1.554 5.77-4.084 7.333v6.445a.75.75 0 0 1-.75.75zm-6.514-1.5h5.764v-6.126a.75.75 0 0 1 .39-.657 7.118 7.118 0 0 0 3.694-6.245c0-3.927-3.2-7.122-7.135-7.122-3.926 0-7.121 3.195-7.121 7.122 0 2.752 1.527 5.203 3.985 6.395a.75.75 0 0 1 .423.675v5.958zm2.714-24.7a.75.75 0 0 1-.75-.75v-3.412a.75.75 0 0 1 1.5 0v3.413a.75.75 0 0 1-.75.75zM46.593 62.79a.748.748 0 0 1-.53-.22l-2.413-2.413a.75.75 0 1 1 1.06-1.06l2.414 2.413a.75.75 0 0 1-.53 1.28zM27.41 43.607a.748.748 0 0 1-.53-.22l-2.413-2.413a.75.75 0 1 1 1.06-1.06l2.413 2.412a.75.75 0 0 1-.53 1.28zm23.656 8.385h-3.413a.75.75 0 1 1 0-1.5h3.413a.75.75 0 1 1 0 1.5zm-27.129 0h-3.412a.75.75 0 0 1 0-1.5h3.412a.75.75 0 0 1 0 1.5zm20.243-8.385a.75.75 0 0 1-.53-1.28l2.413-2.413a.75.75 0 1 1 1.06 1.06l-2.413 2.413a.748.748 0 0 1-.53.22zM24.998 62.79a.75.75 0 0 1-.53-1.28l2.412-2.413a.75.75 0 1 1 1.06 1.06l-2.412 2.413a.748.748 0 0 1-.53.22z" class="colore2e6f1 svgShape"/><path fill="#e2e6f1" d="M34.93 54.445a.748.748 0 0 1-.53-.22l-2.104-2.104a.75.75 0 1 1 1.06-1.06l1.575 1.574 1.812-1.813a.75.75 0 0 1 1.06 0l1.97 1.97a.75.75 0 1 1-1.06 1.06l-1.44-1.44-1.812 1.813a.748.748 0 0 1-.53.22zm169.732 51.834v88.92c0 5.523-4.478 10-10 10H70.578c-5.523 0-10-4.477-10-10v-88.92c0-5.523 4.477-10 10-10h124.084c5.522 0 10 4.477 10 10z" class="colore2e6f1 svgShape"/><path fill="#d1daed" d="M60.578 191.03v4.17c0 5.522 4.477 10 10 10h124.083c5.523 0 10-4.478 10-10v-4.17H60.578z" class="colord1daed svgShape"/><path fill="#2d2d2d" d="M194.662 205.949H70.578c-5.928 0-10.75-4.822-10.75-10.75v-88.92c0-5.928 4.822-10.75 10.75-10.75h124.084c5.927 0 10.75 4.822 10.75 10.75v88.92c0 5.928-4.823 10.75-10.75 10.75zM70.578 97.029c-5.1 0-9.25 4.15-9.25 9.25v88.92c0 5.1 4.15 9.25 9.25 9.25h124.084c5.1 0 9.25-4.15 9.25-9.25v-88.92c0-5.1-4.15-9.25-9.25-9.25H70.578z" class="color2d2d2d svgShape"/><path fill="#2d2d2d" d="M194.662 205.949H70.578c-5.928 0-10.75-4.822-10.75-10.75v-4.17a.75.75 0 0 1 .75-.75h144.084a.75.75 0 0 1 .75.75v4.17c0 5.928-4.823 10.75-10.75 10.75zm-133.334-14.17v3.42c0 5.1 4.15 9.25 9.25 9.25h124.084c5.1 0 9.25-4.15 9.25-9.25v-3.42H61.328z" class="color2d2d2d svgShape"/><path fill="#fff" d="M71.057 106.279H194.14v73.5H71.057z" class="colorfff svgShape"/><path fill="#2d2d2d" d="M194.14 180.53H71.059a.75.75 0 0 1-.75-.75v-73.5a.75.75 0 0 1 .75-.75H194.14a.75.75 0 0 1 .75.75v73.5a.75.75 0 0 1-.75.75zm-122.332-1.5H193.39v-72H71.808v72z" class="color2d2d2d svgShape"/><path fill="#fff" d="M135.726 198.119a3.105 3.105 0 1 1-6.21-.01 3.105 3.105 0 0 1 6.21.01z" class="colorfff svgShape"/><path fill="#e2e6f1" d="M118.43 205.199h28.38v17.33h-28.38z" class="colore2e6f1 svgShape"/><path fill="#d1daed" d="M161.953 229.03a6.5 6.5 0 0 0-6.5-6.5h-45.666a6.5 6.5 0 0 0-6.5 6.5h58.666z" class="colord1daed svgShape"/><path fill="#2d2d2d" d="M146.81 223.28h-28.38a.75.75 0 0 1-.75-.75v-17.331a.75.75 0 0 1 .75-.75h28.38a.75.75 0 0 1 .75.75v17.33a.75.75 0 0 1-.75.75zm-27.63-1.5h26.88v-15.831h-26.88v15.83z" class="color2d2d2d svgShape"/><path fill="#2d2d2d" d="M161.953 229.78h-58.666a.75.75 0 0 1-.75-.75c0-3.999 3.252-7.25 7.25-7.25h45.666c3.998 0 7.25 3.251 7.25 7.25a.75.75 0 0 1-.75.75zm-57.868-1.5h57.07a5.759 5.759 0 0 0-5.702-5h-45.666a5.759 5.759 0 0 0-5.702 5zm28.531-26.311a3.854 3.854 0 1 1 .009-7.709 3.854 3.854 0 0 1-.009 7.709zm0-6.21a2.358 2.358 0 0 0-2.35 2.36 2.353 2.353 0 0 0 2.35 2.35 2.358 2.358 0 0 0 2.36-2.35 2.362 2.362 0 0 0-2.36-2.36z" class="color2d2d2d svgShape"/><path fill="#73d3ff" d="M98.887 121.078a7.53 7.53 0 0 1 0 10.647l4.247 4.247c5.286-5.285 5.286-13.856 0-19.141l-4.247 4.247z" class="color73d3ff svgShape"/><path fill="#f9c160" d="M103.134 116.83c-5.285-5.285-13.852-5.281-19.138.004-5.285 5.286-5.289 13.853-.003 19.138l4.247-4.247a7.525 7.525 0 0 1 .004-10.643 7.525 7.525 0 0 1 10.643-.004l4.247-4.247z" class="colorf9c160 svgShape"/><path fill="#ff5284" d="M83.993 135.972c5.285 5.285 13.856 5.285 19.141 0l-4.247-4.247a7.53 7.53 0 0 1-10.647 0l-4.247 4.247z" class="colorff5284 svgShape"/><path fill="#2d2d2d" d="M103.134 136.722a.748.748 0 0 1-.53-.22l-4.248-4.247a.75.75 0 0 1 0-1.06 6.735 6.735 0 0 0 1.985-4.793 6.736 6.736 0 0 0-1.985-4.794.75.75 0 0 1 0-1.06l4.248-4.247a.75.75 0 0 1 1.06 0c5.57 5.57 5.57 14.631 0 20.201a.748.748 0 0 1-.53.22zm-3.21-5.021 3.195 3.195c4.298-4.829 4.298-12.16 0-16.989l-3.195 3.195a8.293 8.293 0 0 1 0 10.599z" class="color2d2d2d svgShape"/><path fill="#2d2d2d" d="M83.993 136.722a.748.748 0 0 1-.53-.22 14.183 14.183 0 0 1-4.182-10.099 14.194 14.194 0 0 1 4.185-10.099c5.57-5.57 14.63-5.571 20.199-.003a.75.75 0 0 1 0 1.06l-4.248 4.247a.75.75 0 0 1-1.06 0 6.725 6.725 0 0 0-4.788-1.983h-.003a6.738 6.738 0 0 0-4.792 1.987c-2.643 2.643-2.645 6.941-.003 9.583a.75.75 0 0 1 0 1.06l-4.248 4.247a.748.748 0 0 1-.53.22zm9.575-23.097a12.746 12.746 0 0 0-9.041 3.74 12.703 12.703 0 0 0-3.746 9.039 12.683 12.683 0 0 0 3.227 8.492l3.195-3.195a8.21 8.21 0 0 1-1.915-5.298 8.225 8.225 0 0 1 2.425-5.851 8.227 8.227 0 0 1 5.852-2.427h.004c1.958 0 3.81.676 5.294 1.916l3.195-3.195a12.744 12.744 0 0 0-8.49-3.221z" class="color2d2d2d svgShape"/><path fill="#2d2d2d" d="M93.563 140.686a14.19 14.19 0 0 1-10.1-4.184.75.75 0 0 1 0-1.06l4.247-4.247a.75.75 0 0 1 1.06 0 6.786 6.786 0 0 0 9.586 0 .75.75 0 0 1 1.061 0l4.248 4.247a.75.75 0 0 1 0 1.06 14.19 14.19 0 0 1-10.102 4.184zm-8.495-4.73c2.343 2.089 5.331 3.23 8.495 3.23s6.153-1.141 8.496-3.23l-3.196-3.195a8.291 8.291 0 0 1-10.599 0l-3.196 3.196zm23.746 11.219h-30.5a.75.75 0 0 1 0-1.5h30.5a.75.75 0 0 1 0 1.5zm0 6.488h-30.5a.75.75 0 0 1 0-1.5h30.5a.75.75 0 0 1 0 1.5zm0 6.489h-30.5a.75.75 0 0 1 0-1.5h30.5a.75.75 0 0 1 0 1.5zm0 6.488h-30.5a.75.75 0 0 1 0-1.5h30.5a.75.75 0 0 1 0 1.5zm40.108-19.465h-30.5a.75.75 0 0 1 0-1.5h30.5a.75.75 0 0 1 0 1.5zm0 6.488h-30.5a.75.75 0 0 1 0-1.5h30.5a.75.75 0 0 1 0 1.5zm0 6.489h-30.5a.75.75 0 0 1 0-1.5h30.5a.75.75 0 0 1 0 1.5zm0 6.488h-30.5a.75.75 0 0 1 0-1.5h30.5a.75.75 0 0 1 0 1.5zm0 6.489h-30.5a.75.75 0 0 1 0-1.5h30.5a.75.75 0 0 1 0 1.5zm38-25.954h-20.5a.75.75 0 0 1 0-1.5h20.5a.75.75 0 0 1 0 1.5zm0 6.488h-30.5a.75.75 0 0 1 0-1.5h30.5a.75.75 0 0 1 0 1.5zm0 6.489h-30.5a.75.75 0 0 1 0-1.5h30.5a.75.75 0 0 1 0 1.5zm0 6.488h-30.5a.75.75 0 0 1 0-1.5h30.5a.75.75 0 0 1 0 1.5zm0 6.489h-30.5a.75.75 0 0 1 0-1.5h30.5a.75.75 0 0 1 0 1.5z" class="color2d2d2d svgShape"/><path fill="#ff5284" d="M147.206 126.398h-6c0-4.15-3.38-7.53-7.53-7.53-4.16 0-7.53 3.38-7.53 7.53h-6.01c0-7.47 6.06-13.53 13.54-13.53 7.47 0 13.53 6.06 13.53 13.53z" class="colorff5284 svgShape"/><path fill="#f9c160" d="M120.138 126.398c0 7.475 6.06 13.53 13.536 13.53 7.474 0 13.535-6.055 13.535-13.53h-6.007a7.525 7.525 0 0 1-7.528 7.523 7.525 7.525 0 0 1-7.529-7.523h-6.007z" class="colorf9c160 svgShape"/><path fill="#2d2d2d" d="M133.673 140.678c-7.876 0-14.284-6.406-14.284-14.28a.75.75 0 0 1 .75-.75h6.006a.75.75 0 0 1 .75.75c0 3.735 3.04 6.774 6.778 6.774s6.78-3.039 6.78-6.774a.75.75 0 0 1 .75-.75h6.005a.75.75 0 0 1 .75.75c0 7.874-6.408 14.28-14.285 14.28zm-12.762-13.53c.389 6.7 5.964 12.03 12.762 12.03s12.374-5.33 12.764-12.03h-4.519c-.38 4.212-3.933 7.524-8.245 7.524-4.311 0-7.864-3.312-8.244-7.524h-4.518z" class="color2d2d2d svgShape"/><path fill="#2d2d2d" d="M147.206 127.148h-6a.75.75 0 0 1-.75-.75 6.788 6.788 0 0 0-6.78-6.78 6.788 6.788 0 0 0-6.78 6.78.75.75 0 0 1-.75.75h-6.01a.75.75 0 0 1-.75-.75c0-7.874 6.41-14.28 14.29-14.28 7.874 0 14.28 6.406 14.28 14.28a.75.75 0 0 1-.75.75zm-5.284-1.5h4.512c-.39-6.699-5.962-12.03-12.758-12.03-6.8 0-12.378 5.331-12.768 12.03h4.522c.38-4.215 3.933-7.53 8.246-7.53s7.866 3.315 8.246 7.53z" class="color2d2d2d svgShape"/><g class="color000 svgShape"><path fill="#73d3ff" d="m181.246 135.968-4.25-4.24c2.94-2.94 2.94-7.71 0-10.65s-7.71-2.94-10.65 0l-4.25-4.25c5.29-5.28 13.86-5.28 19.15 0 5.28 5.29 5.28 13.86 0 19.14z" class="color73d3ff svgShape"/><path fill="#f9c160" d="M162.1 116.83c-5.284 5.285-5.28 13.852.005 19.137 5.285 5.286 13.852 5.29 19.137.004l-4.247-4.247a7.525 7.525 0 0 1-10.643-.004 7.525 7.525 0 0 1-.004-10.643l-4.247-4.247z" class="colorf9c160 svgShape"/><path fill="#2d2d2d" d="M181.246 136.719a.748.748 0 0 1-.53-.22l-4.25-4.24a.75.75 0 0 1 0-1.061 6.736 6.736 0 0 0 1.985-4.794c0-1.812-.705-3.515-1.985-4.795s-2.983-1.986-4.795-1.986a6.736 6.736 0 0 0-4.795 1.986.75.75 0 0 1-1.06 0l-4.25-4.25a.75.75 0 0 1 0-1.061c5.572-5.56 14.639-5.562 20.21 0 5.565 5.575 5.565 14.637 0 20.2a.748.748 0 0 1-.53.22zm-3.212-5.015 3.196 3.19c4.46-5.01 4.288-12.724-.515-17.536-4.808-4.799-12.526-4.97-17.542-.514l3.197 3.198c3.25-2.713 8.106-2.544 11.156.506 3.05 3.05 3.22 7.906.508 11.156z" class="color2d2d2d svgShape"/><path fill="#2d2d2d" d="M171.677 140.683h-.004a14.195 14.195 0 0 1-10.099-4.186 14.193 14.193 0 0 1-4.185-10.098 14.184 14.184 0 0 1 4.182-10.1.772.772 0 0 1 1.06 0l4.247 4.248a.75.75 0 0 1 0 1.06 6.725 6.725 0 0 0-1.982 4.791 6.738 6.738 0 0 0 1.986 4.792c2.644 2.642 6.942 2.644 9.583.004a.75.75 0 0 1 1.06 0l4.247 4.247a.75.75 0 0 1 0 1.06 14.183 14.183 0 0 1-10.095 4.182zm-9.56-22.777c-4.462 5.012-4.289 12.724.518 17.53a12.705 12.705 0 0 0 9.039 3.747h.003c3.162 0 6.148-1.14 8.49-3.227l-3.196-3.196c-3.247 2.709-8.1 2.54-11.15-.51s-3.218-7.902-.51-11.15l-3.195-3.194z" class="color2d2d2d svgShape"/></g><g class="color000 svgShape"><path fill="#f9c160" d="M47.152 173.526v-5.992a5.688 5.688 0 0 1 5.682-5.682h16.372a5.688 5.688 0 0 1 5.682 5.682v5.992h-4.37v-5.992c0-.723-.589-1.311-1.312-1.311H52.834c-.723 0-1.311.588-1.311 1.31v5.993h-4.37z" class="colorf9c160 svgShape"/><path fill="#76819f" d="M98.31 177.896v22.29a4.37 4.37 0 0 1-4.37 4.37H28.091a4.37 4.37 0 0 1-4.37-4.37v-22.29a4.37 4.37 0 0 1 4.37-4.37H93.94a4.37 4.37 0 0 1 4.37 4.37zm-4.008 45.889v-19.228H27.73v19.228a5.245 5.245 0 0 0 5.244 5.244h56.083a5.245 5.245 0 0 0 5.245-5.244z" class="color76819f svgShape"/><path fill="#2d2d2d" d="M93.94 205.307H28.091a5.126 5.126 0 0 1-5.12-5.12v-22.29a5.126 5.126 0 0 1 5.12-5.121H93.94a5.126 5.126 0 0 1 5.121 5.12v22.29a5.126 5.126 0 0 1-5.12 5.12zm-65.848-31.031a3.624 3.624 0 0 0-3.62 3.62v22.29a3.624 3.624 0 0 0 3.62 3.62H93.94a3.624 3.624 0 0 0 3.621-3.62v-22.29a3.624 3.624 0 0 0-3.62-3.62H28.091z" class="color2d2d2d svgShape"/><path fill="#2d2d2d" d="M89.058 229.78H32.975a6.002 6.002 0 0 1-5.996-5.996v-19.227a.75.75 0 0 1 .75-.75h66.573a.75.75 0 0 1 .75.75v19.227a6.001 6.001 0 0 1-5.994 5.995zm-60.579-24.473v18.477a4.5 4.5 0 0 0 4.496 4.495h56.083a4.5 4.5 0 0 0 4.494-4.495v-18.477H28.48zm46.41-31.031h-4.371a.75.75 0 0 1-.75-.75v-5.992a.561.561 0 0 0-.561-.561H52.834a.561.561 0 0 0-.561.56v5.993a.75.75 0 0 1-.75.75h-4.37a.75.75 0 0 1-.75-.75v-5.992a6.439 6.439 0 0 1 6.431-6.432h16.373a6.439 6.439 0 0 1 6.431 6.432v5.992a.75.75 0 0 1-.75.75zm-3.621-1.5h2.87v-5.242a4.937 4.937 0 0 0-4.931-4.932H52.834a4.937 4.937 0 0 0-4.932 4.932v5.242h2.87v-5.242c0-1.136.926-2.061 2.062-2.061h16.373c1.136 0 2.06.925 2.06 2.06v5.243z" class="color2d2d2d svgShape"/><path fill="#f9c160" d="M67.884 208.818H54.148a6.464 6.464 0 0 0 6.464 6.464h.808a6.464 6.464 0 0 0 6.464-6.464z" class="colorf9c160 svgShape"/><path fill="#2d2d2d" d="M61.42 216.032h-.808c-3.978 0-7.215-3.236-7.215-7.214a.75.75 0 0 1 .75-.75h13.737a.75.75 0 0 1 .75.75c0 3.978-3.236 7.214-7.214 7.214zm-6.474-6.464a5.724 5.724 0 0 0 5.666 4.964h.808a5.724 5.724 0 0 0 5.665-4.964H54.946z" class="color2d2d2d svgShape"/><path fill="#f7ab3e" d="M70.124 202.044v5.026c0 .965-.783 1.748-1.748 1.748h-14.72a1.748 1.748 0 0 1-1.748-1.748v-5.026c0-.966.782-1.748 1.748-1.748h14.72c.965 0 1.748.782 1.748 1.748z" class="colorf7ab3e svgShape"/><path fill="#2d2d2d" d="M68.376 209.568h-14.72a2.5 2.5 0 0 1-2.498-2.498v-5.026a2.5 2.5 0 0 1 2.498-2.498h14.72a2.5 2.5 0 0 1 2.498 2.498v5.026a2.5 2.5 0 0 1-2.498 2.498zm-14.72-8.522a1 1 0 0 0-.998.998v5.026a1 1 0 0 0 .998.998h14.72a1 1 0 0 0 .998-.998v-5.026a1 1 0 0 0-.998-.998h-14.72z" class="color2d2d2d svgShape"/></g><g class="color000 svgShape"><path fill="#f9c160" d="M260.564 160.292v61.895a6.847 6.847 0 0 1-6.842 6.842h-53.88a6.847 6.847 0 0 1-6.841-6.842v-61.895a6.847 6.847 0 0 1 6.842-6.842h53.879a6.847 6.847 0 0 1 6.842 6.842z" class="colorf9c160 svgShape"/><path fill="#fff" d="M199.843 223.327c-.63 0-1.14-.51-1.14-1.14v-62.328c0-.63.51-1.14 1.14-1.14h53.879c.63 0 1.14.51 1.14 1.14v62.328c0 .63-.51 1.14-1.14 1.14h-53.88z" class="colorfff svgShape"/><path fill="#ff5284" d="M217.854 207.005v8.73c0 1.449-1.17 2.619-2.62 2.619h-8.73c-1.449 0-2.619-1.17-2.619-2.62v-8.73c0-1.449 1.17-2.618 2.62-2.618h8.73c1.449 0 2.619 1.17 2.619 2.619z" class="colorff5284 svgShape"/><path fill="#f9c160" d="M217.854 186.874v8.73c0 1.45-1.17 2.62-2.62 2.62h-8.73c-1.449 0-2.619-1.17-2.619-2.62v-8.73c0-1.449 1.17-2.619 2.62-2.619h8.73c1.449 0 2.619 1.17 2.619 2.62z" class="colorf9c160 svgShape"/><path fill="#73d3ff" d="M217.854 166.31v8.731c0 1.45-1.17 2.62-2.62 2.62h-8.73c-1.449 0-2.619-1.17-2.619-2.62v-8.73c0-1.45 1.17-2.62 2.62-2.62h8.73c1.449 0 2.619 1.17 2.619 2.62z" class="color73d3ff svgShape"/><path fill="#342c37" d="M253.722 229.78h-53.88c-4.185 0-7.591-3.407-7.591-7.593v-61.895c0-4.186 3.406-7.592 7.592-7.592h53.88c4.185 0 7.591 3.406 7.591 7.592v61.895c0 4.186-3.406 7.592-7.592 7.592zm-53.88-75.58a6.099 6.099 0 0 0-6.091 6.092v61.895a6.099 6.099 0 0 0 6.092 6.092h53.88a6.099 6.099 0 0 0 6.091-6.092v-61.895a6.099 6.099 0 0 0-6.092-6.092h-53.88z" class="color342c37 svgShape"/><path fill="#342c37" d="M253.722 224.077h-53.88a1.893 1.893 0 0 1-1.89-1.89v-62.328c0-1.042.848-1.89 1.89-1.89h53.88c1.042 0 1.89.848 1.89 1.89v62.328c0 1.042-.848 1.89-1.89 1.89zm-53.88-64.608a.39.39 0 0 0-.39.39v62.328c0 .215.175.39.39.39h53.88a.39.39 0 0 0 .39-.39v-62.328a.39.39 0 0 0-.39-.39h-53.88z" class="color342c37 svgShape"/><path fill="#76819f" d="M238.768 151.024v6.51c0 .654-.53 1.184-1.184 1.184H215.98c-.653 0-1.183-.53-1.183-1.183v-6.511c0-.654.53-1.184 1.183-1.184h7.103v-1.468a3.693 3.693 0 0 1 3.693-3.693h.012a3.693 3.693 0 0 1 3.694 3.693v1.468h7.102c.654 0 1.184.53 1.184 1.184z" class="color76819f svgShape"/><path fill="#342c37" d="M237.584 159.469H215.98a1.936 1.936 0 0 1-1.934-1.935v-6.51c0-1.067.868-1.934 1.934-1.934h6.353v-.718a4.448 4.448 0 0 1 4.443-4.443 4.45 4.45 0 0 1 4.455 4.443v.718h6.353c1.067 0 1.934.867 1.934 1.934v6.51a1.936 1.936 0 0 1-1.934 1.935zm-21.604-8.879a.434.434 0 0 0-.434.434v6.51c0 .24.195.435.434.435h21.604c.24 0 .434-.195.434-.435v-6.51a.434.434 0 0 0-.434-.434h-7.103a.75.75 0 0 1-.75-.75v-1.468a2.95 2.95 0 0 0-5.898 0v1.468a.75.75 0 0 1-.75.75h-7.103zm-.745 27.82h-8.73a3.373 3.373 0 0 1-3.37-3.37v-8.73a3.373 3.373 0 0 1 3.37-3.368h8.73a3.373 3.373 0 0 1 3.369 3.369v8.73a3.373 3.373 0 0 1-3.37 3.369zm-8.73-13.968c-1.031 0-1.87.838-1.87 1.869v8.73c0 1.03.839 1.869 1.87 1.869h8.73c1.03 0 1.869-.838 1.869-1.87v-8.73c0-1.03-.838-1.868-1.87-1.868h-8.73zm8.73 34.532h-8.73a3.373 3.373 0 0 1-3.37-3.37v-8.73a3.373 3.373 0 0 1 3.37-3.368h8.73a3.373 3.373 0 0 1 3.369 3.368v8.73a3.373 3.373 0 0 1-3.37 3.37zm-8.73-13.968c-1.031 0-1.87.838-1.87 1.868v8.73c0 1.031.839 1.87 1.87 1.87h8.73c1.03 0 1.869-.839 1.869-1.87v-8.73c0-1.03-.838-1.868-1.87-1.868h-8.73zm8.73 34.098h-8.73a3.373 3.373 0 0 1-3.37-3.37v-8.73a3.373 3.373 0 0 1 3.37-3.369h8.73a3.373 3.373 0 0 1 3.369 3.37v8.73a3.373 3.373 0 0 1-3.37 3.369zm-8.73-13.969c-1.031 0-1.87.839-1.87 1.87v8.73c0 1.03.839 1.869 1.87 1.869h8.73c1.03 0 1.869-.839 1.869-1.87v-8.73c0-1.03-.838-1.869-1.87-1.869h-8.73zm42.4-38.298h-25.301a.75.75 0 0 1 0-1.5h25.302a.75.75 0 0 1 0 1.5zm0 4.589h-25.301a.75.75 0 0 1 0-1.5h25.302a.75.75 0 0 1 0 1.5zm-7.146 4.588h-18.155a.75.75 0 0 1 0-1.5h18.155a.75.75 0 0 1 0 1.5zm7.147 11.387h-25.302a.75.75 0 0 1 0-1.5h25.302a.75.75 0 0 1 0 1.5zm0 4.589h-25.302a.75.75 0 0 1 0-1.5h25.302a.75.75 0 0 1 0 1.5zm-7.147 4.588h-18.155a.75.75 0 0 1 0-1.5h18.155a.75.75 0 0 1 0 1.5zm7.147 10.953h-25.302a.75.75 0 0 1 0-1.5h25.302a.75.75 0 0 1 0 1.5zm0 4.589h-25.302a.75.75 0 0 1 0-1.5h25.302a.75.75 0 0 1 0 1.5zm-7.147 4.588h-18.155a.75.75 0 0 1 0-1.5h18.155a.75.75 0 0 1 0 1.5z" class="color342c37 svgShape"/><path fill="#342c37" d="M209.592 173.851a.748.748 0 0 1-.53-.22l-2.296-2.295a.75.75 0 1 1 1.06-1.06l1.766 1.765 4.32-4.321a.75.75 0 1 1 1.061 1.06l-4.85 4.852a.748.748 0 0 1-.531.22zm0 20.564a.75.75 0 0 1-.53-.22l-2.296-2.295a.75.75 0 1 1 1.06-1.06l1.766 1.765 4.32-4.321a.75.75 0 1 1 1.061 1.06l-4.85 4.852a.75.75 0 0 1-.531.22zm0 20.13a.748.748 0 0 1-.53-.22l-2.296-2.295a.75.75 0 1 1 1.06-1.06l1.766 1.765 4.32-4.321a.75.75 0 1 1 1.061 1.06l-4.85 4.851a.748.748 0 0 1-.531.22z" class="color342c37 svgShape"/></g><g class="color000 svgShape"><path fill="#e2e6f1" d="m21.279 206.552.028-10.54 4.731.012-.028 10.54z" class="colore2e6f1 svgShape"/><path fill="#2d2d2d" d="M26.01 207.315h-.003l-4.73-.014a.75.75 0 0 1-.748-.752l.028-10.54a.749.749 0 0 1 .75-.748h.002l4.73.014a.75.75 0 0 1 .749.752l-.029 10.54a.749.749 0 0 1-.75.748zm-3.98-1.512 3.231.01.025-9.04-3.23-.01-.025 9.04z" class="color2d2d2d svgShape"/><ellipse cx="23.722" cy="179.206" fill="#e2e6f1" class="colore2e6f1 svgShape" rx="19.256" ry="19.258" transform="rotate(-82.359 23.722 179.206)"/><ellipse cx="23.722" cy="179.206" fill="#fff" class="colorfff svgShape" rx="14.539" ry="14.54" transform="rotate(-82.359 23.722 179.206)"/><path fill="#ff5284" d="m28.79 223.852.04-14.875a5.193 5.193 0 0 0-10.387-.03l-.04 14.874a5.193 5.193 0 0 0 10.387.03z" class="colorff5284 svgShape"/><path fill="#2d2d2d" d="M23.598 229.78h-.02c-1.587-.005-3.078-.628-4.197-1.754s-1.733-2.62-1.728-4.207l.04-14.874a5.901 5.901 0 0 1 1.754-4.198 5.904 5.904 0 0 1 4.19-1.728h.017a5.951 5.951 0 0 1 5.927 5.96l-.041 14.875a5.902 5.902 0 0 1-1.753 4.197 5.904 5.904 0 0 1-4.19 1.728zm.039-25.261a4.448 4.448 0 0 0-4.443 4.43l-.041 14.874a4.414 4.414 0 0 0 1.292 3.146 4.413 4.413 0 0 0 3.138 1.31h.014a4.413 4.413 0 0 0 3.132-1.292 4.411 4.411 0 0 0 1.31-3.137l.042-14.875a4.449 4.449 0 0 0-4.431-4.456h-.013zm5.153 19.333h.01-.01zm-5.067-29.357h-.046a15.19 15.19 0 0 1-10.799-4.51 15.19 15.19 0 0 1-4.446-10.824c.025-8.415 6.88-15.244 15.29-15.244h.045c8.43.025 15.27 6.904 15.245 15.334-.025 8.415-6.88 15.244-15.289 15.244zm-.001-29.078c-7.586 0-13.768 6.158-13.79 13.748-.011 3.683 1.413 7.15 4.01 9.762s6.056 4.057 9.74 4.068h.041c7.585 0 13.767-6.159 13.79-13.748.021-7.603-6.147-13.808-13.75-13.83h-.041zm14.54 13.832h.01-.01z" class="color2d2d2d svgShape"/><path fill="#2d2d2d" d="M23.724 199.212h-.061a19.877 19.877 0 0 1-14.13-5.902 19.874 19.874 0 0 1-5.819-14.164 19.874 19.874 0 0 1 5.903-14.128A19.877 19.877 0 0 1 23.72 159.2h.061c5.344.016 10.362 2.112 14.13 5.902s5.834 8.82 5.818 14.163l-.75-.002.75.002a19.872 19.872 0 0 1-5.902 14.129 19.874 19.874 0 0 1-14.103 5.818zM23.72 160.7c-4.922 0-9.553 1.91-13.046 5.382a18.385 18.385 0 0 0-5.46 13.07 18.384 18.384 0 0 0 5.383 13.1 18.388 18.388 0 0 0 13.07 5.46h.057c4.922 0 9.553-1.91 13.046-5.382a18.386 18.386 0 0 0 5.46-13.07 18.382 18.382 0 0 0-5.383-13.1 18.387 18.387 0 0 0-13.07-5.46h-.057z" class="color2d2d2d svgShape"/><path fill="#73d3ff" d="M15.231 184.871a.75.75 0 0 1-.53-1.28l6.676-6.677a.75.75 0 0 1 1.061 0l3.437 3.437 6.591-6.59a.75.75 0 1 1 1.06 1.06l-7.12 7.121a.75.75 0 0 1-1.06 0l-3.438-3.437-6.147 6.147a.748.748 0 0 1-.53.22z" class="color73d3ff svgShape"/><path fill="#73d3ff" d="M33.206 178.718a.75.75 0 0 1-.75-.75v-3.133h-3.133a.75.75 0 0 1 0-1.5h3.883a.75.75 0 0 1 .75.75v3.883a.75.75 0 0 1-.75.75z" class="color73d3ff svgShape"/></g><g class="color000 svgShape"><path fill="#f9c160" d="M12.399 125.633h39.728v24.424H12.399z" class="colorf9c160 svgShape"/><path fill="#f7ab3e" d="m52.131 125.633-19.87 13.073-19.858-13.073z" class="colorf7ab3e svgShape"/><path fill="#2d2d2d" d="M52.127 150.806H12.399a.75.75 0 0 1-.75-.75v-24.423a.75.75 0 0 1 .75-.75h39.728a.75.75 0 0 1 .75.75v24.423a.75.75 0 0 1-.75.75zm-38.978-1.5h38.228v-22.923H13.149v22.923z" class="color2d2d2d svgShape"/><path fill="#2d2d2d" d="M32.26 139.456a.75.75 0 0 1-.412-.123L11.99 126.26a.75.75 0 0 1 .413-1.377H52.13a.75.75 0 0 1 .412 1.377l-19.87 13.073a.747.747 0 0 1-.411.123zm-17.354-13.073 17.355 11.425 17.365-11.425h-34.72z" class="color2d2d2d svgShape"/><path fill="#f7ab3e" d="m12.403 149.992 19.869-13.073 19.859 13.073z" class="colorf7ab3e svgShape"/><path fill="#2d2d2d" d="M52.13 150.742H12.403a.75.75 0 0 1-.412-1.376l19.87-13.073a.749.749 0 0 1 .824 0l19.858 13.073a.75.75 0 0 1-.413 1.376zm-37.223-1.5h34.72l-17.355-11.425-17.365 11.425z" class="color2d2d2d svgShape"/></g><g class="color000 svgShape"><path fill="#ff5284" d="M19.766 125.63c0 4.23-3.43 7.67-7.66 7.67s-7.67-3.44-7.67-7.67 3.44-7.66 7.67-7.66a7.66 7.66 0 0 1 7.66 7.66z" class="colorff5284 svgShape"/></g><g class="color000 svgShape"><path fill="#2d2d2d" d="M12.106 134.05c-4.643 0-8.42-3.778-8.42-8.42 0-4.638 3.777-8.41 8.42-8.41 4.637 0 8.41 3.772 8.41 8.41 0 4.642-3.773 8.42-8.41 8.42zm0-15.33c-3.815 0-6.92 3.1-6.92 6.91a6.928 6.928 0 0 0 6.92 6.92c3.81 0 6.91-3.105 6.91-6.92 0-3.81-3.1-6.91-6.91-6.91z" class="color2d2d2d svgShape"/></g><g class="color000 svgShape"><path fill="#fff" d="M11.108 129.355c0-.432.3-.744.708-.744.432 0 .707.312.707.744 0 .419-.275.743-.707.743-.42 0-.708-.324-.708-.743zm.3-1.716-.168-5.757h1.152l-.168 5.757h-.816z" class="colorfff svgShape"/></g><g class="color000 svgShape"><path fill="#73d3ff" d="M216.075 129.537c.243.856.58 1.672 1.005 2.435L215.915 134l3.567 3.583 2.033-1.154c.762.425 1.576.769 2.43 1.016l.612 2.257 5.056.012.622-2.254c.856-.243 1.672-.58 2.436-1.005l2.027 1.165 3.584-3.567-1.155-2.033c.428-.761.77-1.575 1.017-2.43l2.256-.612.012-5.056-2.253-.622c-.24-.86-.58-1.675-1.005-2.438l1.164-2.028-3.567-3.584-2.035 1.158a11.259 11.259 0 0 0-2.428-1.016l-.611-2.257-5.056-.012-.622 2.254c-.857.24-1.672.58-2.433 1.005l-2.03-1.168-3.584 3.567 1.155 2.033a11.245 11.245 0 0 0-1.017 2.434l-2.256.61-.012 5.057 2.253.622z" class="color73d3ff svgShape"/><path fill="#fff" d="M221.03 126.403a6.087 6.087 0 1 0 12.175.03 6.087 6.087 0 0 0-12.175-.03z" class="colorfff svgShape"/><path fill="#2d2d2d" d="M229.613 140.464h-.002l-5.056-.012a.75.75 0 0 1-.722-.554l-.503-1.858a12.329 12.329 0 0 1-1.805-.755l-1.672.95a.753.753 0 0 1-.902-.122l-3.567-3.584a.75.75 0 0 1-.119-.903l.958-1.667a12.22 12.22 0 0 1-.746-1.81l-1.855-.511a.75.75 0 0 1-.55-.725l.011-5.056a.75.75 0 0 1 .554-.722l1.857-.503c.2-.62.454-1.226.755-1.809l-.95-1.671a.751.751 0 0 1 .123-.903l3.584-3.567a.752.752 0 0 1 .904-.118l1.67.96a11.948 11.948 0 0 1 1.806-.746l.511-1.854a.75.75 0 0 1 .724-.55h.002l5.056.011a.75.75 0 0 1 .722.554l.502 1.857c.616.2 1.22.453 1.803.755l1.675-.953a.75.75 0 0 1 .902.123l3.567 3.584a.75.75 0 0 1 .119.903l-.958 1.667c.3.585.55 1.192.747 1.812l1.854.512a.75.75 0 0 1 .55.725l-.012 5.056a.75.75 0 0 1-.554.722l-1.858.503a12.196 12.196 0 0 1-.754 1.805l.95 1.672a.751.751 0 0 1-.123.903l-3.584 3.567a.75.75 0 0 1-.903.118l-1.667-.958c-.578.296-1.184.545-1.809.746l-.512 1.855a.75.75 0 0 1-.723.55zm-4.482-1.51 3.911.008.47-1.701a.75.75 0 0 1 .518-.522 10.666 10.666 0 0 0 2.276-.939.75.75 0 0 1 .738.005l1.53.88 2.773-2.76-.872-1.534a.75.75 0 0 1-.002-.738c.4-.711.72-1.476.95-2.272a.75.75 0 0 1 .525-.516l1.703-.46.01-3.912-1.702-.47a.751.751 0 0 1-.522-.52 10.535 10.535 0 0 0-.938-2.277.75.75 0 0 1 .004-.738l.88-1.53-2.759-2.773-1.538.875a.75.75 0 0 1-.738.002 10.525 10.525 0 0 0-2.266-.949.751.751 0 0 1-.519-.525l-.46-1.704-3.912-.01-.47 1.702a.75.75 0 0 1-.52.523c-.787.22-1.55.536-2.27.937a.75.75 0 0 1-.74-.004l-1.532-.882-2.772 2.758.872 1.535a.75.75 0 0 1 .001.738 10.504 10.504 0 0 0-.948 2.271.75.75 0 0 1-.525.52l-1.705.46-.01 3.912 1.702.47a.75.75 0 0 1 .523.517c.226.798.542 1.564.938 2.277a.75.75 0 0 1-.005.738l-.879 1.53 2.759 2.772 1.535-.872a.753.753 0 0 1 .736-.002c.72.403 1.485.722 2.273.95a.751.751 0 0 1 .516.525l.461 1.704z" class="color2d2d2d svgShape"/><path fill="#2d2d2d" d="M227.12 133.255h-.018a6.792 6.792 0 0 1-4.831-2.015 6.792 6.792 0 0 1-1.99-4.84c.009-3.763 3.075-6.818 6.837-6.818h.017a6.843 6.843 0 0 1 6.818 6.852 6.793 6.793 0 0 1-2.013 4.829 6.788 6.788 0 0 1-4.82 1.992zm-5.34-6.85a5.304 5.304 0 0 0 1.554 3.777 5.303 5.303 0 0 0 3.771 1.573h.014a5.3 5.3 0 0 0 3.763-1.555 5.305 5.305 0 0 0 1.571-3.77 5.341 5.341 0 0 0-5.322-5.348h-.013a5.344 5.344 0 0 0-5.338 5.323z" class="color2d2d2d svgShape"/></g></svg></svg>