<?xml version="1.0" encoding="utf-8"?>
<!-- Generator: Adobe Illustrator 24.0.2, SVG Export Plug-In . SVG Version: 6.00 Build 0)  -->
<svg version="1.1" id="Layer_1" xmlns="http://www.w3.org/2000/svg" xmlns:xlink="http://www.w3.org/1999/xlink" x="0px" y="0px"
	 viewBox="0 0 550 550" style="enable-background:new 0 0 550 550;" xml:space="preserve">
<style type="text/css">
	.st0{fill-rule:evenodd;clip-rule:evenodd;fill:#D1DEED;}
	.st1{fill-rule:evenodd;clip-rule:evenodd;fill:#ED7E63;}
	.st2{fill-rule:evenodd;clip-rule:evenodd;fill:#71AEEC;}
	.st3{fill-rule:evenodd;clip-rule:evenodd;fill:#A3CFFB;}
	.st4{fill-rule:evenodd;clip-rule:evenodd;fill:#86BDF4;}
	.st5{fill-rule:evenodd;clip-rule:evenodd;fill:#619FDF;}
	.st6{fill-rule:evenodd;clip-rule:evenodd;fill:#FFFFFF;}
	.st7{fill-rule:evenodd;clip-rule:evenodd;fill:#EEF8FB;}
	.st8{fill-rule:evenodd;clip-rule:evenodd;fill:#FFB17D;}
	.st9{fill-rule:evenodd;clip-rule:evenodd;fill:#284190;}
	.st10{fill-rule:evenodd;clip-rule:evenodd;fill:#EF8161;}
	.st11{fill-rule:evenodd;clip-rule:evenodd;fill:#4567C5;}
	.st12{fill-rule:evenodd;clip-rule:evenodd;fill:#EF6A30;}
	.st13{fill-rule:evenodd;clip-rule:evenodd;fill:#F47A44;}
	.st14{fill-rule:evenodd;clip-rule:evenodd;fill:#125AA2;}
	.st15{fill:none;stroke:#FB9674;stroke-width:4.620000e-02;stroke-linecap:round;stroke-miterlimit:10;}
	.st16{fill-rule:evenodd;clip-rule:evenodd;fill:#8AB9E8;}
	.st17{fill-rule:evenodd;clip-rule:evenodd;fill:#D1E4F6;}
	.st18{fill-rule:evenodd;clip-rule:evenodd;fill:#FB9674;}
	.st19{fill-rule:evenodd;clip-rule:evenodd;fill:#1E77D0;}
	.st20{fill-rule:evenodd;clip-rule:evenodd;fill:#F6F6F6;}
	.st21{fill-rule:evenodd;clip-rule:evenodd;fill:#DEECF9;}
	.st22{fill-rule:evenodd;clip-rule:evenodd;fill:#4F8DCB;}
	.st23{fill-rule:evenodd;clip-rule:evenodd;fill:#CBCBCB;}
	.st24{fill-rule:evenodd;clip-rule:evenodd;fill:#C2DEF9;}
</style>
<path class="st0" d="M278.2,473.1c103.7,0,188.3-5.3,188.3-11.7s-84.6-11.7-188.3-11.7S89.9,455,89.9,461.4
	C89.9,467.9,174.5,473.1,278.2,473.1L278.2,473.1z"/>
<path class="st1" d="M317.4,127c-0.7-0.4,0-2.5,0.7-1.4c0.2,0.4,0.7,1.7,0.7,2.2c0.7-0.3-0.1-3.2,0.6-3.6c1.3-0.9,3.2,10-0.7,12
	c-0.8,0.4-0.7-1-0.8-2C317.3,127.4,314.2,126,317.4,127L317.4,127z"/>
<path class="st2" d="M219.7,451.1h75c0,0,7.1-23.7-37.5-23.7C212.6,427.4,219.7,451.1,219.7,451.1z"/>
<path class="st3" d="M272.7,428.4l-9.7-41.1h-11.7l-9.7,41.1c0,0,3.7,7.1,15.5,7.1C269.1,435.5,272.7,428.4,272.7,428.4L272.7,428.4
	z"/>
<path class="st4" d="M257.2,435.4c-11.9,0-15.5-7.1-15.5-7.1s6.2,2.3,12.4,2.3c3.7,0,7.4-0.8,9.9-3.3c6.9-6.8-0.9-40.2-0.9-40.2
	l9.7,41.1C272.7,428.4,269.1,435.4,257.2,435.4L257.2,435.4z"/>
<path class="st5" d="M294.7,451.1h-75c0,0-0.2-0.8-0.4-2.2c0.1,0,3.1,0.1,7.7,0.1c17.2,0,56.3-2,45.9-20.5
	C299.8,433.5,294.8,450.9,294.7,451.1z"/>
<path class="st2" d="M300,457.1c0,2.6-1.2,4.6-2.8,4.6h-80c-1.5,0-2.8-2.1-2.8-4.6v-3.5c0-2.6,1.2-4.6,2.8-4.6h80
	c1.5,0,2.8,2.1,2.8,4.6V457.1z"/>
<path class="st5" d="M160.1,345.2l221.9,45.2l-0.1,4.9l-24.2,21.2l-221.8-50l0.1-4.9L160.1,345.2z"/>
<path class="st3" d="M160.2,340.3l221.8,50l-24.2,21.2l-221.8-50L160.2,340.3z"/>
<path class="st6" d="M204.4,199.2c-0.3,0.1-0.6,0.3-0.9,0.5l-4.5,3.6v0l-0.1,0.1l-1.7-7.8c-1.1-5.1-4.1-8.5-7.3-8.5
	c-0.2,0-0.4,0-0.7,0l-4,0.6l-0.8-6.6c-0.4-3.9-1.4-7.5-2.8-10.6c0.7,10.9-0.3,19.4-2.8,26l-0.1,0c-0.8,2-1.7,3.8-2.8,5.5
	c-2.4,3.8-5.6,6.5-9.4,8.4h-16.9v0h-11.6c-0.8,0-1.5-1-1.7-2.3c-0.1-0.9-0.1-1.8-0.1-2.7c0.2-5.5,2.8-10,6-10.6
	c0.3,0,0.6-0.1,0.9-0.1c1.6,0,3.1,0.9,4.4,2.6c0.3,0.4,0.7,0.6,1,0.6c0.3,0,0.6-0.1,0.8-0.4v-0.1c0.6-0.7,0.9-1.9,0.7-3
	c-0.4-2.8-0.6-5.8-0.6-8.8h0.1v-0.1c0.1-6.5,1.5-12.5,3.7-17.5l-0.1-0.1c2.7-6.1,6.7-10.5,11.3-12.2c1.2-0.5,2.4-0.7,3.6-0.7h0.4
	c9,0,16.8,10.6,18.6,25.5c0.2,1.3,0.9,2.3,1.7,2.3h0.1c0.3,0,0.6,0,0.9,0c4.4,0,8.4,4.7,10,11.6c0.2,0.7,0.5,1.3,1,1.7
	c0.2,0.1,0.4,0.2,0.6,0.2c0.1,0,0.2,0,0.3,0c0.1,0,0.2-0.1,0.3-0.2c0.6-0.5,1.1-0.8,1.7-1c0.5-0.2,1-0.2,1.5-0.2h0.4
	c2.3,0.2,4.3,2.3,5.5,5.4v0.4c0.6,1.7,1,3.6,1,5.6c0,0.7,0,1.4-0.1,2c-0.1,0.9-0.4,1.7-0.9,2.1v0c-0.1,0-0.2,0.1-0.3,0.1
	c-0.1,0-0.3,0.1-0.4,0.1h-0.9c0.6-7.2-2.5-11-4.2-11.1h-0.2C205,199.1,204.7,199.1,204.4,199.2L204.4,199.2z"/>
<path class="st7" d="M180.5,168.9c0.1-2.2,3.6,6.9,4,12.4l0.8,6.6l4-0.6c0.2,0,0.4,0,0.7,0c3.2,0,6.2,3.4,7.3,8.5l1.7,7.8l4.5-3.6
	c0.6-0.5,1.2-0.7,1.8-0.7h0.2c0.7,0,1.6,0.7,2.4,1.9c1.4,1.7,2.7,5,2.3,9.7h-45.5c4-1.9,7.4-4.6,10-8.4
	C182.9,190.4,180.3,168.2,180.5,168.9z"/>
<path class="st8" d="M242.6,135.1c-1.9,10.2-4.5,21-7.2,31l3.7,0.5l-2.6,7.7c2.7,1.6,2,2.2,3.8-1c4.3-7.4,6.9-20.1,12-38.3
	c-3.2-2.2-5.4-2.4-8.8-3.2c-0.5,2.2-1,4.3-1.5,6.5L242.6,135.1L242.6,135.1z"/>
<path class="st1" d="M207.9,134.7c0.7-0.6-0.2-2.5-0.9-1.2c-0.2,0.4-0.6,1.8-0.5,2.3c-0.7-0.2-0.2-3.2-0.9-3.4
	c-1.3-0.6-2.4,10.6,1.6,11.7c0.9,0.2,0.6-1.1,0.6-2.2C208,135.1,210.9,133,207.9,134.7L207.9,134.7z"/>
<path class="st9" d="M278.5,53.9c1.8,16.4,6.6,48.2,9.7,47.1c-0.1,1.6,10.8,14.1,1,38.2c-0.3,0.8-0.9,1.3-1.3,1.6
	c-6.6,4.3-6.9-10.2-13.1-12.8c-8.8-3.7-18.9,4.5-22.8,2.3c-6.6-3.8-8.3-19.7-4.9-25.8c1.4-2.6,3.5-3.6,5-5.9
	c5.2-11.8-1.6-48.2,10.5-56.1C266.9,39.2,276.9,41.3,278.5,53.9L278.5,53.9z"/>
<path class="st8" d="M278.7,110.8c-9.2-10.3-8.1-10-7.9-26.6l-10.2-0.1c1.6,18.8-3.9,18-10.1,24.5
	C256.7,118.8,270.6,121.3,278.7,110.8z"/>
<path class="st8" d="M272.3,84.2c3-6.5,6.5-25.9,0.1-34.9c-4-5.5-14.3-5.1-14.8,14.3C256.9,89.9,265.9,97.9,272.3,84.2L272.3,84.2z"
	/>
<path class="st9" d="M257.8,71.3c-0.7-4.8-0.3-9.8,0.1-14.7c0.6-7.3,3.8-4.4,2.6-0.7C258,63.1,258.6,60.7,257.8,71.3z"/>
<path class="st9" d="M274.6,76.3c3.5-7.6,3.8-3.9,4-14.1c-0.8-28.3-20.7-26.6-19.3-11.6c-1.5,3.4-0.1,4.8,1.4,6.7
	C273.4,73.5,272.9,52.6,274.6,76.3L274.6,76.3z"/>
<path class="st8" d="M257,67.1c1.6-0.6,1.5,5,1.4,7.8C258.2,80.3,254.5,68,257,67.1z M276.2,68.9c-1.5-1-1.8,4.6-1.9,7.4
	C274.1,81.8,278.6,70.4,276.2,68.9z"/>
<path class="st10" d="M270.3,87.4c-3.3,5.5-8,2.9-9.2-0.6c-0.5-1.4-0.2,5.6,3.7,6.6C269.1,94.4,271.2,85.8,270.3,87.4z"/>
<path class="st8" d="M288.7,132.9c1,10.5,2.6,21.8,4.4,32.4l-3.7-0.5l1.9,8.2c-2.8,1-2.1,1.7-3.7-1.9c-3.6-8.4-5-21.6-8.4-40.9
	c3.4-1.4,5.5-1.1,9-0.9c0.3,2.2,0.6,4.5,0.9,6.8L288.7,132.9L288.7,132.9z M243,361.9c0.9,6,5.1,6.6,5.9,0l0.7-16.1l-7.4-1.1
	L243,361.9z M263.1,327.1c-2.9,3.9-6.4,0.1-4.7-6l5.3-13.6l6.3,6.5L263.1,327.1z"/>
<path class="st11" d="M240.3,262.9c-2.2,90.1,0.7,89.4,1.4,97.1c8.3,0.9,8.7,1.4,8.9-0.4l6.1-95.4l9.5-53.8
	c4.6,17.2,13.9,29.3,13.8,43.1c-0.1,5.7-5.2,12.1-8.6,21.6c-6.2,17.3-12.2,38.3-11.6,38.3c2.2,8.1,6.7,11.5,6.6,9.5
	c6.5-15.3,32.4-58.4,30.9-74.3c-2.4-25.6-16.4-80.6-17.5-80.4c-30.6,4.5-28.7,3.9-29,4.9C245.9,196.3,240.9,238.6,240.3,262.9
	L240.3,262.9z"/>
<path class="st12" d="M279.5,107.1c5.9,1.8,5.4,1.3,11.6,36.6c0.5,2.8-4.4,7.6-11.6,7.8c-4.8-16.6-9.3-29.6-6.9-38.9
	C273.4,109.2,278.3,106.7,279.5,107.1L279.5,107.1z M253.2,106.6c-6,1-5.8-0.1-13.6,34c-0.7,3.3,6.6,9,11.6,10.3
	c5.6-15.9,10.6-28.2,8.7-37.8C259.2,109.6,254.4,106.4,253.2,106.6L253.2,106.6z"/>
<path class="st13" d="M271.7,101.4c-1.5,6-10.8,9.4-13-0.6c-6.1,3.6-8.2,6.5-8.2,6.5c-0.3,11.4-6,64.3,1.3,65.5
	c11.2,2,19.4,2.6,28.8-1.3c4.9-4,0.6-63.2,0.5-63.9C281.1,107.6,277.7,106,271.7,101.4L271.7,101.4z"/>
<path class="st9" d="M231,376.5c-0.2-0.6-0.2-1.4,0-2c0.5-1.9,12.4-13,12-12.5c2,2.5,4.8,1.7,5.9,0c0.6,2.7,2.3,12.2,0.2,12.9
	C247.8,375.1,231.8,379.1,231,376.5L231,376.5z M267.6,350.8c0.4-0.3,0.7-0.9,0.7-1.6c0.2-2-5.4-22.9-5.2-22.1
	c-2.5,0.1-4.5-3.4-4.7-6c-1.4,1.6-6.3,7.8-4.8,10.5C254.5,333.1,266,352.1,267.6,350.8L267.6,350.8z M259.3,50.2
	c1.2,0.1,1.8-0.6,2-2c-0.9-2.4-2.2-3.9-3.7-4.3C258.3,44.8,258.9,46.9,259.3,50.2z"/>
<path class="st9" d="M259.5,50c-0.8,0.3-1.1-0.1-0.9-1.4c1-2.4,2-4,3.1-4.7C261.1,44.8,260.4,46.9,259.5,50z"/>
<path class="st9" d="M261.3,51.3c1-1.6,1.3-3,0.7-4.3c-2-0.8-3.7-0.3-5.2,1.4C257.8,48.2,259.2,49.2,261.3,51.3z M263.4,55.8
	c-1.2-0.1-1.9,0.6-2,2.2c1,2.8,2.3,4.5,3.9,5C264.5,62,263.9,59.6,263.4,55.8L263.4,55.8z"/>
<path class="st12" d="M249.4,128.2c-0.2,0-0.3-0.3-0.3-0.6s0.2-0.6,0.4-0.6c9.8,0.6,17.5,1,22.9,1c5.4,0,8.6-0.2,9.6-0.7
	c0.2-0.1,0.4,0.1,0.4,0.4s-0.1,0.6-0.2,0.7c-1.1,0.6-4.3,0.8-9.8,0.8C266.9,129.2,259.2,128.9,249.4,128.2L249.4,128.2z
	 M249.2,130.2c-0.2,0-0.3-0.3-0.3-0.6s0.2-0.6,0.4-0.6c9.9,0.6,17.6,1,23,1c5.4,0,8.7-0.2,9.7-0.7c0.2-0.1,0.4,0.1,0.4,0.4
	c0.1,0.3-0.1,0.6-0.2,0.7c-1.1,0.6-4.4,0.8-9.9,0.8C266.8,131.2,259.2,130.8,249.2,130.2L249.2,130.2z"/>
<path class="st14" d="M262.3,70.5c-0.3,0-0.6-0.6-0.6-1.2s0.2-1.2,0.6-1.2c0.3,0,0.5,0.6,0.5,1.2S262.6,70.5,262.3,70.5z M267,68.8
	c2.9-1.1,2.5-0.9,4.7,1.4c-0.7-2.4-2-3.3-3.5-2.9C267.4,67.5,267.3,67.5,267,68.8z"/>
<path class="st14" d="M268.6,71.3c0.3,0,0.6-0.5,0.6-1.1c0.1-0.7-0.2-1.3-0.5-1.3c-0.3,0-0.6,0.5-0.6,1.1
	C268.1,70.7,268.3,71.3,268.6,71.3z M264.3,68.5c-2.5-2.1-2.2-1.8-4.5-0.4c1-2.1,2.3-2.4,3.7-1.5C264.1,67.1,264.2,67.1,264.3,68.5z
	"/>
<path class="st15" d="M264.9,71.8c-0.2,2.6-0.7,4-0.8,5c-0.1,1.2,0.1,1.4,0.8,1.6l0.7,0.1"/>
<path class="st6" d="M267.7,82.6c-2.9,0.7-5-0.2-4.3,0.2C264.1,84,266,84,267.7,82.6z"/>
<path class="st3" d="M262.5,68.1c0.1,0,0.1,0.2,0.1,0.5c0,0.3-0.1,0.5-0.1,0.5c-0.1,0-0.1-0.2-0.1-0.5
	C262.4,68.3,262.4,68.1,262.5,68.1z M268.4,69.3c0.1,0,0.1,0.2,0.1,0.5c0,0.3-0.1,0.5-0.1,0.4c-0.1,0-0.1-0.2-0.1-0.5
	C268.3,69.5,268.4,69.3,268.4,69.3z"/>
<path class="st5" d="M302.3,102.4c0-16.1,7.8-29.2,17.5-29.2s17.5,13.1,17.5,29.2s-7.8,29.2-17.5,29.2S302.3,118.5,302.3,102.4z"/>
<path class="st3" d="M304.9,102.4c0-13.7,6.7-24.8,14.9-24.8s14.9,11.1,14.9,24.8s-6.7,24.8-14.9,24.8
	C311.6,127.2,304.9,116.1,304.9,102.4z"/>
<path class="st16" d="M327.6,81.3c1.5,3.9,2.3,8.4,2.3,13.3c0,13.7-6.7,24.8-14.9,24.8c-2.9,0-5.5-1.3-7.8-3.7
	c2.6,6.9,7.3,11.4,12.5,11.4c8.2,0,14.9-11.1,14.9-24.8C334.6,93.5,331.8,85.7,327.6,81.3z"/>
<path class="st17" d="M307.5,104.7c0-12.1,5.9-21.8,13.1-21.8c4.2,0,8,3.3,10.4,8.5c-2.3-6.6-6.5-11-11.4-11
	c-7.2,0-13.1,9.8-13.1,21.8c0,5,1,9.6,2.7,13.3C308.2,112.4,307.5,108.6,307.5,104.7L307.5,104.7z"/>
<path class="st6" d="M321,86.4v3.2c0.8,0.2,1.4,0.6,1.9,1.2c0.5,0.6,0.9,1.6,1.4,2.9l-1.9,1.7c-0.6-1.7-1.3-2.6-2.2-2.6
	c-0.6,0-1,0.3-1.4,0.8c-0.4,0.6-0.5,1.2-0.5,2.1c0,0.8,0.1,1.4,0.4,1.9c0.3,0.5,0.9,1.1,1.8,1.7c0.8,0.6,1.4,1.1,1.9,1.7
	c0.5,0.5,0.9,1,1.2,1.5c0.7,1.3,1.1,2.9,1.1,4.7c0,1.8-0.3,3.4-1,4.8s-1.5,2.3-2.6,2.8v3.3h-1.7v-3.3c-1.3-0.3-2.2-1.1-2.9-2.2
	c-0.7-1.1-1.2-2.8-1.5-5.1l2.1-0.7c0.3,1.7,0.6,2.8,1.1,3.5c0.4,0.7,1,1,1.7,1c0.7,0,1.3-0.4,1.8-1.1c0.5-0.7,0.7-1.7,0.7-2.9
	c0-1.1-0.2-1.9-0.6-2.6c-0.2-0.3-0.5-0.6-0.9-1.1c-0.4-0.4-0.9-0.8-1.5-1.3c-1.2-0.9-2.1-1.8-2.4-2.6c-0.6-1.1-0.9-2.6-0.9-4.2
	c0-0.8,0.1-1.5,0.2-2.2c0.1-0.7,0.4-1.3,0.6-1.8c0.3-0.6,0.6-1,1-1.4c0.4-0.4,0.9-0.7,1.4-0.9v-3.2L321,86.4L321,86.4z"/>
<g>
	<path class="st18" d="M210.3,140.2c8.6,0,15.6-11.7,15.6-26.1c0-14.4-7-26.1-15.6-26.1c-8.6,0-15.6,11.7-15.6,26.1
		C194.7,128.5,201.7,140.2,210.3,140.2z"/>
	<path class="st19" d="M209.7,88.3c8.7,0,15.8,11.8,15.8,26.4c0,14.6-7.1,26.4-15.8,26.4c-8.7,0-15.8-11.8-15.8-26.4
		C193.9,100.1,200.9,88.3,209.7,88.3z"/>
	<path class="st20" d="M210.3,140.2c8.6,0,15.6-11.7,15.6-26.1c0-14.4-7-26.1-15.6-26.1c-8.6,0-15.6,11.7-15.6,26.1
		C194.7,128.5,201.7,140.2,210.3,140.2z"/>
	<path class="st21" d="M211.2,88.7c7.9,0,14.4,10.7,14.4,24c0,8.4-2.6,15.8-6.5,20c2.4-4.3,4-10.1,4-16.5c0-13.3-6.4-24-14.4-24
		c-2.9,0-5.6,1.4-7.9,3.9C203.4,91.5,207.1,88.7,211.2,88.7L211.2,88.7z"/>
	<path class="st22" d="M220.1,112.4h0.3l0.3,0c0,0,0,0,0,0.1c0,0,0,0,0,0.1c-0.1,0-0.1,0-0.1,0.1c0,0,0,0.1-0.1,0.3
		c0,0.1,0,0.5,0,0.9v1.2c0,0.3,0,0.5,0.1,0.6c0,0.1,0.1,0.1,0.1,0.1c0,0,0.1,0,0.1,0c0,0,0,0.1-0.1,0.1h-0.1c-0.1,0-0.2,0-0.3,0
		h-0.3c0,0,0,0,0-0.1s0,0,0,0c0.1,0,0.1,0,0.1-0.1c0,0,0-0.2,0-0.5v-2.2c0-0.2,0-0.3,0-0.3C220.2,112.5,220.2,112.5,220.1,112.4
		C220.1,112.4,220.1,112.4,220.1,112.4L220.1,112.4L220.1,112.4z M221,112.4h0.3l0.3,0c0,0,0,0,0,0.1c0,0,0,0,0,0.1
		c-0.1,0-0.1,0-0.1,0.1c0,0,0,0.1-0.1,0.3c0,0.1,0,0.5,0,0.9v1.2c0,0.3,0,0.5,0.1,0.6c0,0.1,0.1,0.1,0.1,0.1c0,0,0.1,0,0.1,0
		c0,0,0,0.1-0.1,0.1h-0.1c-0.1,0-0.2,0-0.3,0h-0.3c0,0,0,0,0-0.1s0,0,0,0c0.1,0,0.1,0,0.1-0.1c0,0,0-0.2,0-0.5v-2.2
		c0-0.2,0-0.3,0-0.3C221,112.5,221,112.5,221,112.4C220.9,112.4,220.9,112.4,221,112.4L221,112.4L221,112.4z M221.8,112.4h0.3l0.3,0
		c0,0,0,0,0,0.1c0,0,0,0,0,0.1c-0.1,0-0.1,0-0.1,0.1c0,0,0,0.1-0.1,0.3c0,0.1,0,0.5,0,0.9v1.2c0,0.3,0,0.5,0.1,0.6
		c0,0.1,0.1,0.1,0.1,0.1c0,0,0.1,0,0.1,0c0,0,0,0.1-0.1,0.1h-0.1c-0.1,0-0.2,0-0.3,0h-0.3c0,0,0,0,0-0.1s0,0,0,0
		c0.1,0,0.1,0,0.1-0.1c0,0,0-0.2,0-0.5v-2.2c0-0.2,0-0.3,0-0.3C221.8,112.5,221.8,112.5,221.8,112.4
		C221.7,112.4,221.7,112.4,221.8,112.4L221.8,112.4z M210,134L210,134l-0.3-1.2c-0.1-0.3-0.1-0.7-0.2-1.1c-0.1-0.5-0.1-0.7-0.1-0.8
		c0,0,0-0.1-0.1-0.1c0,0-0.1,0-0.1,0s0,0,0,0c0,0,0-0.1,0-0.1l0.3,0h0.3c0,0,0.1,0,0.1,0.1s0,0-0.1,0.1c-0.1,0-0.1,0.1-0.1,0.3
		c0,0.3,0.1,1,0.3,2.1c0.1-0.4,0.1-0.8,0.2-1.1l0.1-0.7c0-0.1,0-0.2,0-0.2c0-0.1,0-0.1,0-0.2c0,0-0.1-0.1-0.1-0.1s-0.1,0-0.1-0.1
		s0-0.1,0-0.1h0.5c0,0,0,0,0,0.1s0,0.1,0,0.1c0,0-0.1,0-0.1,0.1c0,0-0.1,0.1-0.1,0.2c0,0.1-0.1,0.4-0.1,0.7l-0.2,1.2
		C210.1,133.5,210,133.9,210,134L210,134z M210.8,130.5h0.3l0.3,0c0,0,0,0,0,0.1s0,0,0,0.1c-0.1,0-0.1,0-0.1,0.1c0,0,0,0.1-0.1,0.3
		c0,0.1,0,0.5,0,0.9v1.2c0,0.3,0,0.5,0.1,0.6c0,0.1,0.1,0.1,0.1,0.1c0,0,0.1,0,0.1,0c0,0,0,0.1-0.1,0.1h-0.1c-0.1,0-0.2,0-0.3,0
		h-0.3c0,0,0,0,0-0.1s0,0,0,0c0.1,0,0.1,0,0.1-0.1c0,0,0-0.2,0-0.5V131c0-0.2,0-0.3,0-0.3C210.9,130.7,210.8,130.7,210.8,130.5
		C210.8,130.6,210.8,130.6,210.8,130.5C210.8,130.6,210.8,130.5,210.8,130.5L210.8,130.5z M209.6,95.4c0.1-0.5,0.2-0.7,0.2-0.9
		c0,0,0-0.1,0-0.1c0,0-0.1,0-0.1-0.1c0,0,0,0,0-0.1c0,0,0,0,0,0h0.5c0,0,0.1,0,0.1,0.1c0,0,0,0.1,0,0.1c-0.1,0-0.1,0-0.1,0.1
		c-0.1,0-0.1,0.1-0.1,0.3c0,0.1-0.1,0.4-0.3,0.9c0.1,0.3,0.2,0.7,0.3,1.1c0.1,0.4,0.2,0.6,0.2,0.7c0.1,0.1,0.1,0.1,0.1,0.1
		c0,0,0.1,0,0.1,0.1c0,0,0,0.1-0.1,0.1l-0.4,0h-0.3c0,0,0,0,0-0.1c0,0,0,0,0-0.1c0.1,0,0.1-0.1,0.1-0.2c0-0.1-0.1-0.5-0.2-1.1
		c-0.2,0.6-0.3,0.9-0.3,1.1c0,0.1,0.1,0.2,0.2,0.2c0,0,0,0,0,0c0,0,0,0.1,0,0.1h-0.5c0,0-0.1,0-0.1-0.1s0,0,0,0c0.1,0,0.1,0,0.1-0.1
		c0,0,0.1-0.2,0.1-0.3c0.1-0.2,0.2-0.5,0.3-1c-0.2-0.7-0.3-1.1-0.4-1.4c-0.1-0.2-0.1-0.3-0.2-0.3c0,0,0,0,0-0.1c0,0,0-0.1,0-0.1h0.6
		c0,0,0.1,0,0.1,0.1c0,0,0,0.1-0.1,0.1s0,0-0.1,0c0,0-0.1,0-0.1,0.1c0,0,0,0.1,0.1,0.3C209.4,94.8,209.5,95.1,209.6,95.4L209.6,95.4
		z M210.5,94.1h0.3l0.3,0c0,0,0,0,0,0.1s0,0,0,0.1c-0.1,0-0.1,0-0.1,0.1c0,0,0,0.1-0.1,0.3c0,0.1,0,0.5,0,0.9v1.2
		c0,0.3,0,0.5,0.1,0.6c0,0.1,0.1,0.1,0.1,0.1c0,0,0.1,0,0.1,0s0,0.1-0.1,0.1H211c-0.1,0-0.2,0-0.3,0h-0.3c0,0,0,0,0-0.1
		c0,0,0,0,0-0.1c0.1,0,0.1,0,0.1-0.1c0,0,0-0.2,0-0.5v-2.2c0-0.2,0-0.3,0-0.3C210.5,94.2,210.5,94.2,210.5,94.1
		C210.4,94.2,210.4,94.1,210.5,94.1C210.4,94.2,210.4,94.1,210.5,94.1L210.5,94.1z M211.3,94.1h0.3l0.3,0c0,0,0,0,0,0.1s0,0,0,0.1
		c-0.1,0-0.1,0-0.1,0.1c0,0,0,0.1-0.1,0.3c0,0.1,0,0.5,0,0.9v1.2c0,0.3,0,0.5,0.1,0.6c0,0.1,0.1,0.1,0.1,0.1c0,0,0.1,0,0.1,0
		s0,0.1-0.1,0.1h-0.1c-0.1,0-0.2,0-0.3,0h-0.3c0,0,0,0,0-0.1c0,0,0,0,0-0.1c0.1,0,0.1,0,0.1-0.1c0,0,0-0.2,0-0.5v-2.2
		c0-0.2,0-0.3,0-0.3C211.3,94.2,211.3,94.2,211.3,94.1C211.2,94.2,211.2,94.1,211.3,94.1C211.2,94.2,211.3,94.1,211.3,94.1
		L211.3,94.1z M198.3,112.4h0.3l0.3,0c0,0,0,0,0,0.1c0,0,0,0,0,0.1c-0.1,0-0.1,0-0.1,0.1c0,0,0,0.1-0.1,0.3c0,0.1,0,0.5,0,0.9v1.2
		c0,0.3,0,0.5,0.1,0.6c0,0.1,0.1,0.1,0.1,0.1c0,0,0.1,0,0.1,0c0,0,0,0.1-0.1,0.1h-0.1c-0.1,0-0.2,0-0.3,0h-0.3c0,0,0,0,0-0.1
		c0,0,0,0,0,0c0.1,0,0.1,0,0.1-0.1c0,0,0-0.2,0-0.5v-2.2c0-0.2,0-0.3,0-0.3C198.4,112.5,198.4,112.5,198.3,112.4
		C198.3,112.4,198.3,112.4,198.3,112.4L198.3,112.4L198.3,112.4z M199.9,113.6c0.1-0.5,0.2-0.7,0.2-0.9c0,0,0-0.1,0-0.1
		c0,0-0.1,0-0.1-0.1c0,0,0,0,0-0.1c0,0,0,0,0,0h0.5c0,0,0.1,0,0.1,0.1c0,0,0,0.1,0,0.1c-0.1,0-0.1,0-0.1,0.1c-0.1,0-0.1,0.1-0.1,0.3
		c0,0.1-0.1,0.4-0.3,0.9c0.1,0.3,0.2,0.7,0.3,1.1c0.1,0.4,0.2,0.6,0.2,0.7c0.1,0.1,0.1,0.1,0.1,0.1c0,0,0.1,0,0.1,0.1
		c0,0,0,0.1-0.1,0.1l-0.4,0h-0.3c0,0,0,0,0-0.1c0,0,0,0,0-0.1c0.1,0,0.1-0.1,0.1-0.2c0-0.1-0.1-0.5-0.2-1.1
		c-0.2,0.6-0.3,0.9-0.3,1.1s0.1,0.2,0.2,0.2c0,0,0,0,0,0c0,0,0,0.1,0,0.1h-0.5c0,0-0.1,0-0.1-0.1c0,0,0,0,0-0.1c0.1,0,0.1,0,0.1-0.1
		c0,0,0.1-0.2,0.1-0.3c0.1-0.2,0.2-0.5,0.3-1c-0.2-0.7-0.3-1.1-0.4-1.4c-0.1-0.2-0.1-0.3-0.2-0.3c0,0,0,0,0-0.1c0,0,0-0.1,0-0.1h0.6
		c0,0,0.1,0,0.1,0.1c0,0,0,0.1-0.1,0.1s0,0-0.1,0s-0.1,0-0.1,0.1c0,0,0,0.1,0.1,0.3C199.7,113,199.8,113.3,199.9,113.6L199.9,113.6z
		"/>
	<path class="st16" d="M216.1,97.5c0.1,0,0.1,0.1,0,0.2l-0.6,1.7c0,0.1-0.1,0.1-0.1,0c-0.1,0-0.1-0.1,0-0.2l0.6-1.7
		C216,97.5,216,97.5,216.1,97.5z M220.2,104.5c0,0.1,0,0.2,0,0.2l-1,1c-0.1,0-0.1,0-0.1,0c0-0.1,0-0.2,0-0.2l1-1
		C220.2,104.4,220.2,104.4,220.2,104.5z"/>
	<path class="st5" d="M220.2,123.6c0,0.1-0.1,0.1-0.1,0l-1-1c-0.1,0-0.1-0.1,0-0.2c0-0.1,0.1-0.1,0.1,0l1,1
		C220.3,123.4,220.3,123.5,220.2,123.6z M216.1,130.6c-0.1,0-0.1,0-0.1,0l-0.6-1.7c0-0.1,0-0.2,0-0.2c0.1,0,0.1,0,0.1,0l0.6,1.7
		C216.1,130.4,216.1,130.5,216.1,130.6z"/>
	<path class="st16" d="M204.6,130.6c-0.1,0-0.1-0.1,0-0.2l0.6-1.7c0-0.1,0.1-0.1,0.1,0c0.1,0,0.1,0.1,0,0.2l-0.6,1.7
		C204.7,130.6,204.7,130.6,204.6,130.6z M200.4,123.6c0-0.1,0-0.2,0-0.2l1-1c0.1,0,0.1,0,0.1,0c0,0.1,0,0.2,0,0.2l-1,1
		C200.5,123.7,200.5,123.7,200.4,123.6z M200.4,104.5c0-0.1,0.1-0.1,0.1,0l1,1c0.1,0,0.1,0.1,0,0.2c0,0.1-0.1,0.1-0.1,0l-1-1
		C200.4,104.7,200.4,104.6,200.4,104.5z M204.6,97.5c0.1,0,0.1,0,0.1,0l0.6,1.7c0,0.1,0,0.2,0,0.2c-0.1,0-0.1,0-0.1,0l-0.6-1.7
		C204.6,97.7,204.6,97.6,204.6,97.5z"/>
	<path class="st5" d="M197.1,114c0-12.2,5.9-22.2,13.3-22.2c3.1,0,6,1.8,8.2,4.8c3.1,4.1,5.1,10.4,5.1,17.4s-2,13.3-5.1,17.4
		c-2.3,3-5.1,4.8-8.2,4.8C203,136.2,197.1,126.3,197.1,114L197.1,114z M218.6,92.8c-2.4-2.6-5.2-4-8.2-4c-8.4,0-15.2,11.3-15.2,25.3
		s6.8,25.3,15.2,25.3c3,0,5.9-1.5,8.2-4c4.2-4.5,7-12.4,7-21.3C225.6,105.2,222.8,97.3,218.6,92.8z"/>
	<path class="st5" d="M195.1,114c0-14.1,6.8-25.5,15.3-25.5c8.4,0,15.3,11.4,15.3,25.5c0,14.1-6.8,25.5-15.3,25.5
		C201.9,139.5,195.1,128.1,195.1,114z M226.2,114c0-14.6-7.1-26.4-15.8-26.4c-8.7,0-15.8,11.8-15.8,26.4c0,14.6,7.1,26.4,15.8,26.4
		C219.1,140.5,226.2,128.6,226.2,114z"/>
	<path class="st5" d="M210.3,92.2L210.3,92.2l0.1,1h-0.1V92.2z M213.7,92.9L213.7,92.9l-0.1,1.1l-0.1,0L213.7,92.9z M216.9,95.1
		L216.9,95.1l-0.2,1l-0.1-0.1L216.9,95.1z M219.2,99.3l0.4-0.7l0.1,0.1L219.2,99.3L219.2,99.3z M221.1,103.6l0.5-0.5l0,0.1l-0.5,0.5
		L221.1,103.6z M223,108.3l0,0.1l-0.6,0.3l0-0.1L223,108.3z M222.8,114h0.6v0.1h-0.6V114z M223,119.6l0,0.1l-0.6-0.3l0-0.1
		L223,119.6z M221.7,124.9l-0.1,0.1l-0.5-0.6l0-0.1L221.7,124.9z M219.2,128.8L219.2,128.8l0.5,0.6l-0.1,0.1L219.2,128.8z
		 M216.6,132.2L216.6,132.2l0.4,0.8l-0.1,0.1L216.6,132.2z M213.5,134.2L213.5,134.2l0.2,0.9l-0.1,0L213.5,134.2z M210.3,134.9
		L210.3,134.9l0.1,1h-0.1V134.9z M207,135.2L207,135.2l0.1-1.1l0.1,0L207,135.2z M203.8,133L203.8,133l0.2-1l0.1,0.1L203.8,133z
		 M201,129.5l0.4-0.7l0.1,0.1L201,129.5L201,129.5z M199,124.9l0.5-0.5l0,0.1L199,125L199,124.9z M197.7,119.7l0.6-0.3l0,0.1
		l-0.6,0.3L197.7,119.7z M197.3,114h0.6v0.1h-0.6V114z M197.7,108.5v-0.1l0.6,0.3l0,0.1L197.7,108.5z M199,103.2l0-0.1l0.6,0.6
		l-0.1,0.1L199,103.2z M201.1,98.6L201.1,98.6l0.5,0.6l-0.1,0.1L201.1,98.6z M203.8,95.2L203.8,95.2l0.4,0.8l-0.1,0L203.8,95.2z
		 M206.9,93L206.9,93l0.2,1l-0.1,0L206.9,93z"/>
	<path class="st6" d="M214.1,90.8c0.4,0.2,0.8,0.4,1.2,0.6c1.6,1,3.1,2.5,4.5,4.4c0,0,0.1,0.1,0,0.2c0,0-0.1,0.1-0.1,0
		c-1.4-1.9-2.8-3.3-4.5-4.4c-0.4-0.2-0.7-0.4-1.1-0.6L214.1,90.8L214.1,90.8z M203.1,134.9c-0.4-0.3-0.7-0.7-1-1.1
		c-1.4-1.7-2.6-3.7-3.7-6.2c0-0.1,0-0.2,0-0.2c0.1,0,0.1,0,0.1,0c1,2.4,2.2,4.4,3.6,6.1l1,1.1L203.1,134.9L203.1,134.9z
		 M197.9,102.2c0,0.1-0.1,0.1-0.1,0c-0.1,0-0.1-0.1,0-0.2c1-2.6,2.1-4.9,3.5-6.7s2.9-3.2,4.6-4.2c0.1,0,0.1,0,0.1,0.1
		c0,0.1,0,0.2-0.1,0.2c-1.7,1-3.2,2.3-4.5,4.1C200,97.4,198.8,99.6,197.9,102.2z M224.2,120.5c0-0.1,0.1-0.1,0.1-0.1
		c0.1,0,0.1,0.1,0.1,0.2c-0.6,2.9-1.4,5.6-2.4,7.9c-1,2.3-2.3,4.3-3.8,5.9c-0.1,0-0.1,0-0.1,0c0-0.1,0-0.2,0-0.2
		c1.5-1.7,2.8-3.6,3.8-5.9C222.9,126,223.7,123.4,224.2,120.5L224.2,120.5z"/>
	<path class="st23" d="M209.8,113.2c0.2-0.6,0.6-0.9,1-0.6c0.4,0.3,0.6,1,0.4,1.7c-0.2,0.6-0.6,0.9-1,0.6
		C209.8,114.6,209.6,113.8,209.8,113.2z"/>
	<path class="st23" d="M204.1,106.4l1.6,3.1c0.8,1.5,1.1,1.5,2.1,2.4l2,1.7l0.2-0.4l0.2-0.4l-1.7-2.6c-0.9-1.4-1-1.8-2.1-2.5
		L204.1,106.4L204.1,106.4z M220.6,100l-3.7,3.7c-1.8,1.8-2.1,2.5-3.7,5l-3,4.7l0.2,0.4l0.2,0.4l3.4-3.9c1.8-2.1,2.3-2.3,3.7-4.9
		L220.6,100L220.6,100z"/>
	<path class="st19" d="M209.6,113.2c0.2-0.6,0.6-0.9,1-0.6c0.4,0.3,0.6,1,0.4,1.7c-0.2,0.6-0.6,0.9-1,0.6
		C209.6,114.6,209.4,113.9,209.6,113.2z"/>
	<path class="st19" d="M204,106.4l1.6,3.1c0.8,1.5,1.1,1.5,2.1,2.4l2.1,1.7l0.2-0.4l0.2-0.4l-1.7-2.6c-0.9-1.4-1-1.8-2.1-2.5
		L204,106.4L204,106.4z M220.5,100.1l-3.7,3.7c-1.8,1.8-2.1,2.5-3.7,5l-3,4.7l0.2,0.4l0.2,0.4l3.4-3.9c1.8-2.1,2.3-2.3,3.7-4.9
		L220.5,100.1L220.5,100.1z"/>
</g>
<path class="st8" d="M237.4,174.9c-3.9-2.9-7.5-7.4-10.5-11.2c-7.5-9.5-12.3-17.3-12.3-17.3c-1.1,0.3-3,0.5-6.6,1.1
	c-0.7,0.1-0.9,0-1.5-0.9c-2.1-2.9-2.6-1.5-3.1-5c-0.9-6.1-0.6-9.9,0.4-8.5c1.1,1.5-0.3,9.9,4.2,10.2c3.2,0.1,1.8-5.3,0.2-5.9
	c-0.5-0.1-1.7,0.1-2.4-2c3.4-2.6,5.7,2.1,7.5,3.6c0.4,0.4,1.5,0.9,2.3,2.1c9.5,10,15.1,14.4,21.7,21.1l3.4,9.7L237.4,174.9
	L237.4,174.9z M291.3,173.3c3.7-3.8,6.9-9,9.5-13.4c6.7-11.1,10.9-19.9,10.9-19.9c1.1,0.1,3-0.2,6.6-0.4c0.7,0,0.9-0.2,1.4-1.2
	c1.8-3.3,2.5-2.1,2.7-5.6c0.4-6.2-0.2-9.9-1.1-8.3c-1,1.7,1.1,9.8-3.4,11c-3.2,0.9-2.2-4.9-0.6-5.8c0.4-0.2,1.7-0.3,2.2-2.5
	c-3.6-1.8-5.4,3.3-7.2,5.2c-0.4,0.4-1.5,1.2-2.1,2.5c-8.7,12-13.8,17.6-19.8,25.7l-2.6,10.4L291.3,173.3z"/>
<path class="st6" d="M299.3,348.7H350c0.8,0,1.5-1.1,1.5-2.4c0-1.3-0.7-2.4-1.5-2.4h-50.7c-0.8,0-1.5,1.1-1.5,2.4
	C297.8,347.6,298.5,348.7,299.3,348.7z M371.8,328.6h6c0.8,0,1.5-1.1,1.5-2.4c0-1.3-0.7-2.4-1.5-2.4h-6c-0.8,0-1.5,1.1-1.5,2.4
	C370.3,327.4,371,328.6,371.8,328.6z M362.1,348.7h4.8c0.8,0,1.5-1.1,1.5-2.4c0-1.3-0.7-2.4-1.5-2.4h-4.8c-0.8,0-1.5,1.1-1.5,2.4
	C360.7,347.6,361.3,348.7,362.1,348.7z M309,328.6h53.2c0.8,0,1.5-1.1,1.5-2.4c0-1.3-0.7-2.4-1.5-2.4H309c-0.8,0-1.5,1.1-1.5,2.4
	C307.5,327.4,308.1,328.6,309,328.6z M152.8,279.3h50.7c0.8,0,1.5-1.1,1.5-2.4c0-1.3-0.7-2.4-1.5-2.4h-50.7c-0.8,0-1.5,1.1-1.5,2.4
	C151.4,278.2,152,279.3,152.8,279.3z M225.3,259.2h6c0.8,0,1.5-1.1,1.5-2.4c0-1.3-0.7-2.4-1.5-2.4h-6c-0.8,0-1.5,1.1-1.5,2.4
	C223.8,258.1,224.5,259.2,225.3,259.2z M215.6,279.3h4.8c0.8,0,1.5-1.1,1.5-2.4c0-1.3-0.7-2.4-1.5-2.4h-4.8c-0.8,0-1.5,1.1-1.5,2.4
	C214.2,278.2,214.8,279.3,215.6,279.3z M162.5,259.2h53.2c0.8,0,1.5-1.1,1.5-2.4c0-1.3-0.7-2.4-1.5-2.4h-53.2
	c-0.8,0-1.5,1.1-1.5,2.4C161,258.1,161.7,259.2,162.5,259.2L162.5,259.2z"/>
<g>
	<path class="st3" d="M430.8,348.5c-0.1-0.7,0.2-1.5,0.6-1.7c0.4-0.2,0.9,0.3,1,1.1c1.4,10,1.5,20.2-0.1,30.9
		c-1.5,10.6-4.6,21.6-9.7,33c-0.3,0.6-0.8,0.7-1.2,0.3c-0.4-0.5-0.4-1.3-0.2-1.9c4.9-11.1,7.9-21.7,9.4-32
		C432.2,367.9,432.2,358,430.8,348.5L430.8,348.5z"/>
	<path class="st24" d="M431.8,350.1c-7.5-28.6-7.1-55.7,1.3-81.2C413.9,295.3,413.5,322.5,431.8,350.1z"/>
	<path class="st3" d="M433.2,268.8c-8.4,25.5-8.9,52.6-1.3,81.2C449.2,327.8,427.5,303.7,433.2,268.8z M421.7,385.6
		c-0.1-0.8,0.3-1.4,0.7-1.5c0.5-0.1,0.9,0.5,0.9,1.2c0.2,3.3,0.2,8.3,0.1,13.8c-0.1,4.8-0.4,10.1-0.9,15.4c-0.1,0.8-0.5,1.3-1,1.1
		c-0.5-0.1-0.8-0.8-0.7-1.6c0.5-5.1,0.8-10.4,0.9-15.1C421.9,393.6,421.9,388.8,421.7,385.6L421.7,385.6z"/>
	<path class="st24" d="M422.7,388.2c8-24.2,2.2-47.1-17.3-68.7C415.7,344.5,421.5,367.4,422.7,388.2z"/>
	<path class="st3" d="M422.7,388.2c-1.2-20.8-7-43.7-17.3-68.7C411.5,353.5,398.3,366.1,422.7,388.2z M422.3,413.2
		c0,0.8-0.4,1.4-0.8,1.4c-0.5,0-0.9-0.6-0.9-1.3c-0.1-3.6-0.6-7.2-1.2-10.4c-1-5.1-2.4-9.3-3.1-11.1c-0.2-0.6-0.1-1.5,0.3-1.9
		c0.4-0.4,0.9-0.2,1.2,0.5c0.7,1.9,2.2,6.3,3.3,11.7C421.7,405.5,422.2,409.3,422.3,413.2L422.3,413.2z"/>
	<path class="st3" d="M399.3,394.5c5,19.4,15.8-4.2,19.7-0.3c-1.2-4.4-2.8-7.5-4.6-9.1C409.1,380.5,404.7,396.6,399.3,394.5z
		 M447.2,407.6v25.2c0,15.9-7.8,28.9-17.4,28.9h-13.7c-9.5,0-17.4-13-17.4-28.9v-25.2H447.2z"/>
	<path class="st16" d="M442.3,452.9c-23.7,12.7-35.1-4.8-32.8-45.4h-10.7v25.2c0,15.9,7.8,28.9,17.4,28.9h13.7
		C434.7,461.7,439.1,458.4,442.3,452.9z"/>
</g>
<g>
	<path class="st3" d="M105.8,417.2c0,0,4.6-8.9,0.3-14.6c0,0-3.1-3.2-5.7-2.9c0,0,3.6,10.2,2.4,11.2c-1.2,1-3.6-11.8-3.6-11.8
		s-7.2-1.1-9.5,0.7c0,0,6.1,8.3,4.8,8.9c-1.3,0.5-7.9-7.7-7.9-7.7s-6.7,1.9-6.3,8.7c0.4,6.8,2.7,8.9,3.7,8.7c1-0.2,6.9-3.9,7-2.6
		c0.1,1.4-3.4,5.9-5.9,6.1c0,0,4.7,8.7,7.8,6.1c3.1-2.5,3.4-6.5,5.3-7.9c2-1.5,3.6-1.5,2.8,0c-0.8,1.5-4.3,3-5.4,6.3
		c-1.1,3.3-2.1,5.5,1.1,4.7c3.2-0.8,8.5-4.8,8.7-9.3L105.8,417.2L105.8,417.2z"/>
	<path class="st16" d="M83.7,409.8c0,0,18.1-1.1,22.1,7.5c0,0,0.9,4.4,3.6,8.4l0.4,1.9c0,0-3.1-5.5-4.3-5.9
		C105.6,421.8,107.4,411.1,83.7,409.8z"/>
	<path class="st16" d="M109.5,425.7c0,0,3.9,4.8,4.2,13.3l-0.7,0.1c0,0-1.2-8.9-3.5-12.3C107.2,423.4,109.5,425.7,109.5,425.7
		L109.5,425.7z"/>
	<path class="st24" d="M121.9,406c0,0-7.3-6.8-3.9-16.1c0,0,2.7-5.7,5.7-7.2c0,0-1.6,13.8,0,14.1c1.6,0.3,1.1-15.6,1.1-15.6
		s7.7-6.2,10.7-5.7c0,0-4.8,13.5-3.2,13.2c1.6-0.3,6.9-14,6.9-14s7.9-2.4,9.2,5.4c1.3,7.8-0.8,11.7-2,12.2c-1.2,0.5-8.7,0.3-8.5,2
		c0.2,1.6,5.3,4.2,8.1,2.8c0,0-3.1,12.8-7.2,12.2s-5.4-4.9-7.9-5.2c-2.5-0.3-4.4,0.8-3.1,2c1.3,1.1,5.6,0.4,7.6,3.3
		c2,2.9,3.7,4.7-0.1,6c-3.8,1.3-10.6,0.5-12-4.4C123.3,410.9,121.9,406,121.9,406z"/>
	<path class="st16" d="M144.7,382.6c0,0-20.5,11.1-22.8,23.4c0,0,0.1,5.5-2,11.9v2.4c0,0,2.1-8.3,3.3-9.4
		C123.3,410.9,118.7,400.2,144.7,382.6L144.7,382.6z"/>
	<path class="st16" d="M120,417.9c0,0-3.2,8-1.4,17.7l0.8-0.4c0,0-0.8-10.7,0.9-16.1C121.9,413.8,120,417.9,120,417.9z"/>
	<path class="st24" d="M110.3,396.6c0,0,9.6-9,5.1-21.2c0,0-3.6-7.5-7.5-9.4c0,0,2.1,18.2,0,18.6s-1.4-20.5-1.4-20.5
		s-10.1-8.2-14.1-7.5c0,0,6.3,17.8,4.2,17.3c-2.1-0.4-9.1-18.4-9.1-18.4s-10.4-3.2-12.1,7.1c-1.7,10.3,1,15.4,2.6,16.1
		c1.5,0.6,11.4,0.4,11.2,2.6c-0.2,2.2-6.9,5.5-10.7,3.6c0,0,4.1,16.9,9.5,16.1c5.4-0.9,7.1-6.4,10.4-6.8c3.4-0.4,5.8,1.1,4.1,2.6
		c-1.7,1.5-7.3,0.5-10,4.3c-2.7,3.8-4.9,6.2,0.1,7.9c5,1.7,14,0.6,15.8-5.8L110.3,396.6z"/>
	<path class="st16" d="M80.2,365.7c0,0,27,14.6,30.1,30.9c0,0-0.1,7.3,2.6,15.6v3.2c0,0-2.8-10.9-4.4-12.4
		C108.5,403,114.5,388.9,80.2,365.7z"/>
	<path class="st16" d="M112.9,412.2c0,0,4.2,10.5,1.8,23.3l-1.1-0.5c0,0,1-14.1-1.1-21.2C110.2,406.8,112.9,412.2,112.9,412.2z"/>
	<path class="st3" d="M105.7,462.3c-8-3.6-14-15.9-14-30.4h37.8c0,14.5-5.9,26.8-14,30.4H105.7z"/>
	<path class="st24" d="M113.2,462.3c8-3.6,14-15.9,14-30.4h-4.7c0,14.5-5.9,26.8-13.9,30.4C108.5,462.3,113.2,462.3,113.2,462.3z"/>
	<path class="st16" d="M91.3,432h38.8v1H91.3V432z"/>
</g>
</svg>
