<svg xmlns="http://www.w3.org/2000/svg" width="550" height="550"><svg xmlns="http://www.w3.org/2000/svg" width="550" height="550" viewBox="0 0 3000 3000"><path fill="#f7c19b" d="M1672.5 358.62s15.34 3.77 29.06.03c13.73-3.73 26-4.99 26.52-10.3s-5.85-5.57-5.85-5.57 7.12.4 6.3-5.83c0 0-.01-3.78-5.01-2.87 0 0 5.77-.64 5.31-4.12-.46-3.47-1-5.72-4.24-5.29 0 0 4.27-4.59 3.65-9.26s-20.02 1.67-21-1.13c-.98-2.8 16.56-2.92 15.93-7.71-.63-4.79-24.48-9.94-37.29-2.64s-15.18 19.8-23.73 22.52c.01.01 3.07 33.37 10.35 32.17z" class="colorf7c19b svgShape"/><path fill="#fbb03b" d="m1589.01 409.72 93.35-46.55-19.57-38.84-93.67 41.81z" class="colorfbb03b svgShape"/><path fill="#c2cbd6" d="M2841.62 1260.52c-23.47 30.36-52.68 70.63-85.13 121.23v.1c-10.22 15.75-20.66 34.95-31.3 57.28-8.03 16.8-16.17 35.26-24.52 55.29-1.25 3.44-2.71 6.89-4.17 10.22-5.53 13.77-11.06 28.27-16.69 43.5-1.35 3.75-2.71 7.62-4.17 11.47-2.92 7.62-5.74 15.65-8.45 23.68-1.46 4.07-2.92 8.14-4.28 12.21-2.92 8.35-5.63 16.69-8.55 25.25-146.37 440.25-304.11 681.87-304.11 1305.32v.1H25.05l-.02-2059.4c268.22 17.21 1069.26 149.58 1426.58 26.9 96.71-33.18 290.94 13.19 392.97 6.51 9.7-.62 19.72-1.25 30.15-1.88 19.51-1.15 39.96-2.19 61.55-3.34 202.08-9.7 479.48-11.47 685.94 32.65 54.87 11.79 104.53 26.71 146.58 45.48 32.86 14.82 59.36 37.66 78.04 64.89.31.21.31.42.31.63 1.15 1.15 2.09 2.61 2.92 3.86 8.14 12.52 14.6 25.66 19.51 39.43 20.87 57.81 13.67 125-27.96 178.62z" class="colorc2cbd6 svgShape"/><path fill="#e1e3e8" d="M25 866.8v617.23c206.26-32.13 969.92 32.76 1105.18 25.93l15.1-.72c197.29-10 391.92-47.64 579.11-110.78 226.87-76.61 557.18-176.68 815.67-206.67 17.34-2.04 34.68-3.06 52.13-3.88 66-2.96 251.15-18.77 262.98-106.39 1.63-11.63.1-24.69-5.1-39.07-.82-1.23-1.74-2.65-2.86-3.87 0-.21-.1-.41-.41-.61-18.67-27.24-45.09-50.09-78.04-64.88-42.03-18.77-91.71-33.67-146.49-45.5-206.47-44.07-483.93-42.34-686.01-32.64-21.53 1.12-42.03 2.24-61.51 3.37-10.41.61-20.5 1.22-30.19 1.83-102.01 6.73-212.32-43.01-391.6-12C1080.79 952.53 293.28 884.04 25 866.8z" class="colore1e3e8 svgShape"/><path fill="#a6b1bf" d="M2756.49 1381.85c-10.22 15.75-20.66 34.95-31.3 57.28-8.03 16.8-16.17 35.26-24.52 55.29-1.25 3.44-2.71 6.89-4.17 10.22-5.53 13.77-11.06 28.27-16.69 43.5-1.35 3.75-2.71 7.62-4.17 11.47-2.92 7.62-5.74 15.65-8.45 23.68-1.46 4.07-2.92 8.14-4.28 12.21-2.92 8.35-5.63 16.69-8.55 25.25-146.37 440.25-304.11 681.87-304.11 1305.32H1313.57c448.39-882.38 1022.6-1328.99 1442.92-1544.22zm-1593.26-28.29c-17.33-41.2-64.95-118.79-152.48-18.23-6.38 7.33-8.09 17.63-4.27 26.57 12.06 28.25 48.92 80.86 145.83 24.75 11.45-6.63 16.05-20.88 10.92-33.09zm-573.24-141.12h37.85s45.7 20.83 96.97 1.04c14.47-5.59 18.76-24.39 8.45-35.98-26.07-29.31-76.36-71.39-118.04-20.26 0-.01-37.06 20.5-25.23 55.2zm2343.11-121.5c-3.77-8.98-14.15-25.89-33.22-3.97a5.522 5.522 0 0 0-.93 5.79c2.63 6.15 10.66 17.62 31.78 5.39 2.49-1.45 3.49-4.56 2.37-7.21zm41.63 87.4c-2.28-5.42-8.55-15.64-20.08-2.4-.84.97-1.06 2.32-.56 3.5 1.59 3.72 6.44 10.65 19.2 3.26 1.51-.88 2.11-2.75 1.44-4.36zm-4.09 81.63c-1.38-3.28-5.17-9.45-12.13-1.45-.51.58-.64 1.4-.34 2.11.96 2.25 3.89 6.43 11.61 1.97.91-.52 1.27-1.65.86-2.63z" class="colora6b1bf svgShape"/><path fill="#37424c" d="M1954.4 1080.84c-184.99-8.31-328.72-165.56-320.41-350.55 8.31-184.99 165.56-328.72 350.55-320.41 184.98 8.31 328.72 165.56 320.41 350.55-8.3 184.98-165.56 328.72-350.55 320.41zm29.34-652.94c-175.05-7.86-323.86 128.15-331.72 303.2s128.15 323.86 303.2 331.72 323.86-128.15 331.73-303.2c7.85-175.05-128.16-323.86-303.21-331.72z" class="color37424c svgShape"/><path fill="#37424c" d="M1997.69 1166.78c-184.98-8.31-328.72-165.57-320.41-350.55 8.31-184.99 165.56-328.72 350.55-320.41 184.98 8.31 328.72 165.57 320.41 350.55-8.31 184.98-165.56 328.72-350.55 320.41zm29.33-652.94c-175.05-7.86-323.85 128.15-331.72 303.2-7.86 175.05 128.15 323.85 303.2 331.72 175.05 7.86 323.86-128.15 331.72-303.2s-128.15-323.86-303.2-331.72z" class="color37424c svgShape"/><path fill="#37424c" d="M1874.63 1172.78c-184.98-8.31-328.72-165.57-320.41-350.55 8.31-184.98 165.56-328.72 350.55-320.41 184.98 8.31 328.72 165.57 320.41 350.55-8.31 184.98-165.57 328.72-350.55 320.41zm29.33-652.94c-175.05-7.86-323.85 128.15-331.72 303.2-7.86 175.05 128.15 323.85 303.2 331.72 175.05 7.86 323.86-128.15 331.72-303.2s-128.15-323.85-303.2-331.72z" class="color37424c svgShape"/><path fill="#37424c" d="M2042.16 973.53c-184.98-8.31-328.72-165.57-320.41-350.55 8.31-184.98 165.56-328.72 350.55-320.41s328.72 165.57 320.41 350.55c-8.31 184.99-165.57 328.72-350.55 320.41zm29.33-652.93c-175.05-7.86-323.85 128.15-331.72 303.2-7.86 175.05 128.15 323.85 303.2 331.72 175.05 7.86 323.86-128.15 331.72-303.2 7.86-175.06-128.15-323.86-303.2-331.72z" class="color37424c svgShape"/><path fill="#37424c" d="M1822.07 929.56c-105.01-4.72-186.6-93.99-181.88-199s93.99-186.6 199-181.89c105.01 4.72 186.6 93.99 181.89 199-4.73 105.02-94 186.61-199.01 181.89zm16.65-370.65c-99.37-4.46-183.84 72.75-188.31 172.12s72.75 183.84 172.12 188.31c99.37 4.46 183.84-72.74 188.31-172.12 4.46-99.38-72.75-183.85-172.12-188.31z" class="color37424c svgShape"/><path fill="#37424c" d="M1857.33 1033.7c-105.01-4.72-186.6-93.99-181.89-199 4.72-105.01 93.99-186.6 199-181.89 105.01 4.72 186.6 93.99 181.89 199-4.72 105.01-93.99 186.61-199 181.89zm16.65-370.66c-99.37-4.46-183.84 72.75-188.31 172.12-4.46 99.37 72.75 183.84 172.12 188.31 99.37 4.46 183.84-72.74 188.31-172.12 4.46-99.37-72.75-183.84-172.12-188.31z" class="color37424c svgShape"/><path fill="#37424c" d="M1805.99 885.56c-105.01-4.72-186.6-93.99-181.89-199 4.72-105.01 93.99-186.6 199-181.88s186.6 93.99 181.89 199c-4.72 105-93.99 186.6-199 181.88zm16.65-370.65c-99.37-4.46-183.84 72.74-188.31 172.12-4.46 99.37 72.75 183.84 172.12 188.31 99.37 4.46 183.84-72.74 188.31-172.11 4.46-99.39-72.75-183.86-172.12-188.32zm669.86 459.73c-105.01-4.72-186.6-93.99-181.89-199 4.72-105.01 93.99-186.6 199-181.88s186.6 93.99 181.89 199-93.99 186.6-199 181.88zm16.66-370.65c-99.37-4.46-183.84 72.75-188.31 172.12s72.75 183.84 172.12 188.31c99.37 4.46 183.84-72.74 188.31-172.12 4.45-99.38-72.76-183.85-172.12-188.31z" class="color37424c svgShape"/><path fill="#37424c" d="M2515.41 922.46c-105.01-4.72-186.6-93.99-181.89-199 4.72-105.01 93.99-186.6 199-181.89 105.01 4.72 186.6 93.99 181.89 199-4.72 105.01-93.99 186.61-199 181.89zm16.65-370.65c-99.37-4.46-183.84 72.75-188.31 172.12-4.46 99.37 72.75 183.84 172.12 188.31 99.37 4.46 183.84-72.74 188.31-172.11 4.46-99.39-72.75-183.86-172.12-188.32zm-749.91 437.76c-152.63-6.86-271.22-136.6-264.36-289.22s136.6-271.21 289.23-264.36c152.62 6.86 271.21 136.6 264.36 289.22-6.87 152.63-136.61 271.22-289.23 264.36zm24.06-535.56c-142.69-6.41-263.99 104.46-270.4 247.15s104.46 263.99 247.15 270.4c142.69 6.41 263.99-104.45 270.4-247.15 6.4-142.69-104.47-263.99-247.15-270.4z" class="color37424c svgShape"/><path fill="#37424c" d="M2130.53 898.89c-152.63-6.86-271.22-136.6-264.36-289.23 6.86-152.62 136.6-271.21 289.23-264.35 152.62 6.86 271.21 136.6 264.36 289.22-6.86 152.63-136.61 271.22-289.23 264.36zm24.06-535.56c-142.69-6.41-263.99 104.46-270.4 247.15s104.46 263.99 247.15 270.4c142.69 6.41 263.99-104.46 270.4-247.15 6.4-142.69-104.47-263.99-247.15-270.4z" class="color37424c svgShape"/><path fill="#37424c" d="M2051.99 986.42c-152.63-6.86-271.22-136.6-264.36-289.23 6.86-152.62 136.6-271.21 289.23-264.35 152.62 6.86 271.21 136.6 264.36 289.22-6.86 152.63-136.61 271.22-289.23 264.36zm24.06-535.56c-142.69-6.41-263.99 104.46-270.4 247.15S1910.11 962 2052.8 968.41c142.69 6.41 263.99-104.46 270.4-247.15 6.4-142.69-104.47-263.99-247.15-270.4z" class="color37424c svgShape"/><path fill="#37424c" d="M2228.33 1007.34c-152.63-6.86-271.22-136.6-264.36-289.23 6.86-152.62 136.6-271.21 289.23-264.35 152.62 6.86 271.21 136.6 264.36 289.22-6.86 152.62-136.6 271.21-289.23 264.36zm24.06-535.57c-142.69-6.41-263.99 104.46-270.4 247.15s104.46 263.99 247.15 270.4 263.99-104.46 270.4-247.15c6.41-142.69-104.46-263.99-247.15-270.4z" class="color37424c svgShape"/><path fill="#37424c" d="M1943.95 857.79c-184.98-8.31-328.72-165.57-320.41-350.55 8.31-184.98 165.56-328.72 350.55-320.41s328.72 165.57 320.41 350.55c-8.31 184.99-165.57 328.72-350.55 320.41zm29.33-652.93C1798.23 197 1649.42 333 1641.56 508.05s128.15 323.85 303.2 331.72c175.05 7.86 323.86-128.14 331.72-303.2 7.86-175.04-128.16-323.85-303.2-331.71z" class="color37424c svgShape"/><path fill="#37424c" d="M1807.9 843.06c-105.01-4.72-186.6-93.99-181.89-199s93.99-186.6 199-181.89c105.01 4.72 186.6 93.99 181.89 199-4.72 105.02-93.99 186.61-199 181.89zm16.65-370.65c-99.37-4.46-183.84 72.75-188.31 172.12-4.46 99.37 72.75 183.84 172.12 188.31 99.37 4.46 183.84-72.74 188.31-172.12 4.46-99.37-72.75-183.85-172.12-188.31zm624.26 611.86c-105.01-4.72-186.6-93.99-181.89-199 4.72-105.01 93.99-186.6 199-181.89 105.01 4.72 186.6 93.99 181.89 199-4.72 105.02-93.99 186.61-199 181.89zm16.65-370.65c-99.37-4.46-183.84 72.75-188.31 172.12-4.46 99.37 72.75 183.84 172.12 188.31 99.37 4.46 183.84-72.74 188.31-172.12 4.46-99.38-72.75-183.85-172.12-188.31z" class="color37424c svgShape"/><path fill="#37424c" d="M2471.72 1032.09c-105.01-4.72-186.6-93.99-181.89-199 4.72-105.01 93.99-186.6 199-181.89 105.01 4.72 186.6 93.99 181.89 199-4.72 105.01-93.99 186.61-199 181.89zm16.65-370.65c-99.37-4.46-183.84 72.75-188.31 172.12s72.75 183.84 172.12 188.31c99.37 4.46 183.84-72.74 188.31-172.11 4.46-99.39-72.75-183.86-172.12-188.32zm-316.53-84.07c-105.01-4.72-186.6-93.99-181.88-199s93.99-186.6 199-181.89c105.01 4.72 186.6 93.99 181.89 199s-94 186.61-199.01 181.89zm16.65-370.65c-99.37-4.46-183.84 72.75-188.31 172.12s72.75 183.84 172.12 188.31c99.37 4.46 183.84-72.74 188.31-172.12 4.46-99.38-72.75-183.85-172.12-188.31z" class="color37424c svgShape"/><path fill="#37424c" d="M2232.21 695.82c-105.01-4.72-186.6-93.99-181.89-199 4.72-105.01 93.99-186.6 199-181.89 105.01 4.72 186.6 93.99 181.89 199-4.72 105.02-93.99 186.61-199 181.89zm16.65-370.65c-99.37-4.46-183.84 72.75-188.31 172.12s72.75 183.84 172.12 188.31c99.37 4.46 183.84-72.74 188.31-172.12 4.46-99.37-72.75-183.85-172.12-188.31z" class="color37424c svgShape"/><path fill="#37424c" d="M2254.99 743.03c-105.01-4.72-186.6-93.99-181.89-199 4.72-105.01 93.98-186.6 199-181.88 105.01 4.72 186.6 93.99 181.89 199-4.72 105-93.99 186.59-199 181.88zm16.65-370.66c-99.37-4.46-183.84 72.75-188.31 172.12s72.75 183.84 172.12 188.31c99.37 4.46 183.84-72.74 188.31-172.11 4.46-99.38-72.75-183.85-172.12-188.32z" class="color37424c svgShape"/><path fill="#37424c" d="M2251.11 1060.99c-152.63-6.86-271.22-136.6-264.36-289.22s136.6-271.21 289.23-264.36c152.62 6.86 271.21 136.6 264.36 289.23-6.86 152.61-136.61 271.21-289.23 264.35zm24.06-535.56c-142.69-6.41-263.99 104.46-270.4 247.15s104.46 263.99 247.15 270.4 263.99-104.46 270.4-247.15c6.41-142.69-104.46-263.99-247.15-270.4z" class="color37424c svgShape"/><path fill="#37424c" d="M2006.19 1093.73c-184.98-8.31-328.72-165.56-320.41-350.55 8.31-184.99 165.57-328.72 350.55-320.41 184.99 8.31 328.72 165.57 320.41 350.55-8.31 184.99-165.56 328.72-350.55 320.41zm29.33-652.93c-175.05-7.86-323.86 128.15-331.72 303.2s128.15 323.86 303.2 331.72 323.86-128.15 331.72-303.2c7.87-175.05-128.15-323.86-303.2-331.72z" class="color37424c svgShape"/><path fill="#37424c" d="M2256.25 926.4c-184.99-8.31-328.72-165.57-320.41-350.55 8.31-184.99 165.56-328.72 350.55-320.41 184.98 8.31 328.72 165.56 320.41 350.55-8.31 184.98-165.57 328.72-350.55 320.41zm29.33-652.94c-175.05-7.86-323.86 128.15-331.72 303.2s128.15 323.85 303.2 331.72c175.05 7.86 323.85-128.15 331.72-303.2 7.86-175.05-128.15-323.86-303.2-331.72z" class="color37424c svgShape"/><path fill="#37424c" d="M2108.73 744.26c-67.36-3.03-119.69-60.28-116.67-127.64 3.03-67.36 60.29-119.7 127.64-116.68 67.36 3.03 119.7 60.29 116.67 127.65-3.02 67.36-60.28 119.7-127.64 116.67zm10.17-226.29c-57.42-2.58-106.23 42.04-108.81 99.46-2.58 57.42 42.04 106.23 99.46 108.81s106.24-42.03 108.82-99.46c2.57-57.41-42.05-106.23-99.47-108.81z" class="color37424c svgShape"/><path fill="#37424c" d="M2127.89 745.12c-184.98-8.31-328.72-165.56-320.41-350.55 8.31-184.99 165.56-328.72 350.55-320.41s328.72 165.56 320.41 350.55c-8.31 184.99-165.57 328.72-350.55 320.41zm29.33-652.94c-175.04-7.86-323.85 128.15-331.72 303.2-7.86 175.05 128.15 323.86 303.2 331.72s323.86-128.15 331.72-303.2c7.86-175.05-128.15-323.85-303.2-331.72z" class="color37424c svgShape"/><path fill="#37424c" d="M2141.79 893.53c-184.98-8.31-328.72-165.56-320.41-350.55 8.31-184.98 165.57-328.72 350.55-320.41 184.99 8.31 328.72 165.57 320.41 350.55-8.31 184.99-165.57 328.72-350.55 320.41zm29.33-652.94c-175.05-7.86-323.85 128.15-331.72 303.2-7.86 175.05 128.15 323.85 303.2 331.72 175.05 7.86 323.86-128.15 331.72-303.2 7.86-175.05-128.15-323.86-303.2-331.72z" class="color37424c svgShape"/><path fill="#37424c" d="M1839.57 1093.73c-184.98-8.31-328.72-165.57-320.41-350.55 8.31-184.99 165.56-328.72 350.55-320.41 184.98 8.31 328.72 165.57 320.41 350.55-8.31 184.99-165.57 328.72-350.55 320.41zm29.33-652.93c-175.05-7.86-323.85 128.15-331.72 303.2-7.86 175.05 128.15 323.85 303.2 331.72 175.05 7.86 323.86-128.15 331.72-303.2s-128.15-323.86-303.2-331.72z" class="color37424c svgShape"/><path fill="#37424c" d="M2145.73 1158.56c-283.12-12.72-503.1-253.39-490.38-536.51s253.39-503.1 536.51-490.38 503.1 253.4 490.38 536.52c-12.71 283.11-253.39 503.09-536.51 490.37zm45.32-1008.87c-273.18-12.27-505.41 199.99-517.68 473.18-12.27 273.17 199.99 505.41 473.17 517.68s505.41-199.99 517.69-473.17c12.27-273.19-200-505.42-473.18-517.69z" class="color37424c svgShape"/><g class="color000 svgShape"><path fill="#f7c19b" d="m1300.07 1100.9-13.45 46.18-42.5-5.83 12.45-46.85z" class="colorf7c19b svgShape"/><path fill="#333" d="m1239.31 1188.72 106.34-.4c5.39-.02 9.74-4.4 9.72-9.79l-.02-4.55c0-1.39-1.44-4.37-2.53-5.25l-55.94-43.01c-1.95-1.57-4.47-.87-6.47.64-12.28 9.23-29.46 9.53-46.89 8.71-2.1-.1-4.07 1.04-4.99 2.93-7.82 16.1-6.39 30.95-5.75 44.45.16 3.51 3.02 6.28 6.53 6.27z" class="color333 svgShape"/></g><g class="color000 svgShape"><path fill="#f7c19b" d="m1500.93 1098.89-13.76 46.8-43.09-6.02 12.76-47.47z" class="colorf7c19b svgShape"/><path fill="#333" d="m1439.09 1187.8 107.85-.13c5.46-.01 9.89-4.44 9.88-9.9l-.01-4.62c0-1.41-1.45-4.44-2.55-5.33l-56.62-43.76c-1.97-1.59-4.53-.89-6.56.63-12.48 9.33-29.9 9.59-47.58 8.72-2.13-.1-4.13 1.04-5.06 2.96-7.98 16.3-6.56 31.38-5.95 45.07.14 3.55 3.04 6.37 6.6 6.36z" class="color333 svgShape"/></g><path fill="#333" d="m1416.59 692.05 69.49 29.32s95.91 147.86 91.78 164.01c-22.84 89.28-37.82 119.03-70.15 219.44l-63.74.9c24.66-94.04 34.16-115.95 55.38-202.65l-79.18-95.99-116.71 300.49-56.98-2.54 90.71-404.06 55.8-33.54 23.6 24.62z" class="color333 svgShape"/><g class="color000 svgShape"><path fill="#f7c19b" d="m1482.14 431.04 8.69-15.57 19.03-20.47 15.71-46.04 69.95-.24 10.69 36.96-16.81 36.46.21 11.85a3.007 3.007 0 0 1-2.99 3.06l-10.55.04s-4.45 25.27-38.39 10.71l-9.15 7.69-28.4-4.11s-14.26-2.98-14.27-5.13c0-2.16-3.72-15.21-3.72-15.21z" class="colorf7c19b svgShape"/><path fill="#333" d="M1503.75 404.09s-22.6-75.05 25.64-78.13c0 0 49.42-37.08 81.04 22.72 0 0 9.4 2.56 18.45-2.01 0 0-.63 5.83-8.05 13.95 0 0 .02 5.18 11.02 3.52 0 0 5.53 7.11-13.24 11.7 0 0-7.7 20.75-38.85 3.37 0 0-25.61-8.98-29.47-.22l-5.47 11.03s2.18-24.62-17.54-16.78c0 0-7.57 3.39-5.4 25.53.43 4.42-1.43 8.96-5.32 11.1-3.56 1.96-8.25 1.98-12.81-5.78z" class="color333 svgShape"/></g><path fill="#f7c19b" d="M1724.46 404.11c2.58-3.77 4.39-8.99 5.04-11.44.73-2.73-.74-5.94-.85-9.05-.12-3.11-1.03-11.1-1.08-14.5-.04-3.4 1.7-3.76.48-9.73-1.22-5.98 1.24-8.13-.46-10.95-1.69-2.81-1.19-7.79 4.12-3.98 5.3 3.81 6.39 13.8 6.42 17.52.03 3.73 1.36 4.93 5.17 5.09s6.54-4.2 8.43-6.71c1.89-2.51 4.2-4.35 5.44-7.62 1.23-3.27 3.61-5.62 5.45-8.97 1.84-3.36 3.81-5.48 6.08-8.66 2.28-3.18 6.3-7.39 9.68-5.15 3.37 2.24.09 4.97-1.83 8.14-1.93 3.17-3.35 5.8-5.49 10.48-2.14 4.68-6.35 8.85-5.89 10.33.46 1.47 1.11.91 1.84.53.74-.38 5.36-7.75 7.04-10.33 1.68-2.57 5.05-5.84 8.92-10.33 3.88-4.49 6.54-8.03 10.28-5.4s-1.86 7.99-3.33 9.78-4.25 4.95-6.29 8.89-4.4 6.08-6.15 8.39c-1.75 2.31-3.52 4.65-3.18 4.89.34.24.88-.15 1.85-1.78.97-1.62 4.44-4.18 6.97-7.31 2.54-3.13 5.22-5.42 7.53-8.41s5.33-5.77 7.55-3.87c2.21 1.89 2.33 1.9-1.17 7.25s-2.67 2.95-7.27 9.44c-4.61 6.49-5.09 6.88-8 9.57s-3.97 4.08-3.43 4.46c.54.38 2.23-1.16 3.53-2.77s4.04-2.28 9.65-7.6 7.31-4.51 8.39-3.75c1.09.76 1.67 2.24 1.25 2.84s-2.43 3.16-3.9 5.07-3.95 3.92-5.74 5.44-2.75 2.76-4.11 3.72c-1.36.97-5.36 3.62-6.56 6.48-1.21 2.87-9.05 9.9-10.99 11.99s-1.38 1.54-1.38 1.54-8.28 7.11-10.1 8.3c-1.82 1.2-2.3 2.48-2.95 3.52-.64 1.04-3.18 3.61-4.83 4.63s-6.77 9.21-6.77 9.21l-19.36-19.19z" class="colorf7c19b svgShape"/><path fill="#fbb03b" d="M1486.08 721.36s40.74-86.07 43.23-190.96l98.18-6.31a34.91 34.91 0 0 0 21.22-8.98l106.75-96.82-32.63-33.84-95.62 72.06a34.943 34.943 0 0 1-22.37 7.01l-73.25-2.83-41.9-44.49c-6.14-.28-22.56 13.88-27.71 17.2-20.41 13.16-39.09 26.76-52.73 47.16-11.93 17.85-19.74 38.08-25.75 58.59-8.76 29.9-13.96 61.94-23.01 92.24-1.85 6.2-26.21 70.04-24.09 71.22 43.53 24.17 106.89 21.85 149.68 18.75z" class="colorfbb03b svgShape"/></svg></svg>