<?xml version="1.0" encoding="utf-8"?>
<!-- Generator: Adobe Illustrator 24.0.2, SVG Export Plug-In . SVG Version: 6.00 Build 0)  -->
<svg version="1.1" id="Layer_1" xmlns="http://www.w3.org/2000/svg" xmlns:xlink="http://www.w3.org/1999/xlink" x="0px" y="0px"
	 viewBox="0 0 550 550" style="enable-background:new 0 0 550 550;" xml:space="preserve">
<style type="text/css">
	.st0{fill:#3F98D7;}
	.st1{fill:#E25651;}
	.st2{fill:#EDEDED;}
	.st3{fill:#CCCCCC;}
	.st4{fill:#CD3E3E;}
	.st5{fill:#E0E0E0;}
	.st6{fill:#F54847;}
	.st7{fill:#FDBAB3;}
	.st8{fill:#585A5E;}
	.st9{fill:#2A2A2C;}
	.st10{fill:#414143;}
	.st11{fill:#C6C7CD;}
	.st12{fill:#E5E5E5;}
	.st13{fill:#E2E2E2;}
	.st14{fill:#2A84B5;}
</style>
<path class="st0" d="M359.6,155.8c-0.1,2.2-1.7,4-3.8,4.3c-1.4,0.2-2.8,0.3-4.1,0.5c-8.6,0.9-17.2,1.5-25.9,1.7
	c-16.6,0.5-33.2-0.2-49.8-2.2c-2.1-0.2-3.7-2-3.8-4.3c-1-18.6-0.9-36.7,0.2-54.5h86.9C360.5,120,360.6,138.2,359.6,155.8z"/>
<path class="st1" d="M368.9,104.9h-10.6L347.7,71c2.3,0,4.6,0.1,7,0.2C361,82.7,364.6,94,368.9,104.9L368.9,104.9z"/>
<path class="st2" d="M358.3,104.9h-10.6l-7.4-34c2.4,0,4.9,0.1,7.4,0.1L358.3,104.9L358.3,104.9z"/>
<path class="st1" d="M347.7,104.9h-10.6l-3.9-34.1c2.4,0,4.8,0,7.2,0.1L347.7,104.9L347.7,104.9z"/>
<path class="st2" d="M337.1,104.9h-10.6l-2.1-34.2l8.7,0.1L337.1,104.9L337.1,104.9z"/>
<path class="st1" d="M326.5,104.9h-10.6V70.6c2.8,0,5.7,0,8.5,0L326.5,104.9z"/>
<path class="st2" d="M315.9,70.6v34.2h-10.6l2.1-34.2C310.2,70.7,313,70.6,315.9,70.6L315.9,70.6z"/>
<path class="st1" d="M307.3,70.7l-2.1,34.2h-10.6l3.9-34.1L307.3,70.7L307.3,70.7z"/>
<path class="st2" d="M284.1,71l-10.6,33.9h-10.6c4.2-11.6,7.9-22.9,14.2-33.7C279.4,71.1,281.7,71.1,284.1,71L284.1,71z M298.6,70.8
	l-3.9,34.1h-10.6l7.4-34C293.8,70.8,296.2,70.8,298.6,70.8L298.6,70.8z"/>
<path class="st1" d="M291.4,70.9l-7.4,34h-10.6L284.1,71C286.5,70.9,289,70.9,291.4,70.9z"/>
<path class="st3" d="M268.2,112.6c-2.9,0-5.3-2.5-5.3-5.6v-2.2h10.6v2.2C273.5,110.1,271.1,112.6,268.2,112.6L268.2,112.6z"/>
<path class="st4" d="M278.8,112.6c-2.9,0-5.3-2.5-5.3-5.6v-2.2h10.6v2.2C284.1,110.1,281.7,112.6,278.8,112.6L278.8,112.6z"/>
<path class="st3" d="M289.4,112.6c-2.9,0-5.3-2.5-5.3-5.6v-2.2h10.6v2.2C294.7,110.1,292.3,112.6,289.4,112.6L289.4,112.6z"/>
<path class="st4" d="M300,112.6c-2.9,0-5.3-2.5-5.3-5.6v-2.2h10.6v2.2C305.3,110.1,302.9,112.6,300,112.6L300,112.6z"/>
<path class="st3" d="M310.6,112.6c-2.9,0-5.3-2.5-5.3-5.6v-2.2h10.6v2.2C315.9,110.1,313.5,112.6,310.6,112.6L310.6,112.6z"/>
<path class="st4" d="M321.2,112.6c-2.9,0-5.3-2.5-5.3-5.6v-2.2h10.6v2.2C326.5,110.1,324.1,112.6,321.2,112.6L321.2,112.6z"/>
<path class="st3" d="M331.8,112.6c-2.9,0-5.3-2.5-5.3-5.6v-2.2h10.6v2.2C337.1,110.1,334.7,112.6,331.8,112.6L331.8,112.6z"/>
<path class="st4" d="M342.4,112.6c-2.9,0-5.3-2.5-5.3-5.6v-2.2h10.6v2.2C347.7,110.1,345.3,112.6,342.4,112.6L342.4,112.6z"/>
<path class="st3" d="M353,112.6c-2.9,0-5.3-2.5-5.3-5.6v-2.2h10.6v2.2C358.3,110.1,355.9,112.6,353,112.6L353,112.6z"/>
<path class="st4" d="M363.6,112.6c-2.9,0-5.3-2.5-5.3-5.6v-2.2h10.6v2.2C368.9,110.1,366.5,112.6,363.6,112.6L363.6,112.6z"/>
<path class="st5" d="M314,118.1v27.4c0,0.6-0.5,1-1,1h-27.9c-0.5,0-1-0.5-1-1v-27.4c0-0.6,0.5-1,1-1H313
	C313.6,117,314,117.5,314,118.1z M351.6,119.1v41.5c-8.6,0.9-17.2,1.5-25.9,1.7v-43.2c0-1.1,0.9-2,1.9-2h22
	C350.8,117,351.6,117.9,351.6,119.1L351.6,119.1z"/>
<path class="st2" d="M308.4,117l-24.3,15.1v-3.7l18.4-11.5H308.4z M314,121.1v8.5l-27.3,17h-1.7c-0.5,0-1-0.5-1-1v-5.7L314,121.1z
	 M351.6,120.3v3.6l-25.9,14.8v-3.6L351.6,120.3z M351.6,131.4v8.3l-25.9,14.8v-8.3L351.6,131.4z"/>
<path class="st0" d="M529.3,162.7c-0.1,2.2-1.7,4-3.8,4.3c-1.4,0.2-2.8,0.3-4.1,0.5c-8.6,0.9-17.2,1.5-25.9,1.7
	c-16.6,0.5-33.2-0.2-49.8-2.2c-2.1-0.2-3.7-2-3.8-4.3c-1-18.6-0.9-36.7,0.2-54.5h86.9C530.3,126.9,530.3,145.1,529.3,162.7z"/>
<path class="st1" d="M538.6,111.8H528l-10.6-33.9c2.3,0,4.6,0.1,7,0.2C530.7,89.7,534.4,100.9,538.6,111.8z"/>
<path class="st2" d="M528,111.8h-10.6l-7.4-34c2.4,0,4.9,0.1,7.4,0.1L528,111.8z"/>
<path class="st1" d="M517.4,111.8h-10.6l-3.9-34.1c2.4,0,4.8,0,7.2,0.1L517.4,111.8z"/>
<path class="st2" d="M506.8,111.8h-10.6l-2.1-34.2l8.7,0.1L506.8,111.8L506.8,111.8z"/>
<path class="st1" d="M496.2,111.8h-10.6V77.6c2.8,0,5.7,0,8.5,0L496.2,111.8z"/>
<path class="st2" d="M485.6,77.6v34.2H475l2.1-34.2C479.9,77.6,482.8,77.6,485.6,77.6L485.6,77.6z"/>
<path class="st1" d="M477.1,77.6l-2.1,34.2h-10.6l3.9-34.1L477.1,77.6L477.1,77.6z"/>
<path class="st2" d="M453.8,77.9l-10.6,33.9h-10.6c4.2-11.6,7.9-22.9,14.2-33.7C449.2,78.1,451.5,78,453.8,77.9L453.8,77.9z
	 M468.4,77.7l-3.9,34.1h-10.6l7.4-34C463.6,77.8,466,77.7,468.4,77.7z"/>
<path class="st1" d="M461.2,77.8l-7.4,34h-10.6L453.8,78C456.3,77.9,458.7,77.8,461.2,77.8L461.2,77.8z"/>
<path class="st3" d="M437.9,119.6c-2.9,0-5.3-2.5-5.3-5.6v-2.2h10.6v2.2C443.2,117.1,440.9,119.6,437.9,119.6z"/>
<path class="st4" d="M448.5,119.6c-2.9,0-5.3-2.5-5.3-5.6v-2.2h10.6v2.2C453.8,117.1,451.4,119.6,448.5,119.6z"/>
<path class="st3" d="M459.1,119.6c-2.9,0-5.3-2.5-5.3-5.6v-2.2h10.6v2.2C464.4,117.1,462,119.6,459.1,119.6z"/>
<path class="st4" d="M469.7,119.6c-2.9,0-5.3-2.5-5.3-5.6v-2.2H475v2.2C475,117.1,472.6,119.6,469.7,119.6z"/>
<path class="st3" d="M480.3,119.6c-2.9,0-5.3-2.5-5.3-5.6v-2.2h10.6v2.2C485.6,117.1,483.3,119.6,480.3,119.6z"/>
<path class="st4" d="M490.9,119.6c-2.9,0-5.3-2.5-5.3-5.6v-2.2h10.6v2.2C496.2,117.1,493.9,119.6,490.9,119.6z"/>
<path class="st3" d="M501.5,119.6c-2.9,0-5.3-2.5-5.3-5.6v-2.2h10.6v2.2C506.8,117.1,504.5,119.6,501.5,119.6z"/>
<path class="st4" d="M512.1,119.6c-2.9,0-5.3-2.5-5.3-5.6v-2.2h10.6v2.2C517.4,117.1,515.1,119.6,512.1,119.6z"/>
<path class="st3" d="M522.7,119.6c-2.9,0-5.3-2.5-5.3-5.6v-2.2H528v2.2C528,117.1,525.6,119.6,522.7,119.6z"/>
<path class="st4" d="M533.3,119.6c-2.9,0-5.3-2.5-5.3-5.6v-2.2h10.6v2.2C538.6,117.1,536.2,119.6,533.3,119.6z"/>
<path class="st5" d="M483.8,125v27.4c0,0.6-0.5,1-1,1h-27.9c-0.5,0-1-0.5-1-1V125c0-0.6,0.5-1,1-1h27.9
	C483.3,123.9,483.8,124.4,483.8,125z M521.4,126v41.5c-8.6,0.9-17.2,1.5-25.9,1.7V126c0-1.1,0.9-2,1.9-2h22
	C520.5,123.9,521.4,124.8,521.4,126z"/>
<path class="st2" d="M478.2,123.9l-24.3,15.2v-3.7l18.4-11.5H478.2z M483.8,128.1v8.5l-27.3,17h-1.7c-0.5,0-1-0.5-1-1v-5.7
	L483.8,128.1z"/>
<g>
	<path class="st2" d="M521.4,127.2v3.6l-25.9,14.8V142L521.4,127.2z M521.4,138.3v8.3l-25.9,14.8v-8.3L521.4,138.3z"/>
</g>
<g>
	<path class="st0" d="M346.1,310.2c-0.1,2.2-1.7,4-3.8,4.3c-1.4,0.2-2.8,0.3-4.1,0.5c-8.6,0.9-17.2,1.5-25.9,1.7
		c-16.6,0.5-33.2-0.2-49.8-2.2c-2.1-0.2-3.7-2-3.8-4.3c-1-18.6-0.9-36.7,0.2-54.5h86.9C347,274.4,347.1,292.6,346.1,310.2z"/>
	<path class="st1" d="M355.4,259.3h-10.6l-10.6-33.9c2.3,0,4.6,0.1,7,0.2C347.4,237.2,351.1,248.4,355.4,259.3L355.4,259.3z"/>
	<path class="st2" d="M344.8,259.3h-10.6l-7.4-34c2.4,0,4.9,0.1,7.4,0.1L344.8,259.3z"/>
	<path class="st1" d="M334.1,259.3h-10.6l-3.9-34.1c2.4,0,4.8,0,7.2,0.1L334.1,259.3L334.1,259.3z"/>
	<path class="st2" d="M323.5,259.3h-10.6l-2.1-34.2l8.7,0.1L323.5,259.3L323.5,259.3z"/>
	<path class="st1" d="M312.9,259.3h-10.6v-34.2c2.8,0,5.7,0,8.5,0L312.9,259.3z"/>
	<path class="st2" d="M302.4,225.1v34.2h-10.6l2.1-34.2C296.7,225.1,299.5,225.1,302.4,225.1z"/>
	<path class="st1" d="M293.8,225.1l-2.1,34.2h-10.6l3.9-34.1L293.8,225.1L293.8,225.1z"/>
	<path class="st2" d="M270.5,225.4l-10.6,33.9h-10.6c4.2-11.6,7.9-22.9,14.2-33.7C265.9,225.5,268.2,225.5,270.5,225.4L270.5,225.4z
		 M285.1,225.2l-3.9,34.1h-10.6l7.4-34C280.3,225.2,282.7,225.2,285.1,225.2L285.1,225.2z"/>
	<path class="st1" d="M277.9,225.3l-7.4,34h-10.6l10.6-33.9C273,225.4,275.4,225.3,277.9,225.3z"/>
	<path class="st3" d="M254.7,267c-2.9,0-5.3-2.5-5.3-5.6v-2.2H260v2.2C259.9,264.5,257.6,267,254.7,267L254.7,267z"/>
	<path class="st4" d="M265.3,267c-2.9,0-5.3-2.5-5.3-5.6v-2.2h10.6v2.2C270.5,264.5,268.2,267,265.3,267L265.3,267z"/>
	<path class="st3" d="M275.8,267c-2.9,0-5.3-2.5-5.3-5.6v-2.2h10.6v2.2C281.2,264.5,278.8,267,275.8,267L275.8,267z"/>
	<path class="st4" d="M286.4,267c-2.9,0-5.3-2.5-5.3-5.6v-2.2h10.6v2.2C291.8,264.5,289.4,267,286.4,267L286.4,267z"/>
	<path class="st3" d="M297,267c-2.9,0-5.3-2.5-5.3-5.6v-2.2h10.6v2.2C302.4,264.5,300,267,297,267L297,267z"/>
	<path class="st4" d="M307.6,267c-2.9,0-5.3-2.5-5.3-5.6v-2.2H313v2.2C312.9,264.5,310.6,267,307.6,267L307.6,267z"/>
	<path class="st3" d="M318.3,267c-2.9,0-5.3-2.5-5.3-5.6v-2.2h10.6v2.2C323.5,264.5,321.2,267,318.3,267L318.3,267z"/>
	<path class="st4" d="M328.9,267c-2.9,0-5.3-2.5-5.3-5.6v-2.2h10.6v2.2C334.1,264.5,331.8,267,328.9,267L328.9,267z"/>
	<path class="st3" d="M339.5,267c-2.9,0-5.3-2.5-5.3-5.6v-2.2h10.6v2.2C344.8,264.5,342.4,267,339.5,267L339.5,267z"/>
	<path class="st4" d="M350,267c-2.9,0-5.3-2.5-5.3-5.6v-2.2h10.6v2.2C355.4,264.5,353,267,350,267L350,267z"/>
	<path class="st5" d="M300.5,272.5v27.4c0,0.6-0.5,1-1,1h-27.9c-0.5,0-1-0.5-1-1v-27.4c0-0.6,0.5-1,1-1h27.9
		C300,271.4,300.5,271.9,300.5,272.5z M338.1,273.4v41.5c-8.6,0.9-17.2,1.5-25.9,1.7v-43.2c0-1.1,0.9-2,1.9-2h22
		C337.2,271.4,338.1,272.3,338.1,273.4L338.1,273.4z"/>
	<path class="st2" d="M294.9,271.4l-24.3,15.1v-3.7l18.4-11.4L294.9,271.4z M300.5,275.5v8.5l-27.3,17h-1.7c-0.5,0-1-0.5-1-1v-5.7
		L300.5,275.5z"/>
	<g>
		<path class="st2" d="M338.1,274.7v3.6l-25.9,14.8v-3.6L338.1,274.7z M338.1,285.8v8.3l-25.9,14.8v-8.3L338.1,285.8z"/>
	</g>
</g>
<g>
	<path class="st0" d="M500.9,331c-0.1,2.2-1.7,4-3.8,4.3c-1.4,0.2-2.8,0.3-4.1,0.5c-8.6,0.9-17.2,1.5-25.9,1.7
		c-16.6,0.5-33.2-0.2-49.8-2.2c-2.1-0.2-3.7-2-3.8-4.3c-1-18.6-0.9-36.7,0.2-54.5h86.9C501.9,295.2,501.9,313.4,500.9,331z"/>
	<path class="st1" d="M510.2,280.1h-10.6L489,246.2c2.3,0,4.6,0.1,7,0.2C502.3,258,506,269.2,510.2,280.1L510.2,280.1z"/>
	<path class="st2" d="M499.6,280.1H489l-7.4-34c2.4,0,4.9,0.1,7.4,0.1L499.6,280.1z"/>
	<path class="st1" d="M489,280.1h-10.6l-3.9-34.1c2.4,0,4.8,0,7.2,0.1L489,280.1z"/>
	<path class="st2" d="M478.4,280.1h-10.6l-2.1-34.2l8.7,0.1L478.4,280.1L478.4,280.1z"/>
	<path class="st1" d="M467.8,280.1h-10.6v-34.2c2.8,0,5.7,0,8.5,0L467.8,280.1z"/>
	<path class="st2" d="M457.2,245.9v34.2h-10.6l2.1-34.2C451.5,245.9,454.4,245.9,457.2,245.9z"/>
	<path class="st1" d="M448.7,245.9l-2.1,34.2H436l3.9-34.1L448.7,245.9L448.7,245.9z"/>
	<path class="st2" d="M425.4,246.2l-10.6,33.9h-10.6c4.2-11.6,7.9-22.9,14.2-33.7C420.7,246.3,423.1,246.3,425.4,246.2L425.4,246.2z
		 M439.9,246l-3.9,34.1h-10.6l7.4-34C435.1,246.1,437.5,246,439.9,246z"/>
	<path class="st1" d="M432.8,246.1l-7.4,34h-10.6l10.6-33.9L432.8,246.1z"/>
	<path class="st3" d="M409.5,287.8c-2.9,0-5.3-2.5-5.3-5.6v-2.2h10.6v2.2C414.8,285.4,412.4,287.8,409.5,287.8z"/>
	<path class="st4" d="M420.1,287.8c-2.9,0-5.3-2.5-5.3-5.6v-2.2h10.6v2.2C425.4,285.4,423,287.8,420.1,287.8z"/>
	<path class="st3" d="M430.7,287.8c-2.9,0-5.3-2.5-5.3-5.6v-2.2H436v2.2C436,285.4,433.6,287.8,430.7,287.8z"/>
	<path class="st4" d="M441.3,287.8c-2.9,0-5.3-2.5-5.3-5.6v-2.2h10.6v2.2C446.6,285.4,444.2,287.8,441.3,287.8z"/>
	<path class="st3" d="M451.9,287.8c-2.9,0-5.3-2.5-5.3-5.6v-2.2h10.6v2.2C457.2,285.4,454.8,287.8,451.9,287.8z"/>
	<path class="st4" d="M462.5,287.8c-2.9,0-5.3-2.5-5.3-5.6v-2.2h10.6v2.2C467.8,285.4,465.4,287.8,462.5,287.8z"/>
	<path class="st3" d="M473.1,287.8c-2.9,0-5.3-2.5-5.3-5.6v-2.2h10.6v2.2C478.4,285.4,476,287.8,473.1,287.8z"/>
	<path class="st4" d="M483.7,287.8c-2.9,0-5.3-2.5-5.3-5.6v-2.2H489v2.2C489,285.4,486.6,287.8,483.7,287.8z"/>
	<path class="st3" d="M494.3,287.8c-2.9,0-5.3-2.5-5.3-5.6v-2.2h10.6v2.2C499.6,285.4,497.2,287.8,494.3,287.8z"/>
	<path class="st4" d="M504.9,287.8c-2.9,0-5.3-2.5-5.3-5.6v-2.2h10.6v2.2C510.2,285.4,507.8,287.8,504.9,287.8z"/>
	<path class="st5" d="M455.4,293.3v27.4c0,0.6-0.5,1-1,1h-27.9c-0.5,0-1-0.5-1-1v-27.4c0-0.6,0.5-1,1-1h27.9
		C454.9,292.2,455.4,292.7,455.4,293.3z M493,294.3v41.5c-8.6,0.9-17.2,1.5-25.9,1.7v-43.2c0-1.1,0.9-2,1.9-2h22
		C492.1,292.2,493,293.2,493,294.3z"/>
	<path class="st2" d="M449.7,292.2l-24.3,15.2v-3.7l18.4-11.5H449.7z M455.4,296.4v8.5l-27.3,17h-1.7c-0.5,0-1-0.5-1-1V315
		L455.4,296.4z"/>
	<g>
		<path class="st2" d="M493,295.5v3.6l-25.9,14.8v-3.6L493,295.5z M493,306.6v8.3l-25.9,14.8v-8.3L493,306.6z"/>
	</g>
</g>
<g>
	<path class="st6" d="M486.3,39.9h-0.7c-3.2,0-6.6-0.7-8.7-2.9s-4.6-5.8-4.6-9.1c0-6.6,7-12,13.3-12h0.4c0.1,0,0.2,0,0.4,0
		c-6,0.4-10.7,5.6-10.7,12C475.6,34.3,480.4,39.5,486.3,39.9L486.3,39.9z"/>
	<path class="st1" d="M505.6,27.1c0-0.2,0-0.4,0-0.6c0-0.8-0.2-1.6-0.3-2.3c0-0.2-0.1-0.4-0.1-0.6c-0.2-1-0.5-2-0.8-2.9
		c-0.1-0.2-0.2-0.4-0.2-0.6c-2.9-7.4-9.8-13-18.5-13c-8.3,0-14.9,5.1-18,11.9c-0.1,0.2-0.2,0.4-0.2,0.5c-0.6,1.3-1,2.8-1.3,4.2
		c0,0.2-0.1,0.4-0.1,0.6c-0.2,0.9-0.3,1.8-0.3,2.8c0,0.2,0,0.4,0,0.6V28c0,3.5,0.9,7.1,2.7,10.5l15.8,28.7c0.7,1.2,2.4,1.2,3.1,0
		L503,38.5C504.9,34.7,505.8,30.8,505.6,27.1L505.6,27.1z M486.3,39.9c-6-0.4-10.7-5.6-10.7-12c0-0.4,0-0.8,0-1.2l0.1-0.6
		c0.2-1.1,0.5-2.1,0.9-3.1c0.1-0.2,0.2-0.4,0.3-0.6c0.2-0.5,0.5-1,0.8-1.4c0.1-0.2,0.2-0.3,0.4-0.5c2-2.6,4.9-4.3,8.2-4.5
		c3.2,0.2,6,1.8,7.9,4.1c0.1,0.1,0.3,0.3,0.4,0.5c0.4,0.6,0.8,1.2,1.1,1.9c0.1,0.2,0.2,0.4,0.3,0.6c0.2,0.4,0.3,0.8,0.5,1.2
		c0.1,0.2,0.1,0.4,0.2,0.6c0.3,1,0.4,2,0.4,3.1C497.1,34.3,492.3,39.5,486.3,39.9L486.3,39.9z"/>
	<path class="st4" d="M502.9,38.4l-15.8,28.7c-0.7,1.2-2.4,1.2-3.1,0l-1.4-2.6l16.1-21.7c8.3-11.5,7-25.6-3.7-32.7
		c-2.9-1.9-6.3-3-10-3.2h0.6C501,6.9,510.6,24.4,502.9,38.4L502.9,38.4z"/>
	<path class="st4" d="M486.3,39.9h-0.7c-3.2,0-6-1.3-8.1-3.5c-2.1-2.2-3.3-5.2-3.3-8.5c0-6.6,5.1-12,11.4-12h0.4c0.1,0,0.2,0,0.4,0
		c-6,0.4-10.7,5.6-10.7,12C475.6,34.3,480.4,39.5,486.3,39.9L486.3,39.9z"/>
</g>
<g>
	<path class="st6" d="M323,33h-0.7c-3.2,0-6.6-0.7-8.7-2.9s-4.6-5.8-4.6-9.1c0-6.6,7-12,13.3-12h0.4c0.1,0,0.2,0,0.4,0
		c-6,0.4-10.7,5.6-10.7,12C312.3,27.4,317.1,32.6,323,33z"/>
	<path class="st1" d="M342.4,20.2c0-0.2,0-0.4,0-0.6c0-0.8-0.2-1.6-0.3-2.3c0-0.2-0.1-0.4-0.1-0.6c-0.2-1-0.5-2-0.8-2.9
		c-0.1-0.2-0.2-0.4-0.2-0.6c-2.9-7.4-9.8-13-18.5-13c-8.3,0-14.9,5.1-18,11.9c-0.1,0.2-0.2,0.4-0.2,0.5c-0.6,1.3-1,2.8-1.3,4.2
		c0,0.2-0.1,0.4-0.1,0.6c-0.2,0.9-0.3,1.8-0.3,2.8c0,0.2,0,0.4,0,0.6v0.3c0,3.5,0.9,7.1,2.7,10.5l15.8,28.7c0.7,1.2,2.4,1.2,3.1,0
		l15.8-28.7C341.7,27.8,342.5,23.9,342.4,20.2z M323,33c-6-0.4-10.7-5.6-10.7-12c0-0.4,0-0.8,0-1.2l0.1-0.6c0.2-1.1,0.5-2.1,0.9-3.1
		c0.1-0.2,0.2-0.4,0.3-0.6c0.2-0.5,0.5-1,0.8-1.4c0.1-0.2,0.2-0.3,0.4-0.5c2-2.6,4.9-4.3,8.2-4.5c3.2,0.2,6,1.8,7.9,4.1
		c0.1,0.1,0.3,0.3,0.4,0.5c0.4,0.6,0.8,1.2,1.1,1.9c0.1,0.2,0.2,0.4,0.3,0.6c0.2,0.4,0.3,0.8,0.5,1.2c0.1,0.2,0.1,0.4,0.2,0.6
		c0.3,1,0.4,2,0.4,3.1C333.8,27.4,329,32.6,323,33L323,33z"/>
	<path class="st4" d="M339.7,31.5l-15.8,28.7c-0.7,1.2-2.4,1.2-3.1,0l-1.4-2.6l16.1-21.7c8.3-11.5,7-25.6-3.7-32.7
		c-2.9-1.9-6.3-3-10-3.2h0.6C337.7,0,347.3,17.5,339.7,31.5L339.7,31.5z"/>
	<path class="st4" d="M323,33h-0.7c-3.2,0-6-1.3-8.1-3.5c-2.1-2.2-3.3-5.2-3.3-8.5c0-6.6,5.1-12,11.4-12h0.4c0.1,0,0.2,0,0.4,0
		c-6,0.4-10.7,5.6-10.7,12C312.3,27.4,317.1,32.6,323,33z"/>
</g>
<g>
	<path class="st6" d="M302.8,198.2h-0.5c-2.2,0-4.6-0.5-6.1-2s-3.2-4.1-3.2-6.4c0-4.6,4.9-8.4,9.3-8.4h0.5c-4.2,0.3-7.5,3.9-7.5,8.4
		C295.4,194.2,298.7,197.9,302.8,198.2L302.8,198.2z"/>
	<path class="st1" d="M316.3,189.2c0-0.1,0-0.3,0-0.4c0-0.5-0.1-1.1-0.2-1.6c0-0.1,0-0.3-0.1-0.4c-0.1-0.7-0.3-1.4-0.6-2
		c0-0.1-0.1-0.3-0.2-0.4c-2-5.2-6.8-9-12.9-9c-5.8,0-10.4,3.5-12.6,8.4c-0.1,0.1-0.1,0.2-0.2,0.4c-0.4,0.9-0.7,1.9-0.9,2.9
		c0,0.1,0,0.3-0.1,0.4c-0.1,0.6-0.2,1.3-0.2,1.9c0,0.1,0,0.3,0,0.4v0.2c0,2.4,0.6,5,1.9,7.3l11,20.1c0.5,0.9,1.7,0.9,2.1,0l11-20.1
		C315.9,194.6,316.4,191.8,316.3,189.2L316.3,189.2z M302.8,198.2c-4.2-0.3-7.5-3.9-7.5-8.4c0-0.3,0-0.6,0-0.8c0-0.1,0-0.3,0-0.4
		c0.1-0.8,0.3-1.5,0.6-2.2c0-0.1,0.1-0.3,0.2-0.4c0.2-0.3,0.4-0.7,0.6-1c0.1-0.1,0.2-0.2,0.3-0.4c1.4-1.8,3.4-3,5.8-3.2
		c2.2,0.1,4.2,1.2,5.6,2.9c0.1,0.1,0.2,0.2,0.3,0.3c0.3,0.4,0.6,0.8,0.8,1.3c0.1,0.1,0.1,0.3,0.2,0.4c0.1,0.3,0.2,0.6,0.3,0.8
		c0,0.1,0.1,0.3,0.1,0.4c0.2,0.7,0.3,1.4,0.3,2.1C310.3,194.3,307,197.9,302.8,198.2L302.8,198.2z"/>
	<path class="st4" d="M314.4,197.1l-11,20.1c-0.5,0.9-1.7,0.9-2.1,0l-1-1.8l11.2-15.2c5.8-8.1,4.9-17.9-2.6-22.8
		c-2-1.3-4.4-2.1-7-2.2h0.4C313.1,175.1,319.8,187.4,314.4,197.1L314.4,197.1z"/>
	<path class="st4" d="M302.8,198.2h-0.5c-2.2,0-4.2-0.9-5.6-2.5c-1.4-1.5-2.3-3.6-2.3-5.9c0-4.6,3.6-8.4,8-8.4h0.5
		c-4.2,0.3-7.5,3.9-7.5,8.4C295.4,194.2,298.7,197.9,302.8,198.2L302.8,198.2z"/>
</g>
<g>
	<path class="st6" d="M459.7,211.4h-0.6c-2.6,0-5.5-0.6-7.2-2.4s-3.8-4.8-3.8-7.5c0-5.5,5.8-9.9,11-9.9h0.3c0.1,0,0.2,0,0.3,0
		c-4.9,0.3-8.8,4.6-8.8,9.9C450.9,206.7,454.8,211,459.7,211.4z"/>
	<path class="st1" d="M475.6,200.8c0-0.2,0-0.3,0-0.5c0-0.6-0.1-1.3-0.2-1.9c0-0.2-0.1-0.3-0.1-0.5c-0.2-0.8-0.4-1.6-0.7-2.4
		l-0.2-0.5c-2.4-6.1-8-10.7-15.2-10.7c-6.8,0-12.2,4.2-14.8,9.8c-0.1,0.1-0.1,0.3-0.2,0.4c-0.5,1.1-0.8,2.3-1.1,3.5
		c0,0.2-0.1,0.3-0.1,0.5c-0.1,0.7-0.2,1.5-0.2,2.3c0,0.1,0,0.3,0,0.5v0.3c0,2.9,0.7,5.8,2.2,8.6l13,23.6c0.6,1,1.9,1,2.5,0l13-23.6
		C475,207.1,475.7,203.9,475.6,200.8z M459.7,211.4c-4.9-0.3-8.8-4.6-8.8-9.9c0-0.3,0-0.7,0-1c0-0.2,0-0.3,0-0.5
		c0.1-0.9,0.4-1.7,0.7-2.6c0.1-0.1,0.1-0.3,0.2-0.5c0.2-0.4,0.4-0.8,0.7-1.2c0.1-0.1,0.2-0.3,0.3-0.4c1.6-2.1,4-3.5,6.8-3.7
		c2.6,0.2,4.9,1.4,6.5,3.4c0.1,0.1,0.2,0.3,0.3,0.4c0.4,0.5,0.7,1,0.9,1.5c0.1,0.1,0.1,0.3,0.2,0.5c0.1,0.3,0.3,0.7,0.4,1
		c0,0.1,0.1,0.3,0.1,0.5c0.2,0.8,0.3,1.7,0.3,2.5C468.5,206.8,464.6,211.1,459.7,211.4L459.7,211.4z"/>
	<path class="st4" d="M473.4,210.1l-13,23.6c-0.6,1-1.9,1-2.5,0l-1.2-2.2l13.2-17.8c6.9-9.5,5.8-21.1-3-26.9
		c-2.3-1.5-5.1-2.5-8.3-2.6h0.5C471.8,184.2,479.7,198.6,473.4,210.1z"/>
	<path class="st4" d="M459.7,211.4h-0.6c-2.6,0-5-1.1-6.6-2.9c-1.7-1.8-2.8-4.3-2.8-7c0-5.5,4.2-9.9,9.4-9.9h0.3c0.1,0,0.2,0,0.3,0
		c-4.9,0.3-8.8,4.6-8.8,9.9C450.9,206.7,454.8,211,459.7,211.4z"/>
</g>
<g>
	<ellipse class="st2" cx="108.3" cy="535.4" rx="96.8" ry="10.6"/>
	<path class="st7" d="M212.7,285.3l8.3-3c1.1-0.4,2.2-1,3.2-1.8c0.6-0.5,1.2-0.9,1.8-1.3c3.2-2.2,6.6-6.3,1.3-16.9
		c-0.8-1.6-3-1.7-3.8,0c-1.4,2.9,0,5.3-2.4,5.6l-0.5-5.3c-0.1-1-0.9-1.7-1.9-1.5c-0.7,0.1-1.3,0.7-1.4,1.5l-0.7,6.3
		c-0.2,1.5-0.8,3-1.8,4.1l-10.1,4L212.7,285.3L212.7,285.3z"/>
	<path class="st8" d="M220.4,284c0,0-46.7,21.6-56.2,18.7c-22.7-6.9-47.7-38.8-47.7-38.8l14.6-8.9l12.7-4.3l19.4,26.4
		c4.2,4.7,10.4,6.8,16.3,5.3c14.9-3.7,34.4-13.2,34.4-13.2L220.4,284z"/>
	<path class="st7" d="M122.1,519.3V505h13.2v14.3H122.1z"/>
	<path class="st9" d="M164.6,528.9c0,0,1.7,9.8-17.3,7.8c-1.9-0.2-3.7-0.6-5.5-1.1c-2.6-0.8-6.9-1.7-9.9-2l-0.1,3.3l-11.4-0.7
		c-1.2-0.1-2.1-1.2-2.1-2.5l0.6-7.3c0,0,19.1,0.6,19.5,0.7c0.3,0.1,16.6,3.8,16.6,3.8L164.6,528.9L164.6,528.9z"/>
	<path class="st10" d="M155.3,535.3l-0.6,0c-1.9,0.1-4.3,0-7-0.2c-1.9-0.2-3.7-0.5-5.5-1.1c-2.6-0.8-6.9-1.9-9.9-2.2
		c0,0-2.3,0-4.9-0.2c-0.2,0-0.4,0-0.6,0c-0.5,0-0.9,0-1.4-0.1c-0.2,0-0.4,0-0.6,0c-0.4,0-0.7,0-1-0.1c-0.2,0-0.4,0-0.6,0
		c-2.4-0.2-4.4-0.6-4.4-1c-0.2-1.9-0.2-3.8-0.1-5.8c0.1-2.3,0.4-4.6,0.9-6.8c0.3-1.5,1.7-2.5,3.1-2.3l10.4,1.3
		c0.8,0.1,1.6-0.2,2.1-0.8c0-0.1,0.1-0.1,0.2-0.2l0,0l0.1-0.2v0l0,0l0.4-0.5l0.4-0.5l0,0c0.5-0.6,1.4-0.6,1.8,0
		c2,2.4,4.2,4.6,6.5,6.6c2.9,2.5,6.5,4.3,10.2,5c0.2,0,0.4,0.1,0.6,0.1c0.8,0.1,1.6,0.2,2.5,0.2c6.9,0.2,6.8,2.6,6.8,2.6
		S166,534.6,155.3,535.3L155.3,535.3z"/>
	<path class="st11" d="M134.7,516.7c0,0.3,0.2,0.7,0.6,0.7c0.3,0,0.6-0.2,0.7-0.6c0-0.3-0.2-0.7-0.6-0.7
		C135,516.1,134.8,516.4,134.7,516.7z"/>
	<path class="st9" d="M135.3,517.1c0.1,0,0.2,0,0.2-0.1l2.5-2.6c0.1-0.1,0.1-0.3,0-0.4c-0.1-0.1-0.3-0.1-0.4,0l-2.5,2.6
		c-0.1,0.1-0.1,0.3,0,0.4C135.2,517.1,135.2,517.1,135.3,517.1z"/>
	<path class="st11" d="M136.2,518c0,0.3,0.2,0.7,0.6,0.7c0.3,0,0.6-0.2,0.7-0.6c0-0.3-0.2-0.7-0.6-0.7
		C136.5,517.4,136.2,517.6,136.2,518z"/>
	<path class="st9" d="M136.8,518.4c0.1,0,0.2,0,0.2-0.1l2.3-2.4c0.1-0.1,0.1-0.3,0-0.4c-0.1-0.1-0.3-0.1-0.4,0l-2.3,2.4
		c-0.1,0.1-0.1,0.3,0,0.4C136.7,518.3,136.7,518.4,136.8,518.4z"/>
	<path class="st11" d="M137.7,519.3c0,0.3,0.2,0.7,0.6,0.7c0.3,0,0.6-0.2,0.7-0.6c0-0.3-0.2-0.7-0.6-0.7
		C138,518.7,137.7,519,137.7,519.3z"/>
	<path class="st9" d="M138.3,519.7c0.1,0,0.2,0,0.2-0.1l2.2-2.3c0.1-0.1,0.1-0.3,0-0.4c-0.1-0.1-0.3-0.1-0.4,0l-2.2,2.3
		c-0.1,0.1-0.1,0.3,0,0.4C138.1,519.6,138.2,519.7,138.3,519.7z"/>
	<path class="st11" d="M139.1,520.7c0,0.3,0.3,0.6,0.6,0.7c0.3,0,0.6-0.3,0.6-0.6c0-0.3-0.3-0.6-0.6-0.7
		C139.4,520,139.1,520.3,139.1,520.7z"/>
	<path class="st9" d="M139.7,521c0.1,0,0.2,0,0.2-0.1l2.1-2.3c0.1-0.1,0.1-0.3,0-0.4c-0.1-0.1-0.3-0.1-0.4,0l-2.1,2.3
		c-0.1,0.1-0.1,0.3,0,0.4C139.5,521,139.6,521,139.7,521z"/>
	<path class="st11" d="M140.6,521.8c0,0.3,0.3,0.6,0.6,0.7c0.3,0,0.6-0.3,0.6-0.6c0-0.3-0.3-0.6-0.6-0.7
		C140.9,521.2,140.6,521.5,140.6,521.8z"/>
	<path class="st9" d="M141.2,522.2c0.1,0,0.2,0,0.2-0.1l2-2.3c0.1-0.1,0.1-0.3,0-0.4c-0.1-0.1-0.3-0.1-0.4,0l-2,2.3
		c-0.1,0.1-0.1,0.3,0,0.4C141.1,522.1,141.2,522.2,141.2,522.2z"/>
	<path class="st11" d="M142.2,523.1c0,0.3,0.3,0.6,0.6,0.7c0.3,0,0.6-0.3,0.6-0.6c0-0.3-0.3-0.6-0.6-0.7
		C142.5,522.4,142.2,522.7,142.2,523.1z"/>
	<path class="st9" d="M142.8,523.4c0.1,0,0.2,0,0.2-0.1l1.9-2.1c0.1-0.1,0.1-0.3,0-0.4c-0.1-0.1-0.3-0.1-0.4,0l-1.9,2.1
		c-0.1,0.1-0.1,0.3,0,0.4C142.6,523.4,142.7,523.4,142.8,523.4z"/>
	<path class="st9" d="M145.4,524.7c0,1.1-0.5,2.2-1.2,2.9c-0.8,0.7-1.9,1-3,0.8l-10.1-2.1c-0.8-0.2-1.7,0-2.3,0.5
		c-0.7,0.5-1.1,1.3-1.2,2.2l-0.3,2.6c-0.2,0-0.4,0-0.6,0l0.3-2.6c0.1-1,0.6-2,1.4-2.6c0.8-0.6,1.8-0.8,2.8-0.6l10.1,2.1
		c0.9,0.2,1.8,0,2.5-0.7c0.7-0.6,1-1.5,1-2.4c0-0.9-0.4-1.8-1.1-2.4l-8.2-7l0.4-0.5l8.2,7C144.9,522.5,145.4,523.6,145.4,524.7
		L145.4,524.7z"/>
	<path class="st7" d="M72.8,519.3V505h13.2v14.3H72.8z"/>
	<path class="st9" d="M115.3,528.9c0,0,1.7,9.8-17.3,7.8c-1.9-0.2-3.7-0.6-5.5-1.1c-2.6-0.8-6.9-1.7-9.9-2l-0.1,3.3l-11.4-0.7
		c-1.2-0.1-2.1-1.2-2.1-2.5l0.6-7.3c0,0,19.1,0.6,19.5,0.7c0.3,0.1,16.6,3.8,16.6,3.8L115.3,528.9L115.3,528.9z"/>
	<path class="st10" d="M106,535.3l-0.6,0c-1.9,0.1-4.3,0-7-0.2c-1.9-0.2-3.7-0.5-5.5-1.1c-2.6-0.8-6.9-1.9-9.9-2.2
		c0,0-2.3,0-4.9-0.2c-0.2,0-0.4,0-0.6,0c-0.5,0-0.9,0-1.4-0.1c-0.2,0-0.4,0-0.6,0c-0.4,0-0.7,0-1-0.1c-0.2,0-0.4,0-0.6,0
		c-2.4-0.2-4.4-0.6-4.4-1c-0.2-1.9-0.2-3.8-0.1-5.8c0.1-2.3,0.4-4.6,0.9-6.8c0.3-1.5,1.7-2.5,3.1-2.3l10.4,1.3
		c0.8,0.1,1.6-0.2,2.1-0.8c0-0.1,0.1-0.1,0.2-0.2l0,0l0.1-0.2v0l0,0l0.4-0.5l0.4-0.5l0,0c0.5-0.6,1.4-0.6,1.8,0
		c2,2.4,4.2,4.6,6.5,6.6c2.9,2.5,6.5,4.3,10.2,5c0.2,0,0.4,0.1,0.6,0.1c0.8,0.1,1.6,0.2,2.5,0.2c6.9,0.2,6.8,2.6,6.8,2.6
		S116.8,534.6,106,535.3L106,535.3z"/>
	<path class="st11" d="M85.5,516.7c0,0.3,0.2,0.7,0.6,0.7s0.6-0.2,0.7-0.6c0-0.3-0.2-0.7-0.6-0.7S85.5,516.4,85.5,516.7z"/>
	<path class="st9" d="M86.1,517.1c0.1,0,0.2,0,0.2-0.1l2.5-2.6c0.1-0.1,0.1-0.3,0-0.4c-0.1-0.1-0.3-0.1-0.4,0l-2.5,2.6
		c-0.1,0.1-0.1,0.3,0,0.4C85.9,517.1,86,517.1,86.1,517.1z"/>
	<path class="st11" d="M87,518c0,0.3,0.2,0.7,0.6,0.7s0.6-0.2,0.7-0.6c0-0.3-0.2-0.7-0.6-0.7S87,517.6,87,518z"/>
	<path class="st9" d="M87.5,518.4c0.1,0,0.2,0,0.2-0.1l2.3-2.4c0.1-0.1,0.1-0.3,0-0.4c-0.1-0.1-0.3-0.1-0.4,0l-2.3,2.4
		c-0.1,0.1-0.1,0.3,0,0.4C87.4,518.3,87.5,518.4,87.5,518.4z"/>
	<path class="st11" d="M88.4,519.3c0,0.3,0.2,0.7,0.6,0.7c0.3,0,0.6-0.2,0.7-0.6c0-0.3-0.2-0.7-0.6-0.7
		C88.8,518.7,88.5,519,88.4,519.3z"/>
	<path class="st9" d="M89,519.7c0.1,0,0.2,0,0.2-0.1l2.2-2.3c0.1-0.1,0.1-0.3,0-0.4s-0.3-0.1-0.4,0l-2.2,2.3c-0.1,0.1-0.1,0.3,0,0.4
		C88.9,519.6,89,519.7,89,519.7z"/>
	<path class="st11" d="M89.8,520.7c0,0.3,0.3,0.6,0.6,0.7c0.3,0,0.6-0.3,0.6-0.6c0-0.3-0.3-0.6-0.6-0.7
		C90.1,520,89.8,520.3,89.8,520.7z"/>
	<path class="st9" d="M90.4,521c0.1,0,0.2,0,0.2-0.1l2.1-2.3c0.1-0.1,0.1-0.3,0-0.4c-0.1-0.1-0.3-0.1-0.4,0l-2.1,2.3
		c-0.1,0.1-0.1,0.3,0,0.4C90.3,521,90.4,521,90.4,521z"/>
	<path class="st11" d="M91.4,521.8c0,0.3,0.3,0.6,0.6,0.7c0.3,0,0.6-0.3,0.6-0.6c0-0.3-0.3-0.6-0.6-0.7
		C91.7,521.2,91.4,521.5,91.4,521.8z"/>
	<path class="st9" d="M92,522.2c0.1,0,0.2,0,0.2-0.1l2-2.3c0.1-0.1,0.1-0.3,0-0.4c-0.1-0.1-0.3-0.1-0.4,0l-2,2.3
		c-0.1,0.1-0.1,0.3,0,0.4C91.8,522.1,91.9,522.2,92,522.2z"/>
	<path class="st11" d="M92.9,523.1c0,0.3,0.3,0.6,0.6,0.7c0.3,0,0.6-0.3,0.6-0.6c0-0.3-0.3-0.6-0.6-0.7
		C93.2,522.4,92.9,522.7,92.9,523.1z"/>
	<path class="st9" d="M93.5,523.4c0.1,0,0.2,0,0.2-0.1l1.9-2.1c0.1-0.1,0.1-0.3,0-0.4c-0.1-0.1-0.3-0.1-0.4,0l-1.9,2.1
		c-0.1,0.1-0.1,0.3,0,0.4C93.4,523.4,93.5,523.4,93.5,523.4z"/>
	<g>
		<path class="st9" d="M96.1,524.7c0,1.1-0.5,2.2-1.2,2.9c-0.8,0.7-1.9,1-3,0.8l-10.1-2.1c-0.8-0.2-1.7,0-2.3,0.5
			c-0.7,0.5-1.1,1.3-1.2,2.2l-0.3,2.6c-0.2,0-0.4,0-0.6,0l0.3-2.6c0.1-1,0.6-2,1.4-2.6c0.8-0.6,1.8-0.8,2.8-0.6l10.1,2.1
			c0.9,0.2,1.8,0,2.5-0.7c0.7-0.6,1-1.5,1-2.4c0-0.9-0.4-1.8-1.1-2.4l-8.2-7l0.4-0.5l8.2,7C95.6,522.5,96.1,523.6,96.1,524.7
			L96.1,524.7z"/>
	</g>
	<g>
		<path class="st10" d="M71.7,324.6c-4.4,27.6,0.1,54.8,2.4,92.6l-4.4,92.9h19.9l10.9-88.1l4.2-36.2l8.2,31.4l6.6,92.9H139l0.5-96.5
			c-3.3-31.5-7.8-61.6-14.1-89.3L71.7,324.6L71.7,324.6z"/>
	</g>
	<path class="st7" d="M126.2,222.5l14.1,4.7l-8,26.4l-14.1-4.7L126.2,222.5z"/>
	<g>
		<path class="st12" d="M132.3,296.3c-0.1,0.5-16.1,53.3-16.1,53.3c-17.9,2.6-30.3-7.9-30.3-7.8l27.9-89.5l7.7-14.3l8.7,11.4
			l8.8-3.8l3.2,5.6l-5.4,21.3C136.7,272.4,132.4,295.8,132.3,296.3z"/>
		<path class="st8" d="M68,350.6c0,0,33.5,10.4,43.3-37.1l12.1-47.4c2.6-8.6,2.8-18.5-1.5-26.4l-0.5-1.9l-8.4,0.8
			C68.3,245.7,66.3,349.5,68,350.6L68,350.6z M135.4,243.2l3.5,2.4c5.4,3.8,8.7,10.4,6.8,16.9l-3.3,11c-2,6.7-3.6,13.5-4.8,20.3
			l-5.4,55.5c-0.4,2.4-1.7,3-4.7,3.7l-17.3,1.6c-1.8-0.1-2.5-2.4-1.3-3.7c4.6-4.7,9.5-16.5,10.9-23.1l7.8-38.3
			c0.7-3.4,1.5-6.8,2.4-10.1L135.4,243.2z"/>
	</g>
	<path class="st11" d="M135.4,243.2l-1.5,10.3l-8.6-2l-3.7-13.6l8.7,11.4L135.4,243.2z"/>
	<g>
		<path class="st7" d="M152.1,229.1c-2.9,11.4-12.9,14.7-19.9,11.4c-7-3.2-9.7-13.5-5.6-23.2s13-15,20.1-11.7
			C153.7,208.9,154.8,218.9,152.1,229.1z"/>
		<path class="st10" d="M153.2,207.5c-3.7-7.4-10.4-5.3-10.4-5.3c-7.4-6.3-12.7,2.8-12.7,2.8c-9.5-4.7-6.5,25.9-6.5,25.9l2.3-2.9
			c1.2-1.5,1.8-3.3,1.8-5.2c0-3.7,1.3-7.6,4.5-6.7c2.8,0.8,2.5,5.6,2.2,7.9c-0.1,0.6,0.3,1.2,0.9,1.4c0.6,0.1,1.1-0.3,1.3-0.9
			l2.2-8.7c3.3,2.9,11.3,4.9,13.2,5c0,0,7.8,0.9,9.9-7.3c0,0-1.7,1.5-5.5-0.1c0,0,3.4,0.7,5-4.1
			C161.4,209.3,155.4,211.9,153.2,207.5L153.2,207.5z"/>
		<path class="st10" d="M150.2,234l-13.8-7.3l0.7-4.2l-2.6-0.3l-2.6,11.7c-0.8,3.7,1.3,7.5,4.9,8.5C142.7,243.9,148.4,240,150.2,234
			L150.2,234z"/>
	</g>
	<path class="st1" d="M130.2,249.3l-0.7,3.4l1.8,2.3l1.9,5.7c5.1,15.8,3.1,33.1-5.6,47.1l-1.6,2.5c-4.8,7.7-7.5,16.6-8,25.7
		l-0.6,11.4l6.6,5l5.8-6.7l0.7-13.8c0.3-6.2,1.8-12.3,4.4-17.9l2.7-5.8c6.8-14.8,6.8-32,0-46.8l-3.4-7.4l-1.1-3.1L130.2,249.3
		L130.2,249.3z"/>
	<g>
		<path class="st10" d="M60.3,377.6l-2.9-1.3l3.1-7.7c0,0,0-0.1,0-0.1l-15.1-6.6c0,0-0.1,0-0.1,0l-3.1,7.7l-2.9-1.3l3.1-7.7
			c0.7-1.7,2.6-2.6,4.2-1.8l15.1,6.6c1.7,0.7,2.4,2.7,1.8,4.5L60.3,377.6z"/>
		<path class="st13" d="M42.4,372l-4.9-2.1l1.3-3.3c0.1-0.3,0.4-0.4,0.7-0.3l3.9,1.7c0.3,0.1,0.4,0.4,0.3,0.7L42.4,372L42.4,372z"/>
		<path class="st11" d="M43.7,368.7l-1.3,3.3l-0.7-0.3l1.3-3.3c0.1-0.3,0-0.6-0.3-0.7l0.7,0.3C43.7,368.1,43.8,368.5,43.7,368.7z"/>
		<path class="st13" d="M60.5,379.9l-4.9-2.1l1.3-3.3c0.1-0.3,0.4-0.4,0.7-0.3l3.9,1.7c0.3,0.1,0.4,0.4,0.3,0.7L60.5,379.9
			L60.5,379.9z"/>
		<path class="st11" d="M61.8,376.7l-1.3,3.3l-0.7-0.3l1.3-3.3c0.1-0.3,0-0.6-0.3-0.7l0.7,0.3C61.8,376.1,61.9,376.4,61.8,376.7z"/>
		<path class="st8" d="M72.9,402.8l-8.6,21.7c-0.4,1.1-1.6,1.6-2.7,1.2L5.8,401.2c-1-0.4-1.5-1.7-1.1-2.8l8.6-21.7L72.9,402.8z"/>
		<path class="st8" d="M80.2,387.5l-7,17.5c-0.3,0.7-1.1,1.1-1.9,0.8l-59.1-25.9c-0.7-0.3-1.1-1.2-0.8-1.9l7-17.5
			c0.2-0.5,0.8-0.8,1.4-0.6l59.8,26.2C80.2,386.3,80.4,387,80.2,387.5L80.2,387.5z"/>
		<path class="st10" d="M11.5,381.4l0.6-1.6l59.6,26.1l-0.6,1.6L11.5,381.4z"/>
		<g>
			<path class="st5" d="M24.1,390.9l-3.9-1.7c-0.3-0.1-0.5-0.5-0.4-0.9l2.5-6.4c0.1-0.3,0.5-0.5,0.9-0.4l3.9,1.7
				c0.3,0.1,0.5,0.5,0.4,0.9l-2.5,6.4C24.8,390.8,24.4,391,24.1,390.9z"/>
			<ellipse class="st10" cx="23" cy="387.7" rx="1.2" ry="1.2"/>
			<path class="st5" d="M59.7,406.4l-3.9-1.7c-0.3-0.1-0.5-0.5-0.4-0.9l2.5-6.4c0.1-0.3,0.5-0.5,0.9-0.4l3.9,1.7
				c0.3,0.1,0.5,0.5,0.4,0.9l-2.5,6.4C60.4,406.4,60,406.6,59.7,406.4z"/>
			<ellipse class="st10" cx="58.7" cy="403.3" rx="1.2" ry="1.2"/>
		</g>
	</g>
	<g>
		<path class="st7" d="M51.9,340.7l-3.5,11.5c-0.4,1.2-0.9,2.5-1.4,3.6c-1.7,3.6-3.7,8.9,6,15.2c1.5,0.9,3.4-0.2,3.3-2
			c-0.2-3.2-1.5-4.6,0.4-6.2l2.9,4.2c0.5,0.8,1.6,0.9,2.3,0.3c0.6-0.5,0.8-1.3,0.5-2l-2.4-5.7c-0.6-1.4-0.7-2.9-0.4-4.4l2.3-10.9"/>
		<path class="st8" d="M47.2,351.1c0,0,15.9-60.5,17-62.3c12.1-20.9,28.6-37.7,28.6-37.7l14.9,11.3L109,274l-28.1,26
			c-1.2,0.9-19.5,57.7-19.5,57.7S47.2,351.1,47.2,351.1z"/>
	</g>
	<g>
		<path class="st14" d="M231.4,334.8c-3.2,0.5-6.2-1.9-6.6-5.3l-9.2-81.7l6.9-1l13.8,81C236.8,331.1,234.6,334.3,231.4,334.8z"/>
		<path class="st14" d="M207.8,166.7c-0.9,0.2-1.7,0.4-2.5,0.6c-12.7,4.5-19.7,23.8-16,45.8c1.8,10.8,6,20.5,11.7,27.5
			c4.8,5.8,10.4,9.1,16,9.7c0.7,0.1,1.4,0.1,2,0.1c0,0,0,0,0,0c0.9,0,1.8-0.1,2.7-0.3c0.8-0.1,1.5-0.3,2.2-0.5
			c2.5-0.8,4.7-2.2,6.7-4c4.2-3.9,7.4-9.9,9.1-17.1c1.7-7.3,1.9-15.8,0.5-24.8C236.5,180.3,222.2,164,207.8,166.7L207.8,166.7z
			 M209.2,174.9c9.6-1.8,20.3,12.1,23.3,30.2s-2.5,35-12.1,36.8c-0.9,0.1-1.8,0.2-2.7,0c-3.6-0.3-7.4-2.7-10.8-6.9
			c-4.8-5.8-8.3-14.1-9.9-23.4c-2.4-14.6,0.6-28.3,6.9-34.1c0.8-0.8,1.7-1.4,2.6-1.8C207.5,175.4,208.4,175.1,209.2,174.9z"/>
		<path class="st0" d="M205.3,167.3c-0.9,0-1.8,0.1-2.7,0.3c-14.3,2.7-22.4,23.1-18.5,46.5c1.8,10.8,6,20.5,11.7,27.4
			c6.2,7.5,13.6,10.9,20.8,9.5c0.1,0,0.3-0.1,0.5-0.1c0.7-0.1,1.4-0.3,2-0.5c0,0,0,0,0,0c1.7-0.6,3.3-1.4,4.7-2.5
			c0.6-0.4,1.2-0.9,1.7-1.4c4.2-3.9,7.4-9.8,9.1-17.1c1.7-7.3,2-15.8,0.5-24.8C231.5,182.7,218.7,167,205.3,167.3L205.3,167.3z
			 M215.3,242.8c-4.4,0.8-9.1-1.6-13.4-6.8c-4.8-5.8-8.3-14.1-9.9-23.4c-2.4-14.6,0.6-28.3,6.9-34.1c1.5-1.4,3.3-2.3,5.1-2.7
			c0.9-0.1,1.8-0.2,2.6-0.1c8.8,0.9,17.9,13.8,20.7,30.3c2.8,16.5-1.5,31.9-9.5,35.9C217.1,242.4,216.2,242.7,215.3,242.8z"/>
		<path class="st2" d="M227.4,206c2.8,16.5-1.5,31.9-9.5,35.9c-3.6-0.3-7.4-2.7-10.8-6.9c-4.8-5.8-8.3-14.1-9.9-23.4
			c-2.4-14.6,0.6-28.3,6.9-34.1c0.8-0.8,1.7-1.4,2.6-1.8C215.5,176.6,224.6,189.6,227.4,206z"/>
	</g>
</g>
</svg>
