<?xml version="1.0" encoding="utf-8"?>
<!-- Generator: Adobe Illustrator 24.0.2, SVG Export Plug-In . SVG Version: 6.00 Build 0)  -->
<svg version="1.1" id="Layer_1" xmlns="http://www.w3.org/2000/svg" xmlns:xlink="http://www.w3.org/1999/xlink" x="0px" y="0px"
	 viewBox="0 0 1280 1024" style="enable-background:new 0 0 1280 1024;" xml:space="preserve">
<style type="text/css">
	.st0{fill:#0077FF;}
	.st1{fill:#FFFFFF;}
	.st2{fill-rule:evenodd;clip-rule:evenodd;fill:#FFFFFF;}
</style>
<g>
	<path class="st0" d="M239.3,409h36.2L343,531.6L409,409h36.2v206.3h-39.8V484.8l-43.3,78.4c-2.9,5.3-6,9.1-9.1,11.5
		c-2.9,2.2-6.4,3.2-10.3,3.2h-11.2L279,484.8v130.5h-39.8L239.3,409L239.3,409z"/>
	<path class="st1" d="M557.7,499.5l84.9-90.5h-50.1l-81.9,89v-89h-40.7v206.3h40.7v-65.4l19.7-21.2l68.1,86.6h49.5L557.7,499.5z
		 M494,497c-6.4,0-6.4-10,0-10C500.4,487,500.4,497,494,497z"/>
	<path class="st1" d="M937.8,617.7c-21.6,0-38.5-6-50.7-18c-12.2-12.2-18.3-29.1-18.3-50.7h40.1c0,10.2,2.6,18.3,7.7,24.2
		c5.3,5.7,12.6,8.5,21.8,8.5h32.7c8.6,0,15.6-1.8,20.9-5.3c5.5-3.7,8.3-8.6,8.3-14.7v-10c0-9.6-7.1-15.6-21.2-18l-54.2-9.1
		c-17.7-2.9-31.1-8.5-40.4-16.8c-9-8.4-13.6-19.2-13.6-32.1v-16.5c0-10.4,2.8-19.5,8.3-27.4c5.7-8.1,13.7-14.2,23.9-18.6
		c10.4-4.3,22.4-6.5,35.9-6.5h33.3c12.8,0,24.1,2.7,33.9,8c9.8,5.3,17.4,12.8,22.7,22.4c5.5,9.4,8.3,20.4,8.3,33H997
		c0-8.3-2.3-14.8-6.8-19.7c-4.5-5.1-10.5-7.7-18-7.7h-33.3c-8.3,0-14.9,1.8-20,5.3c-4.9,3.5-7.4,8.3-7.4,14.1v8
		c0,9.8,6.8,15.9,20.3,18.3l53.9,9.4c17.9,3.1,31.5,8.7,41,16.8c9.4,7.9,14.2,18.1,14.2,30.6v19.4c0,10.4-3,19.6-8.9,27.7
		c-5.7,8.1-13.7,14.3-24.2,18.9c-10.4,4.3-22.5,6.5-36.2,6.5H937.8z"/>
	<path class="st2" d="M789,421.5c-2.9-7.5-10.2-12.5-18.2-12.5h-23.9l-80.5,206.3h42.4l56.9-156.5l43.6,120.5h-34
		c-8.5,0-16,5.5-18.6,13.5l-7.3,22.4h72.9H839h25.7L789,421.5z"/>
</g>
</svg>
