<?xml version="1.0" encoding="utf-8"?>
<!-- Generator: Adobe Illustrator 24.0.2, SVG Export Plug-In . SVG Version: 6.00 Build 0)  -->
<svg version="1.1" id="Layer_1" xmlns="http://www.w3.org/2000/svg" xmlns:xlink="http://www.w3.org/1999/xlink" x="0px" y="0px"
	 viewBox="0 0 360 360" style="enable-background:new 0 0 360 360;" xml:space="preserve">
<style type="text/css">
	.st0{fill:#FECE31;}
	.st1{fill:#FFE4A1;}
	.st2{fill:#79ACF7;}
	.st3{fill:#92BBFC;}
	.st4{fill:#588EF9;}
	.st5{fill:#FFFFFF;}
	.st6{fill:#6795FF;}
	.st7{fill:#B3D2FF;}
	.st8{fill:#FDFFF5;}
	.st9{fill:#2F4ACC;}
	.st10{fill:#1C2230;}
	.st11{fill:#1A2130;}
	.st12{fill:#FFA26D;}
	.st13{fill:#17305B;}
	.st14{fill:#E96B49;}
</style>
<ellipse class="st0" cx="65.6" cy="130.6" rx="32.1" ry="29.6"/>
<ellipse class="st1" cx="65.6" cy="130.6" rx="27.8" ry="25.8"/>
<path class="st0" d="M72.7,139.5l2.1,4.4l-4.1,1.6l-2.1-4.4c-3.1,0.8-6.4,0.8-9.2,0.1l0.3-4.9c3,0.9,7,0.7,9.2-0.1
	c1.6-0.7,2.5-1.7,2-2.8c-1.6-3.4-11.9,3.2-15.3-3.7c-1.5-3.1-0.1-6.3,3.6-8.5l-2-4.2l4.1-1.6l2,4.1c2.7-0.7,5.4-0.9,7.8-0.6
	l-0.2,4.9c-2.8-0.3-6.2-0.1-8,0.7c-1.3,0.5-2,1.3-1.6,2.2c1.6,3.3,11.9-3.1,15.3,3.9C78.4,134.3,76.4,137.5,72.7,139.5L72.7,139.5z"
	/>
<ellipse class="st0" cx="170.2" cy="72.9" rx="32.1" ry="29.6"/>
<ellipse class="st1" cx="170.2" cy="72.9" rx="27.8" ry="25.8"/>
<path class="st0" d="M171,84l-0.8,4.6l-4.4-0.7l0.8-4.7c-3-0.9-5.9-2.5-7.8-4.6l3.2-4c2,2.2,5.4,4.1,7.9,4.6c1.8,0.3,3-0.2,3.2-1.2
	c0.6-3.6-11.9-3.3-10.5-10.9c0.6-3.4,3.7-5.4,8-5.4l0.8-4.5l4.4,0.7l-0.8,4.5c2.7,0.7,5.1,2,6.8,3.4l-3.1,4.1
	c-2.2-1.6-5.2-3.1-7.1-3.4c-1.5-0.3-2.5,0.1-2.7,1.1c-0.6,3.6,11.9,3.4,10.5,11.1C178.8,82.4,175.3,84.2,171,84L171,84z"/>
<g>
	<path class="st2" d="M155.5,349.8H12.7c-2.8,0-5.3-1-7.2-2.6c-2.2-1.8-3.6-4.5-3.6-7.4V157.3c0-2.8,1.2-5.3,3.2-7
		c2-1.8,4.7-2.9,7.7-2.9h142.7c3,0,5.7,1.1,7.7,2.9c2,1.8,3.2,4.3,3.2,7.1V340c0,2.5-1,4.7-2.7,6.5
		C161.6,348.5,158.8,349.8,155.5,349.8z"/>
	<path class="st3" d="M166.2,181.5h15.9v134h-15.9V181.5z"/>
	<path class="st4" d="M166.2,181.5h8v134h-8V181.5z"/>
	<path class="st3" d="M13.8,159.4h140.5v105.1H13.8V159.4z"/>
	<path class="st5" d="M16.3,162h135.6v99.8H16.3V162z"/>
	<path class="st3" d="M37.6,204.7h92.9v3.7H37.6V204.7z M37.6,214.9h92.9v3.7H37.6V214.9z M37.6,225.2h92.9v3.7H37.6V225.2z
		 M37.6,235.3h92.9v3.7H37.6V235.3z"/>
	<path class="st5" d="M124.9,273.9h29.4v14.7h-29.4V273.9z"/>
	<path class="st6" d="M126.5,275.3h26.2v11.9h-26.2V275.3z"/>
	<path class="st5" d="M124.9,296.8h29.4v14.7h-29.4V296.8z"/>
	<path class="st6" d="M126.5,298.2h26.2v11.9h-26.2V298.2z"/>
	<path class="st5" d="M124.9,319.6h29.4v14.7h-29.4V319.6z"/>
	<path class="st6" d="M126.5,321h26.2v11.9h-26.2V321z"/>
	<path class="st5" d="M87.8,273.9h29.4v14.7H87.8V273.9z"/>
	<path class="st3" d="M89.5,275.3h26.2v11.9H89.5V275.3z"/>
	<path class="st5" d="M87.8,296.8h29.4v14.7H87.8V296.8z"/>
	<path class="st3" d="M89.5,298.2h26.2v11.9H89.5V298.2z"/>
	<g>
		<path class="st5" d="M87.8,319.6h29.4v14.7H87.8V319.6z"/>
		<path class="st3" d="M89.5,321h26.2v11.9H89.5V321z"/>
	</g>
	<g>
		<path class="st5" d="M50.8,273.9h29.4v14.7H50.8V273.9z"/>
		<path class="st3" d="M52.5,275.3h26.1v11.9H52.5V275.3z"/>
	</g>
	<g>
		<path class="st5" d="M50.8,296.8h29.4v14.7H50.8V296.8z"/>
		<path class="st3" d="M52.5,298.2h26.1v11.9H52.5V298.2z"/>
	</g>
	<g>
		<path class="st5" d="M50.8,319.6h29.4v14.7H50.8V319.6z"/>
		<path class="st3" d="M52.5,321h26.1v11.9H52.5V321z"/>
	</g>
	<g>
		<path class="st5" d="M13.8,273.9h29.4v14.7H13.8V273.9z"/>
		<path class="st3" d="M15.4,275.3h26.2v11.9H15.4V275.3z"/>
	</g>
	<g>
		<path class="st5" d="M13.8,296.8h29.4v14.7H13.8V296.8z"/>
		<path class="st3" d="M15.4,298.2h26.2v11.9H15.4V298.2z"/>
	</g>
	<g>
		<path class="st5" d="M13.8,319.6h29.4v14.7H13.8V319.6z"/>
		<path class="st3" d="M15.4,321h26.2v11.9H15.4V321z"/>
	</g>
</g>
<g>
	<path class="st7" d="M194.5,158.8c-36-2.1-63.4,26.3-99.4,24.2c-5.4-18.7-10.7-37.7-16.1-56.4c36,2.1,63.4-26.3,99.4-24.2
		C183.7,121.2,189.1,140,194.5,158.8z"/>
	<path class="st8" d="M188.7,155.3c-32.1,0.4-57.7,23.9-89.8,24.5c-4.7-16.6-9.4-33.1-14.1-49.6c32.1-0.4,57.7-23.9,89.8-24.5
		C179.2,122.2,184,138.8,188.7,155.3z M99.9,178.6c31.1-1.1,56.2-23.3,87.2-24.4c-4.6-15.8-9.1-31.6-13.5-47.5
		c-31.1,1.1-56.2,23.3-87.2,24.4C90.8,147,95.3,162.8,99.9,178.6z"/>
	<path class="st8" d="M158.9,134.3c3.4,11.6-4.1,24.4-16.1,29.6c-12.1,5.3-24.9-1.1-28.2-12.9c-3.4-11.6,4.1-24.4,16.1-29.6
		C142.7,116.2,155.5,122.6,158.9,134.3z"/>
	<path class="st7" d="M142.2,152.1c0.4,1.5,0.9,3,1.3,4.6c-1.4,0.6-2.8,1.2-4.1,1.7c-0.4-1.5-0.9-3.1-1.3-4.6c-3,0.8-6.2,0.8-8.8,0
		c0.3-1.8,0.6-3.4,1-5.2c2.8,0.9,6.6,0.9,8.8-0.1c1.7-0.7,2.6-1.8,2.3-2.9c-1-3.6-11.8,3.3-14-4.1c-0.9-3.3,0.9-6.6,4.7-8.9
		c-0.4-1.4-0.8-2.9-1.3-4.5c1.4-0.6,2.8-1.2,4.1-1.7c0.4,1.4,0.8,2.9,1.3,4.4c2.7-0.7,5.3-0.9,7.5-0.5c-0.3,1.8-0.6,3.4-0.9,5.2
		c-2.7-0.4-5.9-0.1-7.7,0.6c-1.4,0.6-2.2,1.4-1.8,2.4c1,3.4,11.8-3.2,14,4.4C148.3,146.7,146,150,142.2,152.1L142.2,152.1z"/>
</g>
<g>
	<path class="st7" d="M87.1,65c-0.4,0.2-1.1,0.4-2,0.4c-2.1,0-3.7-1.2-3.7-3.5c0-2.1,1.6-3.6,3.9-3.6c0.9,0,1.5,0.2,1.8,0.3
		l-0.3,0.7c-0.4-0.2-0.9-0.3-1.5-0.3c-1.8,0-2.9,1.1-2.9,2.9c0,1.7,1.1,2.8,2.8,2.8c0.6,0,1.2-0.1,1.6-0.3L87.1,65z M89.6,63.1
		l-0.8,2.1h-1l2.5-6.9h1.2l2.5,6.9h-0.9l-0.8-2.1C92.3,63.1,89.6,63.1,89.6,63.1z M92.1,62.4l-0.8-2c-0.2-0.4-0.3-0.9-0.4-1.2
		l-0.4,1.2l-0.8,2H92.1L92.1,62.4z M95.1,64.2c0.4,0.3,1.1,0.4,1.7,0.4c1,0,1.6-0.4,1.6-1.2c0-0.6-0.4-1-1.4-1.3c-1.2-0.4-2-1-2-2
		c0-1.1,0.9-1.9,2.4-1.9c0.8,0,1.3,0.2,1.6,0.4l-0.3,0.7c-0.3-0.1-0.8-0.4-1.4-0.4c-1,0-1.4,0.6-1.4,1.1c0,0.6,0.4,0.9,1.5,1.3
		c1.3,0.4,1.9,1,1.9,2.1c0,1.1-0.8,2-2.6,2c-0.7,0-1.5-0.2-1.9-0.4L95.1,64.2L95.1,64.2z M101.6,58.4v2.9h3.6v-2.9h0.9v6.9h-0.9
		v-3.2h-3.6v3.1h-0.9v-6.9L101.6,58.4L101.6,58.4z M82.5,68.6c0.4-0.1,1.1-0.1,1.8-0.1c0.9,0,1.6,0.2,2,0.5c0.4,0.3,0.6,0.7,0.6,1.2
		c0,0.6-0.5,1.2-1.3,1.5c0.7,0.2,1.5,0.7,1.5,1.8c0,0.6-0.3,1.1-0.6,1.4c-0.5,0.4-1.3,0.6-2.6,0.6c-0.6,0-1.2-0.1-1.5-0.1L82.5,68.6
		L82.5,68.6z M83.4,71.3h0.9c1,0,1.6-0.4,1.6-1.2c0-0.8-0.6-1.1-1.6-1.1c-0.4,0-0.7,0.1-0.8,0.1L83.4,71.3L83.4,71.3z M83.4,74.6
		c0.2,0.1,0.4,0.1,0.8,0.1c1,0,1.9-0.4,1.9-1.3c0-0.9-0.9-1.3-1.9-1.3h-0.8V74.6z M89.6,73.2l-0.8,2.1h-1l2.5-6.9h1.2l2.5,6.9h-1
		l-0.8-2.1H89.6L89.6,73.2z M92.1,72.5l-0.8-2c-0.2-0.4-0.3-0.9-0.4-1.2l-0.3,1.2l-0.8,2H92.1L92.1,72.5z M100.3,75.1
		c-0.4,0.2-1.1,0.4-2,0.4c-2.1,0-3.7-1.2-3.7-3.5c0-2.1,1.6-3.6,3.9-3.6c0.9,0,1.5,0.2,1.8,0.3l-0.3,0.7c-0.4-0.2-0.9-0.3-1.5-0.3
		c-1.8,0-2.9,1.1-2.9,2.9c0,1.7,1.1,2.8,2.8,2.8c0.6,0,1.2-0.1,1.6-0.3L100.3,75.1z M101.5,68.5h0.9v3.3h0.1
		c0.2-0.3,0.4-0.5,0.6-0.7l2.3-2.6h1.2l-2.7,2.9l2.9,3.9h-1.1l-2.5-3.4l-0.7,0.7v2.6h-1V68.5L101.5,68.5z"/>
	<g>
		<path class="st3" d="M65.3,69.1l11.4-8.7L72.6,59c3.6-7.7,11.8-13.1,21.5-13.1c11.7,0,21.4,7.9,23.1,18.3h6
			C121.4,50.9,109,40.5,94,40.5c-12.1,0-22.6,6.9-27,16.6l-4.3-1.5C62.8,55.5,65.3,69.1,65.3,69.1z M125.2,79.5L122.8,66l-11.4,8.7
			l4.1,1.4c-3.6,7.7-11.8,13.1-21.5,13.1c-11.7,0-21.4-7.9-23.1-18.3h-6c1.9,13.3,14.1,23.7,29.1,23.7c12.1,0,22.6-6.9,27-16.6
			L125.2,79.5L125.2,79.5z"/>
	</g>
</g>
<g>
	<path class="st9" d="M247.5,145.2c0,0-0.4-3.7,5.1-6.7c5.5-2.9,8.2-3.6,16.2-5.1s19.5-0.2,19.5-0.2l14.5,8.1c0,0-0.5,21.4-4.4,35.4
		c-3.9,14,0.3,33.8,0.3,33.8l-46.9,3.9L247.5,145.2L247.5,145.2z"/>
	<path class="st10" d="M270.1,334.2c0,0-0.3,13.7,0,18.3s1.9,5.3-9.6,5.3c-11.5,0-20.8,1.2-24.6-1.2c-3.8-2.6,14.8-8.3,18.6-12.2
		c3.8-3.9,2.2-7.6,2.2-7.6L270.1,334.2z M293.7,336.6c0,0,0.9,7.2,0,9.6c-0.9,2.2-6.4,4.3-9,5.4c-2.6,1.1-4.5,2.8-3.1,4.1
		c1.4,1.2,25.7,1.8,27.2,0.9c1.6-0.9-3.4-19.8-3.4-19.8L293.7,336.6L293.7,336.6z"/>
	<path class="st9" d="M302.8,141.5c0,0,13.4,33.7,15.2,47.4c1.8,13.7-20.5,31.2-20.5,31.2l-7-16.1l10.4-15l-6.8-14.4L302.8,141.5z"
		/>
	<path class="st11" d="M269.5,94.1c0,0,7.7-0.2,12.9,2.7c5.3,2.9,6.4,6.6,6.4,6.6s1.6,1.8,1.9,5.4c0.3,3.7-8.2,15.2-8.2,15.2
		s-9.6,0.1-13.4-2c-3.7-2.1-9.1-17.3-9.1-17.3s-3-2.1-3.8-5.2l3-0.4c0,0-4-1.8-3-4.6L269.5,94.1L269.5,94.1z"/>
	<path class="st12" d="M282.5,124c0,0-9.3-0.5-13.4-2c0,0,2.5-1.6,3.1-4.3c0.6-2.7-1-7.2-3.2-7.1c-2.2,0.1-2.3,2.7-2.3,2.7l-1.4-4.8
		c0,0-0.5-3.1-2.8-3.8c-2.3-0.8-2.5,0-2.5,0s-0.6,1-0.6,4.6c0,3.7-0.4,7.3,0,11.8c0.4,4.5,1.5,7.2,2.8,7.6c1.5,0.4,4.6,0.5,4.6,0.5
		l0.6,4.9l4.8-1.4c0,0,7.3-0.4,10.3-0.4V124L282.5,124z"/>
	<path class="st9" d="M250.9,140.4c0,0,5.7,8,1.6,19.8c-2.1,6.1-10.7,12.8-18.5,17.8c-7.7,4.9-18.2,3.9-24.6-2.4l-19.3-19.5l8.4-8.1
		l21.6,15.3C220,163.3,248.3,139.5,250.9,140.4z"/>
	<path class="st13" d="M251.6,212.8v7.2c0,0,1.6,62.3,2,72.4s-0.8,50.8-0.8,50.8h17.7c0,0,6.5-33.5,4.6-45
		c-1.1-6.6-1.7-9.1-1.7-15.6c0-6.5,4.9-45,4.9-45s9.1,52,9.1,59.3c0,7.2,5.1,49.1,5.1,49.1H309c0,0,0.6-46.8-2.5-56.6
		c-3.1-9.8-5.1-69.6-8.1-80.1L251.6,212.8L251.6,212.8z"/>
	<path class="st12" d="M197.5,148.8c0,0-6.3-7.1-7.5-8.9c-1.2-1.8-8.2-7.4-9.9-7.6s1.5,4.6,3.7,6.1c0,0-3.4,1.2-2.9,3.2
		c0,0-2.8,0.8-2.3,2.9c0,0-1.7,2.1-0.8,4.5c0.9,2.2,2.7,3.5,3.5,3.7c0.9,0.2,1.8,0,1.8,0s2.1,1.9,4.4,2l2.6,1.7L197.5,148.8
		L197.5,148.8z"/>
	<path class="st14" d="M264,133.4c0,0,4.6-2.9,11.8-3.9c7.3-1,10,0,10,0l1.1,3.9C286.9,133.4,257.2,138.1,264,133.4z"/>
	<g>
		<path class="st3" d="M309.8,79.8h38.7c5.3,0,9.5,3.9,9.5,8.8v14.6c0,4.9-4.3,8.8-9.5,8.8h-27.3l-12,12.9v-12.9c-5-0.3-9-4.1-9-8.7
			V88.7C300.3,83.7,304.6,79.8,309.8,79.8L309.8,79.8z"/>
		<ellipse class="st5" cx="314.9" cy="95" rx="3.8" ry="3.5"/>
		<ellipse class="st5" cx="330.2" cy="95" rx="3.8" ry="3.5"/>
		<ellipse class="st5" cx="343.5" cy="95" rx="3.8" ry="3.5"/>
	</g>
</g>
</svg>
