<?xml version="1.0" encoding="utf-8"?>
<!-- Generator: Adobe Illustrator 24.0.2, SVG Export Plug-In . SVG Version: 6.00 Build 0)  -->
<svg version="1.1" id="Layer_1" xmlns="http://www.w3.org/2000/svg" xmlns:xlink="http://www.w3.org/1999/xlink" x="0px" y="0px"
	 viewBox="0 0 360 360" style="enable-background:new 0 0 360 360;" xml:space="preserve">
<style type="text/css">
	.st0{fill:#FECE31;}
	.st1{fill:#FFE4A1;}
	.st2{fill:#79ACF7;}
	.st3{fill:#92BBFC;}
	.st4{fill:#588EF9;}
	.st5{fill:#FFFFFF;}
	.st6{fill:#6795FF;}
	.st7{fill:#B3D2FF;}
	.st8{fill:#FDFFF5;}
	.st9{fill:#2F4ACC;}
	.st10{fill:#1C2230;}
	.st11{fill:#1A2130;}
	.st12{fill:#FFA26D;}
	.st13{fill:#17305B;}
	.st14{fill:#E96B49;}
</style>
<ellipse class="st0" cx="65.6" cy="105.3" rx="32.1" ry="32.9"/>
<ellipse class="st1" cx="65.6" cy="105.3" rx="27.8" ry="28.7"/>
<path class="st0" d="M72.7,115.2l2.1,4.9l-4.1,1.8l-2.1-4.9c-3.1,0.9-6.4,0.9-9.2,0.1l0.3-5.4c3,1,7,0.8,9.2-0.1
	c1.6-0.8,2.5-1.9,2-3.1c-1.6-3.8-11.9,3.6-15.3-4.1c-1.5-3.4-0.1-7,3.6-9.4l-2-4.7l4.1-1.8l2,4.6c2.7-0.8,5.4-1,7.8-0.7l-0.2,5.4
	c-2.8-0.3-6.2-0.1-8,0.8c-1.3,0.6-2,1.4-1.6,2.4c1.6,3.7,11.9-3.4,15.3,4.3C78.4,109.4,76.4,113,72.7,115.2L72.7,115.2z"/>
<ellipse class="st0" cx="170.2" cy="41.2" rx="32.1" ry="32.9"/>
<ellipse class="st1" cx="170.2" cy="41.2" rx="27.8" ry="28.7"/>
<path class="st0" d="M171,53.5l-0.8,5.1l-4.4-0.8l0.8-5.2c-3-1-5.9-2.8-7.8-5.1l3.2-4.4c2,2.4,5.4,4.6,7.9,5.1
	c1.8,0.3,3-0.2,3.2-1.3c0.6-4-11.9-3.7-10.5-12.1c0.6-3.8,3.7-6,8-6l0.8-5l4.4,0.8l-0.8,5c2.7,0.8,5.1,2.2,6.8,3.8l-3.1,4.6
	c-2.2-1.8-5.2-3.4-7.1-3.8c-1.5-0.3-2.5,0.1-2.7,1.2c-0.6,4,11.9,3.8,10.5,12.3C178.8,51.8,175.3,53.8,171,53.5L171,53.5z"/>
<g>
	<path class="st2" d="M155.5,348.9H12.7c-2.8,0-5.3-1.1-7.2-2.9c-2.2-2-3.6-5-3.6-8.2V135c0-3.1,1.2-5.9,3.2-7.8
		c2-2,4.7-3.2,7.7-3.2h142.7c3,0,5.7,1.2,7.7,3.2c2,2,3.2,4.8,3.2,7.9V338c0,2.8-1,5.2-2.7,7.2C161.6,347.4,158.8,348.9,155.5,348.9
		z"/>
	<path class="st3" d="M166.2,161.9h15.9v148.9h-15.9V161.9z"/>
	<path class="st4" d="M166.2,161.9h8v148.9h-8V161.9z"/>
	<path class="st3" d="M13.8,137.3h140.5v116.8H13.8V137.3z"/>
	<path class="st5" d="M16.3,140.2h135.6v110.9H16.3V140.2z"/>
	<path class="st3" d="M37.6,187.7h92.9v4.1H37.6V187.7z M37.6,199h92.9v4.1H37.6V199z M37.6,210.4h92.9v4.1H37.6V210.4z M37.6,221.7
		h92.9v4.1H37.6V221.7z"/>
	<path class="st5" d="M124.9,264.5h29.4v16.3h-29.4V264.5z"/>
	<path class="st6" d="M126.5,266.1h26.2v13.2h-26.2V266.1z"/>
	<path class="st5" d="M124.9,290h29.4v16.3h-29.4V290z"/>
	<path class="st6" d="M126.5,291.5h26.2v13.2h-26.2V291.5z"/>
	<path class="st5" d="M124.9,315.3h29.4v16.3h-29.4V315.3z"/>
	<path class="st6" d="M126.5,316.9h26.2v13.2h-26.2V316.9z"/>
	<path class="st5" d="M87.8,264.5h29.4v16.3H87.8V264.5z"/>
	<path class="st3" d="M89.5,266.1h26.2v13.2H89.5V266.1z"/>
	<path class="st5" d="M87.8,290h29.4v16.3H87.8V290z"/>
	<path class="st3" d="M89.5,291.5h26.2v13.2H89.5V291.5z"/>
	<g>
		<path class="st5" d="M87.8,315.3h29.4v16.3H87.8V315.3z"/>
		<path class="st3" d="M89.5,316.9h26.2v13.2H89.5V316.9z"/>
	</g>
	<g>
		<path class="st5" d="M50.8,264.5h29.4v16.3H50.8V264.5z"/>
		<path class="st3" d="M52.5,266.1h26.1v13.2H52.5V266.1z"/>
	</g>
	<g>
		<path class="st5" d="M50.8,290h29.4v16.3H50.8V290z"/>
		<path class="st3" d="M52.5,291.5h26.1v13.2H52.5V291.5z"/>
	</g>
	<g>
		<path class="st5" d="M50.8,315.3h29.4v16.3H50.8V315.3z"/>
		<path class="st3" d="M52.5,316.9h26.1v13.2H52.5V316.9z"/>
	</g>
	<g>
		<path class="st5" d="M13.8,264.5h29.4v16.3H13.8V264.5z"/>
		<path class="st3" d="M15.4,266.1h26.2v13.2H15.4V266.1z"/>
	</g>
	<g>
		<path class="st5" d="M13.8,290h29.4v16.3H13.8V290z"/>
		<path class="st3" d="M15.4,291.5h26.2v13.2H15.4V291.5z"/>
	</g>
	<g>
		<path class="st5" d="M13.8,315.3h29.4v16.3H13.8V315.3z"/>
		<path class="st3" d="M15.4,316.9h26.2v13.2H15.4V316.9z"/>
	</g>
</g>
<g>
	<path class="st7" d="M194.5,136.7c-36-2.3-63.4,29.2-99.4,26.9c-5.4-20.8-10.7-41.9-16.1-62.7c36,2.3,63.4-29.2,99.4-26.9
		C183.7,94.9,189.1,115.8,194.5,136.7z"/>
	<path class="st8" d="M188.7,132.8c-32.1,0.4-57.7,26.6-89.8,27.2c-4.7-18.4-9.4-36.8-14.1-55.1c32.1-0.4,57.7-26.6,89.8-27.2
		C179.2,96,184,114.4,188.7,132.8z M99.9,158.7c31.1-1.2,56.2-25.9,87.2-27.1c-4.6-17.6-9.1-35.1-13.5-52.8
		c-31.1,1.2-56.2,25.9-87.2,27.1C90.8,123.5,95.3,141.1,99.9,158.7z"/>
	<path class="st8" d="M158.9,109.4c3.4,12.9-4.1,27.1-16.1,32.9c-12.1,5.9-24.9-1.2-28.2-14.3c-3.4-12.9,4.1-27.1,16.1-32.9
		C142.7,89.3,155.5,96.4,158.9,109.4z"/>
	<path class="st7" d="M142.2,129.2c0.4,1.7,0.9,3.3,1.3,5.1c-1.4,0.7-2.8,1.3-4.1,1.9c-0.4-1.7-0.9-3.4-1.3-5.1
		c-3,0.9-6.2,0.9-8.8,0c0.3-2,0.6-3.8,1-5.8c2.8,1,6.6,1,8.8-0.1c1.7-0.8,2.6-2,2.3-3.2c-1-4-11.8,3.7-14-4.6
		c-0.9-3.7,0.9-7.3,4.7-9.9c-0.4-1.6-0.8-3.2-1.3-5c1.4-0.7,2.8-1.3,4.1-1.9c0.4,1.6,0.8,3.2,1.3,4.9c2.7-0.8,5.3-1,7.5-0.6
		c-0.3,2-0.6,3.8-0.9,5.8c-2.7-0.4-5.9-0.1-7.7,0.7c-1.4,0.7-2.2,1.6-1.8,2.7c1,3.8,11.8-3.6,14,4.9
		C148.3,123.2,146,126.9,142.2,129.2L142.2,129.2z"/>
</g>
<g>
	<path class="st7" d="M87.1,32.4c-0.4,0.2-1.1,0.4-2,0.4c-2.1,0-3.7-1.3-3.7-3.9c0-2.3,1.6-4,3.9-4c0.9,0,1.5,0.2,1.8,0.3l-0.3,0.8
		c-0.4-0.2-0.9-0.3-1.5-0.3c-1.8,0-2.9,1.2-2.9,3.2c0,1.9,1.1,3.1,2.8,3.1c0.6,0,1.2-0.1,1.6-0.3L87.1,32.4z M89.6,30.3l-0.8,2.3h-1
		l2.5-7.7h1.2l2.5,7.7h-0.9l-0.8-2.3C92.3,30.3,89.6,30.3,89.6,30.3z M92.1,29.5l-0.8-2.2c-0.2-0.4-0.3-1-0.4-1.3l-0.4,1.3l-0.8,2.2
		H92.1L92.1,29.5z M95.1,31.5c0.4,0.3,1.1,0.4,1.7,0.4c1,0,1.6-0.4,1.6-1.3c0-0.7-0.4-1.1-1.4-1.4c-1.2-0.4-2-1.1-2-2.2
		c0-1.2,0.9-2.1,2.4-2.1c0.8,0,1.3,0.2,1.6,0.4l-0.3,0.8c-0.3-0.1-0.8-0.4-1.4-0.4c-1,0-1.4,0.7-1.4,1.2c0,0.7,0.4,1,1.5,1.4
		c1.3,0.4,1.9,1.1,1.9,2.3c0,1.2-0.8,2.2-2.6,2.2c-0.7,0-1.5-0.2-1.9-0.4L95.1,31.5L95.1,31.5z M101.6,25.1v3.2h3.6v-3.2h0.9v7.7
		h-0.9v-3.6h-3.6v3.4h-0.9V25L101.6,25.1L101.6,25.1z M82.5,36.4c0.4-0.1,1.1-0.1,1.8-0.1c0.9,0,1.6,0.2,2,0.6
		c0.4,0.3,0.6,0.8,0.6,1.3c0,0.7-0.5,1.3-1.3,1.7c0.7,0.2,1.5,0.8,1.5,2c0,0.7-0.3,1.2-0.6,1.6c-0.5,0.4-1.3,0.7-2.6,0.7
		c-0.6,0-1.2-0.1-1.5-0.1L82.5,36.4L82.5,36.4z M83.4,39.4h0.9c1,0,1.6-0.4,1.6-1.3c0-0.9-0.6-1.2-1.6-1.2c-0.4,0-0.7,0.1-0.8,0.1
		L83.4,39.4L83.4,39.4z M83.4,43.1c0.2,0.1,0.4,0.1,0.8,0.1c1,0,1.9-0.4,1.9-1.4s-0.9-1.4-1.9-1.4h-0.8V43.1z M89.6,41.5l-0.8,2.3
		h-1l2.5-7.7h1.2l2.5,7.7h-1l-0.8-2.3H89.6L89.6,41.5z M92.1,40.8l-0.8-2.2c-0.2-0.4-0.3-1-0.4-1.3l-0.3,1.3l-0.8,2.2H92.1
		L92.1,40.8z M100.3,43.7c-0.4,0.2-1.1,0.4-2,0.4c-2.1,0-3.7-1.3-3.7-3.9c0-2.3,1.6-4,3.9-4c0.9,0,1.5,0.2,1.8,0.3l-0.3,0.8
		c-0.4-0.2-0.9-0.3-1.5-0.3c-1.8,0-2.9,1.2-2.9,3.2c0,1.9,1.1,3.1,2.8,3.1c0.6,0,1.2-0.1,1.6-0.3L100.3,43.7z M101.5,36.3h0.9V40
		h0.1c0.2-0.3,0.4-0.6,0.6-0.8l2.3-2.9h1.2l-2.7,3.2l2.9,4.3h-1.1l-2.5-3.8l-0.7,0.8v2.9h-1L101.5,36.3L101.5,36.3z"/>
	<g>
		<path class="st3" d="M65.3,37l11.4-9.7l-4.1-1.6c3.6-8.6,11.8-14.6,21.5-14.6c11.7,0,21.4,8.8,23.1,20.3h6
			C121.4,16.8,109,5.2,94,5.2c-12.1,0-22.6,7.7-27,18.4L62.7,22C62.8,21.9,65.3,37,65.3,37z M125.2,48.5l-2.4-15l-11.4,9.7l4.1,1.6
			c-3.6,8.6-11.8,14.6-21.5,14.6c-11.7,0-21.4-8.8-23.1-20.3h-6C66.8,53.8,79,65.3,94,65.3c12.1,0,22.6-7.7,27-18.4L125.2,48.5
			L125.2,48.5z"/>
	</g>
</g>
<g>
	<path class="st9" d="M247.6,121.5c0,0-0.4-4.1,5.1-7.4c5.5-3.2,8.2-4,16.2-5.7c8-1.7,19.5-0.2,19.5-0.2l14.5,9
		c0,0-0.5,23.8-4.4,39.3c-3.9,15.6,0.3,37.6,0.3,37.6l-46.9,4.3L247.6,121.5L247.6,121.5z"/>
	<path class="st10" d="M270.2,331.5c0,0-0.3,15.2,0,20.3c0.3,5.1,1.9,5.9-9.6,5.9c-11.5,0-20.8,1.3-24.6-1.3
		c-3.8-2.9,14.8-9.2,18.6-13.6c3.8-4.3,2.2-8.4,2.2-8.4L270.2,331.5z M293.8,334.2c0,0,0.9,8,0,10.7c-0.9,2.4-6.4,4.8-9,6
		c-2.6,1.2-4.5,3.1-3.1,4.6c1.4,1.3,25.7,2,27.2,1c1.6-1-3.4-22-3.4-22L293.8,334.2L293.8,334.2z"/>
	<path class="st9" d="M302.9,117.4c0,0,13.4,37.4,15.2,52.7c1.8,15.2-20.5,34.7-20.5,34.7l-7-17.9l10.4-16.7l-6.8-16L302.9,117.4z"
		/>
	<path class="st11" d="M269.6,64.8c0,0,7.7-0.2,12.9,3c5.3,3.2,6.4,7.3,6.4,7.3s1.6,2,1.9,6c0.3,4.1-8.2,16.9-8.2,16.9
		s-9.6,0.1-13.4-2.2c-3.7-2.3-9.1-19.2-9.1-19.2s-3-2.3-3.8-5.8l3-0.4c0,0-4-2-3-5.1L269.6,64.8L269.6,64.8z"/>
	<path class="st12" d="M282.6,98c0,0-9.3-0.6-13.4-2.2c0,0,2.5-1.8,3.1-4.8s-1-8-3.2-7.9c-2.2,0.1-2.3,3-2.3,3l-1.4-5.3
		c0,0-0.5-3.4-2.8-4.2c-2.3-0.9-2.5,0-2.5,0s-0.6,1.1-0.6,5.1c0,4.1-0.4,8.1,0,13.1c0.4,5,1.5,8,2.8,8.4c1.5,0.4,4.6,0.6,4.6,0.6
		l0.6,5.4l4.8-1.6c0,0,7.3-0.4,10.3-0.4V98L282.6,98z"/>
	<path class="st9" d="M251,116.2c0,0,5.7,8.9,1.6,22c-2.1,6.8-10.7,14.2-18.5,19.8c-7.7,5.4-18.2,4.3-24.6-2.7l-19.3-21.7l8.4-9
		l21.6,17C220,141.7,248.4,115.2,251,116.2z"/>
	<path class="st13" d="M251.7,196.7v8c0,0,1.6,69.2,2,80.4c0.4,11.2-0.8,56.4-0.8,56.4h17.7c0,0,6.5-37.2,4.6-50
		c-1.1-7.3-1.7-10.1-1.7-17.3s4.9-50,4.9-50s9.1,57.8,9.1,65.9c0,8,5.1,54.6,5.1,54.6h16.5c0,0,0.6-52-2.5-62.9
		c-3.1-10.9-5.1-77.3-8.1-89L251.7,196.7L251.7,196.7z"/>
	<path class="st12" d="M197.5,125.5c0,0-6.3-7.9-7.5-9.9c-1.2-2-8.2-8.2-9.9-8.4c-1.7-0.2,1.5,5.1,3.7,6.8c0,0-3.4,1.3-2.9,3.6
		c0,0-2.8,0.9-2.3,3.2c0,0-1.7,2.3-0.8,5c0.9,2.4,2.7,3.9,3.5,4.1c0.9,0.2,1.8,0,1.8,0s2.1,2.1,4.4,2.2l2.6,1.9L197.5,125.5
		L197.5,125.5z"/>
	<path class="st14" d="M264.1,108.4c0,0,4.6-3.2,11.8-4.3c7.3-1.1,10,0,10,0l1.1,4.3C287,108.4,257.3,113.7,264.1,108.4z"/>
	<g>
		<path class="st3" d="M309.9,48.9h38.7c5.3,0,9.5,4.3,9.5,9.8v16.2c0,5.4-4.3,9.8-9.5,9.8h-27.3l-12,14.3V84.7c-5-0.3-9-4.6-9-9.7
			V58.8C300.4,53.2,304.7,48.9,309.9,48.9L309.9,48.9z"/>
		<ellipse class="st5" cx="315" cy="65.8" rx="3.8" ry="3.9"/>
		<ellipse class="st5" cx="330.3" cy="65.8" rx="3.8" ry="3.9"/>
		<ellipse class="st5" cx="343.6" cy="65.8" rx="3.8" ry="3.9"/>
	</g>
</g>
</svg>
