<svg xmlns="http://www.w3.org/2000/svg" width="550" height="550"><svg xmlns="http://www.w3.org/2000/svg" width="550" height="550" viewBox="0 0 600 500"><path fill="#f5f5f5" d="m555.7 365.544-512 .804a148956.71 148956.71 0 0 0 34.334-55.888c4.302-6.99 8.795-14.205 15.174-18.306 10.76-6.91 24.511-3.342 35.485 3.923 10.974 7.248 20.255 17.806 30.811 25.942 34.311 26.41 79.838 1.942 111.932-24.376 28.445-23.327 38.229 12.288 51.328-4.973 30.962-40.8 85.374-13.963 101.756-4.94 35.271 19.421 67.78-16.45 77.237 24.99 6.563 28.76 33.26 42.04 53.943 52.824z" class="colorf5f5f5 svgShape"/><ellipse cx="295.011" cy="389.24" fill="#f5f5f5" class="colorf5f5f5 svgShape" rx="92.038" ry="7.026"/><ellipse cx="107.506" cy="424.942" fill="#f5f5f5" class="colorf5f5f5 svgShape" rx="56.669" ry="6.305"/><ellipse cx="535.908" cy="427.573" fill="#f5f5f5" class="colorf5f5f5 svgShape" rx="20.392" ry="3.674"/><ellipse cx="435.174" cy="427.573" fill="#f5f5f5" class="colorf5f5f5 svgShape" rx="20.392" ry="3.674"/><path fill="#26a851" d="M238.905 389.242h-9.992c-7.53 0-13.847-6.066-14.091-13.595l-7.292-224.8c-.244-7.522 5.68-13.588 13.21-13.588h9.992c-7.53 0-13.454 6.066-13.21 13.588l7.292 224.8c.243 7.53 6.561 13.595 14.09 13.595z" class="color26a851 svgShape"/><path fill="#67db8a" d="M238.905 389.242h-6.657c-7.529 0-13.847-6.066-14.09-13.595l-7.292-224.8c-.244-7.522 5.68-13.588 13.21-13.588h6.656c-7.53 0-13.454 6.066-13.21 13.588l7.292 224.8c.243 7.53 6.561 13.595 14.09 13.595z" class="color67db8a svgShape"/><path fill="#fff" d="m358.346 150.85 7.288 224.795c.244 7.528-5.626 13.595-13.154 13.595H238.902c-7.528 0-13.845-6.067-14.09-13.595l-7.287-224.795c-.244-7.528 5.68-13.594 13.208-13.594H344.31c7.528 0 13.79 6.066 14.035 13.594z" class="colorfff svgShape"/><path fill="#fff" d="m271.53 360.079.343 10.568a2.593 2.593 0 0 1-2.599 2.687h-23.935c-1.466 0-2.703-1.2-2.752-2.687l-.342-10.568a2.575 2.575 0 0 1 2.577-2.686h23.935c1.466 0 2.725 1.199 2.774 2.686z" class="colorfff svgShape"/><path fill="#e1e5e2" d="m309.362 360.079.342 10.568a2.593 2.593 0 0 1-2.6 2.687H283.17c-1.465 0-2.703-1.2-2.75-2.687l-.343-10.568a2.575 2.575 0 0 1 2.577-2.686h23.935c1.465 0 2.725 1.199 2.774 2.686zm37.83 0 .343 10.568a2.593 2.593 0 0 1-2.6 2.687H321c-1.465 0-2.703-1.2-2.75-2.687l-.344-10.568a2.575 2.575 0 0 1 2.578-2.686h23.935c1.465 0 2.725 1.199 2.773 2.686z" class="colore1e5e2 svgShape"/><path fill="#fff" d="m308.605 336.745.343 10.568a2.593 2.593 0 0 1-2.6 2.686h-23.935c-1.465 0-2.703-1.199-2.751-2.686l-.343-10.568a2.575 2.575 0 0 1 2.577-2.687h23.936c1.465 0 2.725 1.2 2.773 2.687zm37.83 0 .343 10.568a2.593 2.593 0 0 1-2.599 2.686h-23.935c-1.465 0-2.703-1.199-2.751-2.686l-.343-10.568a2.575 2.575 0 0 1 2.577-2.687h23.935c1.466 0 2.726 1.2 2.774 2.687zm-76.417-23.335.342 10.569a2.593 2.593 0 0 1-2.599 2.686h-23.935c-1.466 0-2.703-1.199-2.752-2.686l-.342-10.569a2.575 2.575 0 0 1 2.577-2.686h23.935c1.466 0 2.725 1.199 2.774 2.686zm37.83 0 .343 10.569a2.593 2.593 0 0 1-2.6 2.686h-23.935c-1.465 0-2.703-1.199-2.75-2.686l-.343-10.569a2.575 2.575 0 0 1 2.577-2.686h23.935c1.465 0 2.725 1.199 2.773 2.686zm37.831 0 .343 10.569a2.593 2.593 0 0 1-2.6 2.686h-23.935c-1.465 0-2.703-1.199-2.75-2.686l-.344-10.569a2.575 2.575 0 0 1 2.578-2.686h23.935c1.465 0 2.725 1.199 2.773 2.686z" class="colorfff svgShape"/><path fill="#e1e5e2" d="m269.261 290.076.343 10.568a2.593 2.593 0 0 1-2.6 2.687H243.07c-1.465 0-2.703-1.2-2.751-2.687l-.343-10.568a2.575 2.575 0 0 1 2.577-2.687h23.936c1.465 0 2.725 1.2 2.773 2.687zm37.831 0 .343 10.568a2.593 2.593 0 0 1-2.6 2.687H280.9c-1.465 0-2.703-1.2-2.751-2.687l-.343-10.568a2.575 2.575 0 0 1 2.577-2.687h23.935c1.466 0 2.726 1.2 2.774 2.687zm37.83 0 .343 10.568a2.593 2.593 0 0 1-2.599 2.687h-23.935c-1.465 0-2.703-1.2-2.751-2.687l-.343-10.568a2.575 2.575 0 0 1 2.577-2.687h23.935c1.466 0 2.726 1.2 2.774 2.687z" class="colore1e5e2 svgShape"/><path fill="#f5f5f5" d="m346.28 179.717 2.817 86.89a8.034 8.034 0 0 1-8.077 8.349h-97.316c-4.618 0-8.47-3.73-8.62-8.348l-2.816-86.89c-.15-4.597 3.46-8.327 8.078-8.327h97.316c4.596 0 8.469 3.73 8.618 8.326z" class="colorf5f5f5 svgShape"/><path fill="#fff" d="m336.199 185.161 1.78 54.901a4.562 4.562 0 0 1-4.589 4.743h-83.457c-2.62 0-4.811-2.123-4.896-4.743l-1.78-54.9a4.562 4.562 0 0 1 4.589-4.744h83.456c2.62 0 4.812 2.124 4.897 4.743z" class="colorfff svgShape"/><path fill="#26a851" d="M377.84 366.34a6.726 6.726 0 0 1-6.767 6.994h-5.507L359.5 186.178h5.507c3.863 0 7.097 3.131 7.223 6.994l5.61 173.168z" class="color26a851 svgShape"/><path fill="#67db8a" d="M374.288 366.34a6.726 6.726 0 0 1-6.766 6.994h-1.956L359.5 186.178h1.948c3.863 0 7.097 3.131 7.223 6.994l5.617 173.168z" class="color67db8a svgShape"/><ellipse cx="290.618" cy="204.176" fill="#fff" class="colorfff svgShape" rx="16.896" ry="17.453" transform="rotate(-45.464 290.618 204.176)"/><path fill="#67db8a" d="M277.01 204.18c.036 7.456 6.155 13.502 13.667 13.502 7.52 0 13.583-6.046 13.548-13.503-.035-7.463-6.155-13.51-13.674-13.51-7.513 0-13.575 6.047-13.54 13.51z" class="color67db8a svgShape"/><path fill="#34b75c" d="M277.013 204.177c.028 7.464 6.155 13.499 13.668 13.499 5.042 0 9.42-2.72 11.755-6.756a13.626 13.626 0 0 1-9.12 3.49c-7.514 0-13.64-6.048-13.669-13.499a13.21 13.21 0 0 1 1.773-6.73c-2.723 2.471-4.429 6.035-4.407 9.996z" class="color34b75c svgShape"/><path fill="#fff" d="m295.841 203.256-5.89 4.403c-.316.237-.695.34-1.075.3a1.626 1.626 0 0 1-1.138-.608l-2.467-3.06c-.57-.696-.474-1.7.206-2.245.68-.538 1.692-.411 2.26.284l1.471 1.827 4.657-3.487c.696-.522 1.7-.371 2.245.348.546.712.427 1.716-.269 2.238z" class="colorfff svgShape"/><path fill="#e1e5e2" d="M339.482 151.9c-.194 1.327-1.304 2.317-2.718 2.317h-92.582c-1.637 0-3.063-1.327-3.185-2.964a2.888 2.888 0 0 1 .018-.655c.194-1.327 1.304-2.317 2.717-2.317h92.582c1.638 0 3.062 1.335 3.193 2.972.02.224.005.44-.025.647z" class="colore1e5e2 svgShape"/><path fill="#fff" d="m327.322 85.16 3.294 66.089h-80.862l-3.294-66.09c-.117-2.345-1.171-4.47-2.786-6.005-1.615-1.535-3.784-2.488-6.13-2.488h16.386l.001.024c.2-.017.4-.024.603-.024h63.868c4.691 0 8.686 3.802 8.92 8.494z" class="colorfff svgShape"/><path fill="#e1e5e2" d="m246.46 85.16.631 12.654h-16.99l-.63-12.654c-.234-4.692 3.381-8.494 8.073-8.494 2.346 0 4.515.953 6.13 2.488 1.615 1.535 2.67 3.66 2.786 6.006z" class="colore1e5e2 svgShape"/><path fill="#fff" d="m270.81 336.745.343 10.568a2.593 2.593 0 0 1-2.599 2.686H244.62c-1.465 0-2.703-1.199-2.751-2.686l-.343-10.568a2.575 2.575 0 0 1 2.577-2.687h23.935c1.466 0 2.726 1.2 2.774 2.687z" class="colorfff svgShape"/><path fill="#46c671" d="M267.68 236.759a2.131 2.131 0 0 1-.89.79c-.391.197-.85.31-1.374.341l.038.82a.325.325 0 0 1-.086.249.333.333 0 0 1-.252.097c-.1 0-.183-.03-.25-.091a.353.353 0 0 1-.11-.255l-.038-.82a7.183 7.183 0 0 1-2.336-.543.551.551 0 0 1-.238-.19.52.52 0 0 1-.105-.283.472.472 0 0 1 .117-.341.417.417 0 0 1 .33-.145c.076 0 .15.016.22.047.63.278 1.286.431 1.965.461l-.123-2.656a8.8 8.8 0 0 1-1.33-.45 2.552 2.552 0 0 1-.919-.687c-.25-.297-.386-.673-.407-1.127-.019-.4.061-.77.24-1.109.179-.339.455-.62.83-.843.374-.223.831-.358 1.371-.404l-.038-.809c-.005-.1.025-.184.086-.254s.142-.103.241-.103.185.034.256.103c.073.07.11.154.115.254l.038.797c.749.03 1.418.158 2.007.381a.477.477 0 0 1 .342.462.487.487 0 0 1-.11.335.39.39 0 0 1-.324.15.53.53 0 0 1-.186-.046 5.756 5.756 0 0 0-1.684-.312l.127 2.749a9.116 9.116 0 0 1 1.387.429c.37.154.684.381.942.686s.399.706.421 1.207c.02.408-.07.779-.273 1.11zm-4.331-4.079c.264.186.646.344 1.148.475l-.118-2.542c-.455.062-.813.202-1.078.422s-.389.506-.372.86c.016.34.155.6.42.785zm3.572 2.9c-.013-.3-.16-.533-.438-.698-.279-.166-.688-.322-1.229-.47l.115 2.484c1.073-.077 1.59-.515 1.552-1.316zm8.508 1.652c-.08-.054-.139-.11-.18-.168s-.063-.14-.068-.249a.492.492 0 0 1 .11-.351.4.4 0 0 1 .325-.145c.083 0 .164.02.243.058.617.324 1.234.485 1.852.485.725 0 1.272-.122 1.642-.369.369-.247.54-.666.514-1.26-.023-.476-.2-.854-.529-1.132-.329-.276-.768-.415-1.317-.415-.633 0-1.213.165-1.738.496a2.523 2.523 0 0 0-.128.076.516.516 0 0 1-.267.063.831.831 0 0 1-.546-.185.636.636 0 0 1-.24-.485 1.648 1.648 0 0 1 .01-.277l.372-3.072c.014-.177.075-.318.18-.422s.24-.157.4-.157h3.672a.5.5 0 0 1 .355.145c.1.097.153.214.16.352a.443.443 0 0 1-.128.347.463.463 0 0 1-.342.139h-3.318l-.252 2.45c.566-.317 1.202-.476 1.911-.476.565 0 1.052.113 1.463.336.411.223.729.53.953.924.224.393.348.843.372 1.35.037.78-.198 1.409-.702 1.89-.504.482-1.274.721-2.311.721-.93 0-1.753-.223-2.468-.669zm8.318.53a5.009 5.009 0 0 1-.92-.357.491.491 0 0 1-.18-.173.491.491 0 0 1-.08-.243.448.448 0 0 1 .117-.328.414.414 0 0 1 .33-.145c.07 0 .134.011.196.035.484.222.995.334 1.537.334.862 0 1.455-.303 1.777-.913.322-.607.485-1.289.488-2.044a2.489 2.489 0 0 1-.88.728c-.374.193-.846.29-1.418.29-.518 0-.98-.112-1.383-.336s-.724-.54-.964-.947c-.24-.408-.373-.886-.398-1.432-.023-.486.07-.928.28-1.329.211-.4.524-.716.94-.947.417-.232.91-.347 1.483-.347 2.09 0 3.198 1.38 3.327 4.136a5.857 5.857 0 0 1-.235 1.952 3.321 3.321 0 0 1-.997 1.576c-.476.42-1.107.63-1.892.63a4.12 4.12 0 0 1-1.128-.14zm3.152-5.046c-.272-1.416-1.003-2.126-2.193-2.126-.351 0-.658.075-.921.225s-.463.353-.595.607a1.587 1.587 0 0 0-.179.832c.024.523.189.942.493 1.258.304.317.735.474 1.291.474.992 0 1.694-.424 2.104-1.27zm2.933 4.915a.654.654 0 0 1-.209-.457l-.004-.07a.596.596 0 0 1 .168-.455.583.583 0 0 1 .444-.191h.114c.175 0 .33.063.46.191a.65.65 0 0 1 .21.455l.004.07a.6.6 0 0 1-.168.457.589.589 0 0 1-.442.19h-.115a.65.65 0 0 1-.462-.19zm3.245-.85c-.566-.747-.877-1.756-.937-3.025-.059-1.272.16-2.28.654-3.028.495-.746 1.247-1.12 2.254-1.12.998 0 1.782.374 2.35 1.12.57.747.884 1.756.943 3.028.059 1.27-.161 2.278-.66 3.025-.499.748-1.249 1.12-2.247 1.12-1.007 0-1.793-.372-2.357-1.12zm3.8-.693c.327-.562.469-1.34.423-2.332-.046-.987-.26-1.76-.64-2.323s-.904-.843-1.567-.843-1.16.28-1.487.843c-.33.563-.47 1.336-.425 2.323.047.993.26 1.77.64 2.332.381.563.904.843 1.568.843.663 0 1.16-.28 1.487-.843zm3.383.693c-.564-.747-.877-1.756-.935-3.025-.06-1.272.159-2.28.654-3.028.495-.746 1.246-1.12 2.253-1.12.999 0 1.782.374 2.351 1.12.569.747.883 1.756.942 3.028.06 1.27-.161 2.278-.66 3.025-.5.748-1.248 1.12-2.247 1.12-1.007 0-1.792-.372-2.358-1.12zm3.8-.693c.329-.562.47-1.34.424-2.332-.046-.987-.26-1.76-.64-2.323-.38-.562-.903-.843-1.566-.843-.664 0-1.16.28-1.489.843s-.47 1.336-.423 2.323c.045.993.26 1.77.64 2.332.381.563.904.843 1.567.843s1.159-.28 1.487-.843zm3.385.693c-.566-.747-.877-1.756-.937-3.025-.058-1.272.16-2.28.654-3.028.496-.746 1.248-1.12 2.254-1.12.998 0 1.783.374 2.35 1.12.57.747.884 1.756.943 3.028.059 1.27-.16 2.278-.66 3.025-.499.748-1.249 1.12-2.247 1.12-1.007 0-1.793-.372-2.357-1.12zm3.8-.693c.328-.562.47-1.34.423-2.332-.046-.987-.26-1.76-.64-2.323s-.904-.843-1.567-.843-1.159.28-1.487.843c-.33.563-.47 1.336-.425 2.323.047.993.26 1.77.64 2.332.382.563.904.843 1.568.843.663 0 1.16-.28 1.487-.843zm3.383.693c-.565-.747-.877-1.756-.936-3.025-.059-1.272.159-2.28.654-3.028.495-.746 1.247-1.12 2.254-1.12.998 0 1.782.374 2.35 1.12.57.747.883 1.756.943 3.028.059 1.27-.161 2.278-.66 3.025-.5.748-1.25 1.12-2.247 1.12-1.007 0-1.793-.372-2.358-1.12zm3.8-.693c.328-.562.47-1.34.424-2.332-.046-.987-.26-1.76-.64-2.323s-.904-.843-1.567-.843-1.16.28-1.487.843c-.33.563-.471 1.336-.425 2.323.047.993.26 1.77.64 2.332.381.563.904.843 1.568.843.663 0 1.159-.28 1.487-.843z" class="color46c671 svgShape"/><path fill="#34b75c" d="M271.47 262.964a1.952 1.952 0 0 1-1.973 2.024h-21.611c-1.133 0-2.074-.911-2.104-2.024v-.02l-.16-4.678a1.98 1.98 0 0 1 1.983-2.054h21.672a2.137 2.137 0 0 1 2.043 2.054l.15 4.698z" class="color34b75c svgShape"/><path fill="#67db8a" d="M269.427 260.92a1.952 1.952 0 0 1-1.974 2.024h-21.671l-.16-4.678a1.98 1.98 0 0 1 1.983-2.054h21.672v.01l.15 4.699z" class="color67db8a svgShape"/><path fill="#34b75c" d="M305.097 262.964a1.952 1.952 0 0 1-1.974 2.024h-21.61c-1.133 0-2.075-.911-2.105-2.024v-.02l-.16-4.678a1.98 1.98 0 0 1 1.983-2.054h21.672a2.137 2.137 0 0 1 2.044 2.054l.15 4.698z" class="color34b75c svgShape"/><path fill="#67db8a" d="M303.053 260.92a1.952 1.952 0 0 1-1.974 2.024h-21.671l-.16-4.678a1.98 1.98 0 0 1 1.983-2.054h21.672v.01l.15 4.699z" class="color67db8a svgShape"/><path fill="#34b75c" d="M338.724 262.964a1.952 1.952 0 0 1-1.974 2.024h-21.612c-1.132 0-2.073-.911-2.104-2.024v-.02l-.16-4.678a1.98 1.98 0 0 1 1.984-2.054h21.671a2.137 2.137 0 0 1 2.044 2.054l.15 4.698z" class="color34b75c svgShape"/><path fill="#67db8a" d="M336.68 260.92a1.952 1.952 0 0 1-1.974 2.024h-21.672l-.16-4.678a1.98 1.98 0 0 1 1.984-2.054h21.671v.01l.15 4.699z" class="color67db8a svgShape"/><path fill="#3c4150" d="M268.752 357.044h-23.93c-1.68 0-2.971 1.357-2.93 3.05l.35 10.56c.05 1.67 1.44 3.03 3.1 3.03h23.93a2.939 2.939 0 0 0 2.95-3.05l-.34-10.57c-.06-1.66-1.46-3.02-3.13-3.02zm.52 15.94h-23.93c-1.29 0-2.36-1.05-2.4-2.35l-.35-10.57c-.04-1.262.94-2.32 2.23-2.32h23.93c1.3 0 2.39 1.05 2.43 2.35l.34 10.56a2.235 2.235 0 0 1-2.25 2.33zm37.32-15.94h-23.94c-1.68 0-2.971 1.357-2.93 3.05l.35 10.56c.05 1.67 1.44 3.03 3.1 3.03h23.93c1.628 0 3.014-1.32 2.95-3.05l-.34-10.57c-.06-1.66-1.46-3.02-3.12-3.02zm.51 15.94h-23.93c-1.28 0-2.36-1.05-2.4-2.35l-.35-10.57c-.04-1.262.94-2.32 2.23-2.32h23.94c1.29 0 2.38 1.05 2.42 2.35l.34 10.56a2.235 2.235 0 0 1-2.25 2.33zm37.32-15.94h-23.94c-1.68 0-2.971 1.357-2.93 3.05l.35 10.56c.05 1.67 1.44 3.03 3.1 3.03h23.93c.81 0 1.57-.32 2.13-.9.56-.57.85-1.34.82-2.15l-.34-10.57c-.05-1.66-1.45-3.02-3.12-3.02zm2.13 15.26c-.42.44-1 .68-1.62.68h-23.93c-1.28 0-2.36-1.05-2.4-2.35l-.35-10.57c-.04-1.262.94-2.32 2.23-2.32h23.94c.64 0 1.24.26 1.68.69.44.42.72 1.01.74 1.66l.34 10.57c.02.61-.2 1.2-.63 1.64zm-64.14-21.95h23.94a2.953 2.953 0 0 0 2.95-3.05l-.35-10.57c-.05-1.67-1.45-3.03-3.12-3.03h-23.94a2.923 2.923 0 0 0-2.92 3.05l.34 10.57c.05 1.67 1.45 3.03 3.1 3.03zm-2.74-13.62a2.232 2.232 0 0 1 2.22-2.33h23.94c1.29 0 2.38 1.06 2.42 2.35l.35 10.57a2.257 2.257 0 0 1-2.25 2.33h-23.94c-1.28 0-2.36-1.06-2.4-2.35l-.34-10.57zm40.57 13.62h23.94c.81 0 1.56-.32 2.12-.9.56-.58.85-1.34.83-2.15l-.35-10.57c-.05-1.67-1.45-3.03-3.12-3.03h-23.93a2.923 2.923 0 0 0-2.93 3.05l.34 10.57c.05 1.67 1.45 3.03 3.1 3.03zm-2.74-13.62c-.04-1.29.963-2.33 2.23-2.33h23.93c1.29 0 2.38 1.06 2.42 2.35l.35 10.57a2.254 2.254 0 0 1-2.25 2.33h-23.94c-1.28 0-2.36-1.06-2.4-2.35l-.34-10.57zm-73.68-9.72h23.94a2.95 2.95 0 0 0 2.95-3.05l-.34-10.56c-.06-1.67-1.46-3.03-3.13-3.03h-23.93c-1.718 0-2.99 1.427-2.93 3.05l.34 10.57c.06 1.66 1.45 3.02 3.1 3.02zm-2.74-13.61a2.223 2.223 0 0 1 2.23-2.33h23.93c1.3 0 2.38 1.05 2.43 2.35l.34 10.57c.042 1.311-1 2.32-2.25 2.32h-23.94c-1.28 0-2.36-1.05-2.4-2.35l-.34-10.56zm40.57 13.61h23.94a2.95 2.95 0 0 0 2.95-3.05l-.34-10.56c-.06-1.67-1.46-3.03-3.13-3.03h-23.93c-.8 0-1.55.31-2.1.89-.56.57-.86 1.34-.83 2.16l.34 10.57c.06 1.66 1.45 3.02 3.1 3.02zm-2.74-13.61a2.221 2.221 0 0 1 2.23-2.33h23.93c1.364 0 2.392 1.13 2.43 2.35l.34 10.57c.042 1.311-1 2.32-2.25 2.32h-23.94c-1.28 0-2.36-1.05-2.4-2.35l-.34-10.56zm40.58 13.61h23.93c1.644 0 3.013-1.362 2.95-3.05l-.34-10.56c-.06-1.67-1.46-3.03-3.13-3.03h-23.93c-1.644 0-2.972 1.334-2.93 3.05l.34 10.57c.06 1.66 1.45 3.02 3.11 3.02zm-2.75-13.61a2.223 2.223 0 0 1 2.23-2.33h23.93a2.44 2.44 0 0 1 2.43 2.35l.34 10.57c.042 1.311-1 2.32-2.25 2.32h-23.93c-1.29 0-2.36-1.05-2.41-2.35l-.34-10.56zm-73.67-9.72h23.93a2.939 2.939 0 0 0 2.95-3.05l-.34-10.57c-.06-1.67-1.46-3.02-3.12-3.02h-23.94c-.8 0-1.55.31-2.1.88-.56.58-.85 1.35-.83 2.16l.35 10.57c.05 1.67 1.44 3.03 3.1 3.03zm-2.75-13.62c-.02-.62.21-1.21.63-1.65.42-.44.99-.67 1.6-.67h23.94c1.29 0 2.38 1.05 2.42 2.34l.34 10.57a2.25 2.25 0 0 1-2.25 2.33h-23.93c-1.28 0-2.36-1.06-2.4-2.35l-.35-10.57zm40.58 13.62h23.93a2.937 2.937 0 0 0 2.95-3.05l-.34-10.57c-.05-1.67-1.46-3.02-3.12-3.02h-23.94c-1.686 0-2.971 1.367-2.93 3.04l.35 10.57c.05 1.67 1.44 3.03 3.1 3.03zm-2.75-13.62c-.039-1.211.885-2.32 2.23-2.32h23.94c1.29 0 2.38 1.05 2.42 2.34l.34 10.57a2.25 2.25 0 0 1-2.25 2.33h-23.93c-1.28 0-2.36-1.06-2.4-2.35l-.35-10.57zm40.58 13.62h23.93a2.937 2.937 0 0 0 2.95-3.05l-.34-10.57c-.05-1.67-1.45-3.02-3.12-3.02h-23.94a2.906 2.906 0 0 0-2.92 3.04l.34 10.57c.05 1.67 1.44 3.03 3.1 3.03zm-2.75-13.62c-.039-1.21.884-2.32 2.23-2.32h23.94c1.288 0 2.38 1.046 2.42 2.34l.34 10.57a2.24 2.24 0 0 1-2.25 2.33h-23.93c-1.28 0-2.36-1.06-2.4-2.35l-.35-10.57zm21.68-119.02h-97.32c-4.9 0-8.583 3.975-8.42 8.68l2.81 86.9c.16 4.78 4.18 8.68 8.97 8.68h97.32c2.32 0 4.48-.9 6.07-2.55a8.376 8.376 0 0 0 2.35-6.16l-2.81-86.89c-.16-4.78-4.18-8.66-8.97-8.66zm8.93 101.22c-1.46 1.51-3.44 2.34-5.57 2.34h-97.32c-4.41 0-8.12-3.59-8.27-8.01l-2.81-86.89c-.145-4.408 3.294-7.96 7.72-7.96h97.32c4.456 0 8.131 3.614 8.27 7.98l2.82 86.9c.06 2.13-.7 4.13-2.16 5.64z" class="color3c4150 svgShape"/><path fill="#3c4150" d="M249.932 245.154h83.46c1.36 0 2.62-.53 3.56-1.49.93-.97 1.42-2.25 1.38-3.61l-1.78-54.9c-.09-2.81-2.45-5.09-5.25-5.09h-83.46c-2.775 0-5.035 2.255-4.93 5.11l1.78 54.9c.09 2.8 2.44 5.08 5.24 5.08zm-6.33-60c-.063-2.487 1.885-4.39 4.24-4.39h83.46c2.43 0 4.47 1.98 4.55 4.41l1.78 54.9c.03 1.17-.39 2.27-1.19 3.1-.8.83-1.88 1.28-3.05 1.28h-83.46c-2.43 0-4.47-1.97-4.55-4.4l-1.78-54.9z" class="color3c4150 svgShape"/><path fill="#3c4150" d="M291.172 221.694h.16c4.68-.04 9-1.9 12.18-5.24 3-3.16 4.64-7.28 4.64-11.69 0-.25-.01-.51-.02-.76-.4-9.6-8.49-17.35-18.07-17.35h-.16c-4.68.04-9 1.9-12.17 5.24-3.18 3.34-4.83 7.77-4.63 12.45.4 9.6 8.49 17.35 18.07 17.35zm-12.94-29.32c3.04-3.2 7.19-4.98 11.68-5.02h.15c4.6 0 8.85 1.86 12 4.88 3.14 3.02 5.18 7.18 5.37 11.8.19 4.5-1.39 8.73-4.43 11.94-3.04 3.2-7.19 4.98-11.67 5.02h-.16c-9.21 0-16.99-7.45-17.37-16.68-.19-4.49 1.39-8.73 4.43-11.94z" class="color3c4150 svgShape"/><path fill="#3c4150" d="M287.462 207.574c.716.88 1.918.939 2.7.37l5.89-4.41c.78-.586 1.047-1.78.34-2.73-.66-.86-1.89-1.05-2.74-.41l-4.38 3.28-1.26-1.56c-.69-.85-1.92-1-2.75-.34-.825.66-.965 1.868-.26 2.74l2.46 3.06zm-1.77-5.25c.503-.412 1.311-.335 1.77.23l1.47 1.82c.12.15.34.18.49.06l4.65-3.48c.54-.41 1.33-.29 1.76.28.455.606.309 1.353-.2 1.74l-5.89 4.41c-.54.404-1.321.27-1.73-.25l-2.47-3.06c-.442-.543-.381-1.325.15-1.75zm9.08-61.29c0 .2.16.35.35.35h28.03c.19 0 .35-.15.35-.35 0-.19-.16-.35-.35-.35h-28.03c-.19 0-.35.16-.35.35zm-3.67-.35h-34.9c-.19 0-.35.16-.35.35 0 .2.16.35.35.35h34.9c.2 0 .36-.15.36-.35 0-.19-.16-.35-.36-.35zm17.892-7.229c0 .194.157.35.35.35h13.428a.35.35 0 1 0 0-.7h-13.428a.35.35 0 0 0-.35.35zm-2.644 0a.35.35 0 0 0-.35-.35h-12.816a.35.35 0 1 0 0 .7H306a.35.35 0 0 0 .35-.35zm-15.12-7.58c0 .193.156.35.35.35h30.814a.35.35 0 1 0 0-.7H291.58a.35.35 0 0 0-.35.35zm19.47-7.58c0 .193.158.35.35.35h10.966a.35.35 0 1 0 0-.7h-10.965a.35.35 0 0 0-.35.35zm-3.724 0a.35.35 0 0 0-.35-.35H255.07a.35.35 0 1 0 0 .7h51.557a.35.35 0 0 0 .35-.35zm-32.495-7.231h12.814a.35.35 0 1 0 0-.7H274.48a.35.35 0 1 0 0 .7zm-19.79 0h15.532a.35.35 0 1 0 0-.7H254.69a.35.35 0 1 0 0 .7zm38.243-.595a.348.348 0 0 0 .25.595h28.455a.35.35 0 1 0 0-.7l-28.705.105zm-24.248-6.986h18.345a.35.35 0 1 0 0-.7h-18.345a.35.35 0 1 0 0 .7zm40.596-7.93c0 .193.157.35.35.35h11.25a.35.35 0 1 0 0-.7h-11.25a.35.35 0 0 0-.35.35zm-3.176 0a.35.35 0 0 0-.35-.35h-37.448a.35.35 0 1 0 0 .7h37.448a.35.35 0 0 0 .35-.35zm-10.585-7.231h24.984a.35.35 0 1 0 0-.7h-24.984a.35.35 0 1 0 0 .7zm-27.59 0h23.822a.35.35 0 1 0 0-.7H267.93a.35.35 0 1 0 0 .7zm-7.932 8.227c1.179 0 2.169.96 2.206 2.138a2.06 2.06 0 0 1-2.047 2.138c-.008 0-.016-.005-.024-.005-.009 0-.016.005-.024.005a2.226 2.226 0 0 1-2.184-2.138c-.009-.286-.248-.518-.535-.518s-.511.232-.502.518c.05 1.575 1.244 2.883 2.758 3.132l.025.795a.54.54 0 0 0 .535.519.5.5 0 0 0 .502-.519l-.025-.795a3.057 3.057 0 0 0 2.559-3.132c-.056-1.751-1.526-3.176-3.277-3.176-1.18 0-2.17-.96-2.208-2.14a2.06 2.06 0 0 1 2.048-2.136c.008 0 .015.004.024.004.008 0 .015-.004.023-.004a2.224 2.224 0 0 1 2.184 2.136c.009.287.248.519.535.519s.511-.232.502-.519c-.05-1.575-1.244-2.882-2.757-3.13l-.025-.796a.54.54 0 0 0-.536-.518.5.5 0 0 0-.502.518l.025.796a3.057 3.057 0 0 0-2.559 3.13c.056 1.752 1.526 3.178 3.279 3.178zm-15.377 253.805h23.93a2.939 2.939 0 0 0 2.95-3.05l-.34-10.57c-.06-1.67-1.46-3.03-3.12-3.03h-23.94c-1.644 0-2.972 1.347-2.93 3.05l.35 10.57c.05 1.67 1.44 3.03 3.1 3.03zm-2.75-13.62c-.04-1.252.935-2.33 2.23-2.33h23.94c1.271 0 2.38 1.04 2.42 2.35l.34 10.57a2.25 2.25 0 0 1-2.25 2.33h-23.93c-1.29 0-2.36-1.06-2.4-2.35l-.35-10.57zm27.34-80.87h-21.61c-.64 0-1.23.25-1.67.7-.44.46-.68 1.06-.66 1.71l.16 4.7c.04 1.3 1.14 2.36 2.46 2.36h21.6c.65 0 1.25-.25 1.69-.7.43-.45.66-1.05.64-1.68l-.15-4.7c-.05-1.32-1.15-2.39-2.46-2.39zm1.46 8.28c-.3.32-.72.49-1.18.49h-21.6c-.95 0-1.74-.75-1.76-1.68l-.16-4.7c-.01-.46.15-.88.46-1.2.31-.31.72-.49 1.17-.49h21.61c.94 0 1.72.77 1.76 1.71l.15 4.7c.01.44-.15.86-.45 1.17zm32.16-8.28h-21.6c-.64 0-1.24.25-1.68.7-.44.46-.67 1.06-.65 1.71l.16 4.7c.03 1.3 1.13 2.36 2.45 2.36h21.61c.64 0 1.24-.25 1.68-.7s.67-1.05.64-1.68l-.15-4.7a2.477 2.477 0 0 0-2.46-2.39zm1.47 8.28c-.31.32-.73.49-1.18.49h-21.61c-.94 0-1.73-.75-1.76-1.68l-.15-4.7a1.624 1.624 0 0 1 1.63-1.69h21.6c.94 0 1.73.77 1.76 1.71l.15 4.7c.02.44-.14.86-.44 1.17zm32.16-8.28h-21.6c-.64 0-1.24.25-1.68.7-.44.46-.67 1.06-.66 1.71l.16 4.7c.04 1.3 1.14 2.36 2.46 2.36h21.6c.65 0 1.25-.25 1.69-.7.43-.45.66-1.05.64-1.68l-.15-4.7c-.05-1.32-1.15-2.39-2.46-2.39zm1.47 8.28c-.31.32-.73.49-1.19.49h-21.6c-.94 0-1.73-.75-1.76-1.68l-.16-4.7c-.01-.46.15-.88.46-1.2.31-.31.73-.49 1.18-.49h21.6c.94 0 1.73.77 1.76 1.71l.15 4.7c.02.44-.14.86-.44 1.17z" class="color3c4150 svgShape"/><g class="color000 svgShape"><path fill="#fff" d="M452.813 349.283c.13 3.87-2.9 7.01-6.77 7.01h-81.2l-5.27-156.93h81.37c3.79.09 6.94 3.19 7.07 7.01l4.8 142.91z" class="colorfff svgShape"/><path fill="#fff" d="M373.71 321.022h15.049c1.911 0 3.517 1.553 3.581 3.47l.506 15.05a3.33 3.33 0 0 1-3.349 3.465h-15.049c-1.917 0-3.523-1.553-3.587-3.465l-.505-15.05a3.333 3.333 0 0 1 3.354-3.47z" class="colorfff svgShape"/><path fill="#3c4150" d="M374.448 343.257c-2.047 0-3.768-1.663-3.837-3.707l-.506-15.049a3.584 3.584 0 0 1 3.605-3.729h15.048c2.044 0 3.763 1.665 3.832 3.712l.505 15.05a3.58 3.58 0 0 1-3.598 3.723h-15.05zm14.31-21.985H373.71a3.085 3.085 0 0 0-3.105 3.213l.506 15.049c.06 1.777 1.557 3.223 3.337 3.223h15.049a3.078 3.078 0 0 0 3.098-3.207l-.505-15.05c-.06-1.78-1.554-3.228-3.332-3.228z" class="color3c4150 svgShape"/><path fill="#fff" d="M378.417 326.67h6.01a2.437 2.437 0 0 1 2.419 2.34l.202 6.01a2.248 2.248 0 0 1-2.262 2.34h-6.01a2.438 2.438 0 0 1-2.419-2.34l-.202-6.01a2.248 2.248 0 0 1 2.262-2.34z" class="colorfff svgShape"/><path fill="#3c4150" d="M384.787 337.61h-6.011a2.694 2.694 0 0 1-2.669-2.581l-.202-6.01a2.5 2.5 0 0 1 2.512-2.6h6.01a2.694 2.694 0 0 1 2.67 2.582l.2 6.011a2.499 2.499 0 0 1-2.51 2.599zm-6.37-10.69c-.556 0-1.072.216-1.452.608-.38.393-.579.917-.56 1.474l.202 6.01a2.19 2.19 0 0 0 2.169 2.099h6.01a1.999 1.999 0 0 0 2.011-2.082l-.2-6.011a2.19 2.19 0 0 0-2.17-2.098h-6.01z" class="color3c4150 svgShape"/><path fill="#fff" d="M386.947 332.017h5.648"/><path fill="#3c4150" d="M392.595 332.267h-5.648a.25.25 0 0 1 0-.5h5.648a.25.25 0 0 1 0 .5z" class="color3c4150 svgShape"/><path fill="#fff" d="m381.783 337.361.19 5.648"/><path fill="#3c4150" d="M381.972 343.259a.25.25 0 0 1-.25-.242l-.19-5.648a.25.25 0 0 1 .5-.017l.19 5.648a.25.25 0 0 1-.24.259h-.01z" class="color3c4150 svgShape"/><path fill="#fff" d="m381.234 321.022.19 5.648"/><path fill="#3c4150" d="M381.423 326.92a.25.25 0 0 1-.25-.242l-.189-5.648a.25.25 0 0 1 .5-.017l.19 5.649a.25.25 0 0 1-.242.258h-.009z" class="color3c4150 svgShape"/><path fill="#fff" d="M370.624 332.017h5.614"/><path fill="#3c4150" d="M376.238 332.267h-5.613a.25.25 0 0 1 0-.5h5.613a.25.25 0 0 1 0 .5z" class="color3c4150 svgShape"/><g class="color000 svgShape"><path fill="#e1e5e2" d="M429.21 302.503c.673 0 1.294.246 1.754.653.456.402.75.959.772 1.576l1.297 38.637c.042 1.229-1.025 2.23-2.376 2.23-.678 0-1.299-.252-1.755-.654-.46-.402-.75-.959-.77-1.576l-1.298-38.637c-.042-1.234 1.02-2.23 2.376-2.23z" class="colore1e5e2 svgShape"/><path fill="#3c4150" d="M430.657 345.948c-.74 0-1.445-.263-1.985-.74a2.524 2.524 0 0 1-.89-1.827l-1.298-38.638a2.397 2.397 0 0 1 .685-1.755c.998-1.032 2.914-1.078 4.027-.094.55.485.865 1.133.89 1.825l1.296 38.639c.023.65-.22 1.272-.684 1.752-.515.533-1.259.838-2.041.838zm-1.447-43.095c-.595 0-1.156.226-1.538.621a1.698 1.698 0 0 0-.489 1.246l1.298 38.638c.017.502.248.971.652 1.324.846.747 2.312.719 3.061-.058.331-.342.505-.784.49-1.243l-1.298-38.638c-.017-.497-.25-.968-.653-1.325a2.297 2.297 0 0 0-1.523-.565z" class="color3c4150 svgShape"/><path fill="#e1e5e2" d="M440.054 277.613c.673 0 1.294.247 1.754.653.456.402.75.96.771 1.576l2.134 63.527c.041 1.229-1.025 2.23-2.376 2.23-.678 0-1.3-.252-1.755-.654-.46-.402-.75-.959-.77-1.576l-2.135-63.527c-.041-1.233 1.02-2.229 2.377-2.229z" class="colore1e5e2 svgShape"/><path fill="#3c4150" d="M442.337 345.948c-.74 0-1.446-.263-1.986-.74a2.524 2.524 0 0 1-.89-1.827l-2.133-63.527a2.396 2.396 0 0 1 .685-1.756c.997-1.03 2.912-1.078 4.027-.094.55.486.865 1.134.89 1.826l2.133 63.528a2.39 2.39 0 0 1-.686 1.753c-.515.532-1.258.837-2.04.837zm-2.284-67.985c-.594 0-1.155.227-1.537.621a1.699 1.699 0 0 0-.489 1.246l2.134 63.528c.016.502.248.971.652 1.324.846.747 2.312.72 3.06-.058.332-.342.506-.784.49-1.243l-2.133-63.527c-.017-.498-.25-.968-.653-1.325a2.297 2.297 0 0 0-1.524-.566z" class="color3c4150 svgShape"/><path fill="#e1e5e2" d="M426.104 210.05c.673 0 1.295.252 1.755.654.456.402.75.959.771 1.575l1.36 40.47c.041 1.233-1.025 2.229-2.377 2.229-.678 0-1.299-.251-1.754-.653-.46-.402-.75-.96-.771-1.576l-1.36-40.47c-.041-1.233 1.02-2.228 2.376-2.228z" class="colore1e5e2 svgShape"/><path fill="#3c4150" d="M427.614 255.328c-.74 0-1.445-.263-1.986-.741a2.524 2.524 0 0 1-.89-1.826l-1.36-40.47a2.396 2.396 0 0 1 .686-1.756c.993-1.027 2.897-1.08 4.025-.095.552.487.869 1.136.891 1.828l1.36 40.47a2.396 2.396 0 0 1-.686 1.754c-.514.531-1.258.836-2.04.836zm-1.51-44.927c-.595 0-1.155.226-1.537.62a1.699 1.699 0 0 0-.49 1.247l1.36 40.47c.017.501.248.97.652 1.323.847.748 2.313.72 3.062-.056.331-.342.504-.784.49-1.244l-1.36-40.47c-.017-.498-.25-.968-.653-1.324a2.312 2.312 0 0 0-1.524-.566z" class="color3c4150 svgShape"/><g class="color000 svgShape"><path fill="#e1e5e2" d="M427.81 260.852c.674 0 1.295.252 1.755.654.456.401.75.959.772 1.575l1.05 31.293c.042 1.233-1.024 2.229-2.375 2.229a2.633 2.633 0 0 1-1.755-.653c-.46-.402-.75-.96-.771-1.576l-1.051-31.293c-.042-1.228 1.02-2.229 2.376-2.229z" class="colore1e5e2 svgShape"/><path fill="#3c4150" d="M429.011 296.953a2.979 2.979 0 0 1-1.988-.742 2.526 2.526 0 0 1-.887-1.825l-1.051-31.293a2.395 2.395 0 0 1 .685-1.755c.995-1.029 2.897-1.082 4.026-.096.551.487.868 1.135.89 1.827l1.05 31.293a2.389 2.389 0 0 1-.684 1.754c-.513.532-1.257.837-2.04.837zm-1.2-35.75c-.595 0-1.155.226-1.538.622a1.698 1.698 0 0 0-.49 1.244l1.053 31.293c.016.502.248.972.65 1.324.839.747 2.312.722 3.063-.056.33-.342.504-.784.489-1.244l-1.051-31.293c-.017-.498-.25-.968-.653-1.325a2.312 2.312 0 0 0-1.523-.565z" class="color3c4150 svgShape"/></g></g><g class="color000 svgShape"><path fill="#3c4150" d="M417.093 342.367a.56.56 0 0 1-.4.14.556.556 0 0 1-.341-.122l-2.27-1.87-2.217 1.87a.542.542 0 0 1-.346.133.534.534 0 0 1-.398-.157.554.554 0 0 1-.163-.386c-.006-.193.057-.338.19-.435l2.031-1.688-2.144-1.677a.506.506 0 0 1-.22-.423.537.537 0 0 1 .138-.397.476.476 0 0 1 .363-.157c.12 0 .235.04.343.12l2.307 1.907 2.204-1.882a.483.483 0 0 1 .346-.133c.152 0 .285.048.396.145.113.096.171.233.177.409a.476.476 0 0 1-.203.423l-1.993 1.713 2.081 1.616a.586.586 0 0 1 .258.47.479.479 0 0 1-.139.381zm-.225-6.694a.56.56 0 0 1-.399.139.556.556 0 0 1-.342-.121l-2.27-1.87-2.217 1.87a.542.542 0 0 1-.346.133.534.534 0 0 1-.397-.158.56.56 0 0 1-.164-.385c-.006-.194.057-.338.191-.435l2.03-1.688-2.143-1.677a.504.504 0 0 1-.22-.423.538.538 0 0 1 .138-.399.477.477 0 0 1 .362-.156.56.56 0 0 1 .342.121l2.308 1.906 2.205-1.882a.486.486 0 0 1 .345-.132.59.59 0 0 1 .397.143.54.54 0 0 1 .177.41.476.476 0 0 1-.204.423l-1.993 1.713 2.081 1.617a.582.582 0 0 1 .257.47.478.478 0 0 1-.138.381zm-.224-6.695a.562.562 0 0 1-.4.138.56.56 0 0 1-.342-.12l-2.27-1.87-2.218 1.87a.54.54 0 0 1-.345.132.547.547 0 0 1-.56-.542c-.007-.193.057-.338.19-.434l2.03-1.689-2.143-1.677a.501.501 0 0 1-.22-.422.53.53 0 0 1 .138-.399.474.474 0 0 1 .363-.157c.12 0 .234.04.341.121l2.308 1.906 2.205-1.882a.48.48 0 0 1 .345-.132c.153 0 .285.047.397.144a.54.54 0 0 1 .177.41.479.479 0 0 1-.203.423l-1.993 1.713 2.08 1.616a.583.583 0 0 1 .258.47.475.475 0 0 1-.138.38zm-.226-6.695a.558.558 0 0 1-.4.14.558.558 0 0 1-.34-.122l-2.271-1.87-2.217 1.87a.54.54 0 0 1-.346.133.55.55 0 0 1-.56-.542c-.007-.193.056-.338.19-.435l2.03-1.688-2.143-1.677a.503.503 0 0 1-.22-.423.53.53 0 0 1 .139-.398.474.474 0 0 1 .362-.157c.12 0 .234.04.342.12l2.307 1.907 2.205-1.882a.48.48 0 0 1 .345-.133c.153 0 .285.048.398.145a.54.54 0 0 1 .176.41.479.479 0 0 1-.203.423l-1.993 1.713 2.08 1.616a.586.586 0 0 1 .258.47.478.478 0 0 1-.139.38zm-.538-16.023a.56.56 0 0 1-.4.139.558.558 0 0 1-.341-.121l-2.27-1.87-2.217 1.87a.542.542 0 0 1-.346.132.547.547 0 0 1-.56-.542c-.007-.193.056-.337.19-.434l2.03-1.689-2.143-1.676a.503.503 0 0 1-.22-.423.534.534 0 0 1 .138-.399.476.476 0 0 1 .362-.157c.121 0 .235.041.343.121l2.307 1.906 2.204-1.881a.483.483 0 0 1 .346-.133c.152 0 .285.048.397.144.112.097.17.234.176.41a.476.476 0 0 1-.202.423l-1.994 1.713 2.081 1.616a.586.586 0 0 1 .258.471.475.475 0 0 1-.139.38zm-.224-6.694a.56.56 0 0 1-.4.138.556.556 0 0 1-.342-.12l-2.27-1.87-2.217 1.87a.542.542 0 0 1-.346.132.534.534 0 0 1-.397-.157.554.554 0 0 1-.163-.385c-.007-.193.056-.338.19-.434l2.03-1.689-2.143-1.677a.506.506 0 0 1-.22-.423.538.538 0 0 1 .138-.398.476.476 0 0 1 .362-.157.56.56 0 0 1 .342.12l2.308 1.907 2.205-1.882a.483.483 0 0 1 .345-.133c.153 0 .286.048.397.145s.17.233.177.41a.476.476 0 0 1-.203.423l-1.994 1.713 2.081 1.616a.582.582 0 0 1 .257.47.477.477 0 0 1-.137.38zm-.225-6.695a.56.56 0 0 1-.4.139.56.56 0 0 1-.342-.121l-2.27-1.87-2.217 1.87a.54.54 0 0 1-.346.133.533.533 0 0 1-.397-.157.555.555 0 0 1-.164-.386c-.006-.193.058-.337.19-.434l2.031-1.688-2.143-1.677a.501.501 0 0 1-.22-.423.534.534 0 0 1 .138-.398.474.474 0 0 1 .363-.158c.12 0 .234.041.341.122l2.308 1.906 2.205-1.882a.48.48 0 0 1 .345-.133c.153 0 .286.048.397.145s.171.233.177.41a.479.479 0 0 1-.203.423l-1.993 1.713 2.08 1.616a.582.582 0 0 1 .258.47.478.478 0 0 1-.138.38zm-.225-6.694a.562.562 0 0 1-.4.139.558.558 0 0 1-.342-.121l-2.27-1.87-2.217 1.87a.54.54 0 0 1-.346.132.551.551 0 0 1-.56-.543c-.007-.193.056-.337.19-.434l2.03-1.689-2.143-1.676a.501.501 0 0 1-.219-.422.53.53 0 0 1 .138-.399.474.474 0 0 1 .362-.157c.12 0 .234.041.342.121l2.307 1.906 2.206-1.881a.48.48 0 0 1 .344-.133c.154 0 .285.048.398.144a.54.54 0 0 1 .176.41.477.477 0 0 1-.203.422l-1.993 1.713 2.08 1.617c.165.12.251.277.258.47a.481.481 0 0 1-.138.381z" class="color3c4150 svgShape"/><g class="color000 svgShape"><path fill="#3c4150" d="M414.667 270.154a.558.558 0 0 1-.4.138.558.558 0 0 1-.34-.12l-2.271-1.87-2.217 1.87a.54.54 0 0 1-.346.132.551.551 0 0 1-.56-.543c-.007-.192.056-.337.19-.434l2.03-1.688-2.143-1.677a.503.503 0 0 1-.219-.423.53.53 0 0 1 .138-.398.474.474 0 0 1 .362-.157c.12 0 .234.04.342.12l2.307 1.907 2.205-1.882a.48.48 0 0 1 .345-.133c.153 0 .285.048.398.145a.54.54 0 0 1 .176.41.479.479 0 0 1-.203.423l-1.993 1.713 2.08 1.616a.585.585 0 0 1 .258.47.479.479 0 0 1-.139.38zm-.224-6.695a.56.56 0 0 1-.4.139.556.556 0 0 1-.341-.121l-2.271-1.87-2.217 1.87a.542.542 0 0 1-.346.133.534.534 0 0 1-.397-.158.554.554 0 0 1-.163-.385c-.007-.194.057-.338.19-.434l2.03-1.69-2.143-1.676a.503.503 0 0 1-.22-.422.538.538 0 0 1 .138-.398.476.476 0 0 1 .362-.158c.121 0 .236.041.343.121l2.308 1.907 2.204-1.882a.483.483 0 0 1 .346-.133c.152 0 .285.048.396.145.112.096.171.233.177.41a.474.474 0 0 1-.203.422l-1.993 1.712 2.08 1.618c.166.12.252.276.258.47a.482.482 0 0 1-.138.38zm-.225-6.694a.56.56 0 0 1-.4.139.556.556 0 0 1-.341-.121l-2.27-1.87-2.217 1.87a.542.542 0 0 1-.346.132.534.534 0 0 1-.398-.157.56.56 0 0 1-.164-.386c-.005-.193.058-.338.19-.434l2.031-1.689-2.143-1.676a.503.503 0 0 1-.22-.422c-.004-.161.042-.294.138-.399s.218-.157.363-.157a.56.56 0 0 1 .342.121l2.307 1.906 2.205-1.881a.483.483 0 0 1 .346-.133c.152 0 .285.048.396.144s.171.234.177.41-.061.318-.203.422l-1.993 1.713 2.081 1.616a.582.582 0 0 1 .257.471.478.478 0 0 1-.138.38zm-.225-6.694a.562.562 0 0 1-.4.138.56.56 0 0 1-.342-.12l-2.27-1.871-2.217 1.87a.54.54 0 0 1-.346.133.551.551 0 0 1-.56-.543c-.006-.193.057-.338.19-.435l2.03-1.688-2.143-1.677a.503.503 0 0 1-.219-.423.528.528 0 0 1 .138-.397.474.474 0 0 1 .362-.157c.12 0 .235.04.342.12l2.308 1.907 2.205-1.882a.48.48 0 0 1 .344-.133c.154 0 .286.048.398.145.111.097.17.232.177.41a.479.479 0 0 1-.204.422l-1.993 1.713 2.08 1.616a.583.583 0 0 1 .258.47.478.478 0 0 1-.138.382z" class="color3c4150 svgShape"/></g><g class="color000 svgShape"><path fill="#3c4150" d="M413.454 234.045a.558.558 0 0 1-.399.139.558.558 0 0 1-.342-.121l-2.27-1.87-2.217 1.87a.54.54 0 0 1-.346.133.551.551 0 0 1-.56-.543c-.007-.194.056-.338.19-.435l2.03-1.688-2.143-1.677a.502.502 0 0 1-.219-.422.53.53 0 0 1 .138-.398.474.474 0 0 1 .362-.158c.12 0 .234.041.342.121l2.307 1.907 2.206-1.882a.48.48 0 0 1 .344-.133c.154 0 .285.048.398.145.111.096.17.233.177.41s-.063.317-.204.422l-1.993 1.712 2.08 1.617a.586.586 0 0 1 .258.47.479.479 0 0 1-.139.381zm-.224-6.694a.56.56 0 0 1-.4.139.556.556 0 0 1-.341-.122l-2.27-1.87-2.218 1.87a.542.542 0 0 1-.345.133.534.534 0 0 1-.398-.157.554.554 0 0 1-.163-.386c-.007-.193.057-.338.19-.434l2.03-1.689-2.143-1.677a.506.506 0 0 1-.22-.422.537.537 0 0 1 .138-.398.476.476 0 0 1 .362-.157c.122 0 .236.041.343.121l2.308 1.906 2.204-1.882a.483.483 0 0 1 .346-.132c.152 0 .285.047.396.144.112.097.171.234.177.41a.474.474 0 0 1-.203.422l-1.993 1.713 2.08 1.616a.586.586 0 0 1 .258.471.479.479 0 0 1-.138.38zm-.225-6.694a.56.56 0 0 1-.4.138.556.556 0 0 1-.341-.12l-2.27-1.871-2.217 1.87a.542.542 0 0 1-.346.133.534.534 0 0 1-.397-.157.56.56 0 0 1-.165-.386c-.005-.193.058-.338.192-.435l2.03-1.688-2.143-1.677a.504.504 0 0 1-.22-.423.538.538 0 0 1 .138-.398.477.477 0 0 1 .362-.156.56.56 0 0 1 .342.12l2.307 1.906 2.205-1.882a.486.486 0 0 1 .346-.132.59.59 0 0 1 .397.144.54.54 0 0 1 .176.41.476.476 0 0 1-.203.423l-1.993 1.713 2.081 1.616a.582.582 0 0 1 .257.47.478.478 0 0 1-.138.382zm-.224-6.696a.562.562 0 0 1-.4.139.56.56 0 0 1-.343-.121l-2.27-1.87-2.217 1.87a.54.54 0 0 1-.346.133.547.547 0 0 1-.56-.542c-.006-.194.057-.338.19-.435l2.03-1.688-2.142-1.677a.501.501 0 0 1-.22-.423.53.53 0 0 1 .138-.398.474.474 0 0 1 .362-.158c.12 0 .235.041.342.121l2.308 1.907 2.205-1.882a.48.48 0 0 1 .344-.133c.154 0 .286.048.398.145a.54.54 0 0 1 .177.41.479.479 0 0 1-.203.423l-1.994 1.712 2.08 1.617a.583.583 0 0 1 .258.47.476.476 0 0 1-.137.38z" class="color3c4150 svgShape"/></g></g><g class="color000 svgShape"><path fill="#fff" d="m378.417 210.685.996 29.453c.026.765-.912 1.114-1.43.54l-13.293-14.72a.824.824 0 0 1-.037-1.087l12.297-14.726c.486-.574 1.442-.219 1.467.54z" class="colorfff svgShape"/><path fill="#fff" d="m376.115 215.73.653 19.364c.017.502-.598.735-.94.356l-8.742-9.68a.543.543 0 0 1-.024-.712l8.09-9.683c.316-.38.946-.146.963.355zm19.544-6.276h1.156a.62.62 0 0 1 .614.595l1.032 30.724a.573.573 0 0 1-.574.602h-1.156a.623.623 0 0 1-.622-.602l-1.031-30.724a.573.573 0 0 1 .581-.595z" class="colorfff svgShape"/><path fill="#fff" d="M393.814 231.855h1.647c.192 0 .354.157.36.355l.205 6.064a.342.342 0 0 1-.337.356h-1.648a.372.372 0 0 1-.367-.356l-.204-6.064a.34.34 0 0 1 .344-.355zm-14.33 0h1.648c.198 0 .36.157.367.355l.204 6.064a.343.343 0 0 1-.344.356h-1.648a.371.371 0 0 1-.36-.356l-.204-6.064a.338.338 0 0 1 .337-.355zm-.33-9.831h1.647c.199 0 .361.157.368.355l.203 6.064a.338.338 0 0 1-.343.349h-1.648a.365.365 0 0 1-.36-.349l-.204-6.064a.338.338 0 0 1 .337-.355zm14.33 0h1.647c.192 0 .354.157.36.355l.204 6.064a.336.336 0 0 1-.337.349h-1.647a.366.366 0 0 1-.367-.349l-.204-6.064a.34.34 0 0 1 .343-.355zm-14.66-9.832h1.647c.198 0 .36.158.367.35l.204 6.063a.34.34 0 0 1-.344.356h-1.647a.366.366 0 0 1-.36-.356l-.204-6.064a.336.336 0 0 1 .337-.349zm14.33.004h1.647c.191 0 .354.157.36.348l.204 6.065a.338.338 0 0 1-.337.355h-1.647a.368.368 0 0 1-.368-.355l-.203-6.065a.338.338 0 0 1 .343-.348z" class="colorfff svgShape"/><path fill="#fff" d="m381.345 227.633-.149-4.437h11.971l.149 4.437zM380.866 213.358h11.971l.149 4.437h-11.971zM381.675 237.464l-.149-4.437h11.971l.15 4.437z" class="colorfff svgShape"/><path fill="#3c4150" d="m374.96 215.214-8.09 9.683a.796.796 0 0 0 .031 1.04l8.742 9.68c.499.553 1.401.202 1.375-.531l-.653-19.364c-.026-.734-.945-1.06-1.405-.508zm1.054 20.069-8.742-9.68a.295.295 0 0 1-.018-.385l8.088-9.683c.17-.2.514-.07.523.204l.653 19.364c.01.267-.318.386-.504.18z" class="color3c4150 svgShape"/><path fill="#3c4150" d="M397.68 210.04a.873.873 0 0 0-.865-.835h-1.156a.826.826 0 0 0-.831.853l.064 1.906c-.22-.035-.553-.009-1.739-.018a.592.592 0 0 0-.594.607l.019.555h-11.47l-.02-.576a.62.62 0 0 0-.617-.59h-1.647c-.04 0-.075.015-.113.023l-.043-1.288c-.034-.985-1.274-1.446-1.91-.692l-12.296 14.726a1.072 1.072 0 0 0 .042 1.415l13.293 14.72c.67.742 1.9.289 1.867-.717l-.043-1.268c.03.005.059.019.09.019h1.648a.593.593 0 0 0 .594-.614l-.019-.552h11.47l.02.57c.011.328.289.596.618.596h1.647c.037 0 .07-.015.106-.022l.065 1.923a.868.868 0 0 0 .871.844h1.155a.817.817 0 0 0 .593-.25.833.833 0 0 0 .233-.61l-1.033-30.724zm-4.597 2.434a.095.095 0 0 1 .07-.028c1.453.041 1.75-.096 1.759.106l.203 6.066a.095.095 0 0 1-.026.07.086.086 0 0 1-.061.026h-1.648a.117.117 0 0 1-.117-.113l-.204-6.064a.087.087 0 0 1 .024-.063zm-.489 1.134.133 3.937h-11.47l-.132-3.937h11.47zm-13.834-1.14c.01-.01.03-.026.064-.026h1.647c.062 0 .116.05.118.107l.203 6.065c0 .035-.013.058-.025.07s-.033.027-.068.027h-1.649c-.057 0-.108-.052-.11-.114l-.203-6.065a.09.09 0 0 1 .023-.063zm.29 6.743h1.649a.588.588 0 0 0 .593-.614l-.019-.552h11.471l.02.573a.616.616 0 0 0 .616.596h1.648c.037 0 .07-.014.107-.021l.087 2.599c-.03-.005-.059-.019-.09-.019h-1.649a.588.588 0 0 0-.593.614l.019.56h-11.471l-.02-.576a.616.616 0 0 0-.617-.598h-1.647c-.039 0-.073.015-.11.023l-.088-2.604c.032.005.061.019.094.019zm14.34 3.159c0-.035.013-.058.025-.07s.033-.027.068-.027h1.648c.058 0 .109.053.11.114l.204 6.065a.09.09 0 0 1-.023.064.088.088 0 0 1-.064.026h-1.647c-.062 0-.116-.05-.118-.107l-.203-6.065zm-11.935 1.076h11.47l.132 3.937h-11.47l-.132-3.937zm-.332 5.005a.087.087 0 0 1-.024.063.095.095 0 0 1-.07.028h-1.648a.116.116 0 0 1-.11-.107l-.204-6.064a.096.096 0 0 1 .025-.072.086.086 0 0 1 .062-.026h1.647c.064 0 .116.05.118.115l.204 6.063zm-2.955 12.06-13.293-14.72a.577.577 0 0 1-.03-.76l12.295-14.724c.344-.405 1.01-.14 1.028.386l.996 29.453c.017.535-.634.765-.996.364zm3.258-2.16a.089.089 0 0 1-.067.029h-1.647c-.055 0-.109-.055-.11-.114l-.205-6.064a.095.095 0 0 1 .025-.072.086.086 0 0 1 .062-.025h1.647c.064 0 .116.05.118.114l.204 6.064a.092.092 0 0 1-.027.068zm.492-1.137-.133-3.937h11.47l.132 3.937h-11.47zm13.83 1.14a.083.083 0 0 1-.059.026h-1.647a.124.124 0 0 1-.119-.114l-.203-6.064a.093.093 0 0 1 .025-.07.092.092 0 0 1 .07-.027h1.647c.057 0 .108.052.11.114l.204 6.063a.098.098 0 0 1-.027.072zm-.286-6.75h-1.648a.592.592 0 0 0-.594.615l.02.558h-11.472l-.02-.574a.614.614 0 0 0-.617-.598h-1.647c-.038 0-.072.015-.108.022l-.088-2.604c.032.005.06.019.093.019h1.648a.592.592 0 0 0 .594-.607l-.019-.552h11.47l.02.57a.62.62 0 0 0 .617.589h1.647c.037 0 .071-.015.107-.022l.087 2.603c-.03-.005-.058-.018-.09-.018zm2.658 9.424a.322.322 0 0 1-.234.097h-1.155a.369.369 0 0 1-.371-.36l-1.032-30.724a.32.32 0 0 1 .09-.237.33.33 0 0 1 .24-.1h1.157c.194 0 .358.159.364.354l1.033 30.723a.334.334 0 0 1-.092.247z" class="color3c4150 svgShape"/><path fill="#3c4150" d="M374.45 225.237h-.268a1.118 1.118 0 0 0-1.087-.896c-.59 0-1.055.48-1.035 1.071a.694.694 0 0 1-.697.722.752.752 0 0 1-.745-.714l.002-.008-.002-.008a.693.693 0 0 1 .696-.713.168.168 0 0 0 .17-.175.182.182 0 0 0-.181-.175c-.531 0-.96.389-1.026.896h-.268c-.097 0-.172.079-.17.175s.085.175.182.175h.268c.1.508.555.897 1.086.897.59 0 1.055-.48 1.035-1.072a.694.694 0 0 1 .697-.721c.395 0 .727.32.745.713l-.001.008.002.008a.693.693 0 0 1-.697.714c-.097 0-.173.078-.17.175s.085.175.181.175c.532 0 .96-.39 1.026-.897h.269c.096 0 .172-.078.169-.175s-.085-.175-.181-.175z" class="color3c4150 svgShape"/></g></g><g class="color000 svgShape"><path fill="#26a851" d="M287.977 133.462h-31.394l-.106-2.134-.275-5.453h31.394z" class="color26a851 svgShape"/></g><g class="color000 svgShape"><path fill="#67db8a" d="M285.885 131.328h-29.408l-.275-5.453h29.408z" class="color67db8a svgShape"/></g><g class="color000 svgShape"><path fill="#3c4150" d="M287.979 133.812h-31.396a.35.35 0 0 1-.35-.332l-.38-7.587a.349.349 0 0 1 .35-.368h31.395a.35.35 0 0 1 .35.332l.38 7.588a.349.349 0 0 1-.35.367zm-31.063-.7h30.694l-.345-6.887H256.57l.346 6.887z" class="color3c4150 svgShape"/></g><g class="color000 svgShape"><path fill="#fff" d="m488.685 197.53-.87-9.938s-5.425.77-6.72-.421c-1.254-1.154-.186-5.926-.186-5.926s-3.788.347-3.486-.434c1.786-4.61 1.1-14.17 1.1-14.17s13.74-4.074 18.3 0c4.56 4.073 1.033 17.447 1.033 17.447l.486 10.64-9.657 2.803zm-35.508 27.644 24.49-1.03 7.842-19.969 14.225-.503s-.965 4.708-2.535 10.693c-2.59 9.886-6.815 23.239-11.015 24.55-3.478 1.088-21.986-.702-33.007-1.864v-11.877z" class="colorfff svgShape"/><path fill="#f5f5f5" d="M453.188 234.674c.143.009.282.019.434.025 4.949.206 9.915.4 14.833-.13 4.92-.52 9.833-1.806 14.054-4.386 6.2-3.782 10.445-9.991 14.49-16.019.07.067.14.133.2.2-2.59 9.887-6.815 23.24-11.015 24.552-3.477 1.087-21.973-.701-32.996-1.864v-2.378z" class="colorf5f5f5 svgShape"/><path fill="#fff" d="m477.671 224.142 4.709-.429"/><path fill="#fff" d="M474.751 286.26s15.759-11.803 20.449-8.806c13.342 8.525 28.21 12.106 28.21 12.106-5.57-21.611-3.15-62.792-6.387-78.896-3.244-16.113-21.823-17.197-21.823-17.197s-7.32 5.764-9.529 10.354c-3.772 7.84-5.405 36.42-5.405 36.42l-1.634 13.638-3.88 32.382zM453.373 408.431l-5.313 12.343-11.472-5.887 6.07-11.593z" class="colorfff svgShape"/><path fill="#fff" d="M420.07 415.717c5.734 2.915 24.73 12.366 28.077 11.132 1.956-.723 2.993-2.734 3.322-4.8.346-2.113-.047-4.289-.95-5.224-.432-.447-1.36-.785-2.42-1.029-2.301-.542-5.24-.676-5.24-.676s-1.005-5.208-2.427-5.954c-1.988-1.037-6.52 1.767-8.751 1.948-1.17.094-2.93-.346-4.706-.739-2.043-.455-4.1-.864-5.295-.369-.628.26-1.28 1.092-1.83 2.004-.228.377-.44.77-.629 1.139-.48.942-.094 2.09.849 2.568z" class="colorfff svgShape"/><path fill="#fff" d="m437.109 408.714.838 1.996"/><path fill="#fff" d="M437.383 411.462c0 .432.354.786.786.786s.785-.354.785-.786c0-.432-.353-.785-.785-.785s-.786.353-.786.785z" class="colorfff svgShape"/><path fill="#fff" d="m434.467 409.56.837 1.995"/><circle cx="435.526" cy="412.308" r=".786" fill="#fff" class="colorfff svgShape"/><path fill="#fff" d="m431.709 410.481.837 1.996"/><path fill="#fff" d="M431.982 413.229c0 .432.354.786.786.786a.788.788 0 0 0 .786-.786.788.788 0 0 0-.786-.786.788.788 0 0 0-.786.786zM539.279 397.186l6.067 11.991-11.874 5.029-5.006-12.09z" class="colorfff svgShape"/><path fill="#fff" d="M523.52 427.416c5.913-2.532 25.344-11.052 26.543-14.411.7-1.965-.179-4.05-1.553-5.627-1.4-1.62-3.322-2.714-4.619-2.62-.62.044-1.474.54-2.34 1.197-1.893 1.419-3.879 3.588-3.879 3.588s-4.642-2.567-6.126-1.954c-2.07.86-2.824 6.137-4.115 7.965-.678.959-2.144 2.027-3.584 3.138-1.659 1.275-3.292 2.593-3.678 3.827-.204.648.017 1.683.364 2.689.143.416.309.831.471 1.212a1.912 1.912 0 0 0 2.516.996z" class="colorfff svgShape"/><path fill="#fff" d="m529.069 409.849 2.069.637"/><path fill="#fff" d="M531.354 411.4a.788.788 0 0 0 1.106-.098.788.788 0 0 0-.099-1.107.788.788 0 0 0-1.106.1.788.788 0 0 0 .099 1.106z" class="colorfff svgShape"/><path fill="#fff" d="m528.024 412.419 2.068.637"/><path fill="#fff" d="M530.308 413.97a.788.788 0 0 0 1.107-.098.788.788 0 0 0-.1-1.107.788.788 0 0 0-1.106.1.788.788 0 0 0 .1 1.106z" class="colorfff svgShape"/><path fill="#fff" d="m526.963 415.127 2.068.636"/><path fill="#fff" d="M529.247 416.678a.788.788 0 0 0 1.107-.099.788.788 0 0 0-.1-1.106.788.788 0 0 0-1.106.099.788.788 0 0 0 .1 1.106z" class="colorfff svgShape"/><path fill="#67db8a" d="m479.38 279.625 8.74 26.21 13.11 39.327 26.698 58.895c.219.472.743.7 1.232.542l9.876-3.303a3.925 3.925 0 0 0 2.613-4.414c-.009-.061-.026-.122-.035-.183-5.829-31.83-21.875-64.06-21.875-64.06-2.464-21.867 3.601-49.877-11.763-58.738-6.31-3.645-28.595 5.724-28.595 5.724z" class="color67db8a svgShape"/><path fill="#26a851" d="m488.12 305.834 13.11 39.328 26.698 58.895c.219.472.743.7 1.232.542l9.876-3.303a3.925 3.925 0 0 0 2.613-4.414c-.009-.061-.026-.122-.035-.183-2.29.856-4.536 2.036-6.834 1.407-3.164-.866-4.475-4.702-4.43-7.988.043-3.277.917-6.633.017-9.797-1.408-4.92-6.599-7.735-9.116-12.192-4.22-7.454-.096-17.653-4.553-24.968-2.097-3.461-5.785-5.637-8.276-8.827-2.92-3.74-3.985-8.556-5.156-13.153-1.172-4.606-2.657-9.395-6.136-12.629-2.21-2.053-5.803-3.023-9.01-2.718z" class="color26a851 svgShape"/><path fill="#67db8a" d="m441.268 406.102 6.257 3.146a7.564 7.564 0 0 0 6.704.044 7.567 7.567 0 0 0 3.155-2.823c16.727-26.708 23.63-70.684 23.63-70.684s30.51-28.369 33.552-44.52l-25.537-11.605-10.365-4.72-2.78 8.04-16.796 48.522-18.44 73.202c-.158.55.104 1.145.62 1.398z" class="color67db8a svgShape"/><path fill="#26a851" d="m441.268 406.102 6.257 3.146a7.564 7.564 0 0 0 6.704.044c.83-.402 1.599-.952 2.245-1.643-1.118-2.124-2.115-4.265-2.184-6.633-.166-5.191 4.09-9.378 5.794-14.29 3.88-11.124-5.768-23.78-1.495-34.756 2.823-7.245 10.864-11.256 14.316-18.222 5.06-10.207-1.171-23.369 3.95-33.55 3.102-6.18 9.98-10.2 11.824-16.868a10.67 10.67 0 0 0 .35-3.67l-10.365-4.72-2.78 8.04-16.796 48.522-18.44 73.202c-.158.55.104 1.145.62 1.398z" class="color26a851 svgShape"/><path fill="#f5f5f5" d="M474.749 286.258s15.757-11.798 20.45-8.8c13.345 8.52 28.21 12.104 28.21 12.104-5.566-21.613-3.145-62.793-6.388-78.9-2.884-14.333-17.915-16.771-21.193-17.13-.646 1.233-1.048 2.596-1.005 4.257.096 3.417 2.106 6.712 5.104 8.346 3.059 1.678 6.93 1.687 9.675 3.836 3.967 3.103 3.827 9.16 2.412 13.992-1.416 4.833-3.758 9.701-2.92 14.665.516 3.094 2.23 5.838 3.846 8.521 1.626 2.683 3.234 5.506 3.513 8.635.28 3.12-1.136 6.615-4.055 7.778-2.761 1.092-5.969-.149-8.835.638-3.444.952-5.471 4.518-8.582 6.283-3.566 2.028-7.988 1.425-12.06.944-2.08-.253-4.292-.41-6.372-.166l-1.8 14.997z" class="colorf5f5f5 svgShape"/><path fill="#fff" d="M495.198 178.843c.705-.323 1.391-1.009 1.829-1.933.78-1.637.524-3.38-.571-3.913-1.105-.523-2.619.381-3.4 2.01-.4.827-.523 1.694-.4 2.399m-8.557 5.878s-2.088.76-3.555.352" class="colorfff svgShape"/><path fill="#3c4150" d="M495.867 176.2a.35.35 0 0 1-.35-.351.6.6 0 0 0-.594-.603.35.35 0 0 1 0-.7 1.3 1.3 0 0 1 1.293 1.303.35.35 0 0 1-.35.35z" class="color3c4150 svgShape"/><path fill="#fff" d="M449.466 249.635s-6.465.997-8.862.683c-1.926-.3-1.474 2.09 2.26 2.004-1.379.268-2.697.404-3.517.31-1.618-.251-1.551 1.436.796 1.905-1.022.112-.527 1.58 1.461 2.001l.02-.01.093.03c-.03-.01-.082-.01-.113-.02-2.242-.214-1.435 2.035 5.61 1.471 3.17-.253 8.885-2.2 9.283-2.378.073-.86-.041-2.189-.372-3.587-.352-1.49-.824-2.713-1.28-3.303-.01-.02-.03-.01-.03-.01-.165-.07-4.863-3.883-5.267-2.666-.059.177-.082 3.57-.082 3.57zm-6.844 2.68s.839.03 1.866-.088m-4.365 2.346s1.509.11 3.038-.292m-1.59 2.238s1.063.153 2.593-.25" class="colorfff svgShape"/><path fill="#fff" d="m449.394 249.596 1.717.757"/><path fill="#fff" d="M454.169 255.376a2.13 2.13 0 0 0 2.165 1.823c8.151-.236 40.102-1.28 44.482-3.338 4.265-2 6.807-16.774 8.118-27.635.796-6.574 1.137-11.707 1.137-11.707l-17.28 6.989-3.15 17.925-31.77 5.717c-.374.066-.72.166-1.055.313a5.3 5.3 0 0 0-3.258 5.667l.61 4.246z" class="colorfff svgShape"/><path fill="#f5f5f5" d="M454.169 255.376a2.13 2.13 0 0 0 2.165 1.823c8.151-.236 40.102-1.28 44.482-3.338 4.265-2 6.807-16.774 8.118-27.635a4.145 4.145 0 0 0-.241-.183c-3.414 6.979-7.016 14.18-13.041 19.09-4.102 3.35-9.126 5.427-14.268 6.693-5.139 1.276-10.433 1.79-15.711 2.29-2.234.217-4.837.3-6.348-1.366-.855-.94-1.154-2.236-1.364-3.494-.217-1.285-.387-2.712-1.145-3.793a5.3 5.3 0 0 0-3.258 5.667l.61 4.246z" class="colorf5f5f5 svgShape"/><path fill="#fff" d="m489.644 239.43 4.932-1.138"/><g class="color000 svgShape"><path fill="#fff" d="M451.728 231.125c.12 3.276.826 5.936 1.574 5.936.75 0 1.26-2.66 1.14-5.936-.12-3.285-.825-5.945-1.574-5.945-.749 0-1.26 2.66-1.14 5.945z" class="colorfff svgShape"/></g><g class="color000 svgShape"><path fill="#fff" d="M448.69 224.632s4.881 2.258 5.253 2.503c.264 1.052.445 2.45.5 3.993.054 1.398-.01 2.686-.164 3.703-.572.181-3.757 1.452-5.254 1.647l-.334-11.846z" class="colorfff svgShape"/></g><g class="color000 svgShape"><path fill="#fff" d="M452.863 225.183a.08.08 0 0 0-.045.01h.082c-.01-.01-.028-.01-.037-.01z" class="colorfff svgShape"/></g><g class="color000 svgShape"><path fill="#fff" d="M449.551 225.038s-.944-.363-1.806-.808c-.427-.226-.835-.462-1.098-.69-.39-.335-.899-.144-1.125.346-.382.835.045 2.559 3.221 4.156.272.136 1.098.49 1.098.49" class="colorfff svgShape"/></g><g fill="#3c4150" class="color000 svgShape"><path d="M548.772 407.144c-1.48-1.71-3.5-2.84-4.91-2.74-.15.01-.31.04-.48.1l-2.2-4.34c.7-.93 1.03-2.13.81-3.34-5.63-30.96-21.15-62.74-21.91-64.28-.69-6.19-.7-12.95-.71-19.49-.01-6.86-.02-13.57-.77-19.56 1.76-.41 2.91-1.01 3.67-1.62 1.21-.96 1.43-1.96 1.47-2.22.01-.02.02-.04.01-.07.01-.03.01-.07 0-.11-3.18-12.33-3.75-31.21-4.26-47.87-.38-12.39-.73-24.09-2.13-31.01-2.01-9.96-9.86-14.28-15.64-16.12-.06-.62-.28-3.01-.68-3.76-.19-.34-.51-.57-.94-.66-.43-.1-.98-.06-1.62.09l-.12-2.73c.8-1.44 8.34-15.37 5.26-20.79-.72-1.28-1.97-1.99-3.71-2.12.12-1.08.22-4.1-1.81-6.29-1.77-1.9-4.67-2.65-8.65-2.22-7.93.86-16.18 6-16.33 10.18-.05 1.44.81 3.32 5.17 4.18.03 3.17-.15 7.64-1.19 10.33-.08.19-.05.38.06.54.39.51 2.08.5 3.31.41-.25 1.3-.78 4.73.39 5.79 1.21 1.13 5.31.73 6.64.56l.66 7.63c-.24.17-.47.33-.69.49-1.2.86-.53 4.03-.35 4.81-1.1 1.42-1.86 2.67-2.45 4.44l-7.25 18.45s-.05 0-.18.01c-.06 0-.14.01-.21.01h-.11c-.06 0-.12.01-.17.01h-.05c-.03 0-.06 0-.09.01-.15 0-.25.01-.25.01-2.15.09-8.2.35-23.41.99-.02-.01-.05-.01-.08-.01-.49 0-.77.47-.94.93-1.36-.66-2.39-1.12-3.06-1.43l-.61-17.97c-.13-3.97-3.35-7.16-7.32-7.25h-68.18l-.19-5.95c-.13-4.05-3.52-7.34-7.57-7.34h-5.18l-1.13-34.98c-.25-7.69-6.7-13.94-14.38-13.94h-14.06l-2.58-51.76c-.24-4.87-4.4-8.83-9.27-8.83h-80.86c-4.88 0-8.67 3.97-8.42 8.86l.63 12.66c.01.18.16.33.35.33h16.66l1.93 38.74c-18.85.01-6.91-.01-27.95.01-7.78 0-13.81 6.24-13.56 13.94l7.29 224.8c.25 7.69 6.73 13.94 14.44 13.94h123.57c7.67 0 13.75-6.16 13.5-13.96l-.06-1.95h5.15c4.1 0 7.24-3.31 7.12-7.35l-.32-9.79h68.17c1.94 0 3.74-.76 5.06-2.13 1.27-1.31 1.96-3.03 1.96-4.88v-.26l-3.07-91.37c1.53-.35 3.16-.81 4.42-1.21.45.53 1.13.86 1.86.86h.07c4.26-.13 12.96-.41 21.6-.88-.01.07-.01.13-.02.18 0 .01 0 .01-.01.02.01 0 .01.01 0 .03v.03c0 .01-.01.03-.01.05v.04c0 .02-.01.04-.01.05v.02c0 .02-.01.03-.01.04v.02c-.19 1.61-.94 7.87-3.47 29.01l-15.66 45.25-18.45 73.2c-.15.57.04 1.17.46 1.56l-1.27 2.42c-.58-.03-1.24.09-1.94.28l-.12-.29a.345.345 0 0 0-.46-.19c-.18.07-.26.28-.19.46l.09.22c-.63.2-1.29.44-1.94.69l-.14-.34a.357.357 0 0 0-.46-.19c-.18.08-.26.28-.19.46l.13.31c-.77.29-1.5.55-2.1.68l-.14-.34a.357.357 0 0 0-.46-.19c-.18.08-.26.28-.19.46l.07.16c-.98.03-2.35-.28-3.81-.61l-.59-.13c-2.18-.49-4.23-.88-5.51-.35-1.1.45-2.09 2.26-2.63 3.31-.55 1.06-.16 2.44 1 3.04 3.42 1.73 24.75 12.55 28.36 11.14 1.84-.68 3.14-2.53 3.54-5.07.37-2.24-.06-4.51-1.04-5.52a2.68 2.68 0 0 0-.39-.32l2.64-6.14c1.87-.5 3.55-1.69 4.66-3.46 16.14-25.79 23.24-68.13 23.66-70.7.87-.81 6-5.64 12.01-12.16l6.17 17.32v.01l1.39 4.17 26.7 58.9c.23.5.71.79 1.23.79.13 0 .28-.02.41-.06l1.25 3.01c-.4.43-.73 1.01-1.03 1.66l-.3-.09a.357.357 0 0 0-.44.23c-.05.19.05.38.23.44l.23.07c-.26.62-.49 1.28-.72 1.94l-.35-.11a.342.342 0 0 0-.43.23c-.06.19.04.38.23.44l.32.1c-.27.78-.54 1.5-.83 2.05l-.35-.11a.342.342 0 0 0-.43.23c-.06.18.04.38.23.44l.16.05c-.6.77-1.72 1.62-2.9 2.53-1.33 1.05-3.78 2.74-4.29 4.37-.2.64-.07 1.62.37 2.91.15.42.31.85.48 1.23a2.253 2.253 0 0 0 2.98 1.18c7.63-3.27 25.53-11.24 26.73-14.61.66-1.86.07-4.04-1.62-5.98zm-60.96-219.9h-.03c-.1 0-5.3.74-6.45-.33-.46-.42-.55-1.6-.48-2.86.94.17 2.65-.13 3.37-.44a.36.36 0 0 0 .21-.45.36.36 0 0 0-.45-.21c-.02.01-1.75.63-3.07.41.08-.74.21-1.46.34-2.04a.353.353 0 0 0-.37-.43c-1.35.13-2.72.09-3.09-.06 1.04-2.8 1.23-7.2 1.22-10.37 1.79.22 8.74.98 11.78.32-.35.45-.65 1.02-.69 1.69-.09 1.44 1.17 2.81 2.27 3.43-.12.54-.14 1.08-.06 1.56.03.19.21.32.4.29.19-.04.32-.22.29-.41-.48-2.44 2.58-5.47 3.81-3.57.87 1.32-.13 4.02-1.76 4.75a.351.351 0 0 0 .29.64c.33-.15.65-.37.94-.64l-.31 4.31c-.13 1.73.48 3.41 1.69 4.65l.13 2.85c-2.62.81-6.27 3.01-8.97 4.83l-.63-7.27c.89-.11 1.75-.39 2.61-.83.17-.09.23-.3.15-.47a.35.35 0 0 0-.48-.15c-.87.45-1.74.71-2.66.8zm-4.57 23.66c-.77 3.77-1.39 8.24-1.88 12.55l-3.17.29 5.05-12.84zm-28.82 14.57c.25-.01.35-.01.35-.01 2.1-.09 8.03-.34 22.93-.97l3.58-.33c-.7 6.31-1.12 12.15-1.28 14.71-5.39-.15-14.04-.84-25.9-2.08 1.09-2.03.86-9.23-.37-11.29 0 0 .17-.01.69-.03zm-4.84 20.08-.3-8.76c.77-.14 1.85-.48 2.83-.82.27.82.65 1.4 1.14 1.44h.05c12.31 1.3 21.15 2.01 26.66 2.16-.06 1-.07.78-.12 1.27l-22.03 3.96c-1.75.33-3.15 1.38-3.94 2.8-2.31-1.68-3.55-2.3-4.21-2.09-.03.01-.06.02-.08.04zm4.05-18.19c.01.02.02.04.02.07.79 2.58.31 7.04.31 7.14-.05.01-1.67.6-1.71.62-.11.04-.23.08-.34.12-.88.3-1.83.61-2.55.75l-.21-7.45c.28.13.55.24.55.24l.28-.64c-1.61-.7-4.39-2.13-4.21-3.87.22.26.56.42.94.42.29 0 .57-.1.78-.27.03.02.06.03.09.05.34.18 4.06 1.74 6.05 2.82zm-88.63-40.84c3.67 0 6.76 2.99 6.87 6.66l.19 5.93h-11.79l-.41-12.59h5.14zm-31.26-35.62h-2.8l-.11-2.27h5.48c1.45 0 2.73 1.19 2.85 2.65v.13c0 1.49-1.09 2.45-2.4 2.45h-92.58c-1.45 0-2.73-1.18-2.84-2.64-.08-1.58 1.05-2.59 2.39-2.59h5.54l.11 2.27h-2.75c-.19 0-.35.15-.35.35 0 .19.16.35.35.35h87.11c.19 0 .35-.16.35-.35 0-.2-.16-.35-.35-.35zm-103.31-53.44-.61-12.32c-.23-4.56 3.29-8.13 7.72-8.13 4.49 0 8.34 3.63 8.57 8.16l.61 12.29h-16.29zm16.38-12.32c-.19-3.71-2.61-6.8-5.78-8.13 3.18 0 6.27.02 77.37 0 4.5 0 8.35 3.66 8.57 8.16.01.16 3.27 65.58 3.28 65.73h-80.16c-1.1-22.1-.87-17.53-3.28-65.76zm-17.9 303.75c-7.34 0-13.5-5.95-13.74-13.26l-7.29-224.8c-.25-7.27 5.46-13.22 12.86-13.22h5.6c-2 .7-3.78 1.72-5.4 3.4h-.01c-2.52 2.62-3.87 6.05-3.76 9.85l7.29 224.79c.22 6.07 4.23 11.3 10.04 13.24h-5.59zm123.57 0h-113.58c-7.34 0-13.5-5.95-13.74-13.26l-7.29-224.79c-.22-7.34 5.49-13.23 12.86-13.23.01 0 .03 0 .04-.01h17.95l.51 10.33h-5.5c-1.75 0-3.23 1.42-3.08 3.35.13 1.81 1.72 3.28 3.53 3.28h92.58c1.85 0 3.25-1.53 3.09-3.34-.14-1.82-1.73-3.29-3.54-3.29h-5.51l-.52-10.33h14.03c7.31 0 13.45 5.95 13.68 13.26 7.25 223.54 7.21 222.44 7.29 224.79.25 7.37-5.51 13.24-12.8 13.24zm18.59-15.91h-5.17l-.53-16.44h11.8l.32 9.81c.12 3.63-2.72 6.63-6.42 6.63zm81.49-23.69c.06 1.8-.58 3.5-1.82 4.78-1.23 1.27-2.9 1.97-4.7 1.97h-80.69l-5.07-156.43h80.66c3.63.09 6.7 3.12 6.82 6.77l.6 17.74c-.28-.13-.43-.19-.45-.2-.35-.19-.78-.43-1.04-.65-.25-.21-.55-.3-.86-.23-.34.07-.64.33-.81.7-.39.87-.15 2.79 3.24 4.54.42 12.596-.297-6.417.7 19.17v.03c-.01.46-.02 1.06-.02 1.85-1.29.19-6.44.9-8.46.64-1.31-.21-1.79.66-1.39 1.37.18.35.57.7 1.18.95-.42.03-.77.02-1.05-.01-.98-.15-1.42.3-1.5.73-.1.57.37 1.26 1.45 1.66-.05.09-.07.19-.08.3-.02.48.35 1.06 1.08 1.47-.04.05-.09.1-.12.15-.13.2-.12.44.01.66.37.6 1.84 1.2 4.81 1.2.66 0 1.39-.03 2.19-.1.66-.05 1.44-.18 2.25-.34l3.07 91.28zm-5.38-91.63c-4.5.36-6.04-.44-6.3-.73.45-.2 1.33.21 3.37-.33.19-.05.3-.24.25-.42a.349.349 0 0 0-.43-.25c-.99.26-1.97.3-2.49.24-1.14-.27-1.61-.88-1.61-1.15v-.01c.01-.02.01-.07.08-.1 1.16.03 2.03.01 3.2-.29.19-.05.3-.24.25-.43a.353.353 0 0 0-.43-.25c-.77.2-1.58.3-2.77.28l-.09-.03c-1.22-.24-1.66-.82-1.62-1.05.02-.13.28-.23.72-.16.81.09 2.09-.02 3.59-.32.34 0 .94-.01 1.63-.09.19-.02.33-.19.3-.39a.335.335 0 0 0-.38-.3c-1.24.14-1.8.05-1.91.09-2.6-.05-3.46-1.54-1.98-1.31 1.97.256 7.616-.422 8.87-.67l1.54.68c.04.02.09.03.14.03.13 0 .26-.08.32-.21.08-.18 0-.38-.18-.46l-1.44-.64c0-.1.03-3.03.06-3.21.12-.07.77-.07 3.69 2.06-.37.91-.5 1.92-.35 2.94l.61 4.24c.03.24.1.46.2.67-1.864.569-4.905 1.425-6.84 1.57zm28.3 25.39.01-.01c2.26-18.9 2.93-24.52 3.11-25.97l.01-.1v-.03c.01-.03.01-.05.01-.08.01-.03.01-.07.01-.09.01-.03.01-.06.01-.07 0-.02.01-.04.01-.06 10.12-.56 19.98-1.37 22.31-2.47 4.34-2.03 6.92-16.3 8.32-27.91.79-6.5 1.13-11.67 1.14-11.72.01-.2-.14-.36-.33-.37s-.36.13-.37.32c0 .05-.35 5.2-1.14 11.69-1.95 16.16-4.76 25.88-7.91 27.36-2.06.97-10.95 1.78-21.94 2.39-.23.01-.47.03-.7.04-6.85.37-14.46.67-21.71.87-.01.01-.03.01-.05.01-.92 0-1.63-.69-1.76-1.53l-.61-4.24c-.39-2.75 1.54-5.17 4.03-5.59 41.79-7.53 28.91-5.16 36.72-6.86a.34.34 0 0 0 .26-.42.336.336 0 0 0-.42-.26l-4.42 1.02c2.19-12.46 2.84-16.17 3.01-17.13 0 0 0-.02.01-.04v-.02c0-.01 0-.02.01-.04v-.01c0-.02.01-.04.01-.06s.01-.04.01-.06v-.01c0-.01.01-.03.01-.04v-.01a.327.327 0 0 0-.28-.39c-.2-.03-.37.09-.41.28 0 0 0 .01-.01.04v.03c0 .01-.01.01 0 .02-.01.01-.01.02-.01.03v.02c-.01.01-.01.01-.01.02v.04c-.01.01-.01.02-.01.04-.15.85-.79 4.49-3.06 17.45l-8.78 1.58c.6-8.35 1.98-26.93 4.75-35.07.55-1.46.94-2.53 2.44-4.39 5.15-2.89 8.54-5.41 13.4-6.24 5.65 1.73 13.55 5.88 15.53 15.72 1.38 6.86 1.73 18.53 2.11 30.89.45 14.72.91 33.76 4.13 47.45-.04-.01-.09-.02-.14-.04-16.59-4.54-27.37-11.9-27.58-11.97-.01-.01-.02-.02-.04-.02h-.01c-.5-.31-1.31-.41-1.89-.41-4.96 0-14.38 6.1-18.07 8.87l.29-2.45zm-37.48 128c.04-.01.18-.05.21-.02.22.01.39.2.39.43 0 .24-.19.43-.43.43-.23 0-.44-.19-.44-.43 0-.18.11-.34.27-.41zm13.05 11.32c-.14.7-.45 1.71-1.07 2.59v.01c-.01-.01-.02 0-.03 0-2.16.8-11.63-2.89-25.35-9.87a.35.35 0 0 0-.47.15c-.08.17-.02.38.16.47 7.63 3.89 20.44 10.05 24.94 10.05h.03c-.35.31-.76.57-1.24.75-2.53.94-16.02-5.13-27.79-11.12a1.558 1.558 0 0 1-.7-2.1c.13-.24.26-.5.41-.75 2.41 1.91 5.98 1.03 7.24-1.77l.31.07c1.61.36 3.13.7 4.22.61h.03l.35.85a1.137 1.137 0 0 0 .68 2.05 1.135 1.135 0 0 0 0-2.27l-.32-.75c.63-.15 1.35-.41 2.1-.68l.3.73a1.136 1.136 0 0 0 .67 2.05c.63 0 1.14-.51 1.14-1.14 0-.62-.51-1.13-1.14-1.13l-.32-.76c.64-.25 1.31-.5 1.95-.69l.34.82a1.137 1.137 0 0 0 .68 2.05h.01c.62-.01 1.12-.51 1.12-1.13 0-.5-.3-.91-.75-1.07a.985.985 0 0 0-.38-.07h-.01l-.33-.8c.46-.13.9-.21 1.29-.23.28-.02.54-.01.76.05.14.03.27.07.39.13.92.49 1.87 3.76 2.24 5.71.04.16.17.28.33.29.03 0 2.56.11 4.73.57-1.27 2.58.34 5.95 3.48 6.33zm-18.72-9.14c0-.25.2-.44.44-.44s.43.19.43.44c0 .24-.19.43-.43.43s-.44-.19-.44-.43zm2.76-.93c0-.24.19-.43.43-.43s.44.19.44.43-.2.44-.44.44-.43-.2-.43-.44zm14.67 3.64c-1.72-.72-4.74-1.04-6.61-1.16-.25-1.17-1.18-5.2-2.56-5.93-.12-.06-.24-.11-.37-.15l1.13-2.16 6.01 3.02c1.55.78 3.3 1.01 4.82.75l-2.42 5.63zm79.45-11.73s-.01 0-.03.01c-.02 0-.03.01-.05.02-.02 0-.05.01-.08.02-.02.01-.04.01-.07.02-.3.07-.6-.08-.73-.37l-26.69-58.86-1.34-4.03 12.93-44.29c0-.02.01-.03.01-.05.74-1.66 1.41-3.54 1.75-5.35.03-.19-.09-.37-.28-.41s-.38.09-.41.28c-.38 1.98-1.25 4.35-2.04 5.92v.01c-4.09 8.87-12.66 18.63-18.81 25.56-.01 0-7.21 7.87-12.59 12.84-.06.05-.1.12-.11.2-.07.44-7.09 44.21-23.58 70.56a7.24 7.24 0 0 1-9.41 2.64l-6.26-3.14c-.01-.01-.02-.01-.02-.01a.864.864 0 0 1-.29-.28c-.15-.2-.2-.46-.13-.71l18.44-73.18 15.6-45.05c5.47-1.25 14.5-6.27 19.37-9.08.48.13.6.29.66.29 3.56 2.49 12.3 6.99 21.85 10.2 1.82 7.58 1.76 17.21 1.77 25.09.01 6.57.02 13.37.72 19.62.01.04.02.08.04.11.16.33 16.14 32.68 21.87 64.15.31 1.73-.71 3.48-2.38 4.02-7.11 2.37-9.19 3.07-9.71 3.25zm.71.49 9.22-3.07c.59-.2 1.11-.51 1.54-.91l2.04 4.05c-.41.21-.87.51-1.38.9-1.58 1.19-3.2 2.86-3.74 3.43-1.5-.79-5.18-2.64-6.54-1.65l-1.14-2.75zm19.81 8.18c-.91 2.55-14.21 9.01-26.35 14.21-.8.34-1.72-.02-2.06-.81-.11-.26-.22-.53-.32-.8 3.04-.61 4.63-3.96 3.28-6.69l.26-.2c1.31-1 2.54-1.94 3.17-2.84.01-.01.01-.02.02-.03l.89.27v.01c-.01.06-.01.11 0 .17.03.31.17.58.4.77.48.41 1.21.34 1.6-.14.4-.48.34-1.2-.14-1.6-.23-.19-.52-.28-.83-.26-.3.03-.58.17-.77.4l-.01.01-.78-.24c.29-.58.55-1.29.82-2.05l.78.24c-.01.02-.01.05-.01.07 0 .32.13.64.4.87a1.14 1.14 0 0 0 1.46-1.75 1.18 1.18 0 0 0-.83-.26c-.3.03-.58.17-.77.41l-.79-.24c.22-.65.46-1.32.71-1.94l.87.27c-.04.25.07.65.4.94.51.41 1.21.31 1.6-.15l.01-.01c.39-.48.32-1.19-.16-1.59-.36-.3-.9-.36-1.3-.1-.11.06-.21.15-.3.25l-.83-.26c.2-.43.41-.81.65-1.13.32-.47.75-.84 1.32-.84 1.26 0 3.85 1.16 5.38 2.01.14.07.32.04.43-.07.02-.03 1.73-1.9 3.46-3.26 1.21 2.59 4.79 3.22 6.75.97.04.03.07.07.1.11.45.52 1.23 1.53 1.56 2.78v.01c-.01.01-.02.02-.02.03-.77 2.16-9.68 7.07-23.83 13.11-.18.08-.26.29-.18.46.08.18.26.27.46.19 7.9-3.38 20.91-9.29 23.73-12.74.01.46-.05.95-.23 1.44zm-20.41 3.23c-.02-.26.15-.45.39-.47h.04c.38 0 .56.45.33.71-.16.18-.39.22-.61.06a.436.436 0 0 1-.15-.3zm1.45-3.18a.43.43 0 0 1 .37.71c-.15.2-.42.21-.61.06-.32-.27-.1-.74.24-.77zm.65-2.1c-.04-.41.47-.61.71-.37.19.15.21.43.06.61-.14.19-.44.21-.61.06a.448.448 0 0 1-.16-.3z" class="color3c4150 svgShape"/><path d="m478.632 256.844-.01.02v.05c0-.02 0-.04.01-.07zm.01-.09-.01.02v.07c0-.03 0-.06.01-.09zm3.62-82.55c-.36 0-.65.42-.65.95 0 .52.29.94.65.94.36 0 .66-.42.66-.94 0-.53-.3-.95-.66-.95zm1.21-1.37c-.6-.32-1.29-.39-1.94-.19-.18.06-.29.25-.23.44.06.18.25.28.44.23.47-.14.97-.1 1.4.13.44.24.76.62.9 1.1.05.15.19.24.34.24.03 0 .07 0 .1-.01.18-.06.29-.25.23-.44-.2-.65-.64-1.18-1.24-1.5z" class="color3c4150 svgShape"/></g></g><g class="color000 svgShape"><path fill="#fff" d="M393.748 127.468v36.02c0 1.212.982 2.194 2.193 2.194h36.971l14.063 11.507c.798.653 1.996.086 1.996-.946v-10.561h7.641a2.193 2.193 0 0 0 2.193-2.193v-36.02a2.193 2.193 0 0 0-2.193-2.194h-60.671a2.193 2.193 0 0 0-2.193 2.193z" class="colorfff svgShape"/><path fill="#3c4150" d="M447.746 177.818c-.355 0-.704-.121-.993-.358l-13.965-11.428H395.94a2.546 2.546 0 0 1-2.543-2.543v-36.02a2.546 2.546 0 0 1 2.543-2.544h60.672a2.545 2.545 0 0 1 2.542 2.543v36.02a2.545 2.545 0 0 1-2.542 2.544h-7.292v10.212c0 .613-.344 1.158-.899 1.42a1.58 1.58 0 0 1-.676.154zm-51.805-52.193a1.845 1.845 0 0 0-1.844 1.843v36.02c0 1.017.827 1.843 1.844 1.843h36.972c.08 0 .159.028.221.08l14.062 11.507c.268.22.616.262.927.114a.854.854 0 0 0 .499-.788v-10.562a.35.35 0 0 1 .35-.35h7.64a1.845 1.845 0 0 0 1.844-1.843v-36.02a1.845 1.845 0 0 0-1.843-1.844H395.94z" class="color3c4150 svgShape"/><path fill="#46c671" d="M398.712 132.242v26.052c0 .91.737 1.646 1.647 1.646h51.843c.91 0 1.646-.736 1.646-1.646v-26.052c0-.895-.736-1.631-1.646-1.631H400.36c-.91 0-1.647.736-1.647 1.631z" class="color46c671 svgShape"/><path fill="#26a851" d="M398.712 140.777v17.517c0 .91.737 1.646 1.647 1.646h51.843c.91 0 1.646-.736 1.646-1.646v-4.708c-1.487-.188-3.018-.202-4.476-.188l-30.24.217c-3.105.03-6.253.044-9.257-.736-2.989-.795-5.892-2.498-7.437-5.185-1.314-2.281-1.776-5.328-3.726-6.917z" class="color26a851 svgShape"/><path fill="#fff" d="M411.87 147.478c-.214.328-.52.59-.913.784s-.85.306-1.368.336v.812c0 .1-.032.182-.096.246a.343.343 0 0 1-.253.098.34.34 0 0 1-.243-.092.333.333 0 0 1-.095-.252v-.812a6.817 6.817 0 0 1-2.276-.537c-.09-.038-.164-.1-.224-.188s-.09-.18-.09-.28c0-.13.043-.242.129-.337a.43.43 0 0 1 .332-.143c.076 0 .146.015.215.046a5.198 5.198 0 0 0 1.914.457v-2.629c-.51-.138-.94-.286-1.29-.446s-.64-.387-.872-.68-.35-.665-.35-1.114c0-.397.096-.763.287-1.098s.477-.613.857-.834c.378-.221.834-.354 1.368-.4v-.8c0-.1.032-.184.095-.252.065-.068.145-.102.243-.102s.18.034.248.102.101.152.101.252v.788c.736.03 1.389.156 1.96.377.21.077.316.23.316.458a.502.502 0 0 1-.125.331.402.402 0 0 1-.327.149.492.492 0 0 1-.18-.046 5.515 5.515 0 0 0-1.644-.309v2.72c.541.13.988.271 1.346.424.356.152.654.379.895.68.24.301.36.7.36 1.195 0 .403-.107.77-.32 1.096zm-4.078-4.034c.252.183.621.339 1.11.468v-2.515c-.45.062-.81.2-1.081.418a1.04 1.04 0 0 0-.406.852c0 .335.125.594.377.777zm3.385 2.868c0-.297-.133-.527-.4-.691-.266-.163-.662-.318-1.188-.463v2.458c1.059-.076 1.588-.51 1.588-1.304zm5.384 1.841c-.09-.038-.161-.094-.214-.166s-.08-.162-.08-.268c0-.13.044-.243.13-.337a.414.414 0 0 1 .321-.144.58.58 0 0 1 .215.046 4.67 4.67 0 0 0 1.79.332c.586 0 1.08-.098 1.481-.292.402-.194.603-.52.603-.977 0-.96-.83-1.44-2.49-1.44h-.179a.451.451 0 0 1-.333-.144.463.463 0 0 1-.14-.336c0-.13.046-.242.14-.337a.45.45 0 0 1 .333-.143h.066c.752 0 1.327-.116 1.724-.349s.597-.577.597-1.035c0-.365-.15-.655-.45-.868-.3-.214-.744-.32-1.33-.32-.63 0-1.212.126-1.746.377a.528.528 0 0 1-.202.046c-.112 0-.21-.04-.293-.12s-.124-.181-.124-.303c0-.175.075-.305.226-.389a4.64 4.64 0 0 1 2.23-.583c.863 0 1.532.18 2.005.537.473.359.71.865.71 1.52 0 .526-.13.94-.39 1.241-.258.3-.584.524-.974.669.428.099.81.307 1.143.623.334.315.501.786.501 1.411 0 .701-.271 1.244-.816 1.629s-1.244.577-2.1.577a6.09 6.09 0 0 1-2.354-.457zm7.382-.651c-.522-.74-.783-1.738-.783-2.995 0-1.257.261-2.256.783-2.995.522-.739 1.279-1.109 2.27-1.109.984 0 1.738.37 2.263 1.11.525.738.789 1.737.789 2.994 0 1.257-.264 2.255-.79 2.995s-1.278 1.108-2.263 1.108c-.99 0-1.747-.369-2.27-1.108zm3.773-.687c.35-.555.524-1.325.524-2.308 0-.976-.174-1.742-.524-2.298-.35-.556-.85-.834-1.504-.834-.652 0-1.154.278-1.504.834-.348.556-.523 1.322-.523 2.298 0 .983.175 1.753.523 2.308.35.557.852.835 1.504.835.655 0 1.155-.278 1.504-.835zm2.996 1.527a.616.616 0 0 1-.185-.452v-.069c0-.175.06-.325.185-.451a.599.599 0 0 1 .445-.189h.112c.173 0 .321.063.445.189s.186.276.186.451v.07c0 .174-.062.325-.186.45s-.272.19-.445.19h-.112a.599.599 0 0 1-.445-.19zm3.233-.84c-.523-.74-.784-1.738-.784-2.995 0-1.257.261-2.256.784-2.995.521-.739 1.277-1.109 2.27-1.109.982 0 1.737.37 2.263 1.11.525.738.788 1.737.788 2.994 0 1.257-.263 2.255-.788 2.995s-1.281 1.108-2.264 1.108c-.992 0-1.748-.369-2.27-1.108zm3.772-.687c.349-.555.525-1.325.525-2.308 0-.976-.176-1.742-.525-2.298-.349-.556-.85-.834-1.503-.834-.654 0-1.155.278-1.504.834-.35.556-.523 1.322-.523 2.298 0 .983.174 1.753.523 2.308.349.557.85.835 1.504.835.653 0 1.154-.278 1.503-.835zm3.3.687c-.522-.74-.782-1.738-.782-2.995 0-1.257.26-2.256.782-2.995.522-.739 1.28-1.109 2.27-1.109.984 0 1.738.37 2.263 1.11.526.738.79 1.737.79 2.994 0 1.257-.264 2.255-.79 2.995s-1.28 1.108-2.264 1.108c-.99 0-1.747-.369-2.27-1.108zm3.773-.687c.35-.555.524-1.325.524-2.308 0-.976-.174-1.742-.524-2.298-.35-.556-.85-.834-1.504-.834-.652 0-1.154.278-1.503.834-.35.556-.524 1.322-.524 2.298 0 .983.175 1.753.524 2.308.35.557.851.835 1.503.835.655 0 1.155-.278 1.504-.835z" class="colorfff svgShape"/></g><g class="color000 svgShape"><path fill="#fff" d="m73.585 410.763-.197 9.287 9.802 1.047.225-10.604z" class="colorfff svgShape"/><path fill="#fff" d="M82.318 416.727a1.556 1.556 0 0 1 1.567-1.547h.004a1.556 1.556 0 0 1 1.457 1.037l1.13 3.19 10.286 3.501a3.39 3.39 0 0 1 2.298 3.232.42.42 0 0 1-.423.418l-28.693-.182a.421.421 0 0 1-.418-.424l.025-3.894s.13-4.901 4.13-5.82c0 0 1.94 4.116 5.873 3.75 2.452-.227 2.764-3.261 2.764-3.261zM125.579 410.763l-.197 9.287 9.802 1.047.225-10.604z" class="colorfff svgShape"/><path fill="#fff" d="M134.313 416.727a1.556 1.556 0 0 1 1.566-1.547h.004a1.556 1.556 0 0 1 1.457 1.037l1.13 3.19 10.287 3.501a3.39 3.39 0 0 1 2.298 3.232.42.42 0 0 1-.424.418l-28.692-.182a.421.421 0 0 1-.419-.424l.025-3.894s.13-4.901 4.13-5.82c0 0 1.941 4.116 5.873 3.75 2.452-.227 2.765-3.261 2.765-3.261z" class="colorfff svgShape"/><path fill="#67db8a" d="M138.854 407.59a3.247 3.247 0 0 1-3.233 3.584h-12.127a3.243 3.243 0 0 1-3.005-2.015 3.452 3.452 0 0 1-.184-.605l-15.693-106.202-13.029 91.132-2.873 15.079a3.256 3.256 0 0 1-3.19 2.611H72.491a3.238 3.238 0 0 1-3.242-3.373l4.171-131.13a400.864 400.864 0 0 1-.123-7.334 463.042 463.042 0 0 1-.044-6.992l3.19.122h.017l31.727 1.183 10.83.403 4.915.184s1.63 4.863 3.812 12.021l11.11 131.332z" class="color67db8a svgShape"/><path fill="#34b75c" d="m91.583 393.484-2.873 15.079a3.256 3.256 0 0 1-3.19 2.611H72.491a3.238 3.238 0 0 1-3.242-3.373l4.171-131.13a400.864 400.864 0 0 1-.123-7.334 463.042 463.042 0 0 1-.044-6.992l3.19.122h.017c.237.07.474.132.693.202 1.323.394 2.672.911 3.644 1.893 1.394 1.419 1.77 3.548 1.832 5.546a25.073 25.073 0 0 1-1.087 8.13c-1.507 4.873-4.547 9.77-3.224 14.695.464 1.743 1.454 3.294 2.26 4.906a25.522 25.522 0 0 1 2.506 14.098c-.482 4.338-2.076 8.736-.955 12.95.526 1.945 1.613 3.724 1.954 5.713.719 4.144-1.875 8.07-2.839 12.162-1.515 6.396 1.026 13.073 4.373 18.733 1.875 3.154 4.021 28.878 5.966 31.989zm47.271 14.106a3.247 3.247 0 0 1-3.233 3.584h-12.127a3.243 3.243 0 0 1-3.005-2.015c3.172-7.816 8.744-38.298 6.87-46.359-.412-1.778-1.184-3.46-1.552-5.248-1.375-6.747 3.128-13.581 2.103-20.39-.525-3.557-2.506-6.693-3.995-9.97-1.48-3.277-2.471-7.141-.981-10.41.657-1.445 1.76-2.663 2.321-4.153 2.007-5.38-3.723-10.488-4.53-16.174-.797-5.599 3.33-11.066 2.436-16.648-.578-3.618-3.163-6.615-4.056-10.173-.368-1.463-.395-3.478-.088-5.58l4.915.183s1.63 4.863 3.812 12.021l11.11 131.332z" class="color34b75c svgShape"/><path fill="#fff" d="M113.294 271.66c0 2.966-22.272 2.966-22.272 0l2.767-85.656c4.16-.975 8.959-.421 13.057.569l6.448 85.087z" class="colorfff svgShape"/><path fill="#fff" d="m155.325 193.523-15.483 21.748s-7.753-16.018-12.406-19.845c-8.95-7.362-20.59-8.853-20.59-8.853l3.172 91.239c.225 3.138 19.737.458 19.282-5.164l-7.563-54.816s12.444 24.074 23.435 15.944 20.496-34.509 20.496-34.509l-10.343-5.744zm-56.066 61.97a1100.84 1100.84 0 0 1-.868 14.492c-.131 1.98-.245 3.601-.324 4.687-.061.956-.105 1.49-.105 1.49-.079 1.682-1.078 3.242-2.646 3.847-6.983 2.663-24.376-2.576-24.437-7.36l.149-1.674 2.13-23.263.104-1.112s-10.391-3.873-15.841-10.681c-5.906-7.386 7.386-33.576 14.623-40.375 1.639-1.533 4.688-3.093 7.86-4.443 5.213-2.199 10.733-3.829 10.733-3.829l3.154-1.27s5.494 39.403 5.932 52.633c.123 3.68-.122 10.242-.464 16.858z" class="colorfff svgShape"/><path fill="#fff" d="M106.987 183.601a.747.747 0 0 1-.14.018v2.953l-5.258 10.54-7.798-11.11s.736-11.846-1.139-12.644c-1.393-.595-4.573-3.399-2.628-5.712 0 0 1.156-1.542 2.54-.56 1.385.98 1.797 2.61 1.797 2.61h.596s.271-8.271 4.495-8.026c4.214.245 9.077 2.252 13.624-.35 0 0 4.232 20.546-6.09 22.281zm4.403-16.43c-.625-.268-2.407-.35-3.582.078m-3.805.438c-.603-.13-2.204.104-3.177.688" class="colorfff svgShape"/><path fill="#fff" d="M106.42 169.78s.15 2.039.895 2.962c.528.654.57 1.612-.895 1.889m-3.275 74.108-3.334 10.097s2.997-.377 4.702.718c1.705 1.096 15.89 7.97 18.88-1.232h-11.709s-1.035.039-.912-2c.072-1.179 4.024-.993 4.024-.993s-1.023-4.449-4.594-4.205c-3.572.243-7.057-2.385-7.057-2.385z" class="colorfff svgShape"/><path fill="#fff" d="m73.26 246.601 27.654 13.48c-.218-4.92 1.036-9.593 4.113-12.258l-29.811-23.751m89.551-26.29c-.092.06-.176.118-.269.177l-.575 1.102c-3.182-.755-5.896-1.941-7.56-4.095.18-.32.32-.601.385-.8-.002-.166.001-.377 0-.64.019-3.339.25-13.981 2.18-14.156.636-.07 2.028 1.293 2.165 2.917.017.113.018.262.03.428 2.017-4.67 4.373-9.282 6.674-11.846.987-.594 2.064.375 1.337 2.737l-.035.125-2.554 5.953-.454 1.445s2.483-1.188 2.884 1.208c0 0 2.357-.336 1.985 1.947 3.962.792-.827 9.883-6.193 13.499zm6.191-13.505s-.983.829-1.904 4.07m-.083-6.086s-.984.828-1.904 4.07m-.918-5.34s-.984.829-1.904 4.071" class="colorfff svgShape"/><path fill="#46c671" d="m104.612 302.352 3.343-14.133"/><path fill="#fff" d="m121.737 217.832-.487-4.642"/><path fill="#fff" d="M91.35 168.272s-1.114 1.9.43 2.86" class="colorfff svgShape"/><g class="color000 svgShape"><path fill="#f5f5f5" d="M98.067 274.672c-.061.956-.105 1.49-.105 1.49-.079 1.682-1.078 3.242-2.646 3.847-6.983 2.663-24.376-2.576-24.437-7.36l2.278-24.937c.49.175.964.368 1.437.578.683.307 1.367.65 1.884 1.183.981 1 1.253 2.498 1.235 3.89-.017 1.92-.49 3.804-1.086 5.626-.298.92-.64 1.84-.684 2.804-.052.955.228 1.989.973 2.61 1.051.868 2.699.684 3.75 1.552 1.148.955 1.104 2.707 1.656 4.091.78 1.972 2.927 3.216 5.047 3.207.43 0 .867-.044 1.262-.228.368-.175.683-.455 1.034-.657 1.437-.832 3.268-.254 4.722.544 1.2.648 2.375 1.463 3.68 1.76z" class="colorf5f5f5 svgShape"/></g><g class="color000 svgShape"><path fill="#f5f5f5" d="M100.915 260.084 73.262 246.6s-10.391-3.873-15.841-10.681c-5.906-7.386 7.386-33.576 14.623-40.375 1.639-1.533 4.688-3.093 7.86-4.443 1.445 1.367 2.138 3.602 1.402 5.45-.92 2.305-3.505 3.347-5.774 4.346-2.261 1-4.74 2.611-4.863 5.082-.114 2.112 1.594 4.005 1.463 6.107-.184 2.892-3.514 4.443-4.872 7-1.279 2.428-.604 5.407.386 7.966a36.195 36.195 0 0 0 2.655 5.467c.902 1.525 2.173 3.128 3.899 3.295.061.008.123.017.184.017.911.035 1.875-.333 2.69.061.99.482 1.183 1.78 1.41 2.857 1.227 6.01 7.737 10.392 13.765 9.27-.21 2.418 1.262 4.784 3.312 6.09 1.122.718 2.384 1.147 3.698 1.384a13.31 13.31 0 0 0 1.875.184c-.22 1.41-.29 2.9-.22 4.407z" class="colorf5f5f5 svgShape"/></g><g fill="#3c4150" class="color000 svgShape"><path d="M103.154 169.72c-.468.035-.807.597-.752 1.248.05.651.471 1.147.94 1.112.463-.04.803-.597.752-1.248-.055-.652-.472-1.147-.94-1.112zm6.358-.158c-.434.033-.75.555-.699 1.16.047.605.439 1.065.873 1.032.431-.036.747-.554.7-1.159-.051-.605-.439-1.065-.874-1.033zm2.016-2.712c-.757-.327-2.638-.367-3.84.07a.35.35 0 0 0 .24.658c1.087-.396 2.766-.324 3.324-.085a.35.35 0 1 0 .276-.643zm-7.6 1.18a.35.35 0 1 0 .15-.684c-.74-.163-2.433.129-3.432.73a.35.35 0 1 0 .36.599c.921-.553 2.45-.748 2.923-.646zm3.343 5.724c-.092.25-.417.439-.916.533a.35.35 0 1 0 .13.688c.962-.182 1.315-.633 1.443-.979.166-.453.039-1.004-.34-1.474-.667-.826-.818-2.749-.82-2.768a.35.35 0 0 0-.698.052c.007.087.169 2.159.973 3.155.223.277.309.574.228.793zm.551 3.79c-1.14.25-2.29.25-3.43 0-.11-.03-.22.01-.31.08-.08.08-.12.19-.11.3.06.51.57 1.51 2.04 1.63.07.01.15.01.22.01 1.33 0 1.9-1.03 2.01-1.61a.369.369 0 0 0-.1-.32.372.372 0 0 0-.32-.09z" class="color3c4150 svgShape"/><path d="M178.492 225.244a1.2 1.2 0 0 0-.99-.5h-23.91c7.03-10.57 12.11-24.57 12.4-25.36 0-.1.04-.15-.01-.25v-.03c-.23-.44-.48-.84-.73-1.23 5.09-3.632 10.018-12.559 6.09-13.85.087-1.367-.777-2.081-2.09-2.05-.327-1.247-1.308-1.7-2.62-1.4l.24-.75 2.56-6 .04-.12c.43-1.42.3-2.58-.37-3.1-.42-.33-.98-.34-1.49-.03-.03.01-.05.04-.07.06-1.89 2.1-3.99 5.74-6.26 10.83-.27-.89-.84-1.6-1.32-2-.27-.23-.68-.48-1.07-.44-1.97.18-2.44 7.72-2.49 14.17-.26.01-.54.03-.83.07l-.08-.05a.348.348 0 0 0-.45.11l-15.14 21.27c-1.41-2.86-8.01-15.96-12.24-19.44-8.13-6.68-18.58-8.58-20.47-8.88v-2.35c1.95-.37 3.52-1.41 4.67-3.1 2.38-3.48 2.62-9.03 2.35-13.34 1.756-1.069 2.158-4.65.89-6.69 1.88-1.12 4.3-3.5 3.32-8.1-.72-3.43-3.01-5.87-6.27-6.7-4.03-1.03-8.65.63-11.83 4.21-1.11-.58-5.52-2.62-8.8-.51-3.53 2.27-2.8 7.67-2.43 9.52-2.486-.649-4.766.611-5.08 4.97-.52 6.9 8.88 11.62 9.28 11.82.01 0 .02.01.03.01.31 2.34.35 6.11.13 9.74-.1.033-11.623 4.156-13.69 5.03-3.82 1.62-6.5 3.14-7.96 4.51-7.15 6.72-20.87 33.07-14.65 40.84 4.97 6.22 14.11 10.05 15.74 10.7l-2.21 24.11-.15 1.71c0 1.417 1.353 2.69 2.526 3.497.018.818-2.859 90.527-4.161 131.636a3.593 3.593 0 0 0 3.592 3.739h.73l-.096 4.508c-1.94.63-2.921 2.2-3.411 3.58l-.01.01c-.775 2.196-.416 3.434-.53 6.33 0 .42.35.77.77.77l26.45.17h.05l2.19.01h.01c.2 0 .39-.07.54-.22.15-.14.23-.34.23-.54a3.745 3.745 0 0 0-2.54-3.57l-10.12-3.44-1.08-3.03a1.884 1.884 0 0 0-1.8-1.27c-.07 0-.13 0-.2.02l.071-3.328h1.78a3.608 3.608 0 0 0 3.53-2.911l15.524-103.664.238 1.166 15.15 102.505a3.603 3.603 0 0 0 3.53 2.904h1.718l-.095 4.5c-1.937.64-2.926 2.209-3.416 3.588l-.01.01a8.55 8.55 0 0 0-.48 2.21c-.02.13-.02.21-.02.22l-.01 2.04-.01 1.86c0 .42.34.77.76.77l26.46.17h.05l2.19.01c.21 0 .4-.07.54-.22.15-.14.23-.34.23-.54a3.75 3.75 0 0 0-2.53-3.57l-10.13-3.44-1.07-3.03c-.27-.76-.99-1.27-1.79-1.27a.782.782 0 0 0-.215.029l.07-3.35a3.595 3.595 0 0 0 2.56-1.178 3.597 3.597 0 0 0 .904-2.776c-2.916-34.26-11.05-131.17-11.251-131.824l.002-.001c1.21-.95 1.79-2 1.7-3.13l-1.92-13.93h40.73c.15 0 .29-.1.33-.25l9.89-32.1c.11-.37.05-.77-.19-1.08zm-66.81 33.43h11.21c-.68 1.75-1.89 2.94-3.58 3.55-2.992 1.064-7.38.129-10.22-.98-2.23-.8-3.94-1.69-4.39-1.98-.934-.611-2.295-.83-3.45-.83.09-3.55 1-6.62 2.6-8.81.564.348 1.423.77 1.59.84h.01c1.27.633 3.202 1.13 4.77 1.01 2.61-.18 3.75 2.42 4.11 3.49-.23 0-.5 0-.79.01-1.085.044-3.035.227-3.12 1.33-.05.71.04 1.27.26 1.67.06.14.14.25.24.35.35.35.74.35.76.35zm-2.18 14.35v.003c-2.596.432-6.675.661-10.99.392.128-2.01.408-5.817.87-13.695l1.29.62c.1.066.31.169.5-.02.43-.36.82-.73 1.19-1.11.69.09 1.4.28 1.96.64s2.42 1.32 4.8 2.15l.38 11.02zm41.76-31.31c.16-1.18 1.25-2.12 2.42-2.12s1.98.94 1.82 2.12c-.17 1.17-1.26 2.12-2.43 2.12-1.17 0-1.98-.95-1.81-2.12zm-24.22 11.99-4.7-34.05c1.78 3.09 5.97 9.72 11.05 13.46l-6.35 20.59zm31.92-73.99c.06-.01.26.05.56.29.55.45 1.14 1.34 1.23 2.33 0 .07.01.15.01.23l.01.17v.034l-.25 3.39a.35.35 0 0 0 .324.375h.026a.35.35 0 0 0 .349-.324l.251-3.416c2.4-5.54 4.6-9.46 6.55-11.65.16-.08.42-.17.64.01.32.25.55 1.01.14 2.36l-2.59 6.07-.402 1.257c-.291.313-1.125 1.387-1.902 4.126a.35.35 0 0 0 .674.192c.644-2.27 1.317-3.316 1.625-3.707.01 0 .02 0 .035-.007.01 0 1.05-.49 1.75-.12.46.23.54.748.582.849-.334.386-1.115 1.493-1.844 4.062a.35.35 0 0 0 .673.192c.672-2.365 1.369-3.393 1.656-3.744.178-.02.926-.066 1.323.34.22.24.31.6.25 1.088-.28.297-1.126 1.365-1.915 4.14a.35.35 0 0 0 .674.192c.69-2.427 1.404-3.444 1.676-3.767 3.115.892-1.378 9.17-6.225 12.628-.306.238-.598.36-.65.49l-.45.86c-3.33-.82-5.55-2.01-6.96-3.72.067-.13.32-.623.32-.77v-.99c.07-8.73.98-13.37 1.86-13.46zm-31.75 15.98c4.54 3.74 12.24 19.57 12.31 19.73.06.11.17.19.29.2s.24-.05.31-.15l15.16-21.29c.25.33.51.65.78.95 0 .02.01.03.02.05 1.613 2.084 4.878 3.998 9.1 4.39-.93 2.47-5.93 15.45-12.46 25.17h-15.14c-.97 0-1.81.62-2.09 1.54l-1.88 6.1c-6.211-4.706-11.178-13.97-11.534-14.66l-.48-4.571a.35.35 0 1 0-.697.073l.488 4.643c0 .002.003.003.003.006v.009l5.12 37.09h-11.45c-.31-1.01-1.6-4.44-4.88-4.2-.25.02-.5.02-.75.01l-2.22-63.8c2.13.35 12.17 2.27 20 8.71zm-18.48 55.02c-1.08-.13-2.12-.49-2.98-.89-.07-.65-.19-1.32-.37-2.01-.01-.1-.06-.2-.14-.26l-5.17-4.12c.04-1.97.04-3.58 0-4.81-.38-11.67-4.75-44.02-5.74-51.23l6.97 9.92c.07.09.17.15.29.15h.02a.33.33 0 0 0 .29-.2l4.64-9.29 2.19 62.74zm2.56-70.29c-1.856 2.715-4.395 2.789-4.505 2.855-.555.032-2.073.578-5.498-.457a.35.35 0 0 0-.202.67c1.78.538 3.57.839 5.405.54v2.462l-4.95 9.94-7.39-10.53c.09-1.6.35-6.87-.18-10.17-.121-.789-.447-2.388-1.18-2.7-.82-.35-2.6-1.71-2.97-3.26-.357-1.564 1.254-3.314 2.54-2.4 1.26.89 1.66 2.39 1.66 2.41.04.15.18.26.34.26h.59c.19 0 .35-.15.35-.34.01-.05.2-5.12 2.27-7.01 1.067-.968 2.035-.745 5.31-.23 3.263.535 6.852 1.016 9.94-.61 0 .192 2.467 12.738-1.53 18.57zm-53.6 55.28c-5.57-6.98 6.89-32.67 14.59-39.9 1.4-1.31 4.01-2.79 7.76-4.38 2.321-.982 13.36-4.897 13.46-4.93.61 4.39 5.46 39.85 5.87 52.15.05 1.621.026 3.133.01 4.24l-20.41-16.27v-5.25c0-.19-.16-.35-.35-.35-.2 0-.35.16-.35.35v4.69l-2.84-2.26a.35.35 0 0 0-.49.06c-.12.15-.1.37.06.49l29.19 23.27h.01l.28.23c-3.177 3.176-3.904 7.3-3.94 11.67-.888-.431.38.186-27.13-13.23-.004 0-.058-.02-.07-.02-6.206-2.754-11.513-5.6-15.65-10.56zm13.54 36.98 1.94-21.34 25.53 8.08c-.56 9.381-.917 14.254-.98 15.23l-.11 1.49c-.07 1.61-1.03 3-2.42 3.54-5.18 1.97-16.54-.57-21.56-3.98-1.56-1.06-2.39-2.12-2.4-3.02zm27.48 153.45-.07.07-1.947-.01-.71-3.18.667.23c1.24.42 2.07 1.58 2.06 2.89zm-13.7-9.8 1.13 3.19c.04.1.12.18.22.21l8.847 3.019.766 3.43h-.003l-26.03-.16c-.04 0-.07-.03-.07-.07l.01-1.51 22.527.144h.003a.35.35 0 0 0 .002-.7l-19.272-.123c.047-.272.37-.967.03-2.07a3.295 3.295 0 0 0-2.64-2.26c.49-1.14 1.38-2.33 2.97-2.79.53.93 2.55 4.01 6.08 3.69 2.17-.2 2.97-2.42 3.08-3.57.01-.01.01-.02.01-.04 0-1.353 1.896-1.645 2.34-.39zm-2.045-1.258c-.5.222-.98.852-.995 1.628-.03.21-.39 2.74-2.45 2.94-3.63.33-5.51-3.52-5.52-3.56a.487.487 0 0 0-.176-.167l.092-4.391h9.124l-.075 3.55zm52.07-3.55-.075 3.558c-.504.22-.985.85-1 1.62-.02.21-.38 2.74-2.45 2.94-3.63.33-5.5-3.52-5.52-3.56a.463.463 0 0 0-.17-.17h-.002l.094-4.388h9.123zm15.665 14.608-.07.07-1.94-.01h-.003l-.71-3.178.663.228c1.24.42 2.07 1.58 2.06 2.89zm-14.82-10.6c.51 0 .96.32 1.13.8l1.13 3.19c.03.1.11.18.22.21l8.84 3.02h.002l.765 3.43h-.007l-26.02-.16c-.04 0-.07-.03-.07-.07l.01-1.51 2.72.02h.08l.006-.003 19.716.126h.002a.35.35 0 0 0 .003-.7l-19.277-.123c.24-.67.25-1.39.03-2.07-.22-.68-.64-1.26-1.19-1.66-.42-.31-.92-.52-1.45-.6.49-1.14 1.38-2.33 2.97-2.79.53.93 2.56 4.01 6.09 3.69 2.16-.2 2.96-2.42 3.08-3.57v-.04c0-.659.537-1.19 1.21-1.19h.01zm2.623-7.909a2.9 2.9 0 0 1-2.88 3.2h-12.13a2.898 2.898 0 0 1-2.84-2.321l-13.28-89.848.018.084.012-26.675.891-3.766a.35.35 0 0 0-.682-.16l-3.342 14.132c-.002.007 0 .013-.001.02 0 .004-.004.005-.005.009L88.363 408.495a2.903 2.903 0 0 1-2.84 2.33H72.49a2.894 2.894 0 0 1-2.893-3.013c3.895-122.408 4.176-131.088 4.173-131.19l.003.002c5.263 3.266 16.23 5.79 21.67 3.71 1.65-.64 2.78-2.27 2.87-4.14l.14-2.077c4.336.268 8.462.038 11.08-.387v.004l.14 4.1c.02.32.2.77.9 1.11 2.684 1.307 12.207.239 16.78-2.79l.002-.001c.089.29-.525-6.31 11.15 131.472zm-9.553-134.951c.37 4.488-14.472 7.373-18.07 5.64-.33-.15-.5-.33-.51-.51l-.54-15.56c2.983.984 6.753 1.692 9.71.63 1.98-.7 3.36-2.11 4.09-4.2H127.022l1.93 14z" class="color3c4150 svgShape"/><path d="M91.964 170.835c-1.231-.766-.35-2.32-.312-2.387a.35.35 0 0 0-.604-.353c-.445.759-.903 2.433.546 3.335a.35.35 0 0 0 .37-.595z" class="color3c4150 svgShape"/></g></g><g class="color000 svgShape"><path fill="#fff" d="M64.92 93.497v36.016c0 1.21.982 2.192 2.192 2.192h75.938l14.06 11.507c.799.652 1.997.085 1.997-.946v-10.56h7.64c1.211 0 2.193-.983 2.193-2.193V93.497a2.192 2.192 0 0 0-2.193-2.193H67.112c-1.21 0-2.192.982-2.192 2.193z" class="colorfff svgShape"/><path fill="#3c4150" d="M157.881 143.84c-.354 0-.704-.121-.992-.358l-13.964-11.426H67.112a2.546 2.546 0 0 1-2.542-2.543V93.497a2.545 2.545 0 0 1 2.542-2.542h99.635a2.545 2.545 0 0 1 2.543 2.542v36.016a2.546 2.546 0 0 1-2.543 2.543h-7.29v10.21a1.56 1.56 0 0 1-.9 1.42 1.576 1.576 0 0 1-.676.154zM67.112 91.655a1.844 1.844 0 0 0-1.842 1.842v36.016c0 1.016.826 1.842 1.842 1.842h75.938c.081 0 .16.028.222.08l14.06 11.505a.855.855 0 0 0 .926.114.855.855 0 0 0 .498-.788v-10.56a.35.35 0 0 1 .35-.35h7.641a1.844 1.844 0 0 0 1.842-1.843V93.497a1.844 1.844 0 0 0-1.842-1.842H67.112z" class="color3c4150 svgShape"/><path fill="#46c671" d="M69.883 98.27v26.049c0 .91.737 1.646 1.646 1.646h90.808c.91 0 1.646-.737 1.646-1.646V98.27c0-.895-.736-1.631-1.646-1.631H71.53c-.91 0-1.646.736-1.646 1.631z" class="color46c671 svgShape"/><path fill="#26a851" d="M69.883 106.804v17.515c0 .91.737 1.646 1.646 1.646h90.808c.91 0 1.646-.737 1.646-1.646v-4.707c-1.487-.188-3.017-.202-4.476-.188-10.078.072-59.128.144-69.207.216-3.104.03-6.252.044-9.255-.736-2.989-.794-5.891-2.498-7.436-5.184-1.314-2.28-1.776-5.328-3.726-6.916z" class="color26a851 svgShape"/><path fill="#fff" d="M78.147 114.428a.5.5 0 0 1-.147-.365v-6.994c0-.144.05-.268.147-.372a.479.479 0 0 1 .36-.154h2.568c.712 0 1.294.122 1.745.366.45.244.773.556.968.936.196.382.293.793.293 1.235 0 .442-.097.853-.293 1.234-.195.382-.517.694-.968.938-.45.244-1.033.365-1.745.365h-2.05v2.446c0 .145-.051.267-.152.365-.101.1-.223.15-.366.15s-.263-.05-.36-.15zm2.826-3.793c.766 0 1.305-.149 1.616-.446.312-.298.467-.667.467-1.11 0-.44-.155-.81-.467-1.108s-.85-.445-1.616-.445h-1.948v3.109h1.948zm4.448 3.793a.5.5 0 0 1-.146-.365v-4.903c0-.145.049-.269.146-.371s.218-.154.36-.154.265.051.367.154.152.226.152.37v.493c.526-.717 1.114-1.075 1.768-1.075h.056c.143 0 .261.05.355.15.094.098.14.22.14.365s-.048.262-.146.354-.222.137-.371.137h-.057c-.36 0-.69.09-.991.268a2.3 2.3 0 0 0-.754.738v3.474a.49.49 0 0 1-.152.365c-.102.1-.224.15-.366.15s-.263-.05-.36-.15zm5.012-.17a2.548 2.548 0 0 1-1.008-1.069c-.237-.46-.355-.989-.355-1.583s.118-1.122.355-1.583c.236-.46.572-.817 1.008-1.068.435-.252.941-.378 1.52-.378.57 0 1.074.126 1.51.378.434.25.772.607 1.012 1.068s.36.989.36 1.583-.12 1.122-.36 1.583-.578.817-1.013 1.069c-.435.25-.94.377-1.51.377-.578 0-1.084-.126-1.519-.377zm2.404-.79c.281-.144.514-.373.698-.685.184-.313.276-.708.276-1.188 0-.473-.092-.865-.276-1.177a1.703 1.703 0 0 0-.698-.68 1.973 1.973 0 0 0-1.78 0 1.664 1.664 0 0 0-.692.68c-.18.312-.27.704-.27 1.177 0 .48.09.875.27 1.188.18.312.41.541.693.686a1.918 1.918 0 0 0 1.78 0zm4.588.801c-.458-.244-.823-.594-1.098-1.051s-.41-.995-.41-1.612.136-1.154.41-1.611.64-.808 1.098-1.052.958-.366 1.498-.366c.399 0 .741.052 1.03.154.29.104.558.235.806.395a.457.457 0 0 1 .096.715.395.395 0 0 1-.299.142.503.503 0 0 1-.247-.068 4.174 4.174 0 0 0-.637-.28 2.155 2.155 0 0 0-.659-.086c-.645 0-1.152.188-1.52.566-.368.377-.551.874-.551 1.491s.183 1.114.551 1.491c.368.377.875.566 1.52.566.263 0 .482-.028.66-.085.176-.058.388-.15.636-.28a.503.503 0 0 1 .247-.069c.113 0 .212.047.299.143a.459.459 0 0 1-.096.714c-.248.16-.516.292-.806.394s-.631.155-1.03.155c-.54 0-1.04-.123-1.498-.366zm5.22-.428c-.514-.53-.772-1.275-.772-2.235 0-.54.098-1.04.293-1.497s.495-.827.902-1.11c.405-.28.904-.422 1.497-.422.555 0 1.036.132 1.441.394s.714.614.924 1.052.315.916.315 1.435a.495.495 0 0 1-.519.514h-3.816c.06.533.254.949.585 1.246.33.296.792.445 1.385.445.316 0 .592-.03.828-.09.237-.062.467-.15.693-.265a.444.444 0 0 1 .203-.045.45.45 0 0 1 .314.125c.091.084.136.192.136.32 0 .169-.098.31-.293.424a3.994 3.994 0 0 1-.867.377c-.285.084-.653.126-1.104.126-.916 0-1.63-.265-2.145-.794zm3.587-2.715c-.023-.373-.118-.686-.287-.937-.17-.252-.377-.436-.625-.554s-.5-.177-.755-.177-.507.058-.754.177a1.516 1.516 0 0 0-.62.554c-.165.251-.259.564-.281.937h3.322zm2.787 2.715c-.514-.53-.772-1.275-.772-2.235 0-.54.098-1.04.293-1.497s.495-.827.902-1.11c.405-.28.904-.422 1.497-.422.555 0 1.036.132 1.441.394s.714.614.924 1.052.315.916.315 1.435a.495.495 0 0 1-.519.514h-3.816c.06.533.254.949.585 1.246.33.296.792.445 1.385.445.316 0 .592-.03.828-.09.237-.062.467-.15.693-.265a.444.444 0 0 1 .203-.045.45.45 0 0 1 .314.125c.091.084.136.192.136.32 0 .169-.098.31-.293.424a3.994 3.994 0 0 1-.867.377c-.285.084-.653.126-1.104.126-.916 0-1.63-.265-2.145-.794zm3.587-2.715c-.023-.373-.118-.686-.287-.937-.17-.252-.377-.436-.625-.554s-.5-.177-.755-.177-.507.058-.754.177a1.516 1.516 0 0 0-.62.554c-.165.251-.259.564-.281.937h3.322zm3.418 3.148c-.417-.24-.755-.59-1.014-1.05s-.389-1-.389-1.618.13-1.156.39-1.617.596-.811 1.013-1.052.857-.36 1.323-.36c.735 0 1.378.29 1.926.87v-2.8a.51.51 0 0 1 .517-.527c.143 0 .263.052.36.154a.523.523 0 0 1 .147.372v7.417a.5.5 0 0 1-.146.365c-.098.1-.218.15-.36.15s-.265-.05-.367-.15a.492.492 0 0 1-.151-.365v-.297c-.548.58-1.19.869-1.926.869-.466 0-.906-.12-1.323-.36zm2.443-.846c.305-.155.572-.363.806-.622v-2.4a2.796 2.796 0 0 0-.806-.623 2.1 2.1 0 0 0-.974-.234c-.555 0-1.002.18-1.34.537-.337.358-.506.865-.506 1.52s.169 1.162.507 1.52c.337.358.784.537 1.34.537a2.1 2.1 0 0 0 .973-.235zm8.711 1a.5.5 0 0 1-.146-.365v-6.549h-2.298a.467.467 0 0 1-.473-.48c0-.137.045-.253.136-.348a.443.443 0 0 1 .337-.143h5.608c.136 0 .25.048.344.143.094.095.14.211.14.349a.475.475 0 0 1-.484.48h-2.286v6.548c0 .145-.05.267-.151.365-.102.1-.224.15-.367.15s-.262-.05-.36-.15zm4.978-.17a2.548 2.548 0 0 1-1.008-1.069c-.238-.46-.356-.989-.356-1.583s.118-1.122.356-1.583c.236-.46.572-.817 1.008-1.068.434-.252.941-.378 1.52-.378.57 0 1.073.126 1.509.378.434.25.772.607 1.013 1.068s.36.989.36 1.583-.12 1.122-.36 1.583-.579.817-1.013 1.069c-.436.25-.94.377-1.51.377-.578 0-1.085-.126-1.52-.377zm2.404-.79c.281-.144.514-.373.698-.685.184-.313.276-.708.276-1.188 0-.473-.092-.865-.276-1.177a1.703 1.703 0 0 0-.698-.68 1.973 1.973 0 0 0-1.78 0 1.664 1.664 0 0 0-.693.68c-.18.312-.27.704-.27 1.177 0 .48.09.875.27 1.188.18.312.411.541.694.686a1.918 1.918 0 0 0 1.779 0zm6.705.96a.5.5 0 0 1-.147-.365v-6.994c0-.144.05-.268.147-.372a.479.479 0 0 1 .36-.154h2.568c.714 0 1.296.122 1.746.366s.773.556.969.936c.194.382.292.793.292 1.235 0 .442-.098.853-.292 1.234-.196.382-.519.694-.97.938s-1.031.365-1.745.365h-2.05v2.446a.49.49 0 0 1-.151.365c-.102.1-.224.15-.367.15s-.262-.05-.36-.15zm2.827-3.793c.766 0 1.304-.149 1.615-.446.312-.298.468-.667.468-1.11 0-.44-.156-.81-.468-1.108s-.85-.445-1.615-.445h-1.948v3.109h1.948zm4.645 3.793c-.282-.136-.505-.336-.67-.6s-.248-.565-.248-.907c0-.565.22-1.014.659-1.349.44-.336 1.083-.503 1.93-.503h1.364v-.092c0-.503-.122-.864-.366-1.086-.245-.22-.625-.33-1.143-.33-.286 0-.539.022-.76.068s-.468.114-.738.206a.608.608 0 0 1-.147.022.399.399 0 0 1-.292-.126.42.42 0 0 1-.124-.308c0-.205.097-.35.292-.434a4.887 4.887 0 0 1 1.949-.412c.517 0 .955.107 1.311.32.358.214.62.49.79.83s.252.705.252 1.102v3.234a.49.49 0 0 1-.152.365c-.1.1-.223.15-.365.15s-.264-.05-.36-.15a.5.5 0 0 1-.147-.365v-.297c-.556.58-1.262.869-2.117.869-.331 0-.637-.069-.918-.207zm2.257-.954c.308-.164.567-.367.778-.61v-.96h-1.228c-1.134 0-1.7.3-1.7.902 0 .274.092.496.275.663.184.168.49.251.918.251.33 0 .65-.082.957-.246zm4.365 3.583a.493.493 0 0 1-.142-.354c0-.06.012-.122.034-.183l.733-1.908-2.117-5.234a.587.587 0 0 1-.045-.218c0-.145.047-.269.145-.371s.218-.154.36-.154a.519.519 0 0 1 .474.32l1.734 4.365 1.768-4.343c.098-.228.255-.342.473-.342.142 0 .262.051.36.154s.147.226.147.37c0 .07-.011.135-.034.195l-3.074 7.497c-.105.237-.264.355-.473.355a.455.455 0 0 1-.343-.149z" class="colorfff svgShape"/></g><g class="color000 svgShape"><path fill="#26a851" d="M321.642 110.72h-31.394l-.105-2.134-.275-5.453h31.394z" class="color26a851 svgShape"/></g><g class="color000 svgShape"><path fill="#67db8a" d="M319.55 108.586h-29.407l-.275-5.453h29.407z" class="color67db8a svgShape"/></g><g class="color000 svgShape"><path fill="#3c4150" d="M321.644 111.07h-31.396a.35.35 0 0 1-.35-.332l-.38-7.587a.349.349 0 0 1 .35-.368h31.395a.35.35 0 0 1 .35.333l.38 7.587a.349.349 0 0 1-.35.367zm-31.063-.7h30.695l-.346-6.887h-30.694l.345 6.887z" class="color3c4150 svgShape"/></g><g fill="#f5f5f5" class="color000 svgShape"><path d="M183.314 313.409c0 8.369 2.618 12.132 5.844 12.132 3.228 0 5.845-3.763 5.845-12.132 0-8.372-2.617-18.18-5.845-18.18-3.226 0-5.844 9.808-5.844 18.18z" class="colorf5f5f5 svgShape"/><path d="M189.159 334.753a.185.185 0 0 0 .184-.184v-20.694a.185.185 0 0 0-.369 0v20.694c0 .102.083.184.185.184zm-12.71-14.428c0 5.634 2.076 8.167 4.632 8.167 2.558 0 4.632-2.533 4.632-8.167 0-5.636-2.074-12.238-4.632-12.238-2.556 0-4.631 6.602-4.631 12.238z" class="colorf5f5f5 svgShape"/><path d="M181.08 341.586a.185.185 0 0 0 .185-.184v-20.764a.185.185 0 0 0-.368 0v20.764c0 .101.082.184.184.184z" class="colorf5f5f5 svgShape"/></g><g fill="#f5f5f5" class="color000 svgShape"><path d="M545.277 337.198c0 8.71-2.724 12.626-6.082 12.626-3.36 0-6.082-3.916-6.082-12.626 0-8.712 2.723-18.92 6.082-18.92 3.358 0 6.082 10.208 6.082 18.92z" class="colorf5f5f5 svgShape"/><path d="M539.195 359.412a.192.192 0 0 1-.192-.192v-21.537a.192.192 0 0 1 .384 0v21.537a.192.192 0 0 1-.192.192zm13.226-17.537c0 5.863-2.16 8.499-4.82 8.499-2.662 0-4.82-2.636-4.82-8.5s2.158-12.735 4.82-12.735c2.66 0 4.82 6.87 4.82 12.736z" class="colorf5f5f5 svgShape"/><path d="M547.602 364.001a.192.192 0 0 1-.192-.192v-21.608a.192.192 0 0 1 .383 0v21.608a.192.192 0 0 1-.191.192z" class="colorf5f5f5 svgShape"/></g><g class="color000 svgShape"><path fill="#f5f5f5" d="M555.7 121.385c-1.843-5.502-4.029-11.36-7.047-12.107-3.053-.757-5.794 4.019-8.782 5.628-6.652 3.583-13.124-8.78-19.955-8.157-6.017.548-11.452 11.127-17.424 9.367-2.593-.765-4.927-3.804-7.277-6.405-2.35-2.6-4.598-4.405-9.197-2.17-2.437 1.185-3.249 7.98-2.95 13.844H555.7z" class="colorf5f5f5 svgShape"/></g><g class="color000 svgShape"><path fill="#f5f5f5" d="M424.465 87.44h-75.363c.316-2.874.89-5.723 2.134-8.326 1.383-2.92 3.717-5.511 6.754-6.637 3.037-1.126 6.79-.551 8.97 1.853 2.146 2.368 2.604 6.132 5.265 7.915 2.944 1.982 7.048.434 9.592-2.029 2.545-2.45 4.245-5.699 6.919-8.032 3.987-3.483 10.014-4.42 14.868-2.322 4.96 2.134 8.22 6.848 11.785 10.893 2.498 2.826 5.605 5.535 9.076 6.684z" class="colorf5f5f5 svgShape"/></g></svg></svg>