<svg xmlns="http://www.w3.org/2000/svg" width="256" height="256"><svg xmlns="http://www.w3.org/2000/svg" width="256" height="256" viewBox="0 0 266 266"><circle cx="33.89" cy="229.927" r="25.079" fill="#fff" class="colorFFF svgShape"/><circle cx="33.89" cy="229.927" r="18.64" fill="#f0f2f2" class="colorF0F2F2 svgShape"/><path fill="#fff" d="M220.635 96.635h33.7c1.72 0 3.11 1.39 3.11 3.11v118.85c0 1.72-1.39 3.12-3.11 3.12h-69.83c-1.72 0-3.12-1.4-3.12-3.12V99.745c0-1.72 1.4-3.11 3.12-3.11h30.192" class="colorFFF svgShape"/><path fill="#f0f2f2" d="M198.752 193.705H211.3c.77 0 1.39.619 1.39 1.383v19.258c0 .77-.62 1.389-1.39 1.389h-12.547a1.384 1.384 0 0 1-1.383-1.389v-19.258c0-.764.619-1.383 1.383-1.383zm47.163-71.31a7.604 7.604 0 0 1 1.56 4.64c0 4.25-3.45 7.69-7.69 7.69-4.25 0-7.69-3.44-7.69-7.69 0-1.75.58-3.36 1.56-4.64a7.627 7.627 0 0 1-1.56-4.64c0-4.25 3.44-7.68 7.69-7.68 4.24 0 7.69 3.43 7.69 7.68 0 1.75-.58 3.35-1.56 4.64z" class="colorF0F2F2 svgShape"/><path fill="#fff" d="M214.697 96.635h5.938" class="colorFFF svgShape"/><path fill="#f0f2f2" d="m215.365 96.635-7.371 9.57-7.379-9.57zm-29.188.002v125.08h-1.67a3.122 3.122 0 0 1-3.12-3.119V99.747a3.114 3.114 0 0 1 3.12-3.11h1.67z" class="colorF0F2F2 svgShape"/><path fill="#ace5fb" d="M201.69 191.904h12.547c.77 0 1.389.618 1.389 1.383v19.258c0 .77-.619 1.389-1.39 1.389H201.69a1.384 1.384 0 0 1-1.383-1.39v-19.257c0-.764.619-1.383 1.383-1.383z" class="colorACE5FB svgShape"/><path fill="#fff" d="M242.699 123.196a7.69 7.69 0 0 0 7.69-7.69c0-4.246-3.443-7.68-7.69-7.68s-7.69 3.434-7.69 7.68a7.69 7.69 0 0 0 7.69 7.69z" class="colorFFF svgShape"/><path fill="#98cb61" d="M242.699 132.476a7.69 7.69 0 0 0 7.69-7.69c0-4.246-3.443-7.68-7.69-7.68s-7.69 3.434-7.69 7.68a7.69 7.69 0 0 0 7.69 7.69z" class="color98CB61 svgShape"/><path fill="#fff" d="M171.917 59.744v10.728H52.482V59.744c0-3.07 2.285-5.555 5.112-5.555h109.22c2.819 0 5.103 2.486 5.103 5.555z" class="colorFFF svgShape"/><path fill="#f0f2f2" d="M146.426 54.189v11.804H66.249v-4.911h5.797v-6.893z" class="colorF0F2F2 svgShape"/><path fill="#9fa3a6" d="M68.927 59.236h86.547v4.912H68.927z" class="color9FA3A6 svgShape"/><path fill="#fff" d="M52.485 244.717h119.432v10.731c0 3.068-2.283 5.55-5.105 5.55H57.59c-2.822 0-5.105-2.482-5.105-5.55v-10.73zm0-174.25h119.432v174.25H52.485z" class="colorFFF svgShape"/><path fill="#f0f2f2" d="M161.49 87.282v44.994c0 3.125-2.325 5.652-5.2 5.652H64.17c-2.875 0-5.2-2.527-5.2-5.652V87.282c0-3.125 2.325-5.652 5.2-5.652h92.121c2.875 0 5.2 2.527 5.2 5.653zm-77.556 65.525v13.224c0 .684-.445 1.248-.987 1.248H67.432c-.55 0-.987-.564-.987-1.248v-13.224c0-.694.436-1.258.987-1.258h15.515c.542 0 .987.564.987 1.258zm35.118 0v13.224c0 .684-.444 1.248-.987 1.248H102.56c-.551 0-.987-.564-.987-1.248v-13.224c0-.694.436-1.258.987-1.258h15.505c.543 0 .987.564.987 1.258zm35.128 0v13.224c0 .684-.445 1.248-.987 1.248H137.68c-.551 0-.978-.564-.978-1.248v-13.224c0-.694.426-1.258.978-1.258h15.514c.542 0 .987.564.987 1.258zM83.934 184.9v13.224c0 .684-.445 1.248-.987 1.248H67.432c-.55 0-.987-.564-.987-1.248V184.9c0-.694.436-1.258.987-1.258h15.515c.542 0 .987.564.987 1.258zm35.118 0v13.224c0 .684-.444 1.248-.987 1.248H102.56c-.551 0-.987-.564-.987-1.248V184.9c0-.694.436-1.258.987-1.258h15.505c.543 0 .987.564.987 1.258zm35.128 0v13.224c0 .684-.445 1.248-.987 1.248H137.68c-.551 0-.978-.564-.978-1.248V184.9c0-.694.426-1.258.978-1.258h15.514c.542 0 .987.564.987 1.258zm-70.246 32.093v13.223c0 .685-.445 1.248-.987 1.248H67.432c-.55 0-.987-.563-.987-1.248v-13.223c0-.694.436-1.258.987-1.258h15.515c.542 0 .987.564.987 1.258zm35.118 0v13.223c0 .685-.444 1.248-.987 1.248H102.56c-.551 0-.987-.563-.987-1.248v-13.223c0-.694.436-1.258.987-1.258h15.505c.543 0 .987.564.987 1.258zm35.128 0v13.223c0 .685-.445 1.248-.987 1.248H137.68c-.551 0-.978-.563-.978-1.248v-13.223c0-.694.426-1.258.978-1.258h15.514c.542 0 .987.564.987 1.258z" class="colorF0F2F2 svgShape"/><path fill="#cdecff" d="M163.462 85.311v44.993c0 3.125-2.326 5.653-5.2 5.653H66.14c-2.874 0-5.2-2.528-5.2-5.653V85.311c0-3.125 2.326-5.653 5.2-5.653h92.122c2.874 0 5.2 2.528 5.2 5.653z" class="colorCDECFF svgShape"/><path fill="#fff" d="M149.103 4.998v59.154h-74.38V13.874c0-3.663 2.224-6.813 5.394-8.172l3.472-.704h65.514z" class="colorFFF svgShape"/><path fill="#f0f2f2" d="M80.117 5.702c7.417 4.448 7.226 14.663 3.331 18.437h65.655V4.998H83.589l-3.472.704z" class="colorF0F2F2 svgShape"/><path fill="#fff" d="M84.152 5.002h88.445c10.445.805 11.079 12.478 6.961 15.758H88.811c4.117-3.28 4.1-12.478-4.659-15.758z" class="colorFFF svgShape"/><path fill="#f0f2f2" d="M85.82 150.92v13.224c0 .684-.444 1.248-.986 1.248H69.319c-.55 0-.987-.564-.987-1.248V150.92c0-.694.436-1.258.987-1.258h15.515c.542 0 .987.564.987 1.258zm35.12 0v13.224c0 .684-.445 1.248-.988 1.248h-15.505c-.551 0-.987-.564-.987-1.248V150.92c0-.694.436-1.258.987-1.258h15.505c.543 0 .987.564.987 1.258zm35.127 0v13.224c0 .684-.445 1.248-.987 1.248h-15.514c-.551 0-.978-.564-.978-1.248V150.92c0-.694.426-1.258.978-1.258h15.514c.542 0 .987.564.987 1.258zm-70.246 32.093v13.224c0 .684-.445 1.248-.987 1.248H69.319c-.55 0-.987-.564-.987-1.248v-13.224c0-.694.436-1.258.987-1.258h15.515c.542 0 .987.564.987 1.258zm35.118 0v13.224c0 .684-.444 1.248-.987 1.248h-15.505c-.551 0-.987-.564-.987-1.248v-13.224c0-.694.436-1.258.987-1.258h15.505c.543 0 .987.564.987 1.258zm35.128 0v13.224c0 .684-.445 1.248-.987 1.248h-15.514c-.551 0-.978-.564-.978-1.248v-13.224c0-.694.426-1.258.978-1.258h15.514c.542 0 .987.564.987 1.258z" class="colorF0F2F2 svgShape"/><path fill="#fe8e00" d="M85.82 215.106v13.224c0 .684-.444 1.247-.986 1.247H69.319c-.55 0-.987-.563-.987-1.247v-13.224c0-.694.436-1.258.987-1.258h15.515c.542 0 .987.564.987 1.258z" class="colorFE8E00 svgShape"/><path fill="#98cb61" d="M120.94 215.106v13.224c0 .684-.445 1.247-.988 1.247h-15.505c-.551 0-.987-.563-.987-1.247v-13.224c0-.694.436-1.258.987-1.258h15.505c.543 0 .987.564.987 1.258z" class="color98CB61 svgShape"/><path fill="#ec5352" d="M156.067 215.106v13.224c0 .684-.445 1.247-.987 1.247h-15.514c-.551 0-.978-.563-.978-1.247v-13.224c0-.694.426-1.258.978-1.258h15.514c.542 0 .987.564.987 1.258z" class="colorEC5352 svgShape"/><path fill="#9fa3a6" d="M171.917 85.257h11.573v144.671h-11.573z" class="color9FA3A6 svgShape"/><path fill="#fff" d="M237.824 64.575c0 11.084-6.665 20.61-16.202 24.774l-10.808 14.03-10.82-14.03c-9.547-4.164-16.212-13.69-16.212-24.774 0-14.92 12.102-27.01 27.032-27.01 14.92 0 27.01 12.09 27.01 27.01z" class="colorFFF svgShape"/><path fill="#fff" d="M228.453 63.48c0 9.745-7.914 17.642-17.658 17.642s-17.642-7.897-17.642-17.642c0-9.76 7.897-17.658 17.642-17.658s17.658 7.897 17.658 17.658z" class="colorFFF svgShape"/><path fill="#98cb61" d="M207.836 69.599a.997.997 0 0 1-.707-.293l-2.437-2.436a1 1 0 1 1 1.414-1.414l1.73 1.729 8.895-8.896a1 1 0 1 1 1.414 1.414l-9.602 9.603a.997.997 0 0 1-.707.293z" class="color98CB61 svgShape"/><g fill="#000" class="color54607B svgShape"><path d="M30.188 225.7c0-3.527 6.895-3.323 7.35-.14.059.314.35.49.61.49 1.144-.038 1.345.095 1.59-.15.601-.668-.624-4.16-4.86-4.69-.133-.814.358-2.27-.54-2.27-.444.069-1.44-.257-1.44.57v1.68c-5.745.545-6.557 6.246-2.8 8.3 3.135 1.714 7.95 1.643 7.95 4.44 0 3.66-7.628 3.748-8.34.24-.12-.32-.33-.48-.64-.48-1.106.03-1.317-.083-1.54.14-.43.477.192 1.869.55 2.41 1.037 1.544 2.966 2.237 4.82 2.4.072 2.442-.373 2.193 1.44 2.27.897 0 .406-1.425.54-2.24 5.606-.459 6.367-4.913 4.93-7.05-2.155-3.15-9.62-2.315-9.62-5.92z" class="color000 svgShape"/><path d="M254.338 95.64h-33.08c-.55 0-1 .44-1 1 0 .55.45 1 1 1h33.08c1.16 0 2.11.94 2.11 2.11V218.6c0 1.17-.95 2.11-2.11 2.11h-69.85V84.26h-11.57V59.75c0-3.62-2.74-6.56-6.11-6.56h-11.33c-.56 0-1 .44-1 1 0 .55.44 1 1 1h11.33c2.27 0 4.11 2.04 4.11 4.56v9.72H53.488v-9.72c0-2.52 1.84-4.56 4.1-4.56h16.13v3.05h-4.79c-.55 0-1 .44-1 1v4.91c0 .55.45 1 1 1h86.55c.55 0 1-.45 1-1v-4.91c0-.56-.45-1-1-1h-5.37V24.73c0-.56-.45-1-1-1-.56 0-1 .44-1 1v38.42h-72.39V13.87c0-4.34 3.53-7.87 7.87-7.87h.36c3.57 1.38 5.91 4.04 6.42 7.3.42 2.67-.43 5.29-2.18 6.68a.999.999 0 0 0 .62 1.78h90.75c.23 0 .45-.08.62-.22 2.45-1.95 3.41-6.32 2.24-10.15-1.33-4.32-4.88-7.01-9.82-7.39h-89.01c-5.44 0-9.87 4.43-9.87 9.87v39.32h-16.13c-3.36 0-6.1 2.94-6.1 6.56v150.97a25.903 25.903 0 0 0-17.6-6.87c-14.38 0-26.08 11.7-26.08 26.08s11.7 26.08 26.08 26.08c6.78 0 12.96-2.6 17.6-6.87v6.31c0 3.61 2.74 6.55 6.1 6.55h109.22c3.37 0 6.11-2.94 6.11-6.55v-24.52h11.57v-8.22h69.85a4.11 4.11 0 0 0 4.11-4.11V99.75a4.11 4.11 0 0 0-4.11-4.11zm-104.23-35.4h4.37v2.91h-4.37v-2.91zm-76.39 2.91h-3.79v-2.91h3.79v2.91zM172.518 6c5.48.42 7.35 3.92 7.98 5.97.9 2.9.31 6.23-1.31 7.79h-88.16c1.2-1.86 1.7-4.31 1.32-6.77-.45-2.8-1.96-5.22-4.28-6.99h84.45zM33.888 254.01c-13.27 0-24.08-10.81-24.08-24.08 0-13.28 10.81-24.08 24.08-24.08 6.94 0 13.21 2.95 17.6 7.67v32.82a23.98 23.98 0 0 1-17.6 7.67zm137.03 1.44c0 2.51-1.84 4.55-4.11 4.55H57.588c-2.26 0-4.1-2.04-4.1-4.55v-8.34c.4-.45.78-.91 1.13-1.39h116.3v9.73zm0-11.73H53.488V71.47h117.43v172.25zm11.57-14.79h-9.57V86.26h9.57v142.67z" class="color000 svgShape"/><path d="M201.688 190.9c-1.31 0-2.38 1.07-2.38 2.39v19.25c0 1.32 1.07 2.39 2.38 2.39h12.55a2.39 2.39 0 0 0 2.39-2.39v-19.25a2.39 2.39 0 0 0-2.39-2.39h-12.55zm12.94 2.39v19.25c0 .22-.17.39-.39.39h-12.55c-.21 0-.38-.17-.38-.39v-19.25c0-.21.17-.39.38-.39h12.55c.22 0 .39.17.39.39zm11.183 20.01a1 1 0 1 0 2 0v-22.03a1 1 0 1 0-2 0v22.03zm0-28.74a1 1 0 1 0 2 0v-22.03a1 1 0 1 0-2 0v22.03zm0-28.741a1 1 0 1 0 2 0v-22.03a1 1 0 1 0-2 0v22.03zm1-27.741a1 1 0 0 0 1-1v-22.03a1 1 0 1 0-2 0v22.03a1 1 0 0 0 1 1zm15.887 5.402c4.79 0 8.69-3.9 8.69-8.69 0-1.7-.5-3.3-1.35-4.64a8.66 8.66 0 0 0 1.35-4.64c0-4.79-3.9-8.68-8.69-8.68-4.79 0-8.69 3.89-8.69 8.68 0 1.7.5 3.3 1.35 4.64a8.66 8.66 0 0 0-1.35 4.64c0 4.79 3.9 8.69 8.69 8.69zm-6.69-17.97c0-3.69 3-6.68 6.69-6.68s6.69 2.99 6.69 6.68c0 1.07-.25 2.08-.71 2.98-1.56-1.47-3.67-2.38-5.98-2.38s-4.42.91-5.98 2.38c-.46-.9-.71-1.91-.71-2.98zm6.69 2.6c3.756 0 6.69 3.07 6.69 6.68 0 3.69-3 6.69-6.69 6.69s-6.69-3-6.69-6.69c0-3.609 2.933-6.68 6.69-6.68zm-84.44-39.45h-92.12c-3.42 0-6.2 2.98-6.2 6.65v44.99c0 3.67 2.78 6.66 6.2 6.66h92.12c3.42 0 6.2-2.99 6.2-6.66V85.31c0-3.67-2.78-6.65-6.2-6.65zm4.2 51.64c0 2.57-1.88 4.66-4.2 4.66h-92.12c-2.31 0-4.2-2.09-4.2-4.66V85.31c0-2.56 1.89-4.65 4.2-4.65h92.12c2.32 0 4.2 2.09 4.2 4.65v44.99zm-77.62 18.36h-15.52c-1.11 0-1.99.99-1.99 2.26v13.22c0 1.26.88 2.25 1.99 2.25h15.52c1.09 0 1.98-1.01 1.98-2.25v-13.22c0-1.24-.89-2.26-1.98-2.26zm-.02 15.48c0 .12-.03.21-.06.25h-15.36a.438.438 0 0 1-.07-.25v-13.22c0-.12.04-.21.07-.26h15.36c.03.05.06.14.06.26v13.22zm35.13-15.48h-15.5c-1.12 0-1.99.99-1.99 2.26v13.22c0 1.24.89 2.25 1.99 2.25h15.5c1.1 0 1.99-1.01 1.99-2.25v-13.22c0-1.24-.89-2.26-1.99-2.26zm-.01 15.48c0 .12-.04.21-.06.25h-15.36a.56.56 0 0 1-.06-.25v-13.22c0-.12.04-.21.07-.26h15.34c.03.05.07.14.07.26v13.22zm35.14-15.48h-15.51c-1.11 0-1.98.99-1.98 2.26v13.22c0 1.26.87 2.25 1.98 2.25h15.51c1.1 0 1.99-1.01 1.99-2.25v-13.22c0-1.24-.89-2.26-1.99-2.26zm-.01 15.48c0 .12-.04.21-.07.25h-15.35a.45.45 0 0 1-.06-.25v-13.22c0-.12.03-.21.06-.26h15.35c.03.05.07.14.07.26v13.22zm-70.23 16.62h-15.52c-1.11 0-1.99.99-1.99 2.25v13.23c0 1.26.88 2.24 1.99 2.24h15.52c1.09 0 1.98-1 1.98-2.24v-13.23c0-1.24-.89-2.25-1.98-2.25zm-.02 15.48c0 .11-.03.2-.06.24h-15.36a.427.427 0 0 1-.07-.24v-13.23c0-.12.04-.21.07-.25h15.36c.03.04.06.13.06.25v13.23zm35.13-15.48h-15.5c-1.12 0-1.99.99-1.99 2.25v13.23c0 1.24.89 2.24 1.99 2.24h15.5c1.1 0 1.99-1 1.99-2.24v-13.23c0-1.24-.89-2.25-1.99-2.25zm-.01 15.48c0 .11-.04.2-.06.24h-15.36a.548.548 0 0 1-.06-.24v-13.23c0-.12.04-.21.07-.25h15.34c.03.04.07.13.07.25v13.23zm35.14-15.48h-15.51c-1.11 0-1.98.99-1.98 2.25v13.23c0 1.26.87 2.24 1.98 2.24h15.51c1.1 0 1.99-1 1.99-2.24v-13.23c0-1.24-.89-2.25-1.99-2.25zm-.01 15.48c0 .11-.04.2-.07.24h-15.35a.437.437 0 0 1-.06-.24v-13.23c0-.12.03-.21.06-.25h15.35c.03.04.07.13.07.25v13.23zm-70.23 16.61h-15.52c-1.11 0-1.99.99-1.99 2.26v13.22c0 1.26.88 2.25 1.99 2.25h15.52c1.09 0 1.98-1.01 1.98-2.25v-13.22c0-1.25-.89-2.26-1.98-2.26zm-.02 15.48c0 .12-.03.2-.06.25h-15.36a.466.466 0 0 1-.07-.25v-13.22c0-.13.04-.22.07-.26h15.36c.03.04.06.13.06.26v13.22zm35.13-15.48h-15.5c-1.12 0-1.99.99-1.99 2.26v13.22c0 1.24.89 2.25 1.99 2.25h15.5c1.1 0 1.99-1.01 1.99-2.25v-13.22c0-1.25-.89-2.26-1.99-2.26zm-.01 15.48c0 .12-.04.2-.06.25h-15.36c-.02-.05-.06-.13-.06-.25v-13.22c0-.13.04-.22.07-.26h15.34c.03.04.07.13.07.26v13.22zm35.14-15.48h-15.51c-1.11 0-1.98.99-1.98 2.26v13.22c0 1.26.87 2.25 1.98 2.25h15.51c1.1 0 1.99-1.01 1.99-2.25v-13.22c0-1.25-.89-2.26-1.99-2.26zm-.01 15.48c0 .12-.04.2-.07.25h-15.35a.478.478 0 0 1-.06-.25v-13.22c0-.13.03-.22.06-.26h15.35c.03.04.07.13.07.26v13.22zM99.963 30.31h-12.58a1 1 0 1 0 0 2h12.58a1 1 0 1 0 0-2zm0 8.008h-12.58a1 1 0 1 0 0 2h12.58a1 1 0 1 0 0-2zm0 8.009h-12.58a1 1 0 1 0 0 2h12.58a1 1 0 1 0 0-2zm-.005 8.013h-12.58c-.5 0-.91.36-.98.85-.02.05-.02.1-.02.15 0 .55.45 1 1 1h12.58c.56 0 1-.45 1-1 0-.05 0-.1-.01-.15a.985.985 0 0 0-.99-.85zm42.271-24.03h-32.706a1 1 0 1 0 0 2h32.706a1 1 0 1 0 0-2zm0 8.008h-32.706a1 1 0 1 0 0 2h32.706a1 1 0 1 0 0-2zm0 8.009h-32.706a1 1 0 1 0 0 2h32.706a1 1 0 1 0 0-2zm0 8.013h-32.7c-.51 0-.92.36-.98.85-.02.05-.02.1-.02.15 0 .55.44 1 1 1h32.7c.55 0 1-.45 1-1 0-.05 0-.1-.01-.15a1 1 0 0 0-.99-.85zm57.13 35.82 4.22 5.48h-13.88c-.55 0-1 .44-1 1 0 .55.45 1 1 1h15.43l4.89 6.35c.19.25.49.39.8.39s.6-.14.79-.39l10.65-13.83a28.028 28.028 0 0 0 16.57-25.58c0-15.45-12.57-28.02-28.01-28.02-15.46 0-28.04 12.57-28.04 28.02 0 11.06 6.5 21.07 16.58 25.58zm11.46-51.6c14.34 0 26.01 11.67 26.01 26.02 0 10.35-6.13 19.71-15.61 23.85-.15.07-.28.18-.39.31-14.002 18.191-5.295 6.875-10.01 13-9.02-11.681-5.675-7.354-10.03-13-.1-.13-.24-.24-.39-.31a26.005 26.005 0 0 1-15.62-23.85c0-14.35 11.68-26.02 26.04-26.02z" class="color000 svgShape"/><path d="M210.798 82.12c10.28 0 18.65-8.36 18.65-18.64 0-10.29-8.37-18.66-18.65-18.66s-18.65 8.37-18.65 18.66c0 10.28 8.37 18.64 18.65 18.64zm0-35.3c9.18 0 16.65 7.47 16.65 16.66 0 9.18-7.47 16.64-16.65 16.64s-16.65-7.46-16.65-16.64c0-9.19 7.47-16.66 16.65-16.66zM8.812 138.115a1.26 1.26 0 0 0 1.26-1.26v-8.25a1.26 1.26 0 1 0-2.52 0v8.25c0 .696.564 1.26 1.26 1.26zm0-14.185a1.26 1.26 0 0 0 1.26-1.26v-4.97a1.26 1.26 0 1 0-2.52 0v4.972c0 .695.564 1.26 1.26 1.26zM202.53 243.313a1.26 1.26 0 0 0-1.26 1.26v8.25a1.26 1.26 0 1 0 2.52 0v-8.25a1.26 1.26 0 0 0-1.26-1.26zm0-10.906a1.26 1.26 0 0 0-1.26 1.26v4.972a1.26 1.26 0 1 0 2.52 0v-4.972a1.26 1.26 0 0 0-1.26-1.26zm32.48-194.055a1.26 1.26 0 0 0 1.26-1.26v-8.25a1.26 1.26 0 1 0-2.52 0v8.25c0 .696.563 1.26 1.26 1.26zm0-14.184a1.26 1.26 0 0 0 1.26-1.26v-4.972a1.26 1.26 0 1 0-2.52 0v4.972c0 .696.563 1.26 1.26 1.26zM33.89 56.66a1.26 1.26 0 0 0 1.26-1.26v-8.25a1.26 1.26 0 1 0-2.52 0v8.25c0 .696.564 1.26 1.26 1.26zm0-14.184a1.26 1.26 0 0 0 1.26-1.26v-4.972a1.26 1.26 0 1 0-2.52 0v4.972c0 .696.564 1.26 1.26 1.26z" class="color000 svgShape"/></g></svg></svg>